<?xml version="1.0" encoding="UTF-8" standalone="no"?>
<!DOCTYPE svg PUBLIC "-//W3C//DTD SVG 1.1//EN" "http://www.w3.org/Graphics/SVG/1.1/DTD/svg11.dtd">
<svg width="100%" height="100%" viewBox="0 0 256 256" version="1.1" xmlns="http://www.w3.org/2000/svg" xmlns:xlink="http://www.w3.org/1999/xlink" xml:space="preserve" xmlns:serif="http://www.serif.com/" style="fill-rule:evenodd;clip-rule:evenodd;stroke-linejoin:round;stroke-miterlimit:2;">
    <g transform="matrix(1.17673,0,0,1.17673,-22.6212,-2.89799)">
        <path d="M128,69.365C159.824,56.815 192.806,54.31 226.392,57.032L226.392,194.673C188.3,191.7 156.928,192.959 132.741,198.741L128,199.958L123.259,198.741C99.072,192.959 67.7,191.7 29.608,194.673L29.608,57.032C63.194,54.31 96.176,56.815 128,69.365Z" style="fill:url(#_Linear1);"/>
        <path d="M128.002,65.811C143.749,59.633 159.785,55.867 176.043,53.933C192.72,51.95 209.63,51.905 226.703,53.192L230.244,53.479L230.244,57.032C230.244,57.032 230.374,91.442 230.731,125.852C231.088,160.267 231.671,194.673 231.671,194.673L231.671,200.38L225.981,199.936C209.15,198.853 193.663,198.625 179.546,199.168C162.339,199.831 147.203,201.687 134.32,204.892L129.584,206.129L128,206.535C128,206.535 121.678,204.901 121.78,204.926C108.794,201.708 93.658,199.87 76.452,199.22C62.338,198.687 46.852,198.924 30.025,200.017L24.248,200.468L24.248,194.673C24.248,194.673 24.807,160.267 25.159,125.852C25.512,91.442 25.658,57.032 25.658,57.032L25.658,53.389L29.289,53.095C46.368,51.826 63.282,51.89 79.962,53.89C96.221,55.84 112.258,59.619 128.002,65.811ZM222.524,60.585C207.154,59.423 191.912,59.406 176.848,61.031C160.742,62.767 144.842,66.371 129.212,72.438L128,72.916L126.788,72.438C111.155,66.385 95.253,62.794 79.147,61.073C64.115,59.467 48.907,59.499 33.576,60.672C33.623,70.397 33.773,98.125 34.057,125.852C34.322,151.725 34.704,177.593 34.877,188.841C53.738,187.301 70.918,186.834 86.362,187.56C100.638,188.23 113.44,189.941 124.788,192.569L128.007,193.387L131.265,192.566C142.563,189.961 155.365,188.264 169.64,187.605C185.108,186.891 202.317,187.369 221.207,188.926C221.386,177.724 221.784,151.791 222.052,125.852C222.341,98.042 222.481,70.232 222.524,60.585Z"/>
    </g>
    <g transform="matrix(0.881368,0,0,1.17673,15.0111,-27.9832)">
        <path d="M128,220.699C105.002,213.385 105.05,191.856 31.338,194.673L31.338,43.957C85.07,42.387 97.675,56.551 128.865,69.008C160.054,56.551 172.659,42.387 226.392,43.957L226.392,194.673C152.68,191.856 152.728,213.385 129.729,220.699L129.729,221.276L128.865,220.988L128,221.276L128,220.699Z" style="fill:url(#_Linear2);"/>
        <path d="M123.586,222.814C117.52,220.516 112.855,217.288 107.774,213.832C101.585,209.622 94.655,205.062 82.517,201.997C71.141,199.125 55.32,197.58 31.607,198.631L26.047,198.843L26.047,194.673C26.047,194.673 25.422,156.995 25.565,119.315C25.709,81.632 26.621,43.957 26.621,43.957L26.621,40.56L31.154,40.427C49.424,40.085 63.048,41.477 74.268,43.922C96.139,48.687 108.734,57.575 128.867,66.003C149.007,57.595 161.615,48.729 183.481,43.977C194.698,41.539 208.313,40.145 226.572,40.489L231.026,40.619L231.026,43.957C231.026,43.957 232.054,81.631 232.245,119.315C232.436,156.994 231.789,194.673 231.789,194.673L231.789,198.927L226.117,198.71C202.421,197.654 186.612,199.194 175.241,202.058C163.111,205.113 156.18,209.659 149.991,213.861C144.905,217.313 140.236,220.539 134.166,222.835L134.166,226.393L128.851,224.615L123.581,226.372L123.586,222.814ZM221.673,47.283C201.513,46.809 187.575,48.77 176.051,52.151C159.647,56.963 148.027,64.461 130.517,71.329L128.865,71.989L127.212,71.329C109.693,64.481 98.056,57.005 81.65,52.203C70.145,48.836 56.239,46.874 36.13,47.343C36.355,57.407 36.992,88.358 37.11,119.315C37.225,149.576 36.845,179.835 36.689,190.579C59.108,190.201 74.452,192.125 85.697,195.119C99.339,198.751 107.117,203.933 114.006,208.779C118.718,212.094 122.918,215.262 128.826,217.352C134.762,215.259 138.967,212.079 143.688,208.75C150.576,203.894 158.354,198.701 172.005,195.058C183.236,192.061 198.558,190.135 220.931,190.499C220.77,179.684 220.386,149.5 220.539,119.315C220.696,88.293 221.42,57.279 221.673,47.283Z"/>
    </g>
    <g transform="matrix(-1.17673,-1.44108e-16,8.41178e-17,-0.686874,279.885,273.161)">
        <path d="M126.194,66.126C126.572,64.584 127.463,63.499 128.5,63.499C129.529,63.499 130.413,64.566 130.796,66.089L137.982,67.782C137.982,67.782 130.472,69.873 130.114,88.114C130.074,90.152 130.011,90.444 129.939,89.612L129.735,94.603C129.008,113.282 128.5,134.834 128.5,134.834C128.5,134.834 127.992,113.282 127.265,94.603C127.122,90.931 126.969,87.378 126.82,84.124C125.547,69.559 119.165,67.782 119.165,67.782L126.194,66.126Z"/>
    </g>
    <g transform="matrix(1.17673,0,0,0.697324,-22.7081,3.61534)">
        <path d="M129.157,66.091L129.148,65.701L137.982,67.782C137.982,67.782 130.472,69.873 130.114,88.114C130.074,90.152 130.011,90.444 129.939,89.612L129.735,94.603C129.008,113.282 128.5,134.834 128.5,134.834C128.5,134.834 127.992,113.282 127.265,94.603C127.122,90.931 126.969,87.379 126.82,84.124C125.547,69.559 119.165,67.782 119.165,67.782L128,65.701L127.991,66.069C128.376,66.019 128.778,66.026 129.157,66.091Z"/>
    </g>
    <g transform="matrix(0.544846,0,0,0.544846,25.6294,26.65)">
        <path d="M104.26,279.309L104.26,92.146L71.496,92.146L71.496,66.804L159.14,66.804L159.14,92.144L126.376,92.146L126.376,279.309L104.26,279.309Z"/>
    </g>
    <g transform="matrix(0.515619,0,0,0.544846,54.1474,26.6489)">
        <path d="M242.188,66.942C259.654,68.302 268.504,79.852 268.504,101.33L268.504,129.131L247.379,129.131L247.379,109.174C247.379,98.671 241.346,92.147 231.631,92.147L213.759,92.147C203.899,92.147 198.009,98.512 198.009,109.174L198.009,236.938C198.009,247.601 203.899,253.966 213.759,253.966L231.629,253.966C241.491,253.966 247.379,247.601 247.379,236.939L247.379,193.575L230.499,193.575L230.499,168.23L268.503,168.23L268.503,244.785C268.503,267.695 258.435,279.309 238.579,279.309L205.817,279.309C195.943,279.309 188.452,276.504 183.552,270.972C178.469,265.237 175.892,256.426 175.892,244.783L175.892,101.33C175.892,89.687 178.469,80.876 183.552,75.14C188.45,69.61 195.942,66.806 205.816,66.806L238.58,66.806L242.188,66.942Z"/>
    </g>
    <defs>
        <linearGradient id="_Linear1" x1="0" y1="0" x2="1" y2="0" gradientUnits="userSpaceOnUse" gradientTransform="matrix(-196.783,2.4099e-14,-2.4099e-14,-196.783,226.392,128)"><stop offset="0" style="stop-color:rgb(233,233,233);stop-opacity:1"/><stop offset="0.5" style="stop-color:rgb(93,93,93);stop-opacity:1"/><stop offset="1" style="stop-color:rgb(231,231,231);stop-opacity:1"/></linearGradient>
        <linearGradient id="_Linear2" x1="0" y1="0" x2="1" y2="0" gradientUnits="userSpaceOnUse" gradientTransform="matrix(195.054,0,0,146.095,31.3377,126.556)"><stop offset="0" style="stop-color:white;stop-opacity:1"/><stop offset="0.31" style="stop-color:rgb(246,246,246);stop-opacity:1"/><stop offset="0.41" style="stop-color:rgb(226,226,226);stop-opacity:1"/><stop offset="0.5" style="stop-color:rgb(204,204,204);stop-opacity:1"/><stop offset="0.59" style="stop-color:rgb(226,226,226);stop-opacity:1"/><stop offset="0.69" style="stop-color:rgb(247,247,247);stop-opacity:1"/><stop offset="1" style="stop-color:white;stop-opacity:1"/></linearGradient>
    </defs>
</svg>
