<svg viewBox="0 0 32 32" xmlns="http://www.w3.org/2000/svg" fill-rule="evenodd" clip-rule="evenodd" stroke-linejoin="round" stroke-miterlimit="2"><path d="M16.011 2.557c-7.354 0-13.326 5.956-13.326 13.292 0 7.336 5.972 13.292 13.326 13.292 7.355 0 13.326-5.956 13.326-13.292 0-7.336-5.97-13.292-13.326-13.292zm0 1.55c6.497 0 11.771 5.261 11.771 11.742 0 6.48-5.274 11.74-11.77 11.74-6.497 0-11.771-5.26-11.771-11.74S9.515 4.108 16.01 4.108z" fill="#fff"/><path d="M5.54 18.463l2.462.686c.08.192.166.381.26.566l-.454-.035-.694 1.094 1.461-.487.036.06.046.073-.039-.002-.694 1.093 1.21-.402c.073.093.146.185.222.275l-.342 1.347.956-.687.064.062.11.101-.32 1.26.988-.707.02.015.152.109.162 2.566c-.29-.144-.57-.3-.843-.47l.567-1.163-1.358.625c-.3-.225-.589-.466-.862-.72l-.087-.148.208-1.502-.919.828-.163-.193-.107-.132.872-.672-1.398-.04a10.702 10.702 0 01-.54-.892l-.022-.31.853-1.254-1.38.387a10.524 10.524 0 01-.427-1.331zm18.116 4.841c-.325.336-.67.649-1.034.938l-.465-.572-.003.924c-.469.332-.964.627-1.48.88l-.983-.631.29.942c-.125.051-.251.1-.378.146l-.199-.872-.557 1.116c-.362.103-.73.187-1.105.25l-.288-.108-.78-1.301-.251 1.552c-.372.017-.748.014-1.124-.008l1.427-2.142c.29-.026.577-.068.862-.123l-.082.143.706 1.087.157-1.422.167-.05.005-.003.682 1.049.15-1.362.126-.056.023-.01h.086l1.18.951-.267-1.377h.098l1.18.952-.28-1.44 2.137.547zm-2.494-.619l.018-.014.029.007-.047.007zM10.168 6.889l.1 2.388-1.117-.425.622 1.08c-.072.075-.144.15-.215.228l-.97-.37.523.908c-.114.148-.222.3-.327.457l-1.178-.057.78.721c-.05.09-.097.182-.143.275l-1.2-.057.872.806-.074.201-.03.092-2.434.963c.054-.327.126-.65.213-.975l.06-.215.114.286 1.289.139-1.155-1.172c.091-.245.19-.484.298-.72l.3-.361 1.483-.315-1.098-.587.142-.22.092-.132.916.584-.413-1.255c.291-.357.603-.692.934-1.007l1.45.37-.718-1.002c.284-.224.579-.434.884-.628zm15.282 4.084c.172.33.326.669.463 1.016l-.93.41 1.19.33c.145.461.258.934.339 1.414l-1.054.944 1.165-.036c.01.139.018.278.025.418l-1.058-.048 1.055.946c-.014.292-.038.586-.076.879l-.285.389-1.461.406 1.446.662.016-.032c-.086.319-.186.63-.3.935L24.36 17.56l.02-.095.023-.134.335.325 1.235-.398-1.483-.577.007-.072.008-.116.082.08 1.235-.399-1.298-.504-.004-.12v-.045l.019-.073 1.227-.891-1.363-.095-.017-.092.002-.005 1.227-.892-1.475-.103-.016-.053-.052-.156 1.379-2.171zm-6.81-5.425l.073.019c.126.033.252.07.377.11l-.033.003-.466 1.209 1.498-.852.167.07.102.047.554.778-.062 1.219-.573.212.115-1.107-.86.856-.134-.061-.166-.07.105-1.024-.781.777c-.13-.04-.26-.08-.394-.116l-.073-.018-.273-1.25-.57 1.076-.157-.023-.033-.004-.294-1.349-.676 1.277h-.032l-1.668-2.012c.341-.05.686-.084 1.033-.1l-.006.004.12 1.29.874-1.297c.256.011.512.031.77.062l.454.243.601 1.391.409-1.36zm2.63 1.07c.465.265.904.563 1.316.889l-1.338.496.672-.72-.65-.665zm-5.336 7.638c-.946 0-1.714.766-1.714 1.71 0 .943.768 1.708 1.714 1.708s1.714-.765 1.714-1.709c0-.943-.768-1.709-1.714-1.709zm0 2.068a.36.36 0 110-.718.36.36 0 010 .718zm-11.171.896l20.24-7.812c.4-.153.6-.603.444-1.002a.78.78 0 00-1.006-.444L4.202 15.775a.774.774 0 00-.444 1.002c.154.4.605.598 1.005.444z" fill="#fff"/><path d="M13.933 27.04L12.479 4.89a.776.776 0 00-.827-.723.776.776 0 00-.725.824l1.454 22.151a.776.776 0 001.552-.102z" fill="#fff"/><path d="M26.538 21.914L12.306 4.452a.78.78 0 00-1.094-.113.773.773 0 00-.113 1.09l14.233 17.463c.27.332.76.383 1.093.112a.773.773 0 00.113-1.09z" fill="#fff"/><path d="M4.28 17.384l21.453 5.768a.774.774 0 10.404-1.497L4.685 15.887a.776.776 0 10-.404 1.497z" fill="#fff"/><path d="M13.81 27.51L25.96 8.668a.773.773 0 00-.233-1.07.778.778 0 00-1.074.232l-12.15 18.843a.775.775 0 00.233 1.071.779.779 0 001.074-.232z" fill="#fff"/></svg>