<svg viewBox="0 0 32 32" xmlns="http://www.w3.org/2000/svg" fill-rule="evenodd" clip-rule="evenodd" stroke-linejoin="round" stroke-miterlimit="2"><path d="M-17.016 7.98s.147 3.67.147 7.342c0 3.673-.147 7.343-.147 7.343a1 1 0 002 0s-.146-3.67-.146-7.343c0-3.672.146-7.342.146-7.342a1 1 0 00-2 0zM9.21 12.766C7.28 9.61 5.68 7.308 5.68 7.308a3.191 3.191 0 011.413-4.296 3.22 3.22 0 014.317 1.406s1.016 2.914 2.556 6.575c.157.37.317.75.484 1.133a33.246 33.246 0 011.55-.033c6.967 0 12.612 1.916 12.625 4.277a6.011 6.011 0 01-.26 1.817c-.683 4.793-4.75 11.209-12.296 11.146-8.288-.068-12.535-7.249-12.687-12.669l-.008-.268a.651.651 0 01.014-.2c.187-1.441 2.46-2.699 5.82-3.43zm.797 1.317c-2.274.594-3.728 1.509-3.619 2.513.263 2.416 4.93 4.359 9.612 4.448 3.725.071 9.847-1.691 9.768-4.448-.051-1.775-4.342-3.22-9.69-3.22-.36 0-.717.007-1.067.02.28.621.578 1.246.893 1.864.21.41.429.814.65 1.213 2.3-.552 7.13-.38 7.632-.2.246.088.74.253-.544 1.214-3.022 2.263-10.43 2.522-13.88.701-1.38-.728-2.633-1.62-2.138-2.188 0 0 1.844.405 3.852.661a60.246 60.246 0 00-1.47-2.578zM7.119 6.979s2.906 4.127 5.963 10.138c.164.324 1.398.566 1.243.25-3.279-6.642-6.557-11.294-6.557-11.294a.645.645 0 00-.895-.156c-.29.202.042.774.246 1.062zM52.561 37.261c4.175 1.776 7.106 5.918 7.106 10.739 0 6.163-4.79 11.217-10.848 11.635l1.841-2.348c4.045-1.15 7.007-4.875 7.007-9.287a9.643 9.643 0 00-5.435-8.68l.329-2.059zm-6.109-.822l-2.045 2.593A9.658 9.658 0 0038.333 48a9.644 9.644 0 005.33 8.629l-.59 1.945c-3.98-1.856-6.74-5.895-6.74-10.574 0-5.914 4.411-10.807 10.119-11.561zm.026 21.096l.431.066-.728.914.297-.98zm2.869-19.097l-.359-.055-.501-.025 1.096-1.39-.236 1.47zM53.552 28.055l-1.555 1.572a.887.887 0 01-1.264 0L37.182 15.932l-.42.425a.887.887 0 01-1.264 0l-1.075-1.086a.91.91 0 010-1.278L46.04 2.254a.887.887 0 011.264 0l1.074 1.086a.91.91 0 010 1.277l-.42.425 13.551 13.695a.91.91 0 010 1.277l-1.88 1.901-1.571-1.587a.356.356 0 00-.124-.094l1.22-1.233c.206-.208.786-.049.58-.258a.523.523 0 00-.747 0l-8.093 8.18a.538.538 0 00-.001.755c.207.208-.038-.29.168-.497l.826-.835c.014.033.045.07.095.122l1.571 1.587zm-16.854-12.72L47.401 4.518c.262-.264.385-.568.276-.679-.109-.11-.262.165-.523.43L36.45 15.085c-.26.264-.533.419-.424.529.109.11.41-.016.671-.28zm13.574 11.271l8.247-8.335L46.693 6.32l-8.247 8.335 11.826 11.952zM42.006 8.672l2.495-2.52a.537.537 0 000-.754.523.523 0 00-.747 0l-2.494 2.52a.537.537 0 000 .754c.207.209.54.209.746 0zm13.778 13.734l1.43-1.446c.015.034.046.071.096.122l1.57 1.587-1.402 1.418-1.57-1.587a.356.356 0 00-.124-.094zm-3.18 3.214l2.462-2.487c.013.033.044.07.095.122l1.57 1.587L54.3 27.3l-1.57-1.587a.353.353 0 00-.124-.093zM37.986 12.736l2.494-2.52a.538.538 0 000-.754.524.524 0 00-.747 0l-2.493 2.52a.538.538 0 000 .755c.206.208.54.208.746 0z" fill="#fff"/></svg>