<svg viewBox="0 0 32 32" xmlns="http://www.w3.org/2000/svg" fill-rule="evenodd" clip-rule="evenodd" stroke-linecap="round" stroke-linejoin="round" stroke-miterlimit="5"><path d="M-15.69 8.852c3.02-1.958 7.309-4.454 9.655-5.444.934-.394 1.653-.536 2-.495A1.22 1.22 0 01-2.924 4.11c.012.324-.156 1.01-.548 1.91-1.01 2.323-3.455 6.597-5.382 9.621l.046 4.527c.002.213-.061.423-.18.6l-3.329 4.923a1.052 1.052 0 01-1.91-.763l.79-4.75c-.319.08-.646.129-.976.147-1.565-2.35-3.54-4.314-5.914-5.907.018-.332.067-.661.148-.981l-4.75.79a1.053 1.053 0 01-.763-1.912l4.923-3.328c.177-.119.386-.182.6-.18l4.479.045zm2.29 8.66l-4.014-4.016c-.295-.294-1.146-.407-1.065 0 .015.075.028.298.234.388 1.407.609 3.902 3.387 4.483 4.477.112.21.318.225.362.215.404-.098.294-.77 0-1.065zm5.527-9.639a2.437 2.437 0 01-3.446 3.445 2.437 2.437 0 013.446-3.445zm-.747.747a1.38 1.38 0 11-1.953 1.95A1.38 1.38 0 01-8.62 8.62z" fill="#fff"/><path d="M144 133.333c5.337 3.677 8.046 3.686 10.735 3.686 0 16.26-10.334 17.648-10.735 17.648-.401 0-10.733-1.335-10.733-17.214 2.754 0 5.334-.418 10.733-4.12z" fill="none" stroke="#fff" stroke-width="1.86" transform="matrix(.99376 0 0 1.1459 -127.102 -149.009)"/><path d="M23.471 16c-1.738 7.984-7.222 9.968-7.472 9.968v-9.063a.904.904 0 01.904-.904h6.568zM16 6.834v8.264a.904.904 0 01-.904.904H8.553c-.341-1.543-.545-3.31-.553-5.333 2.052 0 3.975-.653 8-3.835zM44.141 18.432c-.393 3.07-2.365 4.478-4.141 4.478-1.777 0-3.748-1.409-4.141-4.478h8.282zm-7.304.964s.351 2.683 2.73 2.683a.432.432 0 000-.864c-1.668 0-1.873-1.923-1.873-1.923a.432.432 0 00-.857.104zm7.213-3.262h-1.037l-2.46-6.621a.59.59 0 00-1.106 0l-2.46 6.62h-1.038l2.302-6.904a1.845 1.845 0 013.498 0l2.301 6.905z" fill="#fff"/></svg>