<svg xmlns="http://www.w3.org/2000/svg" xmlns:xlink="http://www.w3.org/1999/xlink" xml:space="preserve" style="fill-rule:evenodd;clip-rule:evenodd;stroke-linecap:square;stroke-miterlimit:5" viewBox="0 0 32 32"><defs><path id="reuse-0" d="m231.287 208.434-2.116-5.349" style="fill:none;stroke:#fff;stroke-width:1.55px"/></defs><path d="M235.765 211.703c0-1.241-.978-2.249-2.182-2.249h-4.363c-1.204 0-2.181 1.008-2.181 2.249v7.382c0 1.241.977 2.248 2.181 2.248h4.363c1.204 0 2.182-1.007 2.182-2.248v-7.382Zm-7.64 5.849 2.186.843 1.369-1.284 1.222 1.201 1.841-.792-1.789 2.683-1.274-1.444-1.359 1.456-2.196-2.663Zm3.309-6.674c1.498 0 2.714 1.216 2.714 2.714s-1.216 2.714-2.714 2.714-2.714-1.216-2.714-2.714 1.216-2.714 2.714-2.714Zm.652 1.378c0-.185-.146-.336-.326-.336h-.651c-.18 0-.326.151-.326.336v2.802c0 .185.146.336.326.336h.651c.18 0 .326-.151.326-.336v-2.802Z" style="fill:#fff" transform="matrix(1.50004 0 0 1.45511 -337.901 -292.449)"/><use xlink:href="#reuse-0" style="fill:none;stroke:#fff;stroke-width:1.55px" transform="matrix(.93083 .33315 -.34343 .90295 -135.44647447 -252.34479388)"/><use xlink:href="#reuse-0" style="fill:none;stroke:#fff;stroke-width:2.99px" transform="matrix(-.1304 .89498 -.3297 -.35398 106.05606107 -123.06997747)"/><g transform="matrix(1.2262 .43886 -.45242 1.18947 -181.04809274 -336.51773316)"><circle cx="229.291" cy="203.524" r="1.757" style="fill:#fff"/><path d="M229.291 201.767c.97 0 1.757.787 1.757 1.757 0 .969-.787 1.756-1.757 1.756-.969 0-1.757-.787-1.757-1.756 0-.97.788-1.757 1.757-1.757Zm.023 1.179h.138-.138c.314 0 .582.241.582.555 0 .339-.288.601-.628.601-.314 0-.582-.241-.582-.555 0-.339.289-.601.628-.601Z" style="fill:#fff"/></g><g><path d="m234.741 204.022-.528-3.743c-.151-1.53.969-2.895 2.499-3.046l8.53-1.273c1.53-.151 2.895.969 3.046 2.499l1.449 11.272c.151 1.53-.969 2.895-2.499 3.046l-1.756.187-6.525 3.987.902-3.451-1.064.163c-.127.013-.254.017-.379.009v-1.303c.083.007.167.006.252-.002l2.925-.347-.473 1.81-.115.438 4.07-2.574 2.035-.214c.815-.08 1.411-.807 1.33-1.621l-1.449-11.272c-.08-.815-.807-1.411-1.621-1.33l-3.644.543c-.219-.536-.83-.8-1.375-.591l-2.231.86c-.186.072-.34.189-.451.337l-.829.124c-.815.08-1.411.807-1.331 1.621l.563 3.981c-.256-.073-.525-.11-.802-.11h-.529Z" style="fill:#fff" transform="matrix(1.09427 0 0 1.06149 -243.9313 -205.3277)"/></g><g><path d="M243.02 201.281h-1.515v2.088h-.234c-.66 0-1.197.549-1.197 1.225v5.376c0 .675.537 1.224 1.197 1.224h1.982c.661 0 1.197-.549 1.197-1.224v-.596h-4.376v-.416h4.376v-3.353h-4.376v-.415h4.376v-.596c0-.676-.536-1.225-1.197-1.225h-.233v-2.088Zm.51-1.097c0-.151-.12-.273-.266-.273h-2.028c-.146 0-.266.122-.266.273v.544c0 .15.12.272.266.272h2.028c.146 0 .266-.122.266-.272v-.544Z" style="fill:#fff" transform="matrix(1.212 -.45304 .46703 1.1757 -368.821 -120.0797)"/></g></svg>