<svg viewBox="0 0 32 32" xmlns="http://www.w3.org/2000/svg" fill-rule="evenodd" clip-rule="evenodd" stroke-linecap="round" stroke-linejoin="round" stroke-miterlimit="10"><path d="M-9.562-4.681l-10.83-12.855a6.123 6.123 0 01-8.753-6.441l.01-.058a1.19 1.19 0 01.179-.465.12.12 0 01.095-.056.126.126 0 01.071.017l4.045 4.044c.273.274.671.38 1.044.28l2.091-.56c.373-.1.665-.392.765-.765l.56-2.091c.1-.373-.006-.772-.279-1.045l-4.047-4.047a.114.114 0 01-.015-.067.124.124 0 01.056-.097c.171-.113.332-.155.465-.179l.058-.01a6.123 6.123 0 016.441 8.755L-4.752-9.49A3.488 3.488 0 01-4.15-4.08a3.487 3.487 0 01-5.41-.602zm1.497-3.312a2.05 2.05 0 112.899 2.898 2.05 2.05 0 01-2.9-2.898zm-1.419.155s-9.185-10.578-9.411-10.387a.535.535 0 00-.067.752l8.659 10.322a.534.534 0 10.82-.687zm-19.22-15.464c.047-.14.661 1.08.877 1.633.432 1.108 1.281 2.506 2.785 3.17 1.004.441 2.296.55 3.942.043a.267.267 0 11.157.51c-1.802.556-3.216.42-4.314-.065-1.65-.728-2.595-2.248-3.07-3.464-.236-.61-.355-1.14-.39-1.454a.993.993 0 01.013-.373zM18.865-28.712a.517.517 0 00-.916-.401L7.305-15.604a.515.515 0 00.377.834l7.479.406a.516.516 0 01.465.665c-.55 1.813-2.16 7.12-3.136 10.343a.515.515 0 00.898.47l11.347-14.243a.514.514 0 00-.395-.838c-1.746-.03-5.197-.093-6.58-.118a.515.515 0 01-.5-.598c.282-1.769 1.137-7.109 1.605-10.03z" fill="#fff"/><path d="M20.561-26.739c4.175 1.776 7.106 5.918 7.106 10.739 0 6.163-4.79 11.217-10.848 11.635l1.841-2.348c4.045-1.15 7.007-4.875 7.007-9.287a9.643 9.643 0 00-5.435-8.68l.329-2.059zm-6.109-.822l-2.045 2.593A9.658 9.658 0 006.333-16a9.644 9.644 0 005.33 8.629l-.59 1.945C7.093-7.282 4.333-11.321 4.333-16c0-5.914 4.411-10.807 10.119-11.561zm.026 21.096l.431.066-.728.914.297-.98zm2.869-19.097l-.359-.055-.501-.025 1.096-1.39-.236 1.47zM24.256 27.338c-.24.01-.486-.013-.73-.07l-2.248-.531a7.504 7.504 0 01-5.196 2.087h-.002a7.508 7.508 0 01-5.229-2.117l-2.376.561c-.244.057-.49.08-.73.07-.015-.66-.252-1.855-.673-3.191-.5-1.588-1.112-2.893-1.494-3.316l-.042-.043c.212-.127.454-.226.719-.288l1.845-.437c-.241-1.049-.502-2.158-.702-2.927-.48-1.848-1.597-3.479-1.597-5.502 0-5.674 4.526-8.64 10.2-8.64 5.673 0 10.36 2.966 10.36 8.64 0 2.023-1.117 3.654-1.597 5.502-.202.777-.468 1.904-.71 2.964l1.693.4c.264.062.505.161.717.288l-.04.043c-.384.423-.994 1.728-1.495 3.316-.422 1.336-.659 2.53-.673 3.191zM3.152 20.553c-.176.04-.412.191-.469.55-.083.53.158 1.92.659 3.508.5 1.587 1.111 2.893 1.494 3.316.261.288.556.32.732.279.176-.04.413-.192.469-.552.083-.53-.157-1.918-.658-3.507-.502-1.588-1.112-2.893-1.495-3.316-.26-.288-.556-.319-.732-.278zm25.696 0c.176.04.414.191.47.55.082.53-.157 1.92-.659 3.508-.5 1.587-1.111 2.893-1.495 3.316-.26.288-.555.32-.73.279-.177-.04-.414-.192-.47-.552-.083-.53.157-1.918.658-3.507.5-1.588 1.111-2.893 1.495-3.316.26-.288.555-.319.731-.278zm-10.814 3.643a2.767 2.767 0 01-1.953.803 2.762 2.762 0 01-1.905-.757l-1.526.881a4.483 4.483 0 003.43 1.593c1.399 0 2.65-.64 3.473-1.643l-1.519-.877zm-1.953-3.293a1.32 1.32 0 110 2.638 1.32 1.32 0 010-2.638zm-1.122-3.035a4.498 4.498 0 00-3.25 5.392l1.597-.922-.004-.116c0-1.144.693-2.128 1.682-2.553a1.016 1.016 0 01-.025-.226v-1.575zm2.083-.036v1.611a.96.96 0 01-.014.166 2.781 2.781 0 011.831 2.613v.046l.035.018 1.574.91a4.496 4.496 0 00-3.425-5.364zm4.768-9.777c-1.808-.566-4.347.354-4.912 2.161-.567 1.808 2.488 4.171 4.296 4.738 1.806.566 3.128-1.142 3.258-3.298.113-1.89-.835-3.035-2.642-3.6zm-11.62 0c1.808-.566 4.347.354 4.914 2.161.565 1.808-2.49 4.171-4.297 4.738-1.807.566-3.13-1.142-3.258-3.298-.113-1.89.835-3.035 2.642-3.6zm.394 1.094c1.187-.372 2.855.233 3.226 1.42.372 1.186-1.634 2.738-2.821 3.11-1.187.372-2.055-.749-2.14-2.165-.074-1.242.549-1.993 1.735-2.365zm10.832 0c-1.187-.372-2.854.233-3.226 1.42-.371 1.186 1.635 2.738 2.822 3.11 1.186.372 2.054-.749 2.14-2.165.073-1.242-.55-1.993-1.736-2.365z" fill="#fff"/><path d="M46.652 19.178c.341.353.82.572 1.348.572.528 0 1.006-.22 1.347-.572l.75.433a5.337 5.337 0 002.185 6.835 5.338 5.338 0 006.443-.852l.8.46a7.202 7.202 0 01-9.029 1.51A7.153 7.153 0 0148 25.159a7.164 7.164 0 01-2.497 2.407 7.202 7.202 0 01-9.029-1.51.46.46 0 01.8-.461h0a5.338 5.338 0 006.443.852 5.337 5.337 0 002.185-6.835l.75-.433zm12.073 6.416a.46.46 0 01.8.461l-.8-.461zM48.58 14.856a5.337 5.337 0 004.797-5.307 5.338 5.338 0 00-3.959-5.154v-.923a7.2 7.2 0 015.821 7.064 7.147 7.147 0 01-.968 3.604 7.168 7.168 0 013.422.962 7.203 7.203 0 013.207 8.574.461.461 0 01-.63.166.46.46 0 01-.17-.628h0a5.339 5.339 0 00-2.484-6.006 5.337 5.337 0 00-6.925 1.408l-.834-.482a1.877 1.877 0 00-1.277-2.042v-1.236zM35.9 23.214a.46.46 0 01-.17.628.46.46 0 01-.629-.166l.8-.462zm9.41-4.598a5.337 5.337 0 00-6.926-1.408 5.339 5.339 0 00-2.484 6.006l-.799.462a7.202 7.202 0 013.206-8.574 7.157 7.157 0 013.508-.963A7.2 7.2 0 0146.67 3.472a.46.46 0 010 .923h0a5.338 5.338 0 00-3.959 5.154 5.336 5.336 0 004.71 5.297v1.246a1.877 1.877 0 00-1.277 2.042l-.834.482zm4.107-14.221a.46.46 0 010-.923v.923z" fill="#fff" stroke="#fff" stroke-width=".5"/><path d="M21.755 50.308l7.278 6.013c.237.197.347.51.283.812 0 0-.38 1.737-1.127 2.752-.43.584-.982.942-1.586.962-.413.014-.877-.118-1.372-.535-1.193-1.009-3.883-3.812-5.647-5.679l-.523.618S5.871 45.88 4.68 43.417c-2.842-5.876.655-8.752.655-8.752l16.42 15.643zM6.165 37.33c-.005-.004-.003-.004-.008.003l.01.01c.022.139-.002 1.22 1.448 3.026 2.07 2.576 6.595 6.533 12.623 10.297L6.167 37.343l-.002-.013zm7.978 16.176c-2.219 2.134-3.937 3.778-4.075 3.893-2.128 1.778-3.12 2.6-4.956 1.428-2.293-1.465-1.834-5.083.125-6.971l.219-.213-.012.45a40.478 40.478 0 00-.072 2.62c0 .515.343.917.768.905.428-.01.781-.433.795-.947l.07-2.563c.047-.725.116-1.45.22-2.171l1.029-.992 1.223.984c-.01.376-.013.754-.013 1.13.002.513.344.915.77.903.392-.01.722-.367.783-.825l.818.629c.298.228.597.456.897.683l1.411 1.057zm5.676-15.72l.008-.009c1.959-1.888 5.137-1.884 6.97.125 1.26 1.38.201 2.982-2.067 5.346-.356.373-1.961 1.935-3.987 3.895l-5.152-4.909.07-.438 2.242-2.162-.037 1.367a40.478 40.478 0 00-.072 2.62c0 .514.343.917.769.905.426-.012.78-.435.793-.949l.072-2.561a26.07 26.07 0 01.391-3.23zm.838 15.575c1.724 1.831 4.446 4.675 5.641 5.685.095.08.168.144.247.145.095.002.152-.094.223-.174.122-.142.229-.315.324-.498a6.96 6.96 0 00.484-1.254l-6.019-4.973-.9 1.069z" fill="#fff"/></svg>