<svg viewBox="0 0 32 32" xmlns="http://www.w3.org/2000/svg" fill-rule="evenodd" clip-rule="evenodd" stroke-linejoin="round" stroke-miterlimit="2"><path d="M10.557 8.949l4.855-5.534c.202-.229.492-.355.794-.344l3.978.157c.495.02.925.356 1.073.841l.655 2.134 1.274-.189c1.06-.158 2.09.433 2.516 1.441l.906 2.146c.05.115.093.231.13.349l.16.032c.356.07.65.33.768.682l1.077 3.182c.236.693.233 1.442 0 2.127l.509 1.875c.29 1.075-.215 2.209-1.197 2.686l-3.82 1.856-2.416 2.754a5.81 5.81 0 01-3.322 1.894l-5.172.945a3.775 3.775 0 00-1.841.905l-.047.042-1.336-1.571.046-.042a5.792 5.792 0 012.821-1.387l5.172-.944a3.796 3.796 0 002.17-1.237l.696-.795a2.75 2.75 0 01-.884-.587l-.002-.001a2.997 2.997 0 01-.805-2.797l-.386-.197a3.395 3.395 0 01-4.061.422l-3.102-1.863-.585 1.39c-.222.53-.82.773-1.335.545a1.054 1.054 0 01-.53-1.37L10 16.87l-.14-.084a1.06 1.06 0 01-.364-1.427 1.002 1.002 0 011.39-.373l5.008 3.008a1.404 1.404 0 001.764-.262c.523-.57.537-1.453.033-2.04l-2.746-3.203a3.239 3.239 0 00-2.01-1.106l-3.205-.447a1.376 1.376 0 00-1.41.741l-2.124 4.096a2.01 2.01 0 00-.226.927v4.831a4.13 4.13 0 01-.825 2.481l-.643.854a.999.999 0 01-1.425.188 1.061 1.061 0 01-.183-1.462l.643-.854c.26-.346.401-.77.401-1.207v-4.83c0-.666.16-1.32.465-1.908.5-.967 1.446-2.79 2.123-4.096.673-1.295 2.06-2.024 3.478-1.826l.553.077zm16.58 8.881a3.049 3.049 0 01-.589.223l-4.886 1.3-.262.43a.88.88 0 00.13 1.08v.002a.713.713 0 00.815.136l4.84-2.352a.21.21 0 00.11-.243l-.157-.576zm-7.154-.248l.084.042 5.971-1.59a1.14 1.14 0 00.715-.576c.149-.285.174-.622.07-.928l-.456-1.353a3.818 3.818 0 01-1.488 1.429l-4.82 2.575a3.824 3.824 0 01-.076.401zm-.29-2.556l4.247-2.27c.821-.439 1.173-1.455.804-2.327l-.906-2.145a.337.337 0 00-.36-.206l-.949.14.277.902a2.485 2.485 0 01-.856 2.701l-2.708 2.061a.939.939 0 01-.272.145l.247.289c.19.22.349.46.476.71zm-6.7-5.738l.216.03a5.258 5.258 0 013.262 1.795l.842.983.956-.07 2.471-1.88a.368.368 0 00.127-.4l-1.366-4.458-2.898-.115-3.61 4.115z" fill="#fff"/></svg>