<svg viewBox="0 0 32 32" xmlns="http://www.w3.org/2000/svg" fill-rule="evenodd" clip-rule="evenodd" stroke-linejoin="round" stroke-miterlimit="2"><path d="M14.984-24.02s.147 3.67.147 7.342c0 3.673-.147 7.343-.147 7.343a1 1 0 002 0s-.146-3.67-.146-7.343c0-3.672.146-7.342.146-7.342a1 1 0 00-2 0zM10.726 17.79l-.03-.025a.66.66 0 01-.107-.696l.976-2.72a.713.713 0 01.141-.217l-.512-.583-.585-.695-.301-.375-.091.008s-.337-.142-.872-.267a6.578 6.578 0 00-.87-.143 5.102 5.102 0 00-.522-.014c-.665.006-1.217.056-1.217.056a.661.661 0 01-.525-1.07l1.501-2.182a34.413 34.413 0 01-2.153-3.89 1.096 1.096 0 01-.285-.932c.04-.284.18-.563.51-.777a1.062 1.062 0 011.377.216c.153.02.44.336.77.51.693.367 1.662.869 2.807 1.537.136.006.435.007.828-.032.272-.027.567-.074.87-.147.171-.04.338-.099.498-.155.628-.22 1.133-.448 1.133-.448a.661.661 0 01.844.842l-.622 2.22c.719.511 1.46 1.072 2.208 1.69a6.682 6.682 0 001.695-.064c.174-.03.344-.076.507-.122.642-.178 1.16-.368 1.16-.368a.66.66 0 01.785.896l-.93 2.622c.724.751 1.436 1.558 2.126 2.424a6.593 6.593 0 001.39.28c.175.017.352.016.52.013.666-.008 1.218-.06 1.218-.06a.661.661 0 01.529 1.067l-1.35 1.978a31.973 31.973 0 012.53 5.05.904.904 0 01-1.214 1.157 37.475 37.475 0 01-4.714-2.545 23.232 23.232 0 00-.948-2.723l-.103-.24c.29.215.586.427.886.633l.677.388c.097.067.182.147.248.24.797.52 1.615 1.01 2.455 1.471a30.225 30.225 0 00-2.925-4.7l-.382-.43a1.015 1.015 0 01-.138-.242 30.971 30.971 0 00-1.33-1.558c-3.612-3.962-7.63-6.395-10.3-7.82a37.652 37.652 0 004.169 5.856l-.04.056a.962.962 0 00-.05.092s-.783 1.639-1.7 3.697l-.542 1.241zm6.01 4.242l.084.215a.615.615 0 01-.084-.215zm-2.147-7.649l.35.364-.147-.018a1.058 1.058 0 00-.396.065l.193-.411z" fill="#fff"/><path d="M15.734 13.308a1.06 1.06 0 00-1.81 0s-.778 1.628-1.688 3.672c-.527 1.181-1.101 2.492-1.558 3.724-.498 1.341-.874 2.588-.877 3.504a5.039 5.039 0 001.442 3.584 5.09 5.09 0 003.585 1.54 5.133 5.133 0 003.664-1.461 5.19 5.19 0 001.576-3.663c.023-1.18-.515-2.931-1.245-4.698-1.267-3.069-3.089-6.202-3.089-6.202zm-.974 2.479c-.27.404-.577.879-.895 1.402a30.373 30.373 0 00-1.596 2.946c-.701 1.516-1.205 3.04-1.208 4.073a3.723 3.723 0 001.135 2.632 3.675 3.675 0 002.632 1.038 3.627 3.627 0 002.555-1.116 3.574 3.574 0 001.001-2.554c-.018-1.01-.58-2.473-1.262-3.958-.76-1.661-1.698-3.334-2.362-4.463z" fill="#fff"/><path d="M14.829 13.858s-4.397 7.246-4.397 10.35a4.4 4.4 0 004.397 4.398 4.4 4.4 0 004.397-4.398c0-3.104-4.397-10.35-4.397-10.35zm.13 12.476c-1.345 0-2.225-1.12-2.225-2.465a.794.794 0 00-1.589 0c0 2.254 1.561 4.054 3.814 4.054a.794.794 0 000-1.589z" fill="#fff"/></svg>