<svg viewBox="0 0 32 32" xmlns="http://www.w3.org/2000/svg" fill-rule="evenodd" clip-rule="evenodd" stroke-linecap="round" stroke-linejoin="round" stroke-miterlimit="5"><path d="M-26.46 18.463l2.462.686c.08.192.166.381.26.567l-.454-.036-.694 1.094 1.461-.487.036.06.046.073-.039-.002-.693 1.093 1.21-.402c.072.093.145.185.221.276l-.342 1.346.956-.687.064.063.11.1-.32 1.26.988-.707.02.015.152.109.162 2.566c-.29-.144-.57-.3-.843-.47l.568-1.162-1.358.624c-.302-.225-.59-.465-.863-.72l-.087-.147.208-1.503-.919.828-.163-.193-.106-.132.871-.672-1.398-.04a10.702 10.702 0 01-.54-.892l-.022-.31.853-1.254-1.38.387a10.524 10.524 0 01-.426-1.331zm18.116 4.841c-.325.336-.67.65-1.034.938l-.465-.572-.002.924c-.47.332-.965.627-1.481.88l-.982-.631.29.942c-.125.052-.252.1-.379.146l-.199-.872-.556 1.116a10.35 10.35 0 01-1.106.25l-.288-.108-.78-1.301-.251 1.552c-.372.017-.748.014-1.124-.008l1.427-2.142c.29-.025.577-.068.862-.123l-.081.143.705 1.087.157-1.422.167-.05.005-.003.682 1.049.15-1.362.126-.056.024-.01h.086l1.18.952-.268-1.378h.098l1.18.952-.28-1.44 2.137.547zm-2.494-.619l.018-.014.029.007-.047.007zM-21.831 6.889l.099 2.388-1.117-.425.622 1.08c-.072.075-.144.15-.214.228l-.971-.37.523.908c-.113.148-.222.3-.327.457l-1.178-.057.78.721c-.05.09-.097.182-.143.275l-1.2-.057.872.806-.074.202-.03.092-2.434.962c.055-.327.126-.65.213-.974l.06-.216.114.286 1.289.139-1.155-1.172c.091-.245.191-.484.298-.72l.3-.36 1.484-.316-1.1-.587.143-.22.092-.132.916.584-.412-1.255c.29-.357.602-.692.934-1.007l1.449.37-.717-1.002c.284-.224.578-.434.884-.628zm15.281 4.084c.173.33.326.669.463 1.017l-.93.408 1.19.332c.145.46.258.933.339 1.413l-1.054.944 1.165-.036c.011.139.019.278.025.418l-1.058-.048 1.055.946c-.013.292-.038.586-.076.879l-.284.389-1.462.406 1.446.662.016-.032c-.085.319-.186.63-.3.935L-7.64 17.56l.02-.095.022-.134.335.325 1.235-.398-1.483-.577.007-.072.008-.116.082.08 1.235-.399-1.298-.504-.003-.12-.002-.045.02-.073 1.227-.891-1.362-.095-.017-.092v-.005l1.228-.892-1.475-.102-.016-.054-.052-.156 1.379-2.17zm-6.81-5.425l.073.019c.127.033.252.07.377.11l-.033.003-.465 1.209 1.497-.852.167.07.103.047.553.778-.062 1.219-.572.212.114-1.106-.86.855-.134-.061-.166-.07.105-1.024-.78.777c-.13-.04-.261-.08-.395-.116l-.073-.018-.273-1.25-.57 1.076-.157-.023-.033-.004-.294-1.349-.676 1.277h-.031l-1.669-2.012c.341-.05.686-.084 1.034-.1l-.007.004.12 1.29.874-1.297c.256.011.513.031.77.062l.454.243.602 1.391.408-1.36zm2.63 1.07c.465.265.905.563 1.316.889l-1.338.496.672-.72-.65-.664z" fill="#fff"/><path d="M213.333 163.822c3.778 0 6.845 4.79 6.845 8.568 0 3.778-3.067 10.579-6.845 10.579-2.459 0-6.845-4.421-6.845-10.579 0-3.778 3.067-8.568 6.845-8.568z" fill="none" stroke="#fff" stroke-width="1.86" transform="scale(1.07321 1.07282) rotate(45 311.06 -143.036)"/><path d="M202.667 177.874l-3.79-.276-2.603 1.068a1.253 1.253 0 00-.476 1.977l1.535 1.79 3.322-1.291.639 1.036 2.832-2.37-1.459-1.934z" fill="none" stroke="#fff" stroke-width="2.01" transform="matrix(.74824 0 0 .74797 -142.573 -115.988)"/><path d="M202.667 177.874l-3.79-.276-2.426.995a1.394 1.394 0 00-.529 2.195l1.411 1.645 2.922-.889.64 1.036 3.231-2.772-1.459-1.934z" fill="none" stroke="#fff" stroke-width="2.01" transform="matrix(.10033 -.74121 -.74148 -.1003 125.908 191.165)"/><path d="M206.644 168s-.777 9.889 10.567 8.594" fill="none" stroke="#fff" stroke-width="1.9" transform="matrix(1.04092 0 0 1.06629 -199.964 -172.317)"/><path d="M206.644 168s-.777 9.889 10.567 8.594" fill="none" stroke="#fff" stroke-width="1.12" transform="matrix(.8828 0 0 .90431 -170.022 -140.833)"/><path d="M199.156 182.151a1.297 1.297 0 00-.137 1.787l.135.165a1.295 1.295 0 001.853.157l3.994-3.469-1.966-2.124-3.879 3.484z" fill="none" stroke="#fff" stroke-width="1.4" transform="matrix(1.07321 0 0 1.07282 -207.341 -172.709)"/></svg>