<svg viewBox="0 0 257 256" xmlns="http://www.w3.org/2000/svg" fill-rule="evenodd" clip-rule="evenodd" stroke-linejoin="round" stroke-miterlimit="2"><path fill="none" d="M.452 0h256v256h-256z"/><path d="M129.014 47.901c14.483-8.061 24.58-16.488 38.561-22.21 11.701-4.787 26.042-7.773 47.622-7.098l4.953.191.387 38.629c3.103-.006 6.211.039 9.325.125 4.938.135 9.889.377 14.854.714l5.498.445v5.516s.828 52.078 1.2 97.18c.287 34.428.274 64.787.274 64.787v8.059l-8.035-.627c-24.152-2.097-45.98-2.69-65.405-1.783-15.888.744-30.153 2.465-42.637 5.293l-5.597 1.36-1.562.402s-7.123-1.904-7.022-1.88c-12.547-3.165-26.793-5.311-42.704-6.393-19.473-1.324-41.39-1.078-65.663.59l-5.428.423.98-167.41V60.47l3.73-.302a365.634 365.634 0 0115.366-.843c3.83-.126 7.651-.188 11.465-.179l-.17-35.405V19.82l3.92-.152c21.43-.935 35.714 1.868 47.393 6.49 14.013 5.545 24.171 13.856 38.695 21.743zM47.14 27.724l-.17 35.345v3.927l-3.926-.039a309.957 309.957 0 00-15.027.31c-3.749.166-7.504.395-11.266.685l.923 152.758c22.638-1.796 43.225-2.242 61.695-1.39 16.71.77 31.707 2.619 44.997 5.622l4.004.974 4.183-1.13c13.195-3.32 28.18-5.559 44.911-6.685 17.804-1.198 37.6-1.116 59.32.14.013-11.236.069-33.072.265-56.847.302-36.326.897-77.176 1.118-91.7a320.475 320.475 0 00-8.775-.593c-4.8-.257-9.589-.413-14.365-.45l-5.626.03.394-39.953c-16.988-.321-28.824 2.01-38.643 5.876-14.403 5.673-24.606 14.425-39.985 22.47l-2.127 1.129-2.128-1.129c-15.313-8.223-25.44-17.087-39.798-22.934-10.059-4.098-22.25-6.643-39.974-6.416z" fill="#fff"/><path d="M124.388 234.209c-5.347-2.704-9.458-6.503-13.936-10.57-5.455-4.954-11.563-10.32-22.261-13.926-10.026-3.38-23.97-5.198-44.87-3.961l-4.9.25v-4.908s-.552-44.336-.426-88.676c.127-44.342.931-88.676.931-88.676v-3.997l3.995-.157c16.103-.402 28.11 1.236 38 4.113 19.276 5.607 30.377 16.066 48.121 25.984 17.751-9.894 28.863-20.327 48.135-25.92 9.887-2.868 21.887-4.508 37.98-4.104l3.925.153v3.928s.906 44.332 1.074 88.676c.169 44.338-.401 88.676-.401 88.676v5.006l-5-.255c-20.885-1.243-34.818.57-44.84 3.94-10.691 3.594-16.8 8.944-22.255 13.888-4.482 4.063-8.597 7.859-13.947 10.56v4.187l-4.685-2.092-4.645 2.068.005-4.187zm86.45-206.553c-17.768-.558-30.052 1.75-40.21 5.728-14.457 5.663-24.699 14.486-40.131 22.568l-1.456.776-1.457-.776c-15.441-8.058-25.697-16.856-40.157-22.506-10.14-3.962-22.397-6.271-40.12-5.72.198 11.843.76 48.264.864 84.692.101 35.61-.234 71.216-.371 83.859 19.759-.445 33.283 1.82 43.194 5.342 12.023 4.274 18.879 10.372 24.95 16.074 4.153 3.901 7.855 7.63 13.062 10.088 5.232-2.462 8.938-6.204 13.1-10.122 6.07-5.714 12.925-11.825 24.957-16.112 9.898-3.526 23.403-5.793 43.122-5.364-.142-12.727-.48-48.245-.346-83.765.138-36.504.777-73 1-84.762z" fill="#fff"/><path d="M131.84 227.74a2.942 2.942 0 01-5.415.025l-8.456-1.162s8.838-1.436 9.259-13.965c.047-1.4.121-1.6.206-1.03l.24-3.427c.855-12.83 1.453-27.634 1.453-27.634s.598 14.804 1.453 27.634c.169 2.522.349 4.962.524 7.197 1.498 10.005 9.008 11.225 9.008 11.225l-8.271 1.138zM129.727 49.702l-.01-.272 10.394 1.451s-8.837 1.458-9.258 14.178c-.047 1.421-.121 1.625-.206 1.045l-.24 3.48c-.856 13.026-1.453 28.054-1.453 28.054s-.598-15.028-1.454-28.054c-.168-2.56-.348-5.037-.523-7.307-1.498-10.156-9.008-11.396-9.008-11.396l10.396-1.45-.01.256c.453-.035.926-.03 1.372.015zM82.887 178.83V76.855H65.036V63.048h47.752v13.806l-17.851.001V178.83h-12.05zM179.476 63.122c9.006.741 13.57 7.034 13.57 18.736v15.147h-10.893V86.132c0-5.723-3.111-9.277-8.12-9.277h-9.215c-5.084 0-8.121 3.468-8.121 9.277v69.612c0 5.81 3.037 9.277 8.12 9.277h9.215c5.085 0 8.12-3.468 8.12-9.277v-23.627h-8.703v-13.809h19.596v41.711c0 12.482-5.192 18.81-15.43 18.81h-16.892c-5.092 0-8.954-1.528-11.48-4.542-2.622-3.125-3.95-7.925-3.95-14.27V81.859c0-6.343 1.328-11.144 3.95-14.27 2.525-3.012 6.388-4.54 11.479-4.54h16.894l1.86.074z" fill="#fff"/></svg>