<svg viewBox="0 0 32 32" xmlns="http://www.w3.org/2000/svg" fill-rule="evenodd" clip-rule="evenodd" stroke-linejoin="round" stroke-miterlimit="2"><path d="M42.001-28.127a1.56 1.56 0 00-1.494.863l-4.71 9.968c-.2.405-.185.883.04 1.274 0 0 1.587 2.605 3.11 5.25 1.522 2.644 2.979 5.325 2.979 5.325.228.395.639.649 1.094.678l10.99.869a1.538 1.538 0 001.473-.85l4.738-9.956a1.353 1.353 0 00-.04-1.28s-1.598-2.6-3.127-5.24c-1.53-2.641-2.99-5.32-2.99-5.32a1.34 1.34 0 00-1.075-.667l-10.988-.914zm10.13 3.557l-9.302-.4-4.297 8.256c.527.955 1.563 2.818 2.63 4.662a277.167 277.167 0 002.73 4.597l9.302.44 4.277-8.277a264.188 264.188 0 00-2.614-4.667 255.043 255.043 0 00-2.726-4.611zm-4.203 9.474l-.006-.118c0-.76.618-1.377 1.377-1.377h2.657a1.377 1.377 0 010 2.755h-1.28v1.32h1.28a1.378 1.378 0 010 2.754H49.3l-.141-.008-.137-.02-.133-.034-.02-.008a1.375 1.375 0 01-.947-1.308v-3.837l.006-.12zm-4.102-3.75h-.542a1.378 1.378 0 010-2.753h3.838a1.378 1.378 0 010 2.754h-.542v2.963a1.378 1.378 0 01-2.754 0v-2.963zM4.384 15.33c.058.173.163.329.303.448 11.431 9.674 22.633-.007 22.633-.007a.996.996 0 00.296-.441s1.485-4.532-.785-8.16C25.353 4.81 22.283 2.728 16 2.728c-6.283 0-9.353 2.081-10.831 4.442-2.27 3.628-.785 8.16-.785 8.16zm21.412-.897c.237-.882.846-3.794-.661-6.202C23.901 6.258 21.252 4.728 16 4.728S8.099 6.258 6.865 8.23c-1.51 2.414-.895 5.335-.659 6.21 9.162 7.525 18.098 1.162 19.59-.008zM28.076 18.534a1 1 0 00-1.457-1.283c-1.845 1.282-2.505 1.587-2.505 1.587a1 1 0 00-.579 1.072l1.05 6.486a1 1 0 001.987-.197c-.099-2.693.263-5.28 1.504-7.665zM23.283 29.365a1 1 0 00.982-1.19l-1.087-5.607a.999.999 0 00-1.97.038l-.863 5.607a1.001 1.001 0 00.988 1.152h1.95zM5.587 17.448a1 1 0 00-1.439 1.317c1.32 2.313 1.797 4.837 1.492 7.556a1 1 0 001.98.272l1.05-6.486a.999.999 0 00-.578-1.072s-.66-.305-2.505-1.587zM7.95 28.175a.998.998 0 00.983 1.19h1.95a1 1 0 00.988-1.152l-.864-5.607a1 1 0 00-1.97-.038l-1.086 5.607z" fill="#fff"/><path d="M14.847 21.232a.998.998 0 00-.994-1.103h-1.04a1 1 0 00-.996 1.082l.46 5.607a1 1 0 001.991.02l.58-5.606zM14.511 28.255a.75.75 0 00.742.86h1.494a.748.748 0 00.745-.838l-.661-5.607a.75.75 0 00-1.487-.022l-.833 5.607zM20.408 21.232a.998.998 0 00-.994-1.103h-1.04a1 1 0 00-.996 1.082l.46 5.607a1 1 0 001.991.02l.58-5.606zM8.428 12.073s-.177-1.764 1.29-3.182C10.792 7.85 12.693 7.035 16 7.035a.75.75 0 000-1.5c-3.872 0-6.067 1.06-7.325 2.277-2.032 1.965-1.737 4.428-1.737 4.428a.75.75 0 101.49-.167z" fill="#fff"/><g><path d="M39.906 9.59c.293-3.12 2.411-5.878 5.147-6.546 3.62-.883 6.813.782 8.206 3.757 1.734.153 3.289.476 4.39.877 1.825.664 3.096 2.121 3.385 3.467.287 1.345-.227 3.594-2.357 5.251-2.033 1.582-5.11 3.904-10.735 4.685-3.934.545-7.657.16-10.079-.72-1.825-.665-2.602-2.185-2.89-3.53-.288-1.346.124-3.522 2.371-5.41a19.03 19.03 0 012.562-1.83zm7.186-4.866a4.295 4.295 0 00-1.226.09c-2.652.567-4.101 3.15-3.444 6.225.162.754.827 1.222 1.728 1.452a.74.74 0 00.248.122c.97.298 3.958.606 6.673-.72-3.737 1.952-10.019 2.722-10.953.313-.487.32-.937.649-1.35.978-.998.794-1.805 2.096-1.605 3.037.202.941 1.105 1.611 2.382 2.076 2.231.812 5.58.913 9.159.147 3.58-.766 6.592-2.23 8.296-3.884.975-.946 1.523-1.928 1.321-2.87-.2-.94-1.103-1.611-2.38-2.076a10.673 10.673 0 00-2.11-.509c-.118.72-.682 1.41-1.522 2.024.274-.615-.632-6.176-5.203-6.406h-.014z" fill="#fff"/></g></svg>