<svg viewBox="0 0 32 32" xmlns="http://www.w3.org/2000/svg" fill-rule="evenodd" clip-rule="evenodd" stroke-linejoin="round" stroke-miterlimit="2"><path d="M10.001-28.127a1.56 1.56 0 00-1.494.863l-4.71 9.968c-.2.405-.185.883.04 1.274 0 0 1.587 2.605 3.11 5.25C8.47-8.129 9.926-5.448 9.926-5.448c.228.395.639.649 1.094.678l10.99.869a1.538 1.538 0 001.473-.85l4.738-9.956a1.353 1.353 0 00-.04-1.28s-1.598-2.6-3.127-5.24c-1.53-2.641-2.99-5.32-2.99-5.32a1.34 1.34 0 00-1.075-.667l-10.988-.914zm10.13 3.557l-9.302-.4-4.297 8.256c.527.955 1.563 2.818 2.63 4.662a277.167 277.167 0 002.73 4.597l9.302.44 4.277-8.277a264.188 264.188 0 00-2.614-4.667 255.043 255.043 0 00-2.726-4.611zm-4.203 9.474l-.006-.118c0-.76.618-1.377 1.377-1.377h2.657a1.377 1.377 0 010 2.755h-1.28v1.32h1.28a1.378 1.378 0 010 2.754H17.3l-.141-.008-.137-.02-.133-.034-.02-.008a1.375 1.375 0 01-.947-1.308v-3.837l.006-.12zm-4.102-3.75h-.542a1.378 1.378 0 010-2.753h3.838a1.378 1.378 0 010 2.754h-.542v2.963a1.378 1.378 0 01-2.754 0v-2.963zM7.906 9.59c.293-3.12 2.411-5.878 5.147-6.546 3.62-.883 6.813.782 8.206 3.757 1.734.153 3.289.476 4.39.877 1.825.664 3.096 2.121 3.385 3.467.287 1.345-.227 3.594-2.357 5.251-2.033 1.582-5.11 3.904-10.735 4.685-3.934.545-7.657.16-10.079-.72-1.825-.665-2.602-2.185-2.89-3.53-.288-1.346.124-3.522 2.371-5.41a19.03 19.03 0 012.562-1.83zm7.186-4.866a4.295 4.295 0 00-1.226.09c-2.652.567-4.101 3.15-3.444 6.225.162.754.827 1.222 1.728 1.452a.74.74 0 00.248.122c.97.298 3.958.606 6.673-.72-3.737 1.952-10.019 2.722-10.953.313-.487.32-.937.649-1.35.978-.998.794-1.805 2.096-1.605 3.037.202.941 1.105 1.611 2.382 2.076 2.231.812 5.58.913 9.159.147 3.58-.766 6.592-2.23 8.296-3.884.975-.946 1.523-1.928 1.321-2.87-.2-.94-1.103-1.611-2.38-2.076a10.673 10.673 0 00-2.11-.509c-.118.72-.682 1.41-1.522 2.024.274-.615-.632-6.176-5.203-6.406h-.014z" fill="#fff"/><path d="M14.704 5.755s-1.927.178-2.952 1.645c-.44.629-.731 1.492-.614 2.688a.75.75 0 101.492-.146c-.073-.745.078-1.291.351-1.683.64-.916 1.853-1.009 1.853-1.009a.752.752 0 00.682-.812.752.752 0 00-.812-.683zM7.966 13.146s2.231 2.503 8.033.823c6.088-1.765 6.3-3.979 6.3-3.979s4.46.91 2.802 3.394c-1.229 1.84-7.796 5.678-15.5 4.49-6.957-1.073-1.635-4.728-1.635-4.728zM11.763 24.14l.435 2.433a1 1 0 001.97-.352l-.436-2.433a1 1 0 00-1.969.352zM12.656 29.135l.145.811a1 1 0 001.969-.352l-.145-.811a1 1 0 00-1.969.352z" fill="#fff"/><path d="M11.763 24.14l.435 2.433a1 1 0 001.97-.352l-.436-2.433a1 1 0 00-1.969.352zM18.937 27.856l.145.811a1 1 0 001.97-.352l-.146-.811a1 1 0 00-1.969.352zM18.045 22.86l.435 2.434a1 1 0 001.969-.352l-.435-2.433a1 1 0 00-1.97.352zM21.106 21.828l.474 2.651a1 1 0 001.969-.352l-.474-2.651a1 1 0 00-1.97.352zM14.965 23.567l.21 1.177a1 1 0 001.97-.352l-.21-1.177a1 1 0 00-1.97.352zM22.063 27.181l.21 1.177a1 1 0 001.97-.352l-.211-1.177a1 1 0 00-1.969.352zM15.65 27.405l.444 2.477a1.001 1.001 0 001.968-.352l-.442-2.477a1.001 1.001 0 00-1.97.352z" fill="#fff"/></svg>