<?xml version="1.0" encoding="UTF-8" standalone="no"?>
<!DOCTYPE svg PUBLIC "-//W3C//DTD SVG 1.1//EN" "http://www.w3.org/Graphics/SVG/1.1/DTD/svg11.dtd">
<svg
      width="100vmin"
      height="100vmin
              "
      viewBox="0 0 340 340"
      version="1.1"
      xmlns="http://www.w3.org/2000/svg"
      xmlns:xlink="http://www.w3.org/1999/xlink"
      xml:space="preserve"
      xmlns:serif="http://www.serif.com/"
      style="
        fill-rule: evenodd;
        clip-rule: evenodd;
        stroke-linejoin: round;
        stroke-miterlimit: 2;
      "
    >
      <style>
        @keyframes rotate {
        from {
            transform: rotate(0deg);
        }
        to {
            transform: rotate(360deg);
        }
        }
        #circleboi {
        transform-origin: 50% 50%;
        animation-name: rotate;
        animation-duration: 6s;
        animation-iteration-count: infinite;
        animation-timing-function: linear;
        }
      </style>
      <path
        id="text"
        d="M104.26,279.309L104.26,92.146L71.496,92.146L71.496,66.804L159.14,66.804L159.14,92.144L126.376,92.146L126.376,279.309M205.817,279.309C195.943,279.309 188.452,276.504 183.552,270.972C178.469,265.237 175.892,256.426 175.892,244.783L175.892,101.33C175.892,89.687 178.469,80.876 183.552,75.14C188.45,69.61 195.942,66.806 205.816,66.806L238.58,66.806C258.435,66.806 268.504,78.42 268.504,101.33L268.504,129.131L247.379,129.131L247.379,109.174C247.379,98.671 241.346,92.147 231.631,92.147L213.759,92.147C203.899,92.147 198.009,98.512 198.009,109.174L198.009,236.938C198.009,247.601 203.899,253.966 213.759,253.966L231.629,253.966C241.491,253.966 247.379,247.601 247.379,236.939L247.379,193.575L230.499,193.575L230.499,168.23L268.503,168.23L268.503,244.785C268.503,267.695 258.435,279.309 238.579,279.309L205.815,279.309L205.817,279.309Z"
        style="fill-rule: nonzero;" fill="#a4b4c596"
      />
      <g mask="url(#textmask)" fill="#a4b4c596">
        <path
          id="circleboi"
          d="M52.637,76.985L18.344,100.266L21.88,141.563L2.335,178.114L24.655,213.037L24.334,254.481L60.327,275.033L79.305,311.88L120.727,313.353L154.653,337.161L192.017,319.211L233.12,324.528L257.861,291.272L296.727,276.871L303.177,235.932L330.903,205.122L317.587,165.871L327.817,125.706L297.788,97.137L288.18,56.819L248.314,45.477L221.07,14.243L180.501,22.728L141.862,7.731L109.881,34.098L68.701,38.776L52.636,76.985L52.637,76.985ZM216.761,280.742L233.774,257.052L261.937,246.736L266.17,217.095L286.412,194.913L276.395,166.806L284.078,137.84L262.106,117.706L255.471,88.592L226.577,81.044L207.143,58.451L177.947,65.218L150.167,54.321L127.357,73.853L97.594,77.15L86.396,104.972L61.469,121.707L64.448,151.446L50.067,177.785L66.541,202.627L66.007,232.209L78.356,239.26L92.195,246.791L105.376,272.936L118.069,273.388L118.261,273.589L135.534,273.821L159.847,291.067L186.628,277.524L216.245,281.435L216.761,280.742Z"
        />
      </g>
      <mask id="textmask">
        <rect x="0" y="0" width="340" height="340" style="fill: white;" />
        <path
          d="M274.325,244.784C274.325,271.12 261.665,285.129 238.581,285.129L205.817,285.129C197.487,285.129 190.939,282.647 185.081,279.839C170.502,272.852 169.064,241.181 169.064,241.181L132.196,241.181L132.196,280.645C132.196,283.725 130.956,285.127 128.224,285.127L102.413,285.127C99.931,285.127 98.441,283.727 98.441,280.645L98.441,249.868L98.131,249.373L98.655,97.966L69.646,97.966C67.164,97.966 65.674,96.284 65.674,93.483L65.674,65.464C65.674,62.664 67.164,60.984 69.647,60.984L131.251,60.984L158.546,60.923C163.315,60.54 164.919,62.86 164.619,66.804L164.619,91.422L170.619,91.422C172.787,71.547 185.831,60.108 208.749,60.983L238.581,60.983C261.666,60.983 274.325,74.991 274.325,101.328L274.325,118.878L274.326,202.76L274.326,244.782L274.325,244.784Z"
          style="fill-rule: nonzero;"
          fill="black"
        />
      </mask>
    </svg>