<svg width="100vmin" height="100vmin" viewBox="0 0 340 340" xmlns="http://www.w3.org/2000/svg" fill-rule="evenodd" clip-rule="evenodd" stroke-linejoin="round" stroke-miterlimit="2"><style>@keyframes rotate{from{transform:rotate(0)}to{transform:rotate(360deg)}}</style><path id="text" d="M104.26 279.309V92.146H71.496V66.804h87.644v25.34l-32.764.002v187.163m79.441 0c-9.874 0-17.365-2.805-22.265-8.337-5.083-5.735-7.66-14.546-7.66-26.189V101.33c0-11.643 2.577-20.454 7.66-26.19 4.898-5.53 12.39-8.334 22.264-8.334h32.764c19.855 0 29.924 11.614 29.924 34.524v27.801h-21.125v-19.957c0-10.503-6.033-17.027-15.748-17.027h-17.872c-9.86 0-15.75 6.365-15.75 17.027v127.764c0 10.663 5.89 17.028 15.75 17.028h17.87c9.862 0 15.75-6.365 15.75-17.027v-43.364h-16.88V168.23h38.004v76.555c0 22.91-10.068 34.524-29.924 34.524h-32.764.002z" fill="#a4b4c596" fill-rule="nonzero"/><g mask="url(#textmask)" fill="#a4b4c596"><path d="M52.637 76.985l-34.293 23.281 3.536 41.297-19.545 36.551 22.32 34.923-.321 41.444 35.993 20.552 18.978 36.847 41.422 1.473 33.926 23.808 37.364-17.95 41.103 5.317 24.741-33.256 38.866-14.401 6.45-40.939 27.726-30.81-13.316-39.251 10.23-40.165-30.029-28.569-9.608-40.318-39.866-11.342-27.244-31.234-40.569 8.485-38.639-14.997-31.981 26.367-41.18 4.678-16.065 38.209h.001zm164.124 203.757l17.013-23.69 28.163-10.316 4.233-29.641 20.242-22.182-10.017-28.107 7.683-28.966-21.972-20.134-6.635-29.114-28.894-7.548-19.434-22.593-29.196 6.767-27.78-10.897-22.81 19.532-29.763 3.297-11.198 27.822-24.927 16.735 2.979 29.739-14.381 26.339 16.474 24.842-.534 29.582 12.349 7.051 13.839 7.531 13.181 26.145 12.693.452.192.201 17.273.232 24.313 17.246 26.781-13.543 29.617 3.911.516-.693z" style="transform-origin:50% 50%;animation-name:rotate;animation-duration:6s;animation-iteration-count:infinite;animation-timing-function:linear"/></g><mask id="textmask"><path fill="#fff" d="M0 0h340v340H0z"/><path d="M274.325 244.784c0 26.336-12.66 40.345-35.744 40.345h-32.764c-8.33 0-14.878-2.482-20.736-5.29-14.579-6.987-16.017-38.658-16.017-38.658h-36.868v39.464c0 3.08-1.24 4.482-3.972 4.482h-25.811c-2.482 0-3.972-1.4-3.972-4.482v-30.777l-.31-.495.524-151.407H69.646c-2.482 0-3.972-1.682-3.972-4.483V65.464c0-2.8 1.49-4.48 3.973-4.48h61.604l27.295-.061c4.769-.383 6.373 1.937 6.073 5.881v24.618h6c2.168-19.875 15.212-31.314 38.13-30.439h29.832c23.085 0 35.744 14.008 35.744 40.345v17.55l.001 83.882v42.022l-.001.002z" fill-rule="nonzero"/></mask></svg>