<svg viewBox="0 0 32 32" xmlns="http://www.w3.org/2000/svg" fill-rule="evenodd" clip-rule="evenodd" stroke-linecap="round" stroke-linejoin="round" stroke-miterlimit="5"><path d="M34.667 200c4.266-2.167 8.781-2.035 13.504 0 4.966-2.083 9.477-2.527 13.162 0v1.802c1.62 1.622 2.522-.604 2.43.064-.081.587-.974 2.426-2.43 3.514V208c-4.444 3.844-8.889 3.814-13.333 0-4.444 3.533-8.889 3.631-13.333 0v-3.185c-3.365-.685-5.785-3.485-5.267-3.893.214-.168 2.486 1.573 5.267.493V200z" fill="none" stroke="#fff" stroke-width="2.94" transform="matrix(.68295 -.09015 .094 .65491 -34.544 -105.945)"/><path d="M24.338 11.354a1 1 0 011.122-.382c.588.185 1.087.593 1.455 1.14.467.694.717 1.618.699 2.439-.026 1.195-.626 2.13-1.58 2.376a.967.967 0 01-.234.032c-1.529.026-13.945.618-19.716 2.798a.997.997 0 01-.888-.09s-2.905-1.9-1.877-4.84c.089-.252.274-.458.513-.573.235-.111.869-.255 1.799-.371 3.068-.384 9.97-.822 14.66-1.533 1.44-.218 2.66-.457 3.47-.736a4.5 4.5 0 00.577-.26zm.884 1.801a3.53 3.53 0 01-.349.173c-.872.378-2.41.716-4.281 1-4.127.625-9.955 1.042-13.415 1.395-.906.092-1.63.16-2.073.234-.072.81.43 1.414.798 1.742 5.907-2.016 17.32-2.66 19.616-2.733a.882.882 0 00.063-.164c.07-.312.032-.693-.078-1.046a2.018 2.018 0 00-.281-.6z" fill="#fff"/><path d="M5.793 14.951s-.137-2.57.835-5.182c.931-2.503 2.928-5.049 7.192-5.214 8.694-.338 10.19 7.553 10.19 7.553a1 1 0 001.967-.365S24.229 2.148 13.74 2.556C3.214 2.966 3.796 15.06 3.796 15.06a1.001 1.001 0 001.997-.109z" fill="#fff"/><ellipse cx="44.951" cy="213.534" rx="1.186" ry=".553" fill="none" stroke="#fff" stroke-width="1.82" transform="matrix(1.11473 -.09793 .10213 1.06897 -58.862 -199.662)"/><ellipse cx="44.951" cy="213.534" rx="1.186" ry=".553" fill="none" stroke="#fff" stroke-width="1.82" transform="matrix(1.11473 -.09793 .10213 1.06897 -49.907 -200.868)"/><path d="M7.126 11.972s1.968.129 4.526.137c.58.002 1.184-.014 1.803-.042.397-.018.798-.041 1.198-.081.4-.039.797-.094 1.191-.153a44.346 44.346 0 001.78-.306c2.176-.421 3.928-.849 4.447-1.014a.318.318 0 00-.124-.623c-.533.045-2.305-.009-4.483 0-.581.002-1.183.013-1.8.037-.396.015-.796.035-1.195.069-.4.035-.798.085-1.19.139-.613.084-1.209.177-1.778.282-2.514.462-4.429.922-4.429.922a.317.317 0 00.054.633zM8.73 9.434s1.316.036 3.012.002c.386-.008.79-.024 1.201-.048.265-.015.532-.032.8-.058.265-.026.531-.06.794-.096.408-.055.808-.117 1.19-.181 1.448-.245 2.624-.493 2.97-.592a.159.159 0 10-.062-.312c-.353.04-1.54.045-2.988.085-.386.01-.789.025-1.2.047-.264.014-.53.03-.797.053a36.187 36.187 0 00-1.983.256 83.35 83.35 0 00-2.964.527.159.159 0 10.027.317z" fill="#fff"/></svg>