<svg viewBox="0 0 32 32" xmlns="http://www.w3.org/2000/svg" fill-rule="evenodd" clip-rule="evenodd" stroke-linejoin="round" stroke-miterlimit="2"><path d="M-5.412-18.966a1 1 0 00-1.225-.707l-17.423 4.668c-.534.144-.85.692-.708 1.225l2.784 10.39a1 1 0 001.225.707l17.423-4.669a1 1 0 00.707-1.225l-2.783-10.39zm-13.131 13.05l3.29-.88c.496-.134.8-.606.68-1.055-.12-.449-.62-.705-1.117-.573l-3.29.882c-.496.133-.801.605-.68 1.054.12.449.62.705 1.117.573zm-1.142-2.915l3.29-.881c.496-.134.8-.606.68-1.055-.12-.449-.62-.705-1.117-.572l-3.29.881c-.496.134-.801.605-.68 1.054.12.449.62.706 1.117.573zm8.76-6.528a3.366 3.366 0 00-2.38 4.12A3.367 3.367 0 00-9.182-8.86a3.367 3.367 0 002.378-4.12 3.366 3.366 0 00-4.12-2.378zm-9.817 3.57l3.29-.882c.496-.132.8-.606.68-1.054-.12-.45-.62-.705-1.116-.573l-3.29.882c-.496.133-.802.605-.68 1.054.119.45.62.706 1.116.572zm10.27-1.878a1.614 1.614 0 01.835 3.116 1.614 1.614 0 01-.835-3.116zM8.687 22.754c-.976-1.686-1.628-3.477-1.628-5.085 0-.61.06-1.178.177-1.704a6.709 6.709 0 01-5.489-6.594c0-3.7 3.004-6.704 6.705-6.704a6.707 6.707 0 016.584 7.969 15.883 15.883 0 011.927 0 6.707 6.707 0 016.585-7.969c3.7 0 6.704 3.003 6.704 6.704a6.709 6.709 0 01-5.49 6.594c.117.526.178 1.094.178 1.704 0 1.61-.654 3.405-1.632 5.093l.69-.076c1.827-.19 3.445-.286 3.445-.286a.72.72 0 11.154 1.43s-1.6.25-3.428.455c-.66.074-1.348.142-1.999.203-.102.139-.207.276-.312.41a89.736 89.736 0 015.64 1.426.719.719 0 11-.336 1.4s-1.591-.304-3.38-.727a133.94 133.94 0 01-3.06-.768c-1.691 1.808-3.519 3.049-4.723 3.049-1.201 0-3.024-1.236-4.71-3.036-.898.236-1.985.513-3.007.755-1.79.423-3.381.727-3.381.727a.72.72 0 01-.336-1.4s1.555-.453 3.34-.89a112.56 112.56 0 012.245-.523c-.11-.14-.219-.284-.326-.43-.63-.058-1.294-.126-1.93-.196-1.827-.204-3.428-.454-3.428-.454a.72.72 0 11.154-1.43s1.618.096 3.446.285l.62.068zm7.312.361c.767 0 1.388.33 1.388 1.096 0 .767-.955 1.802-1.388 1.802-.433 0-1.387-1.035-1.387-1.802 0-.765.621-1.096 1.387-1.096zm-3.693-6.798a2.008 2.008 0 010 4.015 2.008 2.008 0 010-4.015zm7.387 0a2.008 2.008 0 110 4.015 2.008 2.008 0 010-4.015zm-6.096-5.525a5.342 5.342 0 00-5.146-6.76A5.342 5.342 0 003.113 9.37a5.342 5.342 0 004.567 5.283c1.02-2.183 3.212-3.423 5.918-3.862zm10.723 3.862a5.342 5.342 0 004.567-5.283 5.342 5.342 0 00-5.34-5.34 5.342 5.342 0 00-5.146 6.76c2.708.44 4.898 1.68 5.919 3.863zM7.281 13.61a4.331 4.331 0 01-3.158-4.166 4.33 4.33 0 014.329-4.327 4.33 4.33 0 014.272 5.016c-2.384.512-4.338 1.64-5.443 3.477zm11.994-3.477a4.33 4.33 0 014.273-5.017 4.33 4.33 0 014.327 4.328 4.331 4.331 0 01-3.157 4.166c-1.106-1.837-3.059-2.965-5.443-3.477zM-15.69 40.852c3.02-1.958 7.309-4.454 9.655-5.444.934-.394 1.653-.536 2-.495a1.22 1.22 0 011.112 1.197c.012.324-.156 1.01-.548 1.91-1.01 2.323-3.455 6.597-5.382 9.621l.046 4.527c.002.213-.061.423-.18.6l-3.329 4.923a1.052 1.052 0 01-1.91-.763l.79-4.75c-.319.08-.646.129-.976.147-1.565-2.35-3.54-4.314-5.914-5.907.018-.332.067-.661.148-.981l-4.75.79a1.053 1.053 0 01-.763-1.912l4.923-3.328c.177-.119.386-.182.6-.18l4.479.045zm2.29 8.66l-4.014-4.016c-.295-.294-1.146-.407-1.065 0 .015.075.028.298.234.388 1.407.609 3.902 3.387 4.483 4.477.112.21.318.225.362.215.404-.098.294-.77 0-1.065zm5.527-9.639a2.437 2.437 0 01-3.446 3.445 2.437 2.437 0 013.446-3.445zm-.747.747a1.38 1.38 0 11-1.953 1.95 1.38 1.38 0 011.953-1.95zM23.471 48c-1.738 7.984-7.222 9.968-7.472 9.968v-9.063a.904.904 0 01.904-.904h6.568zM16 38.834v8.264a.904.904 0 01-.904.904H8.553c-.341-1.543-.545-3.31-.553-5.333 2.052 0 3.975-.653 8-3.835z" fill="#fff"/></svg>