<svg viewBox="0 0 32 32" xmlns="http://www.w3.org/2000/svg" fill-rule="evenodd" clip-rule="evenodd" stroke-linecap="round" stroke-linejoin="round" stroke-miterlimit="1.5"><path d="M59.485 10.232c0-3.183-2.446-5.767-5.46-5.767h-10.92c-3.014 0-5.461 2.584-5.461 5.767v11.536c0 3.183 2.447 5.767 5.461 5.767h10.92c3.014 0 5.46-2.584 5.46-5.767V10.232z" fill="none" stroke="#fff" stroke-width="2.97" transform="rotate(45 64.063 -32.759) scale(.86333 .81734)"/><path d="M15.494 15.711l-.042-.055s6.327-3.456 10.733 0c4.406 3.456-3.49 9.59-3.49 9.59s-6.03 5.896-8.781 1.02c-2.594-4.6 1.144-9.96 1.58-10.555zM5.329 7.56l8.423 9.59c.824.938.761-.67 1.7-1.494.94-.825 2.525-.555 1.7-1.494L8.73 4.572A2.265 2.265 0 005.329 7.56z" fill="none" stroke="#fff" stroke-width="2.000934" stroke-linecap="butt" stroke-miterlimit="2"/><path d="M4.797 5.696A2.264 2.264 0 018.73 4.572l8.423 9.59c.824.939-.762.67-1.701 1.494-.938.824-.876 2.432-1.7 1.494L5.329 7.56a2.247 2.247 0 01-.55-1.712.48.48 0 00.125.318l9.18 10.281a.5.5 0 10.746-.666L5.649 5.5a.499.499 0 00-.852.196z" fill="#fff"/><path d="M16.506 27.102s.467-8.725 9.833-9.245a1.055 1.055 0 00-.117-2.107c-11.324.629-11.824 11.247-11.824 11.247a1.056 1.056 0 002.108.105z" fill="none" stroke="#fff" stroke-width=".99594" stroke-linecap="butt" stroke-miterlimit="2"/></svg>