<svg viewBox="0 0 32 32" xmlns="http://www.w3.org/2000/svg" fill-rule="evenodd" clip-rule="evenodd" stroke-linejoin="round" stroke-miterlimit="2"><path d="M16.87 8.903l.037-.125a18.911 18.911 0 00.531-2.346c.23-1.42.311-2.405.311-2.405a1.409 1.409 0 012.72.729c.001 0-.421.894-.932 2.238a19.291 19.291 0 00-.712 2.298l-.03.126c.337.143.66.312.968.502l.058-.09c.574-.908.932-1.56.932-1.56a.846.846 0 011.35 1.016s-.526.524-1.24 1.328l-.07.082c.305.276.585.578.839.9l.116-.061a19.314 19.314 0 002.035-1.283c1.166-.842 1.92-1.48 1.92-1.48a1.408 1.408 0 011.409 2.438s-.932.334-2.243.923a19.603 19.603 0 00-2.129 1.121l-.11.069c.136.335.247.682.331 1.039l.104-.022c1.048-.236 1.761-.445 1.761-.445a.845.845 0 01.238 1.673s-.744-.002-1.817.062l-.107.008a7.155 7.155 0 01-.044 1.231l.126.038a18.911 18.911 0 002.345.532c1.42.23 2.406.31 2.406.31a1.409 1.409 0 01-.729 2.72c0 .002-.895-.42-2.239-.931a19.291 19.291 0 00-2.297-.712l-.126-.03c-.143.336-.312.66-.503.967l.09.059c.908.573 1.56.931 1.56.931a.846.846 0 01-1.016 1.351s-.523-.527-1.328-1.24l-.081-.071a7.219 7.219 0 01-.901.84l.062.115a19.314 19.314 0 001.283 2.035 34.82 34.82 0 001.48 1.921 1.408 1.408 0 01-2.439 1.408s-.333-.931-.923-2.243a19.603 19.603 0 00-1.12-2.128l-.07-.11a7.059 7.059 0 01-1.038.33l.021.104c.237 1.048.445 1.761.445 1.761a.845.845 0 01-1.673.238s.002-.744-.062-1.816l-.008-.107a7.155 7.155 0 01-1.231-.044l-.037.125a18.911 18.911 0 00-.532 2.346c-.23 1.42-.311 2.405-.311 2.405a1.409 1.409 0 01-2.72-.729c-.001 0 .421-.894.932-2.239a19.291 19.291 0 00.712-2.297l.03-.126a7.153 7.153 0 01-.968-.502l-.058.09c-.574.908-.932 1.56-.932 1.56a.846.846 0 01-1.35-1.016s.526-.524 1.24-1.329l.07-.08a7.219 7.219 0 01-.839-.902l-.116.062a19.314 19.314 0 00-2.035 1.283c-1.166.842-1.92 1.48-1.92 1.48a1.408 1.408 0 01-1.409-2.439s.932-.333 2.243-.922a19.603 19.603 0 002.129-1.121l.11-.07a7.059 7.059 0 01-.331-1.038l-.104.022c-1.048.236-1.76.445-1.76.445a.845.845 0 01-.239-1.674s.744.003 1.817-.062l.107-.007a7.155 7.155 0 01.044-1.231l-.125-.038a18.911 18.911 0 00-2.346-.532 34.266 34.266 0 00-2.406-.31 1.409 1.409 0 01.729-2.72c0-.002.895.42 2.239.931a19.291 19.291 0 002.297.712l.126.03c.144-.336.313-.66.503-.967l-.09-.059c-.908-.573-1.56-.932-1.56-.932a.846.846 0 011.016-1.35s.524.527 1.328 1.24l.081.071c.276-.305.578-.586.901-.84l-.061-.115a19.314 19.314 0 00-1.284-2.035c-.841-1.166-1.48-1.921-1.48-1.921a1.408 1.408 0 012.439-1.409s.334.932.923 2.244a19.603 19.603 0 001.12 2.128l.07.11a7.059 7.059 0 011.038-.33l-.021-.104c-.237-1.048-.445-1.761-.445-1.761a.845.845 0 011.673-.238s-.002.743.062 1.816l.008.107a7.155 7.155 0 011.231.044zm-3.537 7.567a1.809 1.809 0 010 3.615 1.808 1.808 0 010-3.615zm5.476-3.194a2.254 2.254 0 11-2.252 2.253 2.254 2.254 0 012.252-2.253zm-5.067-1.482a1.202 1.202 0 110 2.405 1.202 1.202 0 010-2.405zM11.793 50.242l1.761.958c.061.034.106.09.125.158a.262.262 0 01-.026.2c-.663 1.191-.12 2.684.122 2.944-1.347 2.65-5.186 6.26-9.254 6.6a.275.275 0 01-.256-.407c.87-1.58 5.41-9.839 6.076-11.05a.171.171 0 01.23-.068l.49.267L5.576 59.93s1.25-.56 1.383-.802l4.834-8.886zm1.502-2.76l2.808 1.528a.577.577 0 01.23.78l-.718 1.323a.577.577 0 01-.78.23l-2.81-1.528 1.27-2.334zm6.464-11.884l3.331.05a.574.574 0 01.497.851c-1.237 2.264-4.67 8.549-6.423 11.768a.575.575 0 01-.781.23l-2.81-1.528 6.186-11.371zm-8.465 13.82l-.134-.073a.579.579 0 01-.23-.78l.72-1.324a.576.576 0 01.78-.23l.134.072-1.27 2.335zm1.549-2.847l-.132-.07a.577.577 0 01-.23-.783l5.407-9.842a.578.578 0 01.514-.299l.417.006-5.976 10.988zM46.984 7.98s.147 3.67.147 7.342c0 3.673-.147 7.343-.147 7.343a1 1 0 002 0s-.146-3.67-.146-7.343c0-3.672.146-7.342.146-7.342a1 1 0 00-2 0z" fill="#fff"/></svg>