<svg viewBox="0 0 32 32" xmlns="http://www.w3.org/2000/svg" fill-rule="evenodd" clip-rule="evenodd" stroke-linejoin="round" stroke-miterlimit="2"><path d="M-21.999-28.127a1.56 1.56 0 00-1.494.863l-4.71 9.968c-.2.405-.185.883.04 1.274 0 0 1.587 2.605 3.11 5.25 1.522 2.644 2.979 5.325 2.979 5.325.228.395.639.649 1.094.678l10.99.869a1.538 1.538 0 001.473-.85l4.738-9.956a1.353 1.353 0 00-.04-1.28s-1.598-2.6-3.127-5.24c-1.53-2.641-2.99-5.32-2.99-5.32a1.34 1.34 0 00-1.075-.667l-10.988-.914zm10.13 3.557l-9.302-.4-4.297 8.256c.527.955 1.563 2.818 2.63 4.662a277.167 277.167 0 002.73 4.597l9.302.44 4.277-8.277a264.188 264.188 0 00-2.614-4.667 255.043 255.043 0 00-2.726-4.611zm-4.203 9.474l-.006-.118c0-.76.618-1.377 1.377-1.377h2.657a1.377 1.377 0 010 2.755h-1.28v1.32h1.28a1.378 1.378 0 010 2.754H-14.7l-.141-.008-.137-.02-.133-.034-.02-.008a1.375 1.375 0 01-.947-1.308v-3.837l.006-.12zm-4.102-3.75h-.542a1.378 1.378 0 010-2.753h3.838a1.378 1.378 0 010 2.754h-.542v2.963a1.378 1.378 0 01-2.754 0v-2.963zM37.54-13.537l2.462.686c.08.192.166.381.26.567l-.454-.036-.694 1.094 1.461-.487.036.06.046.073-.039-.002-.693 1.093 1.21-.402c.072.093.145.185.221.276l-.342 1.346.956-.687.064.063.11.1-.32 1.26.988-.707.02.015.152.109.162 2.566c-.29-.144-.57-.3-.843-.47l.568-1.162-1.358.624c-.302-.225-.59-.465-.863-.72l-.087-.147.208-1.503-.919.828-.163-.193-.106-.132.871-.672-1.398-.04a10.702 10.702 0 01-.54-.892l-.022-.31.853-1.254-1.38.387a10.524 10.524 0 01-.426-1.331zm18.116 4.841c-.325.336-.67.65-1.034.938l-.465-.572-.002.924c-.47.332-.965.627-1.481.88l-.982-.631.29.942c-.125.052-.252.1-.379.146l-.199-.872-.556 1.116c-.363.103-.732.187-1.106.25l-.288-.108-.78-1.301-.251 1.552c-.372.017-.748.014-1.124-.008l1.427-2.142c.29-.025.577-.068.862-.123l-.081.143.705 1.087.157-1.422.167-.05.005-.003.682 1.049.15-1.362.126-.056.024-.01h.086l1.18.952-.268-1.378h.098l1.18.952-.28-1.44 2.137.547zm-2.494-.619l.018-.014.029.007-.047.007zM42.169-25.111l.099 2.388-1.117-.425.622 1.08c-.072.075-.144.15-.214.228l-.971-.37.523.908c-.113.148-.222.3-.327.457l-1.178-.057.78.721c-.05.09-.097.182-.143.275l-1.2-.057.872.806-.074.202-.03.092-2.434.962c.055-.327.126-.65.213-.974l.06-.216.114.286 1.289.139-1.155-1.172c.091-.245.191-.484.298-.72l.3-.36 1.484-.316-1.1-.587.143-.22.092-.132.916.584-.412-1.255c.29-.357.602-.692.934-1.007l1.449.37-.717-1.002c.284-.224.578-.434.884-.628zm15.281 4.084c.173.33.326.669.463 1.017l-.93.408 1.19.332c.145.46.258.933.339 1.413l-1.054.944 1.165-.036c.011.139.019.278.025.418l-1.058-.048 1.055.946c-.013.292-.038.586-.076.879l-.284.389-1.462.406 1.446.662.016-.032c-.085.319-.186.63-.3.935L56.36-14.44l.02-.095.022-.134.335.325 1.235-.398-1.483-.577.007-.072.008-.116.082.08 1.235-.399-1.298-.504-.003-.12-.002-.045.02-.073 1.227-.891-1.362-.095-.017-.092v-.005l1.228-.892-1.475-.102-.016-.054-.052-.156 1.379-2.17zm-6.81-5.425l.073.019c.127.033.252.07.377.11l-.033.003-.465 1.209 1.497-.852.167.07.103.047.553.778-.062 1.219-.572.212.114-1.106-.86.855-.134-.061-.166-.07.105-1.024-.78.777c-.13-.04-.261-.08-.395-.116l-.073-.018-.273-1.25-.57 1.076-.157-.023-.033-.004-.294-1.349-.676 1.277h-.031l-1.669-2.012c.341-.05.686-.084 1.034-.1l-.007.004.12 1.29.874-1.297c.256.011.513.031.77.062l.454.243.602 1.391.408-1.36zm2.63 1.07c.465.265.905.563 1.316.889l-1.338.496.672-.72-.65-.664zM-24.094 9.59c.293-3.12 2.411-5.878 5.147-6.546 3.62-.883 6.813.782 8.206 3.757 1.734.153 3.289.476 4.39.877 1.825.664 3.096 2.121 3.385 3.467.287 1.345-.227 3.594-2.357 5.251-2.033 1.582-5.11 3.904-10.735 4.685-3.934.545-7.657.16-10.079-.72-1.825-.665-2.602-2.185-2.89-3.53-.288-1.346.124-3.522 2.371-5.41a19.03 19.03 0 012.562-1.83zm7.186-4.866a4.295 4.295 0 00-1.226.09c-2.652.567-4.101 3.15-3.444 6.225.162.754.827 1.222 1.728 1.452a.74.74 0 00.248.122c.97.298 3.958.606 6.673-.72-3.737 1.952-10.019 2.722-10.953.313-.487.32-.937.649-1.35.978-.998.794-1.805 2.096-1.605 3.037.202.941 1.105 1.611 2.382 2.076 2.231.812 5.58.913 9.159.147 3.58-.766 6.592-2.23 8.296-3.884.975-.946 1.523-1.928 1.321-2.87-.2-.94-1.103-1.611-2.38-2.076a10.673 10.673 0 00-2.11-.509c-.118.72-.682 1.41-1.522 2.024.274-.615-.632-6.176-5.203-6.406h-.014zM7.801 9.589l.221-4.078a1 1 0 011.032-.945s2.955.103 5.262-.502c2.245-.588 3.321-1.237 3.321-1.237a1 1 0 011.459.494l1.43 3.736c.937.081 1.912.149 3.034.101 1.431-.061 2.539.333 3.273.968.819.707 1.228 1.725 1.101 2.926-.125 1.19-.82 2.616-2.292 4.025-1.965 1.882-5.386 3.808-10.653 5.12-8.779 2.186-11.176-.864-11.681-3.629a5.841 5.841 0 013.003-6.213 46.864 46.864 0 011.49-.766zm14.032.885l.008.029.016.041.019.087.01.038.001.014c.009.059.013.119.012.178v.004l-.004.027-.012.121-.007.025-.003.019-.012.036-.019.072-.02.045-.01.029-.014.025-.02.045-.041.062-.019.035-.013.014-.014.022-.074.081-.025.03-.006.004-.005.005s-5.43 5.091-13.246 2.998h-.003l-.002-.001-.003-.001a.939.939 0 01-.175-.065l-.004-.002-.038-.023-.107-.063-.011-.009-.009-.006-.037-.034-.076-.065-.015-.019-.013-.012-.031-.041-.051-.063-.016-.029-.016-.021-.021-.044-.033-.058-.014-.04-.015-.033-.011-.042-.018-.05-.008-.055-.011-.043-.002-.035-.007-.043.002-.072-.003-.053.089-1.64-.424.222a3.845 3.845 0 00-1.977 4.088c.391 2.138 2.445 3.738 9.231 2.048 4.809-1.198 7.958-2.905 9.753-4.624 1.036-.991 1.598-1.952 1.686-2.79.117-1.108-.829-1.748-2.3-1.686-.84.036-1.604.013-2.33-.036l.518 1.354zm-2.322-.206c-.789.336-2.117.823-4.221 1.402-3.064.842-4.869.851-5.601.799l-.025.349c4.923.989 8.628-1.257 9.987-2.263l-.14-.287zm-.626-1.905L17.62 5.057c-.638.275-1.566.619-2.797.942-1.688.442-3.689.547-4.855.567l-.212 3.903c.363.035 1.942.114 5.004-.728 2.232-.613 3.489-1.097 4.125-1.378zM18.233 21.307a2.002 2.002 0 011.41-1.017l5.289-.945a2.005 2.005 0 012.232 1.272l.005.015s.895 2.629-.555 4.564c-.599.8-1.584 1.557-3.302 1.855-1.717.298-2.857-.146-3.64-.755a3.976 3.976 0 01-.92-1.02l-.804.134a4.1 4.1 0 01-.656 1.328c-.6.8-1.584 1.557-3.303 1.855-1.717.298-2.857-.145-3.641-.754-.77-.6-1.228-1.431-1.46-2.24-.293-1.018-.214-1.953-.214-1.948a2.001 2.001 0 011.646-1.818l5.289-.946a2.004 2.004 0 011.777.562l.847-.142zm-2.268 1.55c0-.002-.003-.001-.004-.001l-5.29.945h-.003v.006s-.044.594.142 1.24c.124.433.352.892.765 1.212.443.345 1.101.532 2.072.364 1.05-.182 1.678-.594 2.043-1.082.264-.354.38-.751.425-1.122a.998.998 0 01.826-.868l.095-.016a1 1 0 01-1.071-.678zm3.207.32a.999.999 0 011.06.618c.136.338.344.671.666.921.444.346 1.1.533 2.073.364 1.049-.181 1.677-.594 2.043-1.083.854-1.141.269-2.699.275-2.683 0-.002-.004 0-.006 0l-5.288.945h-.004v-.004.005a1 1 0 01-.82.917z" fill="#fff"/></svg>