<?xml version="1.0" encoding="UTF-8" standalone="no"?>
<!DOCTYPE svg PUBLIC "-//W3C//DTD SVG 1.1//EN" "http://www.w3.org/Graphics/SVG/1.1/DTD/svg11.dtd">
<svg width="100%" height="100%" viewBox="0 0 580 260" version="1.1" xmlns="http://www.w3.org/2000/svg" xmlns:xlink="http://www.w3.org/1999/xlink" xml:space="preserve" xmlns:serif="http://www.serif.com/" style="fill-rule:evenodd;clip-rule:evenodd;stroke-linejoin:round;stroke-miterlimit:2;">
    <g transform="matrix(1,0,0,1,-551,0)">
        <g id="type" transform="matrix(1.08584,0,0,1.04219,551.714,-303.717)">
            <rect x="0" y="291.618" width="533.452" height="248.494" style="fill:none;"/>
            <g transform="matrix(0.698871,0,0,0.728145,5.21739,54.2528)">
                <g transform="matrix(158.131,0,0,158.131,24.7618,449.92)">
                    <path d="M0.008,-0.6L0.123,-0.6L0.123,0L0.233,0L0.233,-0.6L0.348,-0.6L0.348,-0.7L0.008,-0.7L0.008,-0.6Z" style="fill:white;fill-rule:nonzero;"/>
                </g>
                <g transform="matrix(158.131,0,0,158.131,81.0564,449.92)">
                    <path d="M0.205,-0.29L0.255,-0.29L0.255,-0.161C0.255,-0.111 0.233,-0.093 0.198,-0.093C0.163,-0.093 0.141,-0.111 0.141,-0.161L0.141,-0.539C0.141,-0.589 0.163,-0.608 0.198,-0.608C0.233,-0.608 0.255,-0.589 0.255,-0.539L0.255,-0.464L0.359,-0.464L0.359,-0.532C0.359,-0.644 0.303,-0.708 0.195,-0.708C0.087,-0.708 0.031,-0.644 0.031,-0.532L0.031,-0.168C0.031,-0.056 0.087,0.008 0.195,0.008C0.303,0.008 0.359,-0.056 0.359,-0.168L0.359,-0.39L0.205,-0.39L0.205,-0.29Z" style="fill:white;fill-rule:nonzero;"/>
                </g>
                <g transform="matrix(158.131,0,0,158.131,142.727,449.92)">
                    <path d="M0.185,-0.705C0.084,-0.704 0.041,-0.634 0.041,-0.532C0.041,-0.339 0.309,-0.345 0.309,-0.168C0.309,-0.083 0.276,-0.016 0.184,-0.016C0.092,-0.016 0.059,-0.083 0.059,-0.168L0.059,-0.203L0.038,-0.203L0.038,-0.169C0.038,-0.072 0.078,0.005 0.184,0.005C0.291,0.005 0.331,-0.072 0.331,-0.169C0.331,-0.359 0.063,-0.354 0.063,-0.533C0.063,-0.616 0.094,-0.685 0.186,-0.685C0.277,-0.685 0.308,-0.615 0.308,-0.532L0.308,-0.518L0.33,-0.518L0.33,-0.531C0.33,-0.627 0.291,-0.705 0.185,-0.705Z" style="fill:white;fill-rule:nonzero;"/>
                </g>
                <g transform="matrix(158.131,0,0,158.131,201.078,449.92)">
                    <path d="M0.193,0L0.193,-0.679L0.346,-0.679L0.346,-0.7L0.019,-0.7L0.019,-0.679L0.171,-0.679L0.171,0L0.193,0Z" style="fill:white;fill-rule:nonzero;"/>
                </g>
                <g transform="matrix(158.131,0,0,158.131,253.103,449.92)">
                    <path d="M0.347,-0.165L0.388,0L0.41,0L0.237,-0.701L0.206,-0.701L0.037,0L0.057,0L0.098,-0.165L0.347,-0.165ZM0.221,-0.675L0.343,-0.185L0.102,-0.185L0.221,-0.675Z" style="fill:white;fill-rule:nonzero;"/>
                </g>
                <g transform="matrix(158.131,0,0,158.131,317.778,449.92)">
                    <path d="M0.193,0L0.193,-0.679L0.346,-0.679L0.346,-0.7L0.019,-0.7L0.019,-0.679L0.171,-0.679L0.171,0L0.193,0Z" style="fill:white;fill-rule:nonzero;"/>
                </g>
                <g transform="matrix(158.131,0,0,158.131,375.812,449.92)">
                    <rect x="0.04" y="-0.7" width="0.022" height="0.7" style="fill:white;fill-rule:nonzero;"/>
                </g>
                <g transform="matrix(158.131,0,0,158.131,391.941,449.92)">
                    <path d="M0.039,-0.172C0.039,-0.074 0.081,0.005 0.187,0.005C0.295,0.005 0.337,-0.074 0.337,-0.172L0.337,-0.528C0.337,-0.626 0.295,-0.705 0.187,-0.705C0.081,-0.705 0.039,-0.626 0.039,-0.528L0.039,-0.172ZM0.061,-0.529C0.061,-0.615 0.094,-0.685 0.187,-0.685C0.281,-0.685 0.315,-0.615 0.315,-0.529L0.315,-0.171C0.315,-0.085 0.281,-0.015 0.187,-0.015C0.094,-0.015 0.061,-0.085 0.061,-0.171L0.061,-0.529Z" style="fill:white;fill-rule:nonzero;"/>
                </g>
                <g transform="matrix(158.131,0,0,158.131,451.398,449.92)">
                    <path d="M0.061,-0.668L0.311,0L0.338,0L0.338,-0.7L0.317,-0.7L0.317,-0.045L0.071,-0.7L0.04,-0.7L0.04,0L0.061,0L0.061,-0.668Z" style="fill:white;fill-rule:nonzero;"/>
                </g>
            </g>
            <g transform="matrix(1.5056,0,0,1.56867,-81.8441,-250.157)">
                <g transform="matrix(97.8684,0,0,97.8684,65.99,495.372)">
                    <path d="M0.15,-0.3L0.275,-0.3L0.275,0L0.387,0L0.387,-0.7L0.275,-0.7L0.275,-0.4L0.15,-0.4L0.15,-0.7L0.04,-0.7L0.04,0L0.15,0L0.15,-0.3Z" style="fill:white;fill-rule:nonzero;"/>
                </g>
                <g transform="matrix(97.8684,0,0,97.8684,107.78,495.372)">
                    <path d="M0.284,-0.7L0.123,-0.7L0.011,0L0.112,0L0.131,-0.127L0.266,-0.127L0.285,0L0.396,0L0.284,-0.7ZM0.198,-0.576L0.251,-0.222L0.145,-0.222L0.198,-0.576Z" style="fill:white;fill-rule:nonzero;"/>
                </g>
                <g transform="matrix(97.8684,0,0,97.8684,147.612,495.372)">
                    <path d="M0.275,0L0.388,0L0.388,-0.7L0.29,-0.7L0.29,-0.281L0.177,-0.7L0.039,-0.7L0.039,0L0.138,0L0.138,-0.507L0.275,0Z" style="fill:white;fill-rule:nonzero;"/>
                </g>
                <g transform="matrix(97.8684,0,0,97.8684,189.402,495.372)">
                    <path d="M0.04,0L0.214,0C0.324,0 0.378,-0.061 0.378,-0.173L0.378,-0.527C0.378,-0.639 0.324,-0.7 0.214,-0.7L0.04,-0.7L0.04,0ZM0.212,-0.6C0.247,-0.6 0.268,-0.582 0.268,-0.532L0.268,-0.168C0.268,-0.118 0.247,-0.1 0.212,-0.1L0.15,-0.1L0.15,-0.6L0.212,-0.6Z" style="fill:white;fill-rule:nonzero;"/>
                </g>
                <g transform="matrix(97.8684,0,0,97.8684,229.332,495.372)">
                    <path d="M0.206,-0.7L0.04,-0.7L0.04,0L0.213,0C0.323,0 0.38,-0.058 0.38,-0.166L0.38,-0.223C0.38,-0.297 0.357,-0.35 0.298,-0.373C0.347,-0.396 0.369,-0.442 0.369,-0.514L0.369,-0.539C0.369,-0.647 0.32,-0.7 0.206,-0.7L0.206,-0.7ZM0.199,-0.315C0.249,-0.315 0.27,-0.295 0.27,-0.23L0.27,-0.169C0.27,-0.117 0.25,-0.1 0.213,-0.1L0.15,-0.1L0.15,-0.315L0.199,-0.315ZM0.203,-0.6C0.242,-0.6 0.259,-0.578 0.259,-0.528L0.259,-0.489C0.259,-0.433 0.234,-0.415 0.193,-0.415L0.15,-0.415L0.15,-0.6L0.203,-0.6Z" style="fill:white;fill-rule:nonzero;"/>
                </g>
                <g transform="matrix(97.8684,0,0,97.8684,269.067,495.372)">
                    <path d="M0.141,-0.539C0.141,-0.589 0.163,-0.608 0.198,-0.608C0.233,-0.608 0.255,-0.589 0.255,-0.539L0.255,-0.161C0.255,-0.111 0.233,-0.092 0.198,-0.092C0.163,-0.092 0.141,-0.111 0.141,-0.161L0.141,-0.539ZM0.031,-0.168C0.031,-0.056 0.09,0.008 0.198,0.008C0.306,0.008 0.365,-0.056 0.365,-0.168L0.365,-0.532C0.365,-0.644 0.306,-0.708 0.198,-0.708C0.09,-0.708 0.031,-0.644 0.031,-0.532L0.031,-0.168Z" style="fill:white;fill-rule:nonzero;"/>
                </g>
                <g transform="matrix(97.8684,0,0,97.8684,307.823,495.372)">
                    <path d="M0.141,-0.539C0.141,-0.589 0.163,-0.608 0.198,-0.608C0.233,-0.608 0.255,-0.589 0.255,-0.539L0.255,-0.161C0.255,-0.111 0.233,-0.092 0.198,-0.092C0.163,-0.092 0.141,-0.111 0.141,-0.161L0.141,-0.539ZM0.031,-0.168C0.031,-0.056 0.09,0.008 0.198,0.008C0.306,0.008 0.365,-0.056 0.365,-0.168L0.365,-0.532C0.365,-0.644 0.306,-0.708 0.198,-0.708C0.09,-0.708 0.031,-0.644 0.031,-0.532L0.031,-0.168Z" style="fill:white;fill-rule:nonzero;"/>
                </g>
                <g transform="matrix(97.8684,0,0,97.8684,346.579,495.372)">
                    <path d="M0.291,0L0.404,0L0.251,-0.388L0.404,-0.7L0.294,-0.7L0.15,-0.395L0.15,-0.7L0.04,-0.7L0.04,0L0.15,0L0.15,-0.215L0.184,-0.279L0.291,0Z" style="fill:white;fill-rule:nonzero;"/>
                </g>
            </g>
        </g>
    </g>
</svg>
