<svg xmlns="http://www.w3.org/2000/svg" xmlns:xlink="http://www.w3.org/1999/xlink" xml:space="preserve" style="fill-rule:evenodd;clip-rule:evenodd;stroke-linecap:round;stroke-linejoin:round;stroke-miterlimit:5" viewBox="0 0 32 32"><defs><path id="reuse-0" d="M173.512 201.241v-3.69" style="fill:none;stroke:#fff;stroke-width:2.81px"/><path id="reuse-1" d="m169.139 214.357 1.84-1.84" style="fill:none;stroke:#fff;stroke-width:2.54px"/></defs><path d="m167.192 180.751 2.401.026c.119.155.243.306.373.452l-.42.078-.363 1.164 1.207-.798.047.046.06.055-.036.007-.363 1.163 1-.66c.088.067.177.133.268.197l.018 1.308.7-.857.073.041.124.065.017 1.224.724-.884.022.009.164.062.773 2.295c-.298-.061-.591-.135-.879-.222l.231-1.196-1.08.898c-.328-.131-.648-.28-.958-.445l-.115-.113-.177-1.417-.632.976-.195-.136-.129-.094.627-.823-1.278.303c-.246-.215-.483-.442-.707-.68l-.096-.277.468-1.347-1.157.687c-.261-.352-.499-.722-.712-1.107Zm17.616 0c-.213.384-.45.753-.71 1.104l-.561-.407.223.841c-.345.416-.722.805-1.129 1.161l-1.045-.336.493.787c-.101.077-.204.152-.308.225l-.393-.745-.233 1.15c-.304.182-.618.348-.942.497l-.288-.029-1.024-.994.15 1.473c-.333.106-.675.195-1.022.266l.773-2.295c.257-.094.507-.202.752-.322l-.039.15.905.817-.204-1.331.139-.087.004-.003.874.788-.196-1.275.101-.082.019-.015.078-.021 1.303.579-.579-1.188.089-.023 1.303.578-.605-1.241 2.072-.022Zm-2.414.043.013-.017.028-.001-.041.018Zm-13.824-11.696.672 2.148-1.117-.115.828.831c-.047.086-.094.172-.139.26l-.971-.1.696.698c-.067.162-.128.327-.185.495l-1.083.235.883.466c-.023.094-.043.189-.062.285l-1.103.24.988.521-.018.201-.005.091-1.974 1.467c-.03-.31-.044-.622-.044-.938l.002-.211.173.233 1.203-.187-1.333-.785c.023-.245.055-.487.095-.727l.184-.402 1.269-.647-1.14-.267.076-.234.051-.143.973.308-.68-1.041c.177-.395.378-.776.602-1.143l1.405-.015-.895-.738c.203-.273.419-.535.649-.786Zm14.86 0-.722 2.31.085.129.028.045 1.363-.265-.896 1.109v.005l.038.08 1.259-.245-.896 1.109v.071l.012.04.033.109 1.3.143-1.023.663-.094-.053.021.108.011.067 1.486.164-1.023.662-.383-.214.012.128.005.091 1.974 1.467c.029-.305.044-.613.044-.924l-.007.033-1.473-.25 1.227-.725.163-.423c-.037-.276-.086-.549-.145-.818l-1.188-.604.972-.214c-.04-.125-.081-.25-.125-.374l-1.048.316.726-1.115c-.19-.417-.408-.819-.651-1.203l-1.161-.012.744-.598c-.209-.283-.431-.554-.668-.812Zm-7.5-3.279.07-.001c.123 0 .246.003.369.008l-.029.011-.128 1.213 1.151-1.139.169.024.104.017.692.573.241 1.124-.468.332-.166-1.034-.571.987-.137-.023-.168-.023-.154-.957-.519.897c-.128-.006-.256-.01-.386-.01l-.071.001-.552-1.071-.254 1.118-.149.017-.031.005-.595-1.156-.302 1.326-.029.007-2.004-1.424c.297-.129.602-.243.913-.343l-.005.006.423 1.144.477-1.392c.235-.052.473-.096.714-.131l.471.111.885 1.119.039-1.336Zm2.647.334.751.447-.434.818 1.093-.777c-.453-.196-.924-.36-1.41-.488Z" style="fill:#fff" transform="matrix(1.02836 .27484 -.27555 1.02571 -116.5873 -244.8858)"/><path d="M181.855 203.472c0-1.778-1.444-3.221-3.221-3.221h-6.443c-1.777 0-3.221 1.443-3.221 3.221v6.442c0 1.778 1.444 3.221 3.221 3.221h6.443c1.777 0 3.221-1.443 3.221-3.221v-6.442Z" style="fill:none;stroke:#fff;stroke-width:2.17px" transform="matrix(.65024 -.65024 .65024 .65024 -232.7938 -4.197)"/><use xlink:href="#reuse-0" style="fill:none;stroke:#fff;stroke-width:2.81px" transform="matrix(.57261 -.57261 .42467 .42467 -175.9972 27.775)"/><circle cx="187.126" cy="195.657" r="2.597" style="fill:none;stroke:#fff;stroke-width:2.18px" transform="matrix(.4868 -.4868 .4868 .4868 -180.8989 6.352)"/><use xlink:href="#reuse-0" style="fill:none;stroke:#fff;stroke-width:2.81px" transform="matrix(.57261 -.57261 .42467 .42467 -171.6166 23.395)"/><circle cx="187.126" cy="195.657" r="2.597" style="fill:none;stroke:#fff;stroke-width:2.18px" transform="matrix(.4868 -.4868 .4868 .4868 -176.5182 1.971)"/><use xlink:href="#reuse-0" style="fill:none;stroke:#fff;stroke-width:2.81px" transform="matrix(.57261 .57261 -.42467 .42467 4.459 -175.4829)"/><circle cx="187.126" cy="195.657" r="2.597" style="fill:none;stroke:#fff;stroke-width:2.18px" transform="matrix(.4868 .4868 -.4868 .4868 25.883 -180.3846)"/><use xlink:href="#reuse-0" style="fill:none;stroke:#fff;stroke-width:2.81px" transform="matrix(.57261 .57261 -.42467 .42467 8.84 -171.1023)"/><circle cx="187.126" cy="195.657" r="2.597" style="fill:none;stroke:#fff;stroke-width:2.18px" transform="matrix(.4868 .4868 -.4868 .4868 30.264 -176.004)"/><use xlink:href="#reuse-0" style="fill:none;stroke:#fff;stroke-width:2.81px" transform="matrix(-.57261 .57261 -.42467 -.42467 207.549 4.309)"/><circle cx="187.126" cy="195.657" r="2.597" style="fill:none;stroke:#fff;stroke-width:2.18px" transform="matrix(-.4868 .4868 -.4868 -.4868 212.451 25.733)"/><use xlink:href="#reuse-0" style="fill:none;stroke:#fff;stroke-width:2.81px" transform="matrix(-.57261 .57261 -.42467 -.42467 203.168 8.69)"/><circle cx="187.126" cy="195.657" r="2.597" style="fill:none;stroke:#fff;stroke-width:2.18px" transform="matrix(-.4868 .4868 -.4868 -.4868 208.07 30.114)"/><use xlink:href="#reuse-0" style="fill:none;stroke:#fff;stroke-width:2.81px" transform="matrix(-.57261 -.57261 .42467 -.42467 27.093 207.568)"/><circle cx="187.126" cy="195.657" r="2.597" style="fill:none;stroke:#fff;stroke-width:2.18px" transform="matrix(-.4868 -.4868 .4868 -.4868 5.669 212.469)"/><use xlink:href="#reuse-0" style="fill:none;stroke:#fff;stroke-width:2.81px" transform="matrix(-.57261 -.57261 .42467 -.42467 22.712 203.187)"/><circle cx="187.126" cy="195.657" r="2.597" style="fill:none;stroke:#fff;stroke-width:2.18px" transform="matrix(-.4868 -.4868 .4868 -.4868 1.288 208.089)"/><use xlink:href="#reuse-1" style="fill:none;stroke:#fff;stroke-width:2.54px" transform="matrix(.78638 0 0 .78638 -123.4687 -146.5965)"/><use xlink:href="#reuse-1" style="fill:none;stroke:#fff;stroke-width:2px" transform="translate(-149.1848 -202.4202)"/><use xlink:href="#reuse-1" style="fill:none;stroke:#fff;stroke-width:2.4px" transform="rotate(90 159.8128 28.9732) scale(.835)"/><use xlink:href="#reuse-1" style="fill:none;stroke:#fff;stroke-width:2.37px" transform="rotate(90 161.8288 39.2772) scale(.84375)"/><path d="M172.121 209.364h2.096l.02-3.067 2.235.007.004 3.06h2.386" style="fill:none;stroke:#fff;stroke-width:1.5px" transform="translate(-159.823133 -192.370546)"/></svg>