<svg viewBox="0 0 32 32" xmlns="http://www.w3.org/2000/svg" fill-rule="evenodd" clip-rule="evenodd" stroke-linecap="round" stroke-linejoin="round" stroke-miterlimit="10"><path d="M-11.439 5.261C-7.264 7.037-4.333 11.179-4.333 16c0 6.163-4.79 11.217-10.848 11.635l1.841-2.348c4.045-1.15 7.007-4.875 7.007-9.287a9.643 9.643 0 00-5.435-8.68l.329-2.059zm-6.109-.822l-2.045 2.593A9.658 9.658 0 00-25.667 16a9.644 9.644 0 005.33 8.629l-.59 1.945c-3.98-1.856-6.74-5.895-6.74-10.574 0-5.914 4.411-10.807 10.119-11.561zm.026 21.096l.431.066-.728.914.297-.98zm2.869-19.097l-.359-.055-.501-.025 1.096-1.39-.236 1.47zM-10.448-3.945l-1.555 1.572a.887.887 0 01-1.264 0l-13.551-13.695-.42.425a.887.887 0 01-1.264 0l-1.075-1.086a.91.91 0 010-1.278l11.616-11.739a.887.887 0 011.264 0l1.074 1.086a.91.91 0 010 1.277l-.42.425 13.551 13.695a.91.91 0 010 1.277l-1.88 1.901-1.571-1.587a.356.356 0 00-.124-.094l1.22-1.233c.206-.208.786-.049.58-.258a.523.523 0 00-.747 0l-8.093 8.18a.538.538 0 00-.001.755c.207.208-.038-.29.168-.497l.826-.835c.014.033.045.07.095.122l1.571 1.587zm-16.854-12.72l10.703-10.817c.262-.264.385-.568.276-.679-.109-.11-.262.165-.523.43L-27.55-16.915c-.26.264-.533.419-.424.529.109.11.41-.016.671-.28zm13.574 11.271l8.247-8.335-11.826-11.952-8.247 8.335 11.826 11.952zm-8.266-17.934l2.495-2.52a.537.537 0 000-.754.523.523 0 00-.747 0l-2.494 2.52a.537.537 0 000 .754c.207.209.54.209.746 0zM-8.216-9.594l1.43-1.446c.015.034.046.071.096.122l1.57 1.587-1.402 1.418-1.57-1.587a.356.356 0 00-.124-.094zm-3.18 3.214l2.462-2.487c.013.033.044.07.095.122l1.57 1.587L-9.7-4.7l-1.57-1.587a.353.353 0 00-.124-.093zm-14.619-12.884l2.494-2.52a.538.538 0 000-.754.524.524 0 00-.747 0l-2.493 2.52a.538.538 0 000 .755c.206.208.54.208.746 0zM21.364 24.397l3.157-2.72 1.446 3.498-1.3 1.268H20.95l.415-2.046zm-7.983 2.046H9.546l-.439-3.249 3.39 1.565.071.027.813 1.657zm-.703-5.995l2.94 5.995h3.29l1.198-5.918-3.47-3.583-3.958 3.506zM7.94 17.582l2.737 4.098-2.396-1.106a.982.982 0 00-1.01.112.995.995 0 00-.306.386l-.354-.236-1.149-3.254H7.94zm11.641-.5l2.02-4.062 5.23-2.157-.54 6.62-4.272 3.68.154-.76a1.032 1.032 0 00-.269-.923l-2.323-2.398zm-8.29 1.893L7.393 13.14l.671-5.713 5.425 3.676.991 5.044-3.19 2.827zm4.933-4.333l-.854-4.354a1.018 1.018 0 00-.428-.65l-.552-.374 4.2-3.545 1.544 4.21-1.385 4.316-.649 1.307-.702-.725a.983.983 0 00-1.174-.185zm7.48-4.69l-1.698.7.138-.428c.07-.22.065-.458-.014-.674l-.34-.928 1.914-1.615v2.945z" fill="#fff"/><path d="M235.946 40.494l.022-.019 5.725-4.737a.998.998 0 011.574.42l1.077 2.88 3.019-2.495a1 1 0 011.637.77v4.202l1.882-.761a1 1 0 011.371 1.01l-.707 8.523a.998.998 0 01-.351.681l-1.778 1.501 1.957 4.638a1 1 0 01-.23 1.112l-2.089 1.996a1 1 0 01-.691.277H231.97a1 1 0 01-.99-.864l-.538-3.897-1.908-1.244a.994.994 0 01-.395-.499l-1.745-4.844a1 1 0 01.941-1.339h2.539l-1.048-1.538a.998.998 0 01-.166-.682l.908-7.585a.998.998 0 011.546-.714l4.832 3.208z" fill="none" stroke="#fff" stroke-width=".99" transform="matrix(1 0 0 1.02 -223.296 -33.219)"/></svg>