<svg viewBox="0 0 32 32" xmlns="http://www.w3.org/2000/svg" fill-rule="evenodd" clip-rule="evenodd" stroke-linejoin="round" stroke-miterlimit="2"><path d="M29.333 8.537a5.99 5.99 0 00-5.987-5.987H8.654a5.99 5.99 0 00-5.987 5.987v14.927a5.99 5.99 0 005.987 5.987h14.692a5.99 5.99 0 005.987-5.987V8.537zm-2.18 0v14.927a3.809 3.809 0 01-3.807 3.807H8.654a3.81 3.81 0 01-3.808-3.807V8.537a3.81 3.81 0 013.808-3.808h14.692a3.809 3.809 0 013.807 3.808z" fill="#fff"/><path d="M9.633 12.369h12.734a2.18 2.18 0 000-4.359H9.633a2.18 2.18 0 000 4.359z" fill="#fff"/><path d="M13.82 10.188v12.19a2.18 2.18 0 004.359 0v-12.19a2.18 2.18 0 00-4.36 0z" fill="#fff"/></svg>