<svg xmlns="http://www.w3.org/2000/svg" xml:space="preserve" style="fill-rule:evenodd;clip-rule:evenodd;stroke-linecap:round;stroke-linejoin:round;stroke-miterlimit:5" viewBox="0 0 32 35"><path d="m10.42 201.113 4.778-5.308c.199-.22.485-.341.782-.33 0 0 3.276.126 3.916.15.487.019.91.342 1.056.807l.644 2.047 1.254-.181c1.043-.152 2.058.415 2.477 1.382.248.572.577 1.331.892 2.058.048.111.091.222.127.335l.158.031c.351.067.639.316.756.654l1.06 3.052c.232.665.229 1.384.001 2.041l.5 1.798c.286 1.031-.211 2.119-1.178 2.577l-3.761 1.78-2.377 2.642c-.857.953-2.008 1.592-3.27 1.817-1.498.266-3.702.659-5.091.906-.672.119-1.298.42-1.812.868-.03.026-.046.04-.046.04l-1.315-1.507s.016-.014.045-.04c.788-.687 1.748-1.147 2.777-1.33 1.389-.247 3.593-.64 5.091-.906.824-.147 1.575-.564 2.135-1.186l.686-.763c-.317-.127-.614-.316-.871-.563 0 0 0-.001-.001-.001-.735-.707-1.016-1.733-.793-2.683l-.38-.189c-1.093.982-2.71 1.158-3.997.405l-3.053-1.787-.576 1.334c-.219.507-.807.741-1.314.522-.507-.219-.741-.808-.522-1.315l.673-1.558-.138-.081c-.476-.279-.636-.892-.358-1.368.279-.476.892-.637 1.368-.358 0 0 2.979 1.743 4.93 2.885.566.331 1.287.227 1.736-.251h.001c.514-.546.528-1.394.032-1.957-.862-.98-1.929-2.193-2.703-3.072-.51-.58-1.213-.957-1.979-1.061-.957-.13-2.183-.297-3.154-.429-.566-.077-1.12.207-1.388.711-.667 1.252-1.597 3.001-2.091 3.929-.146.274-.222.579-.222.889v4.634c0 .861-.286 1.699-.812 2.38-.314.407-.633.819-.633.819-.337.437-.966.518-1.403.18-.436-.337-.517-.965-.18-1.402 0 0 .319-.413.633-.819.256-.332.395-.739.395-1.158v-4.634c0-.638.157-1.266.457-1.829.493-.928 1.424-2.676 2.09-3.929.662-1.243 2.028-1.942 3.423-1.752l.545.074Zm16.32 8.519c-.184.09-.378.162-.58.214l-4.81 1.247-.258.412c-.208.333-.155.765.128 1.037l.001.001c.214.206.533.258.802.131 1.316-.623 3.525-1.669 4.764-2.256.088-.041.133-.14.107-.234l-.154-.552Zm-7.042-.238.082.04 5.878-1.524c.301-.078.556-.279.703-.553.147-.274.172-.597.07-.891l-.45-1.297c-.343.565-.839 1.044-1.464 1.37l-4.744 2.47c-.018.13-.043.258-.075.385Zm-.286-2.452 4.181-2.177c.808-.421 1.154-1.396.791-2.232-.315-.726-.644-1.486-.892-2.058-.06-.139-.205-.22-.355-.198l-.933.135.272.865c.3.955-.038 1.995-.842 2.591-1.014.752-2.666 1.977-2.666 1.977-.082.061-.172.108-.267.139l.243.277c.186.212.343.441.468.681Zm-6.594-5.504.212.029c1.242.169 2.382.78 3.211 1.722l.829.943.941-.067 2.432-1.803c.12-.089.17-.243.125-.385l-1.345-4.276-2.852-.11-3.553 3.947Z" style="fill:#fff" transform="matrix(1.01595 0 0 1.0425 -.0288444 -229.71127)"/><path d="m244.314 210.752-.198-1.063h-4.042v-.344h3.978l-.205-1.098c-1.074-.194-1.872-.861-1.947-1.675h-1.826v-.343h1.838c.103-.653.667-1.21 1.448-1.502-.035-.003-.071-.004-.107-.004h-.233v-1.727h-1.515v1.727h-.234c-.66 0-1.197.369-1.197.823v4.825c0 .454.537.823 1.197.823h1.982c.461 0 .861-.179 1.061-.442Zm-.784-8.663c0-.124-.147-.225-.328-.225h-1.904c-.181 0-.328.101-.328.225v.45c0 .124.147.225.328.225h1.904c.181 0 .328-.101.328-.225v-.45Z" style="fill:#fff" transform="matrix(2.16144 0 .0642 3.14486 -527.70092501 -633.02727905)"/><path d="m5.161 230.414 3.618 21.272c4.679 1.178 9.357 1.204 14.036 0l3.244-21.334c-6.966 1.59-13.932 1.623-20.898.062Z" style="fill:none;stroke:#fff;stroke-width:3.51px" transform="matrix(.57484 0 0 .69773 12.2342398 -144.99525816)"/><path d="M12.781 240.856s4.245-1.49 9.035-.033" style="fill:none;stroke:#fff;stroke-width:1px" transform="translate(-1.7931058 -304.93211978) scale(1.32961)"/><path d="M9.801 236.298c-.292.049-.592.074-.897.074-3.056 0-5.536-2.481-5.536-5.537 0-3.055 2.48-5.536 5.536-5.536 2.691 0 4.937 1.925 5.433 4.472l-.15.033-1.823-3.084-3.366 4.276-.001-.077.01.009-.003-.027 3.224-4.269-3.486-1.175.237 5.265-.714-5.119-3.296 1.634 3.3 3.016-3.516-2.669-1.183 3.484 5.266-.225-5.121.702 1.626 3.3 3.235-3.523-2.955 3.666 3.448 1.284-.071-5.257.495-.107.308 5.39Z" style="fill:#fff;stroke:#fff;stroke-width:1.5px" transform="matrix(.74793 0 0 .74793 8.01379174 -156.61737917)"/><path d="m22.538 239.661.967-7.954c.017-.137.072-.266.16-.373l.692-.839c.082-.099.188-.174.308-.218l3.886-1.431c.375-.138.524.152.662.526.138.375.212.693-.162.831l-3.703 1.363-.433.525-.863 7.105c.187-.023.379.015.545.112.214.124.366.332.418.574l.425 1.977c.104-.003.212-.01.324-.022 1.119-.118.78.147.78.147l-1.322 9.214H17.73l-1.494-8.186s.468-.422 1.226-.854l-.408-.75c-.202-.372-.11-.836.22-1.102.36-.29.832-.67 1.231-.992.203-.163.467-.228.722-.177.255.051.474.213.598.441l.477.876 1.686-.291c.096-.231.289-.419.544-.5l.006-.002Zm-2.944 1.055-.175-.321c-.08-.148-.222-.253-.388-.286-.165-.033-.337.009-.469.115-.234.189-.504.407-.717.578-.214.172-.274.474-.143.715.201.368.495.909.72 1.324.081.148.223.253.389.286.165.033.337-.009.468-.115l.2-.161c-.007-.032-.013-.064-.017-.097-.048-.41-.104-.889-.15-1.287-.034-.292.079-.567.282-.751Zm4.891 2.102c.279-.088.446-.375.384-.662-.095-.442-.234-1.086-.335-1.558-.034-.157-.132-.292-.271-.373-.139-.08-.305-.098-.458-.05-.246.079-.527.168-.761.242-.28.089-.446.376-.384.662.095.443.233 1.087.335 1.559.033.157.132.292.271.373.138.08.305.098.458.05.246-.079.527-.168.761-.243Zm-2.493-1.895c-.111-.059-.239-.08-.364-.059-.327.057-.729.126-1.045.181-.298.051-.503.327-.468.627.023.204.051.437.075.647.018.155.099.296.225.39.125.093.283.131.437.105.327-.057.729-.126 1.045-.181.176-.031.32-.139.401-.286l-.306-1.424Z" style="fill:#fff" transform="matrix(1.10083 0 0 1.10083 -2.26277724 -245.37802098)"/></svg>