<svg viewBox="0 0 32 32" xmlns="http://www.w3.org/2000/svg" fill-rule="evenodd" clip-rule="evenodd" stroke-linejoin="round" stroke-miterlimit="2"><path d="M26.588-18.966a1 1 0 00-1.225-.707L7.94-15.005c-.534.144-.85.692-.708 1.225l2.784 10.39a1 1 0 001.225.707l17.423-4.669a1 1 0 00.707-1.225l-2.783-10.39zM13.457-5.916l3.29-.88c.496-.134.8-.606.68-1.055-.12-.449-.62-.705-1.117-.573l-3.29.882c-.496.133-.801.605-.68 1.054.12.449.62.705 1.117.573zM12.315-8.83l3.29-.881c.496-.134.8-.606.68-1.055-.12-.449-.62-.705-1.117-.572l-3.29.881c-.496.134-.801.605-.68 1.054.12.449.62.706 1.117.573zm8.76-6.528a3.366 3.366 0 00-2.38 4.12 3.367 3.367 0 004.122 2.378 3.367 3.367 0 002.378-4.12 3.366 3.366 0 00-4.12-2.378zm-9.817 3.57l3.29-.882c.496-.132.8-.606.68-1.054-.12-.45-.62-.705-1.116-.573l-3.29.882c-.496.133-.802.605-.68 1.054.119.45.62.706 1.116.572zm10.27-1.878a1.614 1.614 0 01.835 3.116 1.614 1.614 0 01-.835-3.116zM9.523-19.66a5.6 5.6 0 011.905-.918 5.662 5.662 0 012.197-.15L12.49-18.13c-.128.016-.257.041-.385.075l-.28.092-2.301-1.697zm-3.384-2.494a9.342 9.342 0 014.258-2.477 9.342 9.342 0 014.927.016l-1.063 2.433a6.682 6.682 0 00-3.188.075 6.682 6.682 0 00-2.797 1.528l-2.137-1.575zm-3.472-2.559a13.025 13.025 0 016.59-4.171 13.03 13.03 0 017.795.317l-1.05 2.4a10.437 10.437 0 00-6.068-.194 10.437 10.437 0 00-5.159 3.202l-2.108-1.554zM12.23 23.403a1.283 1.283 0 01-.007-.142c0-.322-.116-.686-.275-1.087-.312-.788-.802-1.672-1.289-2.589-.934-1.759-1.819-3.637-1.819-5.252 0-3.495 3.083-6.39 6.945-6.39s6.945 2.895 6.945 6.39c0 1.34-.878 3.166-1.815 4.97-.755 1.451-1.568 2.88-1.568 3.958l-.008.143c.02.082.03.168.03.256v4.577c0 .605-.49 1.097-1.096 1.097h-4.976a1.096 1.096 0 01-1.097-1.097V23.66c0-.089.01-.174.03-.257zm.63 4.223v.227c0 .498.402.902.895.902h4.06a.899.899 0 00.894-.902V24.09a.899.899 0 00-.894-.902h-4.06a.899.899 0 00-.895.902v.546c0-.396.402-.716.895-.716h4.06c.493 0 .894.32.894.716v2.991c0 .396-.4.717-.894.717h-4.06c-.493 0-.895-.32-.895-.717zm4.758-5.063l.046-5.481c0-.154-.064-.3-.177-.404l-.8-.733a.544.544 0 00-.812.083l-.202.278-.231-.291a.539.539 0 00-.8-.056l-.76.735a.536.536 0 00-.166.388l.038 5.481h.995l.037-5.25.17-.162.31.394a.546.546 0 00.868-.017l.266-.364.175.16.045 5.24h.998zM15.74 9.403s-2 .058-3.614 1.43c-.385.326-.748.728-1.047 1.22-.365.6-.64 1.334-.768 2.221a.736.736 0 001.445.263 4.669 4.669 0 01.69-1.615c.225-.339.48-.62.748-.855 1.183-1.043 2.636-1.199 2.636-1.199a.735.735 0 00-.09-1.466zM9.407 5.448l-1.048-.94A1.5 1.5 0 006.355 6.74l1.047.94a1.5 1.5 0 002.005-2.232zM24.167 7.68l1.048-.94a1.5 1.5 0 00-2.005-2.232l-1.047.94a1.5 1.5 0 002.004 2.233zM6.058 19.205l-.582.39a1.5 1.5 0 001.667 2.493l.582-.389a1.5 1.5 0 00-1.667-2.494zM5.452 11.927H2.667a1.5 1.5 0 000 3h2.785a1.5 1.5 0 000-3zM17.121 4.685V2.194a1.501 1.501 0 00-3 0v2.491a1.5 1.5 0 003 0zM23.623 21.7l1.169.78a1.5 1.5 0 001.667-2.493l-1.168-.782a1.5 1.5 0 00-1.668 2.494zM26.119 14.927h2.495a1.501 1.501 0 000-3h-2.496a1.5 1.5 0 000 3z" fill="#fff"/><g><path d="M16.31 40.852c3.02-1.958 7.309-4.454 9.655-5.444.934-.394 1.653-.536 2-.495a1.22 1.22 0 011.112 1.197c.012.324-.156 1.01-.548 1.91-1.01 2.323-3.455 6.597-5.382 9.621l.046 4.527c.002.213-.061.423-.18.6l-3.329 4.923a1.052 1.052 0 01-1.91-.763l.79-4.75c-.319.08-.646.129-.976.147-1.565-2.35-3.54-4.314-5.914-5.907.018-.332.067-.661.148-.981l-4.75.79a1.053 1.053 0 01-.763-1.912l4.923-3.328c.177-.119.386-.182.6-.18l4.479.045zm2.29 8.66l-4.014-4.016c-.295-.294-1.146-.407-1.065 0 .015.075.028.298.234.388 1.407.609 3.902 3.387 4.483 4.477.112.21.318.225.362.215.404-.098.294-.77 0-1.065zm5.527-9.639a2.437 2.437 0 01-3.446 3.445 2.437 2.437 0 013.446-3.445zm-.747.747a1.38 1.38 0 11-1.953 1.95 1.38 1.38 0 011.953-1.95z" fill="#fff"/></g></svg>