<svg viewBox="0 0 32 32" xmlns="http://www.w3.org/2000/svg" fill-rule="evenodd" clip-rule="evenodd" stroke-linejoin="round" stroke-miterlimit="2"><path d="M13.549 12.928c-1.676 2.251-9.623 12.936-9.541 13.01.092.083.4.329.488.244.203-.17.898-.755 1.694-1.701.202-.239.415-.497.63-.777.303-.395.613-.831.936-1.286 1.163-1.634 2.447-3.555 3.609-5.226a568.052 568.052 0 012.727-3.893c.692.474 1.299.933 1.84 1.374-1.27 1.57-2.642 3.243-3.882 4.892-3.2 4.255-5.808 8.139-5.808 8.139-.615.829-1.837 1.038-2.728.466-.892-.573-1.115-1.711-.5-2.54 0 0 2.973-3.65 6.11-7.945 1.254-1.715 2.482-3.561 3.637-5.267l.788.51zm6.551 3.6c-1.422-1.561-3.412-3.463-7.21-5.673l2.828-4.558L12.42 4.81c4-2.647 8.641.352 12.688 3.611a8.312 8.312 0 002.129 1.241c.788.317 1.682.673 1.682.673s-2.809 6.881-6.394 8.813c-.64-.578-1.213-1.258-1.9-2.035 1.714-1.543 5.035-5.717 4.927-8.072-1.037 2.987-2.891 5.46-5.45 7.487z" fill="#fff"/></svg>