<svg viewBox="0 0 32 32" xmlns="http://www.w3.org/2000/svg" fill-rule="evenodd" clip-rule="evenodd" stroke-linejoin="round" stroke-miterlimit="2"><path d="M-5.412 13.034a1 1 0 00-1.225-.707l-17.423 4.668c-.534.144-.85.692-.708 1.225l2.784 10.39a1 1 0 001.225.707l17.423-4.669a1 1 0 00.707-1.225l-2.783-10.39zm-13.131 13.05l3.29-.88c.496-.134.8-.606.68-1.055-.12-.449-.62-.705-1.117-.573l-3.29.882c-.496.133-.801.605-.68 1.054.12.449.62.705 1.117.573zm-1.142-2.915l3.29-.881c.496-.134.8-.606.68-1.055-.12-.449-.62-.705-1.117-.572l-3.29.881c-.496.134-.801.605-.68 1.054.12.449.62.706 1.117.573zm8.76-6.528a3.366 3.366 0 00-2.38 4.12 3.367 3.367 0 004.122 2.378 3.367 3.367 0 002.378-4.12 3.366 3.366 0 00-4.12-2.378zm-9.817 3.57l3.29-.882c.496-.132.8-.606.68-1.054-.12-.45-.62-.705-1.116-.573l-3.29.882c-.496.133-.802.605-.68 1.054.119.45.62.706 1.116.572zm10.27-1.878a1.614 1.614 0 01.835 3.116 1.614 1.614 0 01-.835-3.116zM4.535 7.735l3.242-.868c.007.053.018.106.032.159l1.186 4.425a1.511 1.511 0 001.85 1.067l7.92-2.122a1.51 1.51 0 001.067-1.85l-1.185-4.424a1.362 1.362 0 00-.05-.155l3.24-.868c.087-.023.174-.04.262-.051l.05-.008.022-.002c.116-.012.231-.014.346-.008l.05.004c.035.004.07.008.104.01l.056.01a2.137 2.137 0 011.729 1.554l.002.004 4.636 17.302a2.14 2.14 0 01-1.513 2.62l-.405.109a2.122 2.122 0 00-.013-1.055l-2.91-10.855a2.139 2.139 0 00-2.62-1.513l-12.47 3.342a2.14 2.14 0 00-1.513 2.62l2.909 10.855c.095.358.277.67.515.92l-.795.214c-.21.056-.424.079-.637.071l-.093-.006-.103-.01-.038-.007a2.175 2.175 0 01-.753-.262 2.155 2.155 0 01-.996-1.3L3.023 10.356a2.138 2.138 0 01.29-1.745l.038-.056.064-.083.05-.06c.097-.114.206-.218.325-.309l.08-.059c.03-.018.059-.037.088-.057l.04-.023a2.1 2.1 0 01.537-.228zm8.275 20.757a2.138 2.138 0 01-1.558-1.524l-2.467-9.207a2.138 2.138 0 011.512-2.619l10.644-2.852a2.139 2.139 0 012.62 1.512l2.467 9.207a2.143 2.143 0 01-.588 2.1l-12.63 3.383zm10.724-9.02a.968.968 0 00-1.187-.686l-9.65 2.586a.97.97 0 00.502 1.873l9.65-2.585a.97.97 0 00.685-1.187v-.001zm-1.061-3.17a.968.968 0 00-1.187-.685l-9.65 2.585a.968.968 0 00.502 1.873l9.65-2.585a.968.968 0 00.685-1.187v-.001zM17.562 4.245c.236.198.407.464.487.765l.822 3.066a1.51 1.51 0 01-1.067 1.849l-6.362 1.705a1.511 1.511 0 01-1.85-1.068l-.82-3.065a1.515 1.515 0 01.038-.907l8.752-2.345zm-.903 1.438a.47.47 0 00-.576-.333l-1.23.33a.47.47 0 00-.333.576l.821 3.065a.47.47 0 00.577.333l1.23-.33a.47.47 0 00.333-.576l-.822-3.065z" fill="#fff"/></svg>