<svg viewBox="0 0 32 32" xmlns="http://www.w3.org/2000/svg" fill-rule="evenodd" clip-rule="evenodd" stroke-linejoin="round" stroke-miterlimit="2"><path d="M-11.439 37.261C-7.264 39.037-4.333 43.179-4.333 48c0 6.163-4.79 11.217-10.848 11.635l1.841-2.348c4.045-1.15 7.007-4.875 7.007-9.287a9.643 9.643 0 00-5.435-8.68l.329-2.059zm-6.109-.822l-2.045 2.593A9.658 9.658 0 00-25.667 48a9.644 9.644 0 005.33 8.629l-.59 1.945c-3.98-1.856-6.74-5.895-6.74-10.574 0-5.914 4.411-10.807 10.119-11.561zm.026 21.096l.431.066-.728.914.297-.98zm2.869-19.097l-.359-.055-.501-.025 1.096-1.39-.236 1.47zM22.005 26.607a1.87 1.87 0 00-1.72-1.137H11.65l-1.136 2.67a.858.858 0 00.79 1.193h10.563a.857.857 0 00.79-1.194l-.652-1.532zm-9.982.46h8.78a.4.4 0 000-.8h-8.78a.4.4 0 000 .8z" fill="#fff"/><path d="M22.005 26.607a1.87 1.87 0 00-1.72-1.137H11.65l-1.136 2.67a.858.858 0 00.79 1.193h10.563a.857.857 0 00.79-1.194l-.652-1.532zm-9.982.46h8.78a.4.4 0 000-.8h-8.78a.4.4 0 000 .8z" fill="#fff"/><path d="M26.437 4.272a1.87 1.87 0 00-1.851-1.605H7.415c-.93 0-1.72.684-1.851 1.605L2.696 24.348a1.873 1.873 0 001.85 2.135h22.908a1.868 1.868 0 001.851-2.135L26.437 4.272zM4.697 24.483h22.606l-2.83-19.817H7.528L4.697 24.483z" fill="#fff"/><path d="M25.032 18.256l.384 2.69a1.869 1.869 0 01-1.851 2.135H20.04v-.032l-.241-4.793h5.233zm-6.268 4.825H13.3l.242-4.825h4.979l.242 4.825zm-6.74-.032v.032H8.437a1.869 1.869 0 01-1.852-2.134l.384-2.691h5.298l-.241 4.793zm.306-6.07H7.15l.717-5.01h4.715l-.252 5.01zm6.126 0h-4.85l.253-5.01h4.345l.252 5.01zm6.394 0h-5.116l-.252-5.01h4.652l.716 5.01zM12.88 6.07l-.234 4.625H8.05l.431-3.02a1.87 1.87 0 011.852-1.605h2.548zm5.027 0l.233 4.625h-4.215l.232-4.625h3.75zm1.278 0h2.484c.931 0 1.72.685 1.851 1.606l.432 3.019h-4.535l-.232-4.625zM-10.448 28.055l-1.555 1.572a.887.887 0 01-1.264 0l-13.551-13.695-.42.425a.887.887 0 01-1.264 0l-1.075-1.086a.91.91 0 010-1.278L-17.96 2.254a.887.887 0 011.264 0l1.074 1.086a.91.91 0 010 1.277l-.42.425 13.551 13.695a.91.91 0 010 1.277l-1.88 1.901-1.571-1.587a.356.356 0 00-.124-.094l1.22-1.233c.206-.208.786-.049.58-.258a.523.523 0 00-.747 0l-8.093 8.18a.538.538 0 00-.001.755c.207.208-.038-.29.168-.497l.826-.835c.014.033.045.07.095.122l1.571 1.587zm-16.854-12.72l10.703-10.817c.262-.264.385-.568.276-.679-.109-.11-.262.165-.523.43L-27.55 15.085c-.26.264-.533.419-.424.529.109.11.41-.016.671-.28zm13.574 11.271l8.247-8.335L-17.307 6.32l-8.247 8.335 11.826 11.952zm-8.266-17.934l2.495-2.52a.537.537 0 000-.754.523.523 0 00-.747 0l-2.494 2.52a.537.537 0 000 .754c.207.209.54.209.746 0zm13.778 13.734l1.43-1.446c.015.034.046.071.096.122l1.57 1.587-1.402 1.418-1.57-1.587a.356.356 0 00-.124-.094zm-3.18 3.214l2.462-2.487c.013.033.044.07.095.122l1.57 1.587L-9.7 27.3l-1.57-1.587a.353.353 0 00-.124-.093zm-14.619-12.884l2.494-2.52a.538.538 0 000-.754.524.524 0 00-.747 0l-2.493 2.52a.538.538 0 000 .755c.206.208.54.208.746 0z" fill="#fff"/></svg>