<svg viewBox="0 0 32 32" xmlns="http://www.w3.org/2000/svg" fill-rule="evenodd" clip-rule="evenodd" stroke-linejoin="round" stroke-miterlimit="2"><path d="M26.588 13.034a1 1 0 00-1.225-.707L7.94 16.995c-.534.144-.85.692-.708 1.225l2.784 10.39a1 1 0 001.225.707l17.423-4.669a1 1 0 00.707-1.225l-2.783-10.39zm-13.131 13.05l3.29-.88c.496-.134.8-.606.68-1.055-.12-.449-.62-.705-1.117-.573l-3.29.882c-.496.133-.801.605-.68 1.054.12.449.62.705 1.117.573zm-1.142-2.915l3.29-.881c.496-.134.8-.606.68-1.055-.12-.449-.62-.705-1.117-.572l-3.29.881c-.496.134-.801.605-.68 1.054.12.449.62.706 1.117.573zm8.76-6.528a3.366 3.366 0 00-2.38 4.12 3.367 3.367 0 004.122 2.378 3.367 3.367 0 002.378-4.12 3.366 3.366 0 00-4.12-2.378zm-9.817 3.57l3.29-.882c.496-.132.8-.606.68-1.054-.12-.45-.62-.705-1.116-.573l-3.29.882c-.496.133-.802.605-.68 1.054.119.45.62.706 1.116.572zm10.27-1.878a1.614 1.614 0 01.835 3.116 1.614 1.614 0 01-.835-3.116zM9.523 12.34a5.6 5.6 0 011.905-.918 5.662 5.662 0 012.197-.15L12.49 13.87c-.128.016-.257.041-.385.075l-.28.092-2.301-1.697zM6.139 9.846a9.342 9.342 0 014.258-2.477 9.342 9.342 0 014.927.016L14.26 9.818a6.682 6.682 0 00-3.188.075 6.682 6.682 0 00-2.797 1.528L6.139 9.846zM2.667 7.287a13.025 13.025 0 016.59-4.171 13.03 13.03 0 017.795.317l-1.05 2.4a10.437 10.437 0 00-6.068-.194 10.437 10.437 0 00-5.159 3.202L2.667 7.287zM17.122 36.684v-2.49a1.501 1.501 0 00-3 0v2.49a1.5 1.5 0 003 0z" fill="#fff"/></svg>