<svg viewBox="0 0 32 32" xmlns="http://www.w3.org/2000/svg" fill-rule="evenodd" clip-rule="evenodd" stroke-linejoin="round" stroke-miterlimit="2"><path d="M10.001 3.873a1.56 1.56 0 00-1.494.863l-4.71 9.968c-.2.405-.185.883.04 1.274 0 0 1.587 2.605 3.11 5.25 1.522 2.644 2.979 5.325 2.979 5.325.228.395.639.649 1.094.678l10.99.869a1.538 1.538 0 001.473-.85l4.738-9.956a1.353 1.353 0 00-.04-1.28s-1.598-2.6-3.127-5.24c-1.53-2.641-2.99-5.32-2.99-5.32a1.34 1.34 0 00-1.075-.667l-10.988-.914zm10.13 3.557l-9.302-.4-4.297 8.256c.527.955 1.563 2.818 2.63 4.662a277.167 277.167 0 002.73 4.597l9.302.44 4.277-8.277a264.188 264.188 0 00-2.614-4.667 255.043 255.043 0 00-2.726-4.611zm-4.203 9.474l-.006-.118c0-.76.618-1.377 1.377-1.377h2.657a1.377 1.377 0 010 2.755h-1.28v1.32h1.28a1.378 1.378 0 010 2.754H17.3l-.141-.008-.137-.02-.133-.034-.02-.008a1.375 1.375 0 01-.947-1.308v-3.837l.006-.12zm-4.102-3.75h-.542a1.378 1.378 0 010-2.753h3.838a1.378 1.378 0 010 2.754h-.542v2.963a1.378 1.378 0 01-2.754 0v-2.963z" fill="#fff"/></svg>