<svg viewBox="0 0 32 32" xmlns="http://www.w3.org/2000/svg" fill-rule="evenodd" clip-rule="evenodd" stroke-linecap="round" stroke-linejoin="round" stroke-miterlimit="1.5"><path d="M12.072 14.416V4.121a1.455 1.455 0 011.454-1.454h5.09a1.455 1.455 0 011.453 1.454v10.295l5.722 10.449a3.018 3.018 0 01-2.647 4.468H8.997a3.018 3.018 0 01-2.648-4.468l5.723-10.449zm6.027-9.779h-4.057v10.031a.99.99 0 01-.121.473l-5.844 10.67a1.048 1.048 0 00.92 1.553l14.147-.001a1.047 1.047 0 00.92-1.553c-2.207-4.027-5.844-10.669-5.844-10.669a.979.979 0 01-.12-.473V4.637zm-2.604 13.402h3.489l3.926 7.628a.556.556 0 01-.492.807H9.723a.554.554 0 01-.492-.807l3.926-7.628h1.23l-3.107 6.053a.493.493 0 00.876.45l3.339-6.503z" fill="#fff"/><path d="M59.485 10.232c0-3.183-2.446-5.767-5.46-5.767h-10.92c-3.014 0-5.461 2.584-5.461 5.767v11.536c0 3.183 2.447 5.767 5.461 5.767h10.92c3.014 0 5.46-2.584 5.46-5.767V10.232z" fill="none" stroke="#fff" stroke-width="2.97" transform="rotate(45 41.436 21.869) scale(.86333 .81734)"/></svg>