<svg viewBox="0 0 32 32" xmlns="http://www.w3.org/2000/svg" fill-rule="evenodd" clip-rule="evenodd" stroke-linecap="round" stroke-linejoin="round" stroke-miterlimit="10"><path d="M41.523-19.66a5.6 5.6 0 011.905-.918 5.662 5.662 0 012.197-.15L44.49-18.13c-.128.016-.257.041-.384.075l-.28.092-2.302-1.697zm-3.384-2.494a9.342 9.342 0 014.258-2.477 9.342 9.342 0 014.927.016l-1.063 2.433a6.682 6.682 0 00-3.187.075 6.682 6.682 0 00-2.798 1.528l-2.137-1.575zm-3.472-2.559a13.025 13.025 0 016.59-4.171 13.03 13.03 0 017.795.317l-1.05 2.4a10.437 10.437 0 00-6.068-.194 10.437 10.437 0 00-5.159 3.202l-2.108-1.554z" fill="#fff"/><path d="M24.878 11.56a4.44 4.44 0 00-4.439-4.44H11.56a4.44 4.44 0 00-4.439 4.44v8.879a4.44 4.44 0 004.44 4.44h8.878a4.44 4.44 0 004.44-4.44V11.56z" fill="none" stroke="#fff" stroke-width="1.9976940000000003"/><path d="M77.333 104v-2.667" fill="none" stroke="#fff" stroke-width="2.97" transform="matrix(1.10983 0 0 .89721 -72.787 -86.756)"/><path d="M77.333 104v-2.667" fill="none" stroke="#fff" stroke-width="2.97" transform="matrix(1.10983 0 0 .89721 -66.868 -86.756)"/><path d="M77.333 104v-2.667" fill="none" stroke="#fff" stroke-width="3.13" transform="matrix(1.10983 0 0 .77909 -72.787 -53.187)"/><path d="M77.333 104v-2.667" fill="none" stroke="#fff" stroke-width="3.13" transform="matrix(1.10983 0 0 .77909 -66.868 -53.187)"/><path d="M77.333 104v-2.667" fill="none" stroke="#fff" stroke-width="3" transform="matrix(0 1.10983 -.87358 0 116.362 -72.787)"/><path d="M77.333 104v-2.667" fill="none" stroke="#fff" stroke-width="3" transform="matrix(0 1.10983 -.87358 0 116.362 -66.868)"/><path d="M77.333 104v-2.667" fill="none" stroke="#fff" stroke-width="3.07" transform="matrix(0 1.10983 -.82634 0 90.1 -72.787)"/><path d="M77.333 104v-2.667" fill="none" stroke="#fff" stroke-width="3.07" transform="matrix(0 1.10983 -.82634 0 90.1 -66.868)"/><path d="M11.626 20.298V14.04c0-1.208.979-2.187 2.186-2.187h.001c1.208 0 2.187.98 2.187 2.187v6.196M20.437 20.298v-8.444M12.176 17.055H16" fill="none" stroke="#fff" stroke-width="2.9965410000000006"/><g><path d="M37.451 11.926h-2.785a1.5 1.5 0 000 3h2.785a1.5 1.5 0 000-3z" fill="#fff"/></g></svg>