<svg viewBox="0 0 32 32" xmlns="http://www.w3.org/2000/svg" fill-rule="evenodd" clip-rule="evenodd" stroke-linecap="round" stroke-linejoin="round" stroke-miterlimit="10"><path d="M41.523 12.34a5.6 5.6 0 011.905-.918 5.662 5.662 0 012.197-.15L44.49 13.87c-.128.016-.257.041-.384.075l-.28.092-2.302-1.697zm-3.384-2.494a9.342 9.342 0 014.258-2.477 9.342 9.342 0 014.927.016L46.26 9.818a6.682 6.682 0 00-3.187.075 6.682 6.682 0 00-2.798 1.528l-2.137-1.575zm-3.472-2.559a13.025 13.025 0 016.59-4.171 13.03 13.03 0 017.795.317l-1.05 2.4a10.437 10.437 0 00-6.068-.194 10.437 10.437 0 00-5.159 3.202l-2.108-1.554zM11.23 4.312c0-.908-.737-1.645-1.644-1.645h-3.29c-.907 0-1.644.737-1.644 1.645v6.16a2.668 2.668 0 00-2.046 2.595v13.03a2.668 2.668 0 002.667 2.667h5.337a2.668 2.668 0 002.667-2.667v-13.03c0-1.26-.874-2.316-2.047-2.595v-6.16zM9.356 17.475c0-.363.294-.656.655-.656h1.313c.361 0 .655.293.655.656v6.684a.656.656 0 01-.655.656H10.01a.656.656 0 01-.655-.656v-6.684zm.26.469c0-.19.154-.344.344-.344h.688c.19 0 .344.155.344.344v5.746c0 .19-.155.344-.344.344H9.96a.345.345 0 01-.344-.344v-5.746zm1.614-5.591c0 .907-.737 1.643-1.644 1.643h-3.29a1.645 1.645 0 01-1.644-1.643v-1.128c0 .907.737 1.645 1.645 1.645h3.289c.907 0 1.644-.738 1.644-1.645v1.128z" fill="#fff"/><path d="M82.667 87.171h3.578c1.492 0 2.701.782 2.701 1.747v.002c0 .463-.284.907-.791 1.235-.506.328-1.194.512-1.91.512h-.146" fill="none" stroke="#fff" stroke-width="1.5" transform="matrix(1.0224 0 0 -1.581 -68.817 157.545)"/><path d="M86.443 87.171h.771c.459 0 .9.18 1.225.5.325.32.507.754.507 1.206v.083c0 .453-.182.887-.507 1.207-.325.32-.766.5-1.225.5h-1.115" fill="none" stroke="#fff" stroke-width="1.21" transform="matrix(1.64283 0 0 1.66784 -120.063 -125.66)"/><path d="M82.667 87.171h5.007c.703 0 1.272.782 1.272 1.747v.002c0 .965-.569 1.747-1.272 1.747h-.162" fill="none" stroke="#fff" stroke-width="1.05" transform="matrix(2.1708 0 0 -1.581 -163.751 157.545)"/></svg>