<?xml version="1.0" encoding="UTF-8" standalone="no"?>
<!DOCTYPE svg PUBLIC "-//W3C//DTD SVG 1.1//EN" "http://www.w3.org/Graphics/SVG/1.1/DTD/svg11.dtd">
<svg width="100%" height="100%" viewBox="0 0 32 32" version="1.1" xmlns="http://www.w3.org/2000/svg" xmlns:xlink="http://www.w3.org/1999/xlink" xml:space="preserve" xmlns:serif="http://www.serif.com/" style="fill-rule:evenodd;clip-rule:evenodd;stroke-linecap:round;stroke-linejoin:round;stroke-miterlimit:10;">
    <g transform="matrix(1,0,0,1,-64,-64)">
        <g id="unknown">
        </g>
        <g id="plumbing">
        </g>
        <g id="genetics">
        </g>
        <g id="surgery">
        </g>
        <g id="trauma">
        </g>
        <g id="wound">
        </g>
        <g id="power">
        </g>
        <g id="solar">
        </g>
        <g transform="matrix(-0.836256,-0.845147,0.836256,-0.845147,371.793,207.877)">
            <g id="machines">
            </g>
        </g>
        <g id="supermatter">
        </g>
        <g id="shield">
        </g>
        <g id="turbine">
        </g>
        <g transform="matrix(0.841259,-0.225415,0.225415,0.841259,22.0099,24.8766)">
            <g id="tcomm">
                <path d="M77.328,81.894C78.066,81.6 78.871,81.442 79.714,81.442C80.592,81.442 81.43,81.614 82.195,81.929L80.163,84.473C80.016,84.452 79.866,84.442 79.714,84.442L79.376,84.46L77.328,81.894ZM74.316,78.123C75.918,77.18 77.784,76.641 79.775,76.641C81.766,76.641 83.632,77.18 85.234,78.123L83.332,80.505C82.267,79.95 81.057,79.641 79.775,79.641C78.493,79.641 77.283,79.95 76.218,80.505L74.316,78.123ZM71.226,74.253C73.654,72.57 76.6,71.585 79.775,71.585C82.95,71.585 85.896,72.57 88.325,74.253L86.448,76.603C84.537,75.328 82.242,74.585 79.775,74.585C77.308,74.585 75.013,75.328 73.102,76.603L71.226,74.253Z" style="fill:white;"/>
            </g>
        </g>
        <g id="atmos" transform="matrix(1.19568,0,0,1.19568,-13.0329,-18.1517)">
            <g transform="matrix(-1.13291,0,0,1.2463,151.885,-23.5571)">
                <path d="M68.908,76.924C68.908,76.315 69.452,75.82 70.122,75.82L72.55,75.82C73.22,75.82 73.764,76.315 73.764,76.924L73.764,81.058C74.63,81.245 75.275,81.954 75.275,82.799L75.275,91.543C75.275,92.531 74.393,93.333 73.306,93.333L69.366,93.333C68.279,93.333 67.397,92.531 67.397,91.543L67.397,82.799C67.397,81.954 68.042,81.245 68.908,81.058L68.908,76.924ZM70.292,85.757C70.292,85.514 70.075,85.317 69.808,85.317L68.839,85.317C68.572,85.317 68.355,85.514 68.355,85.757L68.355,90.243C68.355,90.486 68.572,90.683 68.839,90.683L69.808,90.683C70.075,90.683 70.292,90.486 70.292,90.243L70.292,85.757ZM70.1,86.072C70.1,85.945 69.986,85.841 69.846,85.841L69.338,85.841C69.198,85.841 69.084,85.945 69.084,86.072L69.084,89.928C69.084,90.055 69.198,90.159 69.338,90.159L69.846,90.159C69.986,90.159 70.1,90.055 70.1,89.928L70.1,86.072ZM68.908,82.32C68.908,82.929 69.452,83.423 70.122,83.423L72.55,83.423C73.22,83.423 73.764,82.929 73.764,82.32L73.764,81.563C73.764,82.172 73.22,82.667 72.55,82.667L70.122,82.667C69.452,82.667 68.908,82.172 68.908,81.563L68.908,82.32Z" style="fill:white;"/>
            </g>
            <g transform="matrix(0.855081,0,0,-1.32226,6.8713,200.469)">
                <path d="M82.667,87.171L86.245,87.171C87.737,87.171 88.946,87.953 88.946,88.918C88.946,88.918 88.946,88.919 88.946,88.92C88.946,89.383 88.662,89.827 88.155,90.155C87.649,90.483 86.961,90.667 86.245,90.667C86.152,90.667 86.099,90.667 86.099,90.667" style="fill:none;stroke:white;stroke-width:1.5px;"/>
            </g>
            <g transform="matrix(1.37397,0,0,1.39489,-35.988,-36.3877)">
                <path d="M86.443,87.171L87.214,87.171C87.673,87.171 88.114,87.351 88.439,87.671C88.764,87.991 88.946,88.425 88.946,88.877C88.946,88.905 88.946,88.933 88.946,88.96C88.946,89.413 88.764,89.847 88.439,90.167C88.114,90.487 87.673,90.667 87.214,90.667C86.618,90.667 86.099,90.667 86.099,90.667" style="fill:none;stroke:white;stroke-width:1.21px;"/>
            </g>
            <g transform="matrix(1.81553,-6.26045e-16,-2.40868e-16,-1.32226,-72.5262,200.469)">
                <path d="M82.667,87.171L87.674,87.171C88.377,87.171 88.946,87.953 88.946,88.918C88.946,88.918 88.946,88.919 88.946,88.92C88.946,89.885 88.377,90.667 87.674,90.667C87.575,90.667 87.512,90.667 87.512,90.667" style="fill:none;stroke:white;stroke-width:1.05px;"/>
            </g>
        </g>
        <g id="xeno">
        </g>
        <g id="nanites">
        </g>
        <g id="aimod">
        </g>
        <g id="tips">
        </g>
        <g id="races">
        </g>
        <g id="food">
        </g>
        <g id="hydro">
        </g>
    </g>
</svg>
