<svg viewBox="0 0 32 32" xmlns="http://www.w3.org/2000/svg" fill-rule="evenodd" clip-rule="evenodd" stroke-linecap="round" stroke-linejoin="round" stroke-miterlimit="5"><circle cx="72" cy="152" r="2.667" fill="none" stroke="#fff" stroke-width="2" transform="translate(-64 -126.455)"/><path d="M93.333 146.667H66.667h0c0 1.473 1.943 2.666 4.341 2.666h17.984c2.398 0 4.341-1.193 4.341-2.666 0 0 0 0 0 0z" fill="none" stroke="#fff" stroke-width="1.62" transform="matrix(.9131 0 0 1.48665 -57.048 -202.043)"/><path fill="none" stroke="#fff" stroke-width="1.78" d="M66.667 146.667h26.667v2.667H66.667z" transform="matrix(.55622 0 0 1.48665 -28.498 -209.79)"/><path fill="none" stroke="#fff" stroke-width="1.78" d="M66.667 146.667h26.667v2.667H66.667z" transform="matrix(.55622 0 0 1.48665 -28.498 -213.826)"/><circle cx="72" cy="152" r="2.667" fill="none" stroke="#fff" stroke-width="2" transform="translate(-48 -126.455)"/></svg>