<?xml version="1.0" encoding="UTF-8" standalone="no"?>
<!DOCTYPE svg PUBLIC "-//W3C//DTD SVG 1.1//EN" "http://www.w3.org/Graphics/SVG/1.1/DTD/svg11.dtd">
<svg width="100%" height="100%" viewBox="0 0 32 32" version="1.1" xmlns="http://www.w3.org/2000/svg" xmlns:xlink="http://www.w3.org/1999/xlink" xml:space="preserve" xmlns:serif="http://www.serif.com/" style="fill-rule:evenodd;clip-rule:evenodd;stroke-linecap:round;stroke-linejoin:round;stroke-miterlimit:5;">
    <g transform="matrix(1,0,0,1,-64,-128)">
        <g id="unknown">
        </g>
        <g id="plumbing">
        </g>
        <g id="genetics">
        </g>
        <g id="surgery">
        </g>
        <g id="trauma">
        </g>
        <g id="wound">
        </g>
        <g id="power">
        </g>
        <g id="solar">
        </g>
        <g transform="matrix(-0.836256,-0.845147,0.836256,-0.845147,371.793,207.877)">
            <g id="machines">
            </g>
        </g>
        <g id="supermatter">
        </g>
        <g id="shield">
        </g>
        <g id="turbine">
        </g>
        <g id="tcomm">
        </g>
        <g id="atmos">
        </g>
        <g id="xeno">
        </g>
        <g id="nanites">
        </g>
        <g id="aimod">
        </g>
        <g id="tips">
        </g>
        <g id="races">
        </g>
        <g id="food">
        </g>
        <g id="hydro">
        </g>
        <g id="song">
        </g>
        <g id="crate">
        </g>
        <g id="space">
        </g>
        <g id="aux">
            <g transform="matrix(1,0,0,1,0,1.54493)">
                <circle cx="72" cy="152" r="2.667" style="fill:none;stroke:white;stroke-width:2px;"/>
            </g>
            <g transform="matrix(0.913098,0,0,1.48665,6.95219,-74.0425)">
                <path d="M93.333,146.667L66.667,146.667L66.667,146.667C66.667,148.14 68.61,149.333 71.008,149.333C75.967,149.333 84.033,149.333 88.992,149.333C91.39,149.333 93.333,148.14 93.333,146.667C93.333,146.667 93.333,146.667 93.333,146.667Z" style="fill:none;stroke:white;stroke-width:1.62px;"/>
            </g>
            <g transform="matrix(0.556219,0,0,1.48665,35.5025,-81.79)">
                <rect x="66.667" y="146.667" width="26.667" height="2.667" style="fill:none;stroke:white;stroke-width:1.78px;"/>
            </g>
            <g transform="matrix(0.556219,0,0,1.48665,35.5025,-85.8256)">
                <rect x="66.667" y="146.667" width="26.667" height="2.667" style="fill:none;stroke:white;stroke-width:1.78px;"/>
            </g>
            <g transform="matrix(1,0,0,1,16,1.54493)">
                <circle cx="72" cy="152" r="2.667" style="fill:none;stroke:white;stroke-width:2px;"/>
            </g>
        </g>
        <g id="security">
        </g>
        <g id="law">
        </g>
        <g id="sop">
        </g>
    </g>
</svg>
