<?xml version="1.0" encoding="UTF-8" standalone="no"?>
<!DOCTYPE svg PUBLIC "-//W3C//DTD SVG 1.1//EN" "http://www.w3.org/Graphics/SVG/1.1/DTD/svg11.dtd">
<svg width="100%" height="100%" viewBox="0 0 32 32" version="1.1" xmlns="http://www.w3.org/2000/svg" xmlns:xlink="http://www.w3.org/1999/xlink" xml:space="preserve" xmlns:serif="http://www.serif.com/" style="fill-rule:evenodd;clip-rule:evenodd;stroke-linejoin:round;stroke-miterlimit:2;">
    <path d="M12.011,14.392L12.011,3.941C12.011,3.55 12.166,3.174 12.443,2.897C12.72,2.62 13.095,2.465 13.487,2.465L18.654,2.465C19.045,2.465 19.421,2.62 19.698,2.897C19.974,3.174 20.13,3.55 20.13,3.941L20.13,14.392L25.938,24.999C26.458,25.948 26.439,27.101 25.887,28.033C25.335,28.964 24.333,29.535 23.251,29.535L8.89,29.535C7.808,29.535 6.805,28.964 6.254,28.033C5.702,27.101 5.682,25.948 6.202,24.999L12.011,14.392ZM18.13,4.465L14.011,4.465L14.011,14.648C14.011,14.816 13.968,14.981 13.888,15.128C13.888,15.128 10.195,21.871 7.956,25.959C7.776,26.289 7.783,26.69 7.974,27.013C8.166,27.337 8.514,27.535 8.89,27.535L23.251,27.535C23.627,27.535 23.975,27.337 24.166,27.013C24.358,26.69 24.365,26.289 24.184,25.959C21.945,21.871 18.253,15.128 18.253,15.128C18.172,14.981 18.13,14.816 18.13,14.648L18.13,4.465ZM15.452,18.07L19.028,18.07C19.028,18.07 21.911,23.671 23.014,25.813C23.103,25.987 23.096,26.195 22.994,26.363C22.892,26.53 22.71,26.632 22.514,26.632L9.627,26.632C9.431,26.632 9.249,26.53 9.147,26.363C9.045,26.195 9.037,25.987 9.127,25.813C10.229,23.671 13.113,18.07 13.113,18.07L14.328,18.07L11.138,24.285C11.012,24.53 11.109,24.832 11.354,24.958C11.6,25.084 11.901,24.987 12.027,24.741L15.452,18.07Z" style="fill:white;"/>
</svg>
