<svg viewBox="0 0 32 32" xmlns="http://www.w3.org/2000/svg" fill-rule="evenodd" clip-rule="evenodd" stroke-linejoin="round" stroke-miterlimit="2"><path d="M-17.016-24.02s.147 3.67.147 7.342c0 3.673-.147 7.343-.147 7.343a1 1 0 002 0s-.146-3.67-.146-7.343c0-3.672.146-7.342.146-7.342a1 1 0 00-2 0zM22.438 27.319l-10.83-12.855a6.123 6.123 0 01-8.753-6.441l.01-.058a1.19 1.19 0 01.179-.465.12.12 0 01.095-.056.126.126 0 01.071.017l4.045 4.044c.273.274.671.38 1.044.28l2.091-.56c.373-.1.665-.392.765-.765l.56-2.091c.1-.373-.006-.772-.279-1.045L7.389 3.277a.114.114 0 01-.015-.067.124.124 0 01.056-.097c.171-.113.332-.155.465-.179l.058-.01a6.123 6.123 0 016.441 8.755l12.854 10.83a3.488 3.488 0 01.601 5.412 3.487 3.487 0 01-5.41-.602zm1.497-3.312a2.05 2.05 0 112.899 2.898 2.05 2.05 0 01-2.9-2.898zm-1.419.155s-9.185-10.578-9.411-10.387a.535.535 0 00-.067.752l8.659 10.322a.534.534 0 10.82-.687zM3.296 8.698c.047-.14.661 1.08.877 1.633.432 1.108 1.281 2.506 2.785 3.17 1.004.441 2.296.55 3.942.043a.267.267 0 11.157.51c-1.802.556-3.216.42-4.314-.065-1.65-.728-2.595-2.248-3.07-3.464-.236-.61-.355-1.14-.39-1.454a.993.993 0 01.013-.373zM50.865 3.288a.517.517 0 00-.916-.401L39.305 16.396a.515.515 0 00.377.834l7.479.406a.516.516 0 01.465.665c-.55 1.813-2.16 7.12-3.136 10.343a.515.515 0 00.898.47l11.347-14.243a.514.514 0 00-.395-.838c-1.746-.03-5.197-.093-6.58-.118a.515.515 0 01-.5-.598c.282-1.769 1.137-7.109 1.605-10.03z" fill="#fff"/><path d="M52.561 5.261c4.175 1.776 7.106 5.918 7.106 10.739 0 6.163-4.79 11.217-10.848 11.635l1.841-2.348c4.045-1.15 7.007-4.875 7.007-9.287a9.643 9.643 0 00-5.435-8.68l.329-2.059zm-6.109-.822l-2.045 2.593A9.658 9.658 0 0038.333 16a9.644 9.644 0 005.33 8.629l-.59 1.945c-3.98-1.856-6.74-5.895-6.74-10.574 0-5.914 4.411-10.807 10.119-11.561zm.026 21.096l.431.066-.728.914.297-.98zm2.869-19.097l-.359-.055-.501-.025 1.096-1.39-.236 1.47zM53.552-3.945l-1.555 1.572a.887.887 0 01-1.264 0L37.182-16.068l-.42.425a.887.887 0 01-1.264 0l-1.075-1.086a.91.91 0 010-1.278L46.04-29.746a.887.887 0 011.264 0l1.074 1.086a.91.91 0 010 1.277l-.42.425 13.551 13.695a.91.91 0 010 1.277l-1.88 1.901-1.571-1.587a.356.356 0 00-.124-.094l1.22-1.233c.206-.208.786-.049.58-.258a.523.523 0 00-.747 0l-8.093 8.18a.538.538 0 00-.001.755c.207.208-.038-.29.168-.497l.826-.835c.014.033.045.07.095.122l1.571 1.587zm-16.854-12.72l10.703-10.817c.262-.264.385-.568.276-.679-.109-.11-.262.165-.523.43L36.45-16.915c-.26.264-.533.419-.424.529.109.11.41-.016.671-.28zM50.272-5.394l8.247-8.335L46.693-25.68l-8.247 8.335L50.272-5.394zm-8.266-17.934l2.495-2.52a.537.537 0 000-.754.523.523 0 00-.747 0l-2.494 2.52a.537.537 0 000 .754c.207.209.54.209.746 0zM55.784-9.594l1.43-1.446c.015.034.046.071.096.122l1.57 1.587-1.402 1.418-1.57-1.587a.356.356 0 00-.124-.094zm-3.18 3.214l2.462-2.487c.013.033.044.07.095.122l1.57 1.587L54.3-4.7l-1.57-1.587a.353.353 0 00-.124-.093zM37.986-19.264l2.494-2.52a.538.538 0 000-.754.524.524 0 00-.747 0l-2.493 2.52a.538.538 0 000 .755c.206.208.54.208.746 0z" fill="#fff"/></svg>