<?xml version="1.0" encoding="UTF-8" standalone="no"?>
<!DOCTYPE svg PUBLIC "-//W3C//DTD SVG 1.1//EN" "http://www.w3.org/Graphics/SVG/1.1/DTD/svg11.dtd">
<svg width="100%" height="100%" viewBox="0 0 32 32" version="1.1" xmlns="http://www.w3.org/2000/svg" xmlns:xlink="http://www.w3.org/1999/xlink" xml:space="preserve" xmlns:serif="http://www.serif.com/" style="fill-rule:evenodd;clip-rule:evenodd;stroke-linejoin:round;stroke-miterlimit:2;">
    <g transform="matrix(1,0,0,1,-160,-32)">
        <g id="unknown">
        </g>
        <g id="plumbing">
        </g>
        <g id="genetics">
        </g>
        <g id="surgery">
        </g>
        <g transform="matrix(1.066,1.30071e-32,0,1.05526,-9.51961,-1.33485)">
            <g id="trauma">
                <path d="M143.062,8.827C143.062,8.827 143.199,12.305 143.199,15.785C143.199,19.265 143.062,22.743 143.062,22.743C143.062,23.266 143.482,23.691 144,23.691C144.518,23.691 144.938,23.266 144.938,22.743C144.938,22.743 144.801,19.265 144.801,15.785C144.801,12.305 144.938,8.827 144.938,8.827C144.938,8.304 144.518,7.879 144,7.879C143.482,7.879 143.062,8.304 143.062,8.827Z" style="fill:white;"/>
            </g>
        </g>
        <g id="wound">
        </g>
        <g id="construction" transform="matrix(1.14774,0,0,1.14774,-23.9174,-4.93723)">
            <path d="M179.793,55.985L170.357,44.785C169.646,45.136 168.846,45.333 168,45.333C165.056,45.333 162.667,42.944 162.667,40C162.667,39.719 162.689,39.442 162.731,39.173L162.739,39.122C162.76,39.006 162.796,38.867 162.895,38.717C162.913,38.688 162.944,38.67 162.978,38.668C163,38.667 163.022,38.672 163.04,38.683L166.564,42.207C166.802,42.445 167.149,42.537 167.474,42.45C167.992,42.312 168.778,42.101 169.296,41.962C169.621,41.875 169.875,41.621 169.962,41.296C170.101,40.778 170.312,39.992 170.45,39.474C170.537,39.149 170.445,38.802 170.207,38.564L166.681,35.038C166.671,35.021 166.666,35 166.668,34.979C166.67,34.945 166.688,34.914 166.717,34.895C166.866,34.796 167.006,34.76 167.122,34.739L167.172,34.731C167.442,34.689 167.718,34.667 168,34.667C170.944,34.667 173.333,37.056 173.333,40C173.333,40.847 173.136,41.648 172.784,42.359L183.984,51.794C184.17,51.912 184.346,52.052 184.508,52.214C185.693,53.399 185.693,55.324 184.508,56.509C183.323,57.695 181.398,57.695 180.212,56.509C180.05,56.347 179.91,56.172 179.793,55.985ZM181.097,53.099C181.794,52.402 182.926,52.402 183.623,53.099C184.32,53.796 184.32,54.927 183.623,55.624C182.926,56.321 181.794,56.321 181.097,55.624C180.4,54.927 180.4,53.796 181.097,53.099ZM179.861,53.234C179.861,53.234 171.858,44.018 171.661,44.184C171.464,44.349 171.438,44.643 171.603,44.84L179.147,53.833C179.312,54.03 179.606,54.056 179.803,53.89C180,53.725 180.026,53.431 179.861,53.234ZM163.115,39.761C163.156,39.639 163.691,40.702 163.879,41.184C164.255,42.149 164.995,43.367 166.305,43.945C167.18,44.33 168.306,44.425 169.74,43.983C169.863,43.945 169.993,44.014 170.031,44.137C170.069,44.26 170,44.39 169.877,44.428C168.307,44.912 167.075,44.793 166.118,44.371C164.68,43.737 163.857,42.412 163.444,41.353C163.238,40.822 163.134,40.359 163.104,40.086C163.086,39.926 163.098,39.813 163.115,39.761Z" style="fill:white;"/>
        </g>
        <g transform="matrix(0.86944,-0.501971,0.501971,0.86944,2.68937,111.272)">
            <path d="M217.42,38.133C217.567,37.951 217.574,37.692 217.435,37.504C217.296,37.315 217.047,37.244 216.83,37.331C212.908,38.897 203.835,42.519 200.92,43.683C200.742,43.754 200.618,43.918 200.599,44.109C200.58,44.3 200.669,44.486 200.83,44.591C202.398,45.613 205.758,47.804 207.079,48.665C207.211,48.751 207.296,48.893 207.31,49.051C207.324,49.208 207.264,49.363 207.149,49.471C205.772,50.761 201.74,54.538 199.293,56.831C199.113,56.999 199.078,57.272 199.21,57.48C199.342,57.689 199.603,57.774 199.833,57.684C204.35,55.908 213.688,52.238 216.715,51.048C216.897,50.977 217.023,50.808 217.039,50.613C217.055,50.417 216.96,50.23 216.792,50.129C215.301,49.233 212.355,47.46 211.174,46.75C211.046,46.673 210.958,46.544 210.933,46.398C210.907,46.251 210.946,46.1 211.04,45.985C212.165,44.6 215.562,40.419 217.42,38.133Z" style="fill:white;"/>
        </g>
        <path d="M212.561,37.261C216.736,39.037 219.667,43.179 219.667,48C219.667,54.163 214.877,59.217 208.819,59.635L210.66,57.287C214.705,56.137 217.667,52.412 217.667,48C217.667,44.184 215.45,40.881 212.232,39.32L212.561,37.261ZM206.452,36.439L204.407,39.032C200.848,40.453 198.333,43.935 198.333,48C198.333,51.774 200.501,55.046 203.663,56.629L203.073,58.574C199.093,56.718 196.333,52.679 196.333,48C196.333,42.086 200.744,37.193 206.452,36.439ZM206.478,57.535L206.909,57.601L206.181,58.515L206.478,57.535ZM209.347,38.438L208.988,38.383L208.487,38.358L209.583,36.968L209.347,38.438Z" style="fill:white;"/>
    </g>
</svg>
