<?xml version="1.0" encoding="UTF-8" standalone="no"?>
<!DOCTYPE svg PUBLIC "-//W3C//DTD SVG 1.1//EN" "http://www.w3.org/Graphics/SVG/1.1/DTD/svg11.dtd">
<svg width="100%" height="100%" viewBox="0 0 32 32" version="1.1" xmlns="http://www.w3.org/2000/svg" xmlns:xlink="http://www.w3.org/1999/xlink" xml:space="preserve" xmlns:serif="http://www.serif.com/" style="fill-rule:evenodd;clip-rule:evenodd;stroke-linejoin:round;stroke-miterlimit:2;">
    <g transform="matrix(1,0,0,1,-128,-96)">
        <g id="unknown">
        </g>
        <g id="plumbing">
        </g>
        <g id="genetics">
        </g>
        <g id="surgery">
        </g>
        <g id="trauma">
        </g>
        <g id="wound">
        </g>
        <g id="power">
        </g>
        <g id="solar">
        </g>
        <g transform="matrix(-0.836256,-0.845147,0.836256,-0.845147,371.793,207.877)">
            <g id="machines">
            </g>
        </g>
        <g id="supermatter">
        </g>
        <g id="shield">
        </g>
        <g id="turbine">
        </g>
        <g id="tcomm" transform="matrix(1.07641,0.288423,-0.288423,1.07641,14.4029,-39.3222)">
            <path d="M120.797,75.729C120.549,75.3 120,75.153 119.571,75.401L105.553,83.494C105.124,83.742 104.977,84.291 105.224,84.72L110.05,93.079C110.298,93.508 110.847,93.655 111.276,93.407L125.294,85.314C125.723,85.066 125.87,84.517 125.622,84.088L120.797,75.729ZM112.446,90.091L115.093,88.563C115.492,88.332 115.646,87.852 115.438,87.491C115.229,87.13 114.736,87.024 114.337,87.254L111.69,88.782C111.291,89.013 111.136,89.493 111.345,89.854C111.553,90.215 112.047,90.321 112.446,90.091ZM110.779,87.829L113.426,86.301C113.825,86.07 113.979,85.59 113.771,85.229C113.562,84.868 113.069,84.762 112.67,84.992L110.023,86.52C109.624,86.751 109.469,87.231 109.678,87.592C109.886,87.953 110.38,88.059 110.779,87.829ZM116.856,80.136C115.413,80.969 114.918,82.817 115.751,84.26C116.584,85.702 118.432,86.197 119.875,85.364C121.317,84.531 121.812,82.684 120.98,81.241C120.147,79.798 118.299,79.303 116.856,80.136ZM109.176,85.51L111.823,83.982C112.222,83.752 112.376,83.271 112.168,82.91C111.959,82.549 111.466,82.443 111.067,82.673L108.42,84.202C108.021,84.432 107.866,84.912 108.075,85.273C108.283,85.635 108.777,85.741 109.176,85.51ZM117.642,81.497C118.334,81.098 119.219,81.335 119.619,82.027C120.018,82.718 119.781,83.604 119.089,84.004C118.397,84.403 117.511,84.166 117.112,83.474C116.713,82.782 116.95,81.896 117.642,81.497Z" style="fill:white;"/>
        </g>
        <g id="atmos">
        </g>
        <g id="xeno">
        </g>
        <g id="nanites">
        </g>
        <g id="aimod">
        </g>
        <g id="tips">
        </g>
        <g id="critter" transform="matrix(1.06894,0,0,1.06894,-9.92796,-6.80249)">
            <path d="M137.159,117.459C136.246,115.882 135.636,114.206 135.636,112.702C135.636,112.131 135.693,111.6 135.802,111.108C132.882,110.573 130.667,108.013 130.667,104.939C130.667,101.477 133.477,98.667 136.939,98.667C140.401,98.667 143.211,101.477 143.211,104.939C143.211,105.343 143.173,105.739 143.099,106.122C143.395,106.104 143.696,106.095 144,106.095C144.304,106.095 144.605,106.104 144.901,106.122C144.827,105.739 144.789,105.343 144.789,104.939C144.789,101.477 147.599,98.667 151.061,98.667C154.523,98.667 157.333,101.477 157.333,104.939C157.333,108.013 155.118,110.573 152.198,111.108C152.307,111.6 152.364,112.131 152.364,112.702C152.364,114.208 151.752,115.887 150.837,117.466L151.482,117.395C153.192,117.218 154.706,117.128 154.706,117.128C155.075,117.088 155.407,117.355 155.447,117.725C155.487,118.094 155.219,118.426 154.85,118.466C154.85,118.466 153.352,118.7 151.643,118.891C151.026,118.96 150.382,119.024 149.773,119.081C149.677,119.211 149.579,119.339 149.481,119.465C150.169,119.619 150.92,119.792 151.632,119.966C153.302,120.375 154.757,120.799 154.757,120.799C155.119,120.886 155.341,121.249 155.254,121.611C155.168,121.972 154.804,122.194 154.443,122.108C154.443,122.108 152.954,121.824 151.28,121.428C150.306,121.198 149.269,120.933 148.418,120.71C146.836,122.401 145.126,123.562 144,123.562C142.876,123.562 141.171,122.406 139.594,120.722C138.753,120.943 137.736,121.202 136.78,121.428C135.106,121.824 133.617,122.108 133.617,122.108C133.256,122.194 132.893,121.972 132.806,121.611C132.719,121.249 132.942,120.886 133.303,120.799C133.303,120.799 134.758,120.375 136.428,119.966C137.123,119.796 137.854,119.627 138.528,119.477C138.425,119.345 138.323,119.211 138.223,119.075C137.633,119.02 137.012,118.957 136.417,118.891C134.708,118.7 133.21,118.466 133.21,118.466C132.841,118.426 132.574,118.094 132.613,117.725C132.653,117.355 132.985,117.088 133.354,117.128C133.354,117.128 134.868,117.218 136.578,117.395L137.159,117.459ZM144,117.797C144.717,117.797 145.298,118.106 145.298,118.822C145.298,119.539 144.405,120.508 144,120.508C143.595,120.508 142.702,119.539 142.702,118.822C142.702,118.106 143.283,117.797 144,117.797ZM140.545,111.437C141.581,111.437 142.423,112.278 142.423,113.315C142.423,114.351 141.581,115.193 140.545,115.193C139.508,115.193 138.667,114.351 138.667,113.315C138.667,112.278 139.508,111.437 140.545,111.437ZM147.455,111.437C148.492,111.437 149.333,112.278 149.333,113.315C149.333,114.351 148.492,115.193 147.455,115.193C146.419,115.193 145.577,114.351 145.577,113.315C145.577,112.278 146.419,111.437 147.455,111.437ZM141.753,106.268C141.871,105.845 141.934,105.399 141.934,104.939C141.934,102.182 139.696,99.944 136.939,99.944C134.182,99.944 131.944,102.182 131.944,104.939C131.944,107.45 133.801,109.531 136.216,109.881C137.171,107.839 139.221,106.679 141.753,106.268ZM151.784,109.881C154.199,109.531 156.056,107.45 156.056,104.939C156.056,102.182 153.818,99.944 151.061,99.944C148.304,99.944 146.066,102.182 146.066,104.939C146.066,105.399 146.129,105.845 146.247,106.268C148.78,106.679 150.829,107.839 151.784,109.881ZM135.844,108.906C134.141,108.429 132.89,106.863 132.89,105.008C132.89,102.774 134.705,100.96 136.939,100.96C139.173,100.96 140.988,102.774 140.988,105.008C140.988,105.228 140.97,105.443 140.936,105.653C138.706,106.132 136.878,107.187 135.844,108.906ZM147.064,105.653C147.03,105.443 147.012,105.228 147.012,105.008C147.012,102.774 148.827,100.96 151.061,100.96C153.295,100.96 155.11,102.774 155.11,105.008C155.11,106.863 153.859,108.429 152.156,108.906C151.122,107.187 149.295,106.132 147.064,105.653Z" style="fill:white;"/>
        </g>
    </g>
</svg>
