<?xml version="1.0" encoding="UTF-8" standalone="no"?>
<!DOCTYPE svg PUBLIC "-//W3C//DTD SVG 1.1//EN" "http://www.w3.org/Graphics/SVG/1.1/DTD/svg11.dtd">
<svg width="100%" height="100%" viewBox="0 0 32 32" version="1.1" xmlns="http://www.w3.org/2000/svg" xmlns:xlink="http://www.w3.org/1999/xlink" xml:space="preserve" xmlns:serif="http://www.serif.com/" style="fill-rule:evenodd;clip-rule:evenodd;stroke-linecap:round;stroke-linejoin:round;stroke-miterlimit:5;">
    <g transform="matrix(1,0,0,1,-192,-192)">
        <g id="unknown">
        </g>
        <g id="plumbing">
        </g>
        <g id="genetics">
        </g>
        <g id="surgery">
        </g>
        <g id="trauma">
        </g>
        <g id="wound">
        </g>
        <g id="power">
        </g>
        <g id="solar">
        </g>
        <g id="machines">
        </g>
        <g id="supermatter">
        </g>
        <g id="shield">
        </g>
        <g id="turbine">
        </g>
        <g id="tcomm">
        </g>
        <g id="atmos">
        </g>
        <g id="xeno">
        </g>
        <g id="nanites">
        </g>
        <g id="aimod">
        </g>
        <g id="tips">
        </g>
        <g id="races">
        </g>
        <g id="food">
        </g>
        <g id="hydro">
        </g>
        <g id="song">
        </g>
        <g id="crate">
        </g>
        <g id="space">
        </g>
        <g id="aux">
        </g>
        <g id="security">
        </g>
        <g id="law">
        </g>
        <g id="sop">
        </g>
        <g id="trial">
        </g>
        <g id="traitor">
        </g>
        <g id="revolutionary">
        </g>
        <g transform="matrix(1.02836,0.274837,-0.275549,1.02571,43.4127,-52.8858)">
            <g id="cult">
                <path d="M167.192,180.751L169.593,180.777C169.712,180.932 169.836,181.083 169.966,181.229L169.546,181.307L169.183,182.471L170.39,181.673L170.437,181.719L170.497,181.774L170.461,181.781L170.098,182.944L171.098,182.284C171.186,182.351 171.275,182.417 171.366,182.481L171.384,183.789L172.084,182.932L172.157,182.973L172.281,183.038L172.298,184.262L173.022,183.378L173.044,183.387L173.208,183.449L173.981,185.744C173.683,185.683 173.39,185.609 173.102,185.522L173.333,184.326L172.253,185.224C171.925,185.093 171.605,184.944 171.295,184.779L171.18,184.666L171.003,183.249L170.371,184.225L170.176,184.089L170.047,183.995L170.674,183.172L169.396,183.475C169.15,183.26 168.913,183.033 168.689,182.795L168.593,182.518L169.061,181.171L167.904,181.858C167.643,181.506 167.405,181.136 167.192,180.751ZM184.808,180.751C184.595,181.135 184.358,181.504 184.098,181.855L183.537,181.448L183.76,182.289C183.415,182.705 183.038,183.094 182.631,183.45L181.586,183.114L182.079,183.901C181.978,183.978 181.875,184.053 181.771,184.126L181.378,183.381L181.145,184.531C180.841,184.713 180.527,184.879 180.203,185.028L179.915,184.999L178.891,184.005L179.041,185.478C178.708,185.584 178.366,185.673 178.019,185.744L178.792,183.449C179.049,183.355 179.299,183.247 179.544,183.127L179.505,183.277L180.41,184.094L180.206,182.763L180.345,182.676L180.349,182.673L181.223,183.461L181.027,182.186L181.128,182.104L181.147,182.089L181.225,182.068L182.528,182.647L181.949,181.459L182.038,181.436L183.341,182.014L182.736,180.773L184.808,180.751ZM182.394,180.794L182.407,180.777L182.435,180.776L182.394,180.794ZM168.57,169.098L169.242,171.246L168.125,171.131L168.953,171.962C168.906,172.048 168.859,172.134 168.814,172.222L167.843,172.122L168.539,172.82C168.472,172.982 168.411,173.147 168.354,173.315L167.271,173.55L168.154,174.016C168.131,174.11 168.111,174.205 168.092,174.301L166.989,174.541L167.977,175.062L167.959,175.263L167.954,175.354L165.98,176.821C165.95,176.511 165.936,176.199 165.936,175.883L165.938,175.672L166.111,175.905L167.314,175.718L165.981,174.933C166.004,174.688 166.036,174.446 166.076,174.206L166.26,173.804L167.529,173.157L166.389,172.89L166.465,172.656L166.516,172.513L167.489,172.821L166.809,171.78C166.986,171.385 167.187,171.004 167.411,170.637L168.816,170.622L167.921,169.884C168.124,169.611 168.34,169.349 168.57,169.098ZM183.43,169.098L182.708,171.408L182.793,171.537L182.821,171.582L184.184,171.317L183.288,172.426L183.288,172.431L183.326,172.511L184.585,172.266L183.689,173.375L183.689,173.446L183.701,173.486L183.734,173.595L185.034,173.738L184.011,174.401L183.917,174.348L183.938,174.456L183.949,174.523L185.435,174.687L184.412,175.349L184.029,175.135L184.041,175.263L184.046,175.354L186.02,176.821C186.049,176.516 186.064,176.208 186.064,175.897L186.057,175.93L184.584,175.68L185.811,174.955L185.974,174.532C185.937,174.256 185.888,173.983 185.829,173.714L184.641,173.11L185.613,172.896C185.573,172.771 185.532,172.646 185.488,172.522L184.44,172.838L185.166,171.723C184.976,171.306 184.758,170.904 184.515,170.52L183.354,170.508L184.098,169.91C183.889,169.627 183.667,169.356 183.43,169.098ZM175.93,165.819L176,165.818C176.123,165.818 176.246,165.821 176.369,165.826L176.34,165.837L176.212,167.05L177.363,165.911L177.532,165.935L177.636,165.952L178.328,166.525L178.569,167.649L178.101,167.981L177.935,166.947L177.364,167.934L177.227,167.911L177.059,167.888L176.905,166.931L176.386,167.828C176.258,167.822 176.13,167.818 176,167.818L175.929,167.819L175.377,166.748L175.123,167.866L174.974,167.883L174.943,167.888L174.348,166.732L174.046,168.058L174.017,168.065L172.013,166.641C172.31,166.512 172.615,166.398 172.926,166.298L172.921,166.304L173.344,167.448L173.821,166.056C174.056,166.004 174.294,165.96 174.535,165.925L175.006,166.036L175.891,167.155L175.93,165.819ZM178.577,166.153L179.328,166.6L178.894,167.418L179.987,166.641C179.534,166.445 179.063,166.281 178.577,166.153Z" style="fill:white;"/>
            </g>
        </g>
        <g id="nukie">
        </g>
        <g id="malf">
        </g>
        <g id="access">
        </g>
        <g id="xmorph">
        </g>
        <g id="abductor">
        </g>
        <g id="families">
        </g>
        <g id="circuit">
        </g>
        <g id="cyto">
            <g transform="matrix(1,0,0,1,0.350894,0.635265)">
                <path d="M204.68,204.046C204.668,203.878 204.662,203.708 204.662,203.537C204.662,199.47 207.964,196.168 212.031,196.168C216.098,196.168 219.4,199.47 219.4,203.537C219.4,207.604 216.098,210.905 212.031,210.905C211.545,210.905 211.07,210.858 210.61,210.768C210.622,210.936 210.628,211.106 210.628,211.277C210.628,215.344 207.326,218.646 203.259,218.646C199.192,218.646 195.89,215.344 195.89,211.277C195.89,207.211 199.192,203.909 203.259,203.909C203.745,203.909 204.22,203.956 204.68,204.046Z" style="fill:none;stroke:white;stroke-width:2.5px;"/>
            </g>
            <g transform="matrix(1,0,0,1,-0.706654,-1.32947)">
                <circle cx="211.671" cy="203.885" r="0.659" style="fill:none;stroke:white;stroke-width:3px;"/>
            </g>
            <g transform="matrix(1,0,0,1,-5.8374,8.12779)">
                <circle cx="211.671" cy="203.885" r="0.659" style="fill:none;stroke:white;stroke-width:1.5px;"/>
            </g>
            <g transform="matrix(0.867521,-0.505582,0.498504,0.871608,-64.2116,123.8)">
                <path d="M201.137,211.803C201.153,211.788 201.168,211.773 201.183,211.756C201.248,211.683 201.373,211.515 201.557,211.354C202.021,210.948 202.736,210.521 202.736,210.521C203.123,210.134 203.121,209.503 202.731,209.113C202.34,208.722 201.709,208.72 201.322,209.107C201.322,209.107 200.895,209.822 200.489,210.286C200.329,210.47 200.161,210.595 200.087,210.66C200.067,210.678 200.051,210.703 200.045,210.696C199.491,210.094 200.207,211.922 200.207,211.922C199.739,211.002 199.741,211.494 200.045,211.798C200.35,212.102 200.841,212.104 201.143,211.802L201.137,211.803Z" style="fill:white;"/>
            </g>
            <g transform="matrix(-0.498504,0.871608,-0.867521,-0.505582,483.956,142.66)">
                <path d="M201.379,211.527C201.29,211.624 201.224,211.709 201.183,211.756C201.165,211.776 201.141,211.792 201.147,211.798C201.366,211.999 201.402,211.795 201.379,211.527C201.431,211.472 201.49,211.412 201.557,211.354C202.021,210.948 202.736,210.521 202.736,210.521C203.123,210.134 203.121,209.503 202.731,209.113C202.34,208.722 201.709,208.72 201.322,209.107C201.322,209.107 200.895,209.822 200.489,210.286C200.329,210.47 200.161,210.595 200.087,210.66C199.728,210.982 200.291,210.979 200.755,210.934C199.745,211.123 199.78,211.532 200.045,211.798C200.35,212.102 200.841,212.104 201.143,211.802L201.263,210.866C201.263,210.866 201.356,211.235 201.379,211.527Z" style="fill:white;"/>
            </g>
        </g>
    </g>
</svg>
