<svg xmlns="http://www.w3.org/2000/svg" xml:space="preserve" style="fill-rule:evenodd;clip-rule:evenodd;stroke-linecap:square;stroke-miterlimit:5" viewBox="0 0 32 32"><path d="m167.192 180.751 2.401.026c.119.155.243.306.373.452l-.42.078-.363 1.164 1.207-.798.047.046.06.055-.036.007-.363 1.163 1-.66c.088.067.177.133.268.197l.018 1.308.7-.857.073.041.124.065.017 1.224.724-.884.022.009.164.062.773 2.295c-.298-.061-.591-.135-.879-.222l.231-1.196-1.08.898c-.328-.131-.648-.28-.958-.445l-.115-.113-.177-1.417-.632.976-.195-.136-.129-.094.627-.823-1.278.303c-.246-.215-.483-.442-.707-.68l-.096-.277.468-1.347-1.157.687c-.261-.352-.499-.722-.712-1.107Zm17.616 0c-.213.384-.45.753-.71 1.104l-.561-.407.223.841c-.345.416-.722.805-1.129 1.161l-1.045-.336.493.787c-.101.077-.204.152-.308.225l-.393-.745-.233 1.15c-.304.182-.618.348-.942.497l-.288-.029-1.024-.994.15 1.473c-.333.106-.675.195-1.022.266l.773-2.295c.257-.094.507-.202.752-.322l-.039.15.905.817-.204-1.331.139-.087.004-.003.874.788-.196-1.275.101-.082.019-.015.078-.021 1.303.579-.579-1.188.089-.023 1.303.578-.605-1.241 2.072-.022Zm-2.414.043.013-.017.028-.001-.041.018Zm-13.824-11.696.672 2.148-1.117-.115.828.831c-.047.086-.094.172-.139.26l-.971-.1.696.698c-.067.162-.128.327-.185.495l-1.083.235.883.466c-.023.094-.043.189-.062.285l-1.103.24.988.521-.018.201-.005.091-1.974 1.467c-.03-.31-.044-.622-.044-.938l.002-.211.173.233 1.203-.187-1.333-.785c.023-.245.055-.487.095-.727l.184-.402 1.269-.647-1.14-.267.076-.234.051-.143.973.308-.68-1.041c.177-.395.378-.776.602-1.143l1.405-.015-.895-.738c.203-.273.419-.535.649-.786Zm14.86 0-.722 2.31.085.129.028.045 1.363-.265-.896 1.109v.005l.038.08 1.259-.245-.896 1.109v.071l.012.04.033.109 1.3.143-1.023.663-.094-.053.021.108.011.067 1.486.164-1.023.662-.383-.214.012.128.005.091 1.974 1.467c.029-.305.044-.613.044-.924l-.007.033-1.473-.25 1.227-.725.163-.423c-.037-.276-.086-.549-.145-.818l-1.188-.604.972-.214c-.04-.125-.081-.25-.125-.374l-1.048.316.726-1.115c-.19-.417-.408-.819-.651-1.203l-1.161-.012.744-.598c-.209-.283-.431-.554-.668-.812Zm-7.5-3.279.07-.001c.123 0 .246.003.369.008l-.029.011-.128 1.213 1.151-1.139.169.024.104.017.692.573.241 1.124-.468.332-.166-1.034-.571.987-.137-.023-.168-.023-.154-.957-.519.897c-.128-.006-.256-.01-.386-.01l-.071.001-.552-1.071-.254 1.118-.149.017-.031.005-.595-1.156-.302 1.326-.029.007-2.004-1.424c.297-.129.602-.243.913-.343l-.005.006.423 1.144.477-1.392c.235-.052.473-.096.714-.131l.471.111.885 1.119.039-1.336Zm2.647.334.751.447-.434.818 1.093-.777c-.453-.196-.924-.36-1.41-.488Z" style="fill:#fff" transform="matrix(1.02836 .27484 -.27555 1.02571 -148.5873 -244.8858)"/><path d="m203.456 202.661-.197-.002c-4.757 0-8.619 3.862-8.619 8.618 0 4.757 3.862 8.619 8.619 8.619 4.461 0 8.135-3.397 8.574-7.743l.198.002c4.757 0 8.619-3.862 8.619-8.618 0-4.757-3.862-8.619-8.619-8.619-4.461 0-8.136 3.397-8.575 7.743Zm.984 2.612c.381.074.775-.033 1.067-.29.291-.257.446-.635.42-1.023-.01-.14-.015-.281-.015-.423 0-3.377 2.742-6.119 6.119-6.119s6.119 2.742 6.119 6.119-2.742 6.118-6.119 6.118c-.404 0-.799-.039-1.181-.114-.381-.074-.775.033-1.067.29-.291.257-.447.635-.42 1.023.01.14.015.281.015.423 0 3.377-2.742 6.119-6.119 6.119s-6.119-2.742-6.119-6.119 2.742-6.118 6.119-6.118c.404 0 .798.039 1.181.114Z" style="fill:#fff" transform="translate(-191.649106 -191.364735)"/><path d="M211.671 201.727c-1.192 0-2.159.967-2.159 2.158 0 1.192.967 2.159 2.159 2.159 1.191 0 2.159-.967 2.159-2.159 0-1.191-.968-2.158-2.159-2.158Zm0 3c-.464 0-.841-.377-.841-.842 0-.464.377-.841.841-.841.464 0 .841.377.841.841 0 .465-.377.842-.841.842Z" style="fill:#fff" transform="translate(-193.26808 -192.113036)"/><path d="M211.671 202.477c-.778 0-1.409.631-1.409 1.408 0 .778.631 1.409 1.409 1.409.777 0 1.409-.631 1.409-1.409 0-.777-.632-1.408-1.409-1.408Zm0 1.5c-.051 0-.091-.041-.091-.092 0-.05.04-.091.091-.091.05 0 .091.041.091.091 0 .051-.041.092-.091.092Z" style="fill:#fff" transform="translate(-198.21438 -186.30693)"/><path d="M211.671 202.114c-.978 0-1.771.794-1.771 1.771 0 .978.793 1.771 1.771 1.771.977 0 1.771-.793 1.771-1.771 0-.977-.794-1.771-1.771-1.771Zm0 2.225c-.251 0-.454-.203-.454-.454 0-.25.203-.453.454-.453.25 0 .454.203.454.453 0 .251-.204.454-.454.454Z" style="fill:#fff" transform="translate(-129.2483 -115.2328) scale(.67418)"/><path d="M201.137 211.803c.016-.015.031-.03.046-.047.065-.073.19-.241.374-.402.464-.406 1.179-.833 1.179-.833.387-.387.385-1.018-.005-1.408-.391-.391-1.022-.393-1.409-.006 0 0-.427.715-.833 1.179-.16.184-.328.309-.402.374-.02.018-.582.552-.042 1.138.292.316.796.306 1.098.004l-.006.001Z" style="fill:#fff" transform="matrix(.86752 -.50558 .4985 .8716 -256.2116 -68.2)"/><path d="M201.143 211.802s.347-.39.414-.448c.464-.406 1.179-.833 1.179-.833.387-.387.385-1.018-.005-1.408-.391-.391-1.022-.393-1.409-.006 0 0-.427.715-.833 1.179-.16.184-.328.309-.402.374-.359.322-.307.872-.042 1.138.305.304.796.306 1.098.004Z" style="fill:#fff" transform="matrix(-.4985 .8716 -.86752 -.50558 291.956 -49.34)"/><g><path d="m231.287 208.434-2.116-5.349" style="fill:none;stroke:#fff;stroke-width:1.85px" transform="matrix(.77932 .27892 -.28753 .75598 -80.967 -206.4519)"/></g><g transform="matrix(1.02662 .36743 -.37878 .99587 -119.1462 -276.9243)"><circle cx="229.291" cy="203.524" r="1.757" style="fill:#fff"/><path d="M229.291 201.767c.97 0 1.757.787 1.757 1.757 0 .969-.787 1.756-1.757 1.756-.969 0-1.757-.787-1.757-1.756 0-.97.788-1.757 1.757-1.757Zm.027 1.408c.187 0 .354.134.354.321 0 .217-.191.376-.408.376-.187 0-.354-.134-.354-.32 0-.217.191-.377.408-.377Z" style="fill:#fff"/></g></svg>