<?xml version="1.0" encoding="UTF-8" standalone="no"?>
<!DOCTYPE svg PUBLIC "-//W3C//DTD SVG 1.1//EN" "http://www.w3.org/Graphics/SVG/1.1/DTD/svg11.dtd">
<svg width="100%" height="100%" viewBox="0 0 32 32" version="1.1" xmlns="http://www.w3.org/2000/svg" xmlns:xlink="http://www.w3.org/1999/xlink" xml:space="preserve" xmlns:serif="http://www.serif.com/" style="fill-rule:evenodd;clip-rule:evenodd;stroke-linecap:round;stroke-linejoin:round;stroke-miterlimit:10;">
    <g transform="matrix(1,0,0,1,-192,-96)">
        <g id="unknown">
        </g>
        <g id="plumbing">
        </g>
        <g id="genetics">
        </g>
        <g id="surgery">
        </g>
        <g id="trauma">
        </g>
        <g id="wound">
        </g>
        <g id="power">
        </g>
        <g id="solar">
        </g>
        <g transform="matrix(-0.836256,-0.845147,0.836256,-0.845147,371.793,207.877)">
            <g id="machines">
            </g>
        </g>
        <g id="supermatter">
        </g>
        <g id="shield">
        </g>
        <g id="turbine">
        </g>
        <g id="tcomm">
        </g>
        <g id="atmos">
        </g>
        <g transform="matrix(1,0,0,1,0.0434522,0.804578)">
            <g id="xeno">
                <path d="M238.609,82.373C238.95,82.726 239.428,82.945 239.957,82.945C240.485,82.945 240.963,82.726 241.304,82.373L242.054,82.806C240.922,85.277 241.837,88.254 244.239,89.641C246.377,90.875 249.018,90.459 250.682,88.789L251.482,89.25C249.268,91.8 245.486,92.511 242.453,90.76C241.401,90.152 240.56,89.318 239.957,88.353C239.353,89.318 238.512,90.152 237.46,90.76C234.427,92.511 230.645,91.8 228.431,89.25C228.305,89.031 228.381,88.75 228.602,88.622C228.823,88.495 229.105,88.569 229.231,88.789L229.231,88.789C230.895,90.459 233.536,90.875 235.674,89.641C238.076,88.254 238.991,85.277 237.859,82.806L238.609,82.373ZM250.682,88.789C250.808,88.569 251.09,88.495 251.311,88.622C251.532,88.75 251.608,89.031 251.482,89.25L250.682,88.789ZM240.536,78.051C243.228,77.782 245.333,75.507 245.333,72.744C245.333,70.276 243.652,68.196 241.374,67.59L241.374,66.667C244.689,67.309 247.195,70.229 247.195,73.731C247.195,75.044 246.843,76.276 246.227,77.335C247.393,77.362 248.568,77.674 249.649,78.297C252.681,80.048 253.957,83.679 252.856,86.871C252.729,87.09 252.447,87.165 252.226,87.037C252.005,86.91 251.929,86.629 252.056,86.409L252.056,86.409C252.67,84.133 251.71,81.638 249.572,80.403C247.214,79.042 244.244,79.688 242.647,81.811L241.813,81.329C241.825,81.245 241.831,81.158 241.831,81.07C241.831,80.238 241.287,79.531 240.536,79.287L240.536,78.051ZM227.857,86.409C227.984,86.629 227.908,86.91 227.687,87.037C227.466,87.165 227.184,87.09 227.058,86.871L227.857,86.409ZM237.266,81.811C235.669,79.688 232.699,79.042 230.341,80.403C228.203,81.638 227.243,84.133 227.857,86.409L227.058,86.871C225.956,83.679 227.232,80.048 230.264,78.297C231.371,77.658 232.579,77.347 233.772,77.334C233.157,76.275 232.805,75.044 232.805,73.731C232.805,70.229 235.311,67.309 238.626,66.667C238.879,66.667 239.085,66.874 239.085,67.128C239.085,67.383 238.879,67.59 238.626,67.59L238.626,67.59C236.348,68.196 234.667,70.276 234.667,72.744C234.667,75.477 236.727,77.733 239.377,78.041L239.377,79.287C238.626,79.531 238.082,80.238 238.082,81.07C238.082,81.158 238.088,81.245 238.1,81.329L237.266,81.811ZM241.374,67.59C241.121,67.59 240.915,67.383 240.915,67.128C240.915,66.874 241.121,66.667 241.374,66.667L241.374,67.59Z" style="fill:white;stroke:white;stroke-width:0.5px;"/>
            </g>
        </g>
        <g id="nanites">
        </g>
        <g id="aimod">
        </g>
        <g id="tips">
        </g>
        <g transform="matrix(-1,0,0,1,352.735,1.30286)">
            <g id="races">
                <path d="M176,120.193L176,123.681C174.356,123.681 170.441,123.641 169.46,119.454C169.088,117.867 167.494,117.279 166.786,116.102C165.017,116.992 163.785,116.539 164.758,111.923C164.97,110.914 162.116,105.331 162.75,104.358C163.044,103.905 164.74,105.762 166.17,107.478C166.051,106.047 166.045,104.204 166.69,103.539C167.8,102.394 163.675,98.486 163.675,98.486L167.735,99.582L169.084,100.802C171.426,102.313 173.522,102.016 171.028,98.667C170.021,97.314 174.632,97.75 176,97.906L176,112.048C175.969,112.126 175.871,112.371 175.858,112.922C175.841,113.611 175.546,114.531 175.346,114.713C175.153,114.889 173.904,116.162 174.042,116.149C174.344,116.122 175.685,116.594 175.721,117.19C175.756,117.762 175.967,116.52 176,116.32L176,118.716C175.196,119.18 174.137,119.13 173.333,119.28C174.136,119.288 175.166,119.494 176,120.193ZM173.194,99.317C173.611,99.32 174.073,99.325 174.5,99.335L174.5,111.798C174.437,112.021 174.371,112.369 174.358,112.886C174.352,113.153 174.21,113.618 174.157,113.782C173.734,114.216 172.819,115.213 172.709,115.425C172.255,116.299 172.699,116.909 172.925,117.157C173.148,117.403 173.471,117.635 173.964,117.65L174.033,117.68C173.691,117.717 173.359,117.749 173.059,117.805C172.3,117.946 171.772,118.641 171.839,119.41C171.906,120.179 172.546,120.772 173.319,120.78C173.671,120.783 174.096,120.836 174.5,121.012L174.5,122.121C173.116,121.958 171.445,121.35 170.92,119.111C170.66,118 170.013,117.212 169.266,116.522C168.839,116.128 168.354,115.799 168.071,115.328C167.666,114.656 166.812,114.409 166.111,114.762C166.052,114.792 165.982,114.821 165.911,114.848C165.857,114.274 165.973,113.429 166.225,112.232C166.293,111.912 166.269,111.32 166.054,110.572C165.911,110.076 165.688,109.454 165.441,108.788C165.831,109.006 166.308,109.042 166.739,108.866C167.345,108.618 167.72,108.006 167.665,107.353C167.613,106.719 167.581,105.994 167.638,105.354C167.665,105.053 167.788,104.605 167.806,104.54C168.34,103.956 168.516,103.041 168.179,101.998C168.209,102.021 168.24,102.042 168.271,102.062C169.357,102.764 170.422,103.125 171.181,103.169C171.781,103.203 172.273,103.065 172.643,102.842C173.286,102.455 173.729,101.808 173.646,100.771C173.616,100.4 173.485,99.914 173.194,99.317ZM174.547,114.735C174.406,114.703 174.279,114.68 174.17,114.667C174.062,114.654 173.972,114.65 173.91,114.655C174.161,114.633 174.371,114.67 174.547,114.735ZM173.319,108.358C173.278,108.324 173.235,108.29 173.191,108.258C172.824,107.988 172.107,107.808 171.307,107.969L171.371,107.958L171.292,107.972C171.292,107.972 171.275,107.975 171.299,107.971L171.153,108.003L171.236,107.983L171.195,107.992L171.201,107.991C170.564,108.132 169.881,108.417 169.881,108.417C169.371,108.631 169.02,109.107 168.968,109.658C168.968,109.658 168.899,110.396 168.954,111.046L168.95,110.996L168.96,111.118C168.96,111.118 168.963,111.144 168.96,111.121L168.969,111.193C169.061,111.985 169.439,112.6 169.8,112.866L170.061,113.058C170.428,113.328 171.146,113.508 171.945,113.347L171.881,113.358L171.96,113.344C171.96,113.344 171.977,113.341 171.954,113.345L172.099,113.313L172.017,113.333L172.057,113.324L172.052,113.325C172.688,113.184 173.372,112.899 173.372,112.899C173.881,112.685 174.232,112.209 174.285,111.658C174.285,111.658 174.354,110.92 174.299,110.27L174.302,110.32L174.292,110.198C174.292,110.198 174.289,110.172 174.292,110.195L174.283,110.123C174.192,109.331 173.813,108.716 173.452,108.45C173.409,108.418 173.364,108.387 173.319,108.358ZM172.426,109.571C172.388,109.534 172.346,109.499 172.302,109.466C172.168,109.367 171.897,109.38 171.604,109.44L171.525,109.456C171.012,109.569 170.461,109.8 170.461,109.8C170.461,109.8 170.404,110.395 170.448,110.919L170.456,110.999C170.487,111.296 170.555,111.559 170.689,111.658C170.733,111.69 170.779,111.719 170.826,111.745C170.865,111.782 170.906,111.817 170.95,111.85C171.085,111.949 171.355,111.936 171.649,111.876L171.727,111.86C172.24,111.747 172.791,111.516 172.791,111.516C172.791,111.516 172.848,110.921 172.804,110.397L172.796,110.317C172.766,110.02 172.698,109.757 172.563,109.658C172.519,109.626 172.473,109.597 172.426,109.571ZM168.969,111.193L168.964,111.153L168.972,111.217L168.969,111.193ZM168.956,111.069L168.953,111.039L168.956,111.08L168.956,111.069ZM174.297,110.247L174.299,110.277L174.296,110.236L174.297,110.247ZM174.283,110.123L174.288,110.163L174.28,110.099L174.283,110.123Z" style="fill:white;"/>
            </g>
        </g>
        <g transform="matrix(-0.919427,1.41035,-1.41035,-0.919427,545.108,-83.547)">
            <g id="food">
                <path d="M205.932,100.694L206.563,95.122C206.584,94.94 206.704,94.784 206.875,94.718C206.875,94.718 207.863,94.344 208.61,94.386C209.04,94.41 209.397,94.569 209.603,94.863C209.744,95.064 209.829,95.338 209.782,95.719C209.667,96.64 209.145,98.888 208.788,100.371L209.265,100.431C209.265,100.431 208.881,110.034 208.042,111.426C206.04,114.746 203.475,113.939 203.475,113.939L205.932,100.694ZM204.531,112.661C204.531,112.665 204.53,112.664 204.535,112.664L204.537,112.656C204.599,112.6 205.145,112.261 205.573,110.954C206.183,109.088 206.684,105.553 206.602,101.333L204.537,112.656L204.531,112.661ZM209.992,103.444C211.774,103.856 213.149,104.178 213.251,104.209C214.826,104.691 215.557,104.918 215.569,106.212C215.584,107.828 213.635,108.773 212.06,108.411L211.883,108.371L212.111,108.231C212.562,107.975 213.004,107.702 213.438,107.417C213.694,107.25 213.783,106.949 213.639,106.741C213.495,106.532 213.17,106.493 212.91,106.653L211.612,107.449C211.236,107.661 210.853,107.862 210.46,108.044L209.633,107.854L209.726,106.926C209.916,106.809 210.105,106.688 210.292,106.566C210.547,106.399 210.636,106.098 210.492,105.89C210.36,105.698 210.075,105.65 209.827,105.768L209.875,105.157C209.892,104.935 209.908,104.712 209.924,104.489L209.992,103.444ZM200.329,105.719L200.322,105.718C198.747,105.356 197.718,103.773 198.123,102.209C198.401,101.135 199.542,101.142 201.454,101.504C201.755,101.56 203.053,101.852 204.685,102.224L203.914,106.38L203.673,106.487L201.87,106.073L202.562,105.648C203.013,105.392 203.455,105.119 203.889,104.834C204.145,104.667 204.234,104.366 204.09,104.158C203.946,103.95 203.621,103.911 203.361,104.071L202.063,104.866C201.504,105.183 200.928,105.472 200.329,105.719ZM207.807,100.25C208.159,98.798 208.691,96.521 208.806,95.599C208.815,95.526 208.823,95.469 208.798,95.429C208.768,95.381 208.702,95.384 208.639,95.375C208.529,95.36 208.408,95.363 208.286,95.375C208,95.403 207.709,95.478 207.505,95.541L206.983,100.149L207.807,100.25Z" style="fill:white;"/>
            </g>
        </g>
        <g id="hydro">
        </g>
        <g id="song">
        </g>
        <g id="crate">
        </g>
        <g id="space">
        </g>
        <g id="aux">
        </g>
        <g id="security">
        </g>
        <g id="law">
        </g>
        <g id="sop">
        </g>
    </g>
</svg>
