<svg viewBox="0 0 32 32" xmlns="http://www.w3.org/2000/svg" fill-rule="evenodd" clip-rule="evenodd" stroke-linecap="round" stroke-linejoin="round" stroke-miterlimit="10"><path d="M46.652-12.822c.341.353.82.572 1.348.572.528 0 1.006-.22 1.347-.572l.75.433a5.337 5.337 0 002.185 6.835 5.338 5.338 0 006.443-.852l.8.46a7.202 7.202 0 01-9.029 1.51A7.153 7.153 0 0148-6.841a7.164 7.164 0 01-2.497 2.407 7.202 7.202 0 01-9.029-1.51.46.46 0 01.8-.461h0a5.338 5.338 0 006.443.852 5.337 5.337 0 002.185-6.835l.75-.433zm12.073 6.416a.46.46 0 01.8.461l-.8-.461zM48.58-17.144a5.337 5.337 0 004.797-5.307 5.338 5.338 0 00-3.959-5.154v-.923a7.2 7.2 0 015.821 7.064 7.147 7.147 0 01-.968 3.604 7.168 7.168 0 013.422.962A7.203 7.203 0 0160.9-8.324a.461.461 0 01-.63.166.46.46 0 01-.17-.628h0a5.339 5.339 0 00-2.484-6.006 5.337 5.337 0 00-6.925 1.408l-.834-.482a1.877 1.877 0 00-1.277-2.042v-1.236zM35.9-8.786a.46.46 0 01-.17.628.46.46 0 01-.629-.166l.8-.462zm9.41-4.598a5.337 5.337 0 00-6.926-1.408A5.339 5.339 0 0035.9-8.786l-.799.462a7.202 7.202 0 013.206-8.574 7.157 7.157 0 013.508-.963 7.2 7.2 0 014.854-10.667.46.46 0 010 .923h0a5.338 5.338 0 00-3.959 5.154 5.336 5.336 0 004.71 5.297v1.246a1.877 1.877 0 00-1.277 2.042l-.834.482zm4.107-14.221a.46.46 0 010-.923v.923z" fill="#fff" stroke="#fff" stroke-width=".5"/><path d="M-15.265 25.496v3.488c1.644 0 5.559-.04 6.54-4.227.372-1.587 1.966-2.175 2.674-3.352 1.769.89 3.001.437 2.028-4.18-.212-1.008 2.642-6.591 2.008-7.564-.294-.453-1.99 1.404-3.42 3.12.119-1.431.125-3.274-.52-3.94C-7.065 7.698-2.94 3.79-2.94 3.79L-7 4.885l-1.349 1.22c-2.342 1.51-4.438 1.214-1.944-2.135 1.007-1.353-3.604-.917-4.972-.761V17.35c.031.078.129.323.142.874.017.689.312 1.609.512 1.79.193.177 1.442 1.45 1.304 1.437-.302-.027-1.643.445-1.679 1.04-.035.573-.246-.67-.279-.87v2.397c.804.464 1.863.414 2.667.564-.803.008-1.833.214-2.667.913zm2.806-20.876c-.417.003-.879.008-1.306.018V17.1c.063.223.129.57.142 1.088.006.267.148.732.201.896.423.434 1.338 1.43 1.448 1.643.454.874.01 1.484-.216 1.732a1.409 1.409 0 01-1.039.493l-.069.03c.342.037.674.069.974.125a1.5 1.5 0 01-.26 2.975 3.045 3.045 0 00-1.181.232v1.109c1.384-.163 3.055-.771 3.58-3.01.26-1.111.907-1.9 1.654-2.59.427-.393.912-.722 1.195-1.193a1.5 1.5 0 011.96-.566c.059.03.129.059.2.086.054-.574-.062-1.42-.314-2.616-.068-.32-.044-.912.171-1.66.143-.496.366-1.118.613-1.784a1.498 1.498 0 01-2.224-1.435c.052-.634.084-1.36.027-2a5.668 5.668 0 00-.168-.813c-.534-.584-.71-1.5-.373-2.542a1.38 1.38 0 01-.092.064c-1.086.702-2.151 1.063-2.91 1.107-.6.034-1.092-.104-1.462-.327-.643-.387-1.086-1.034-1.003-2.071.03-.371.161-.857.452-1.454zm-1.353 15.418c.141-.032.268-.055.377-.068.108-.013.198-.017.26-.012a1.446 1.446 0 00-.637.08zm1.228-6.377a2.57 2.57 0 01.128-.1c.367-.27 1.084-.45 1.884-.29l-.064-.01.079.014-.007-.001.146.032-.083-.02.041.009-.006-.001c.637.14 1.32.426 1.32.426.51.214.861.69.913 1.24 0 0 .069.739.014 1.389l.004-.05-.01.122s-.003.026 0 .003l-.009.072c-.092.792-.47 1.407-.831 1.673l-.261.192c-.367.27-1.085.45-1.884.289l.064.01-.079-.013s-.017-.003.006 0l-.145-.031.082.02-.04-.01.005.002c-.636-.141-1.32-.426-1.32-.426a1.502 1.502 0 01-.913-1.241s-.069-.738-.014-1.388l-.003.05.01-.122s.003-.026 0-.003l.009-.072c.091-.792.47-1.407.831-1.673.043-.032.088-.063.133-.092zm.893 1.213c.038-.037.08-.072.124-.105.134-.1.405-.086.698-.026l.079.016c.513.113 1.064.344 1.064.344s.057.595.013 1.119l-.008.08c-.031.297-.099.56-.233.659-.044.032-.09.06-.137.087-.039.037-.08.072-.124.105-.135.099-.405.086-.699.026l-.078-.016c-.513-.113-1.064-.344-1.064-.344s-.057-.595-.013-1.12l.008-.08c.03-.296.098-.56.233-.658.044-.032.09-.061.137-.087zm3.457 1.622l.005-.04-.008.064.003-.024zm.013-.124l.003-.03-.003.04v-.01zm-5.341-.822l-.002.03.003-.041-.001.01zm.014-.124l-.005.04.008-.064-.003.024zM21.755 18.308l7.278 6.013c.237.197.347.51.283.812 0 0-.38 1.737-1.127 2.752-.43.584-.982.942-1.586.962-.413.014-.877-.118-1.372-.535-1.193-1.009-3.883-3.812-5.647-5.679l-.523.618S5.871 13.88 4.68 11.417c-2.842-5.876.655-8.752.655-8.752l16.42 15.643zM6.165 5.33c-.005-.004-.003-.004-.008.003l.01.01c.022.139-.002 1.22 1.448 3.026 2.07 2.576 6.595 6.533 12.623 10.297L6.167 5.343l-.002-.013zm7.978 16.176c-2.219 2.134-3.937 3.778-4.075 3.893-2.128 1.778-3.12 2.6-4.956 1.428-2.293-1.465-1.834-5.083.125-6.971l.219-.213-.012.45a40.478 40.478 0 00-.072 2.62c0 .515.343.917.768.905.428-.01.781-.433.795-.947l.07-2.563c.047-.725.116-1.45.22-2.171l1.029-.992 1.223.984c-.01.376-.013.754-.013 1.13.002.513.344.915.77.903.392-.01.722-.367.783-.825l.818.629c.298.228.597.456.897.683l1.411 1.057zm5.676-15.72l.008-.009c1.959-1.888 5.137-1.884 6.97.125 1.26 1.38.201 2.982-2.067 5.346-.356.373-1.961 1.935-3.987 3.895l-5.152-4.909.07-.438 2.242-2.162-.037 1.367a40.478 40.478 0 00-.072 2.62c0 .514.343.917.769.905.426-.012.78-.435.793-.949l.072-2.561a26.07 26.07 0 01.391-3.23zm.838 15.575c1.724 1.831 4.446 4.675 5.641 5.685.095.08.168.144.247.145.095.002.152-.094.223-.174.122-.142.229-.315.324-.498a6.96 6.96 0 00.484-1.254l-6.019-4.973-.9 1.069z" fill="#fff"/></svg>