<?xml version="1.0" encoding="UTF-8" standalone="no"?>
<!DOCTYPE svg PUBLIC "-//W3C//DTD SVG 1.1//EN" "http://www.w3.org/Graphics/SVG/1.1/DTD/svg11.dtd">
<svg width="100%" height="100%" viewBox="0 0 32 32" version="1.1" xmlns="http://www.w3.org/2000/svg" xmlns:xlink="http://www.w3.org/1999/xlink" xml:space="preserve" xmlns:serif="http://www.serif.com/" style="fill-rule:evenodd;clip-rule:evenodd;stroke-linecap:round;stroke-linejoin:round;stroke-miterlimit:1.5;">
    <g transform="matrix(1,0,0,1,-64,-32)">
        <g id="unknown">
        </g>
        <g id="plumbing">
        </g>
        <g id="genetics">
            <g transform="matrix(1.15165,0,0,1,-11.9066,-3.97904e-13)">
                <path d="M79.621,40.175C84.352,37.459 84.727,36.215 84.723,35.765L84.719,35.718L84.721,35.74L84.72,35.721C84.691,35.204 85.067,34.743 85.589,34.675C86.136,34.604 86.639,34.991 86.71,35.538C86.71,35.538 87.285,37.766 81.56,41.341C86.315,44.414 86.724,47.065 86.724,47.875L86.735,47.921C86.735,47.921 87.308,50.999 81.611,54.691C87.281,58.248 86.71,60.462 86.71,60.462C86.639,61.009 86.136,61.396 85.589,61.325C85.042,61.254 84.655,60.752 84.719,60.282C84.719,60.282 84.722,60.266 84.723,60.235C84.727,59.787 84.355,58.549 79.667,55.852C74.978,58.549 74.606,59.787 74.611,60.235L74.614,60.282L74.612,60.26L74.614,60.279C74.643,60.796 74.267,61.257 73.744,61.325C73.197,61.396 72.695,61.009 72.624,60.462C72.624,60.462 71.961,57.893 79.147,53.844L79.147,53.844C84.026,51.11 84.683,48.905 84.742,48.257C84.713,48.156 84.705,48.052 84.719,47.949C84.719,47.949 84.722,47.933 84.723,47.902C84.727,47.437 84.326,45.122 79.122,42.206L79.127,42.197C72.187,38.225 72.835,35.712 72.835,35.712C72.906,35.165 73.408,34.778 73.956,34.849C74.503,34.92 74.89,35.422 74.826,35.892C74.826,35.892 74.823,35.908 74.822,35.939C74.818,36.379 75.176,37.579 79.621,40.175ZM76.651,42.117L76.793,42.199L76.789,42.206C77.429,42.565 77.997,42.915 78.5,43.253C75.044,45.577 74.633,47.361 74.613,47.852C74.623,47.918 74.623,47.985 74.614,48.051C74.614,48.051 74.611,48.067 74.611,48.098C74.607,48.508 74.918,50.357 78.563,52.787C78.084,53.114 77.544,53.451 76.935,53.794L76.9,53.794L76.693,53.914C72.711,50.986 72.579,48.572 72.612,48C72.579,47.43 72.71,45.031 76.651,42.117Z" style="fill:white;"/>
            </g>
            <g transform="matrix(0.700741,0,0,1,23.955,0)">
                <path d="M83.785,48L76.31,48" style="fill:none;stroke:white;stroke-width:2.32px;"/>
            </g>
            <g transform="matrix(0.569231,0,0,1,34.4027,0)">
                <path d="M78.869,37.333L81.337,37.333" style="fill:none;stroke:white;stroke-width:2.46px;"/>
            </g>
            <g transform="matrix(0.569231,0,0,1,34.4027,13.3333)">
                <path d="M78.869,37.333L81.337,37.333" style="fill:none;stroke:white;stroke-width:1.84px;"/>
            </g>
            <g transform="matrix(0.569231,0,0,1,34.4027,21.3333)">
                <path d="M78.869,37.333L81.337,37.333" style="fill:none;stroke:white;stroke-width:2.46px;"/>
            </g>
            <g transform="matrix(0.569231,0,0,1,34.4027,8)">
                <path d="M78.869,37.333L81.337,37.333" style="fill:none;stroke:white;stroke-width:1.84px;"/>
            </g>
        </g>
        <g transform="matrix(0.959088,-0.283109,0.283109,0.959088,-11.8658,30.5845)">
            <g id="surgery">
                <path d="M109.198,52.73L110.616,54.147C110.665,54.197 110.692,54.264 110.691,54.334C110.689,54.404 110.66,54.47 110.609,54.518C109.636,55.473 109.734,57.059 109.893,57.377L109.893,57.377C107.851,59.537 103.147,61.913 99.149,61.086C99.052,61.063 98.975,60.989 98.948,60.893C98.921,60.797 98.948,60.694 99.019,60.624C100.301,59.354 106.993,52.719 107.974,51.746C108.041,51.68 108.148,51.68 108.215,51.746L108.609,52.141L100.493,60.261C100.493,60.261 101.85,60.079 102.046,59.884L109.198,52.73ZM111.42,50.507L113.681,52.768C113.789,52.876 113.85,53.023 113.85,53.175C113.85,53.328 113.789,53.474 113.681,53.582C113.366,53.897 112.932,54.332 112.617,54.647C112.509,54.755 112.362,54.816 112.21,54.816C112.057,54.816 111.911,54.755 111.803,54.647L109.541,52.386L111.42,50.507ZM120.984,40.94L124.165,41.931C124.358,41.991 124.505,42.147 124.553,42.343C124.601,42.539 124.543,42.746 124.4,42.888C122.573,44.709 117.501,49.765 114.908,52.356C114.683,52.581 114.318,52.581 114.094,52.356L111.832,50.095L120.984,40.94ZM108.953,51.798L108.845,51.69C108.738,51.582 108.677,51.436 108.677,51.283C108.677,51.13 108.738,50.984 108.845,50.876C109.161,50.561 109.595,50.126 109.91,49.811C110.018,49.703 110.165,49.643 110.317,49.643C110.47,49.643 110.616,49.703 110.724,49.811L110.832,49.918L108.953,51.798ZM111.244,49.506L111.138,49.401C111.03,49.292 110.969,49.145 110.969,48.992C110.97,48.839 111.031,48.693 111.14,48.585C112.655,47.082 117.91,41.869 119.111,40.677C119.263,40.527 119.485,40.473 119.688,40.536L120.087,40.66L111.244,49.506Z" style="fill:white;"/>
            </g>
        </g>
        <g id="trauma">
        </g>
        <g id="wound">
        </g>
    </g>
</svg>
