<svg viewBox="0 0 32 32" xmlns="http://www.w3.org/2000/svg" fill-rule="evenodd" clip-rule="evenodd" stroke-linecap="round" stroke-linejoin="round" stroke-miterlimit="1.5"><path d="M15.789 8.175c5.448-2.716 5.88-3.96 5.876-4.41l-.005-.047.002.022v-.019c-.034-.517.399-.978 1-1.046.63-.071 1.21.316 1.291.863 0 0 .662 2.228-5.931 5.803 5.476 3.073 5.947 5.724 5.947 6.534l.013.046s.66 3.078-5.901 6.77c6.53 3.557 5.872 5.771 5.872 5.771-.082.547-.661.934-1.291.863-.63-.071-1.076-.573-1.002-1.043 0 0 .003-.016.005-.047.004-.448-.424-1.686-5.823-4.383-5.4 2.697-5.829 3.935-5.823 4.383l.004.047-.003-.022.003.019c.033.517-.4.978-1.002 1.046-.63.071-1.208-.316-1.29-.863 0 0-.764-2.569 7.512-6.618 5.619-2.734 6.376-4.939 6.444-5.587a.653.653 0 01-.027-.308s.003-.016.005-.047c.004-.465-.458-2.78-6.45-5.696l.005-.009C7.228 6.225 7.974 3.712 7.974 3.712c.082-.547.66-.934 1.29-.863.63.071 1.076.573 1.003 1.043 0 0-.004.016-.005.047-.004.44.408 1.64 5.527 4.236zm-3.42 1.942l.163.082-.005.007c.738.359 1.392.709 1.97 1.047-3.98 2.324-4.453 4.108-4.476 4.599a.607.607 0 01.002.199s-.004.016-.004.047c-.004.41.354 2.259 4.551 4.689-.551.327-1.173.664-1.874 1.007h-.04l-.24.12C7.832 18.986 7.68 16.572 7.718 16c-.038-.57.113-2.969 4.652-5.883z" fill="#fff"/><path d="M83.785 48H76.31" fill="none" stroke="#fff" stroke-width="2.32" transform="matrix(.70074 0 0 1 -40.045 -32)"/><path d="M78.869 37.333h2.468" fill="none" stroke="#fff" stroke-width="2.46" transform="matrix(.56923 0 0 1 -29.597 -32)"/><path d="M78.869 37.333h2.468" fill="none" stroke="#fff" stroke-width="1.84" transform="matrix(.56923 0 0 1 -29.597 -18.667)"/><path d="M78.869 37.333h2.468" fill="none" stroke="#fff" stroke-width="2.46" transform="matrix(.56923 0 0 1 -29.597 -10.667)"/><path d="M78.869 37.333h2.468" fill="none" stroke="#fff" stroke-width="1.84" transform="matrix(.56923 0 0 1 -29.597 -24)"/><path d="M43.793 18.242l1.761.958c.061.034.106.09.125.158a.262.262 0 01-.026.2c-.663 1.191-.12 2.684.122 2.944-1.347 2.65-5.186 6.26-9.254 6.6a.275.275 0 01-.256-.407c.87-1.58 5.41-9.839 6.076-11.05a.171.171 0 01.23-.068l.49.267-5.485 10.086s1.25-.56 1.383-.802l4.834-8.886zm1.502-2.76l2.808 1.528a.577.577 0 01.23.78l-.718 1.323a.577.577 0 01-.78.23l-2.81-1.528 1.27-2.334zm6.464-11.884l3.331.05a.574.574 0 01.497.851c-1.237 2.264-4.67 8.549-6.423 11.768a.575.575 0 01-.781.23l-2.81-1.528L51.76 3.598zm-8.465 13.82l-.134-.073a.579.579 0 01-.23-.78l.72-1.324a.576.576 0 01.78-.23l.134.072-1.27 2.335zm1.549-2.847l-.132-.07a.577.577 0 01-.23-.783l5.407-9.842a.578.578 0 01.514-.299l.417.006-5.976 10.988zM41.523 44.34a5.6 5.6 0 011.905-.918 5.662 5.662 0 012.197-.15L44.49 45.87c-.128.016-.257.041-.384.075l-.28.092-2.302-1.697zm-3.384-2.494a9.342 9.342 0 014.258-2.477 9.342 9.342 0 014.927.016l-1.063 2.433a6.682 6.682 0 00-3.187.075 6.682 6.682 0 00-2.798 1.528l-2.137-1.575zm-3.472-2.559a13.025 13.025 0 016.59-4.171 13.03 13.03 0 017.795.317l-1.05 2.4a10.437 10.437 0 00-6.068-.194 10.437 10.437 0 00-5.159 3.202l-2.108-1.554z" fill="#fff"/></svg>