<?xml version="1.0" encoding="UTF-8" standalone="no"?>
<!DOCTYPE svg PUBLIC "-//W3C//DTD SVG 1.1//EN" "http://www.w3.org/Graphics/SVG/1.1/DTD/svg11.dtd">
<svg width="100%" height="100%" viewBox="0 0 32 32" version="1.1" xmlns="http://www.w3.org/2000/svg" xmlns:xlink="http://www.w3.org/1999/xlink" xml:space="preserve" xmlns:serif="http://www.serif.com/" style="fill-rule:evenodd;clip-rule:evenodd;stroke-linejoin:round;stroke-miterlimit:2;">
    <g transform="matrix(1,0,0,1,-160,0)">
        <g id="unknown">
        </g>
        <g id="plumbing">
        </g>
        <g id="genetics">
        </g>
        <g id="surgery">
        </g>
        <g transform="matrix(1.066,1.30071e-32,0,1.05526,-9.51961,-1.33485)">
            <g id="trauma">
                <path d="M143.062,8.827C143.062,8.827 143.199,12.305 143.199,15.785C143.199,19.265 143.062,22.743 143.062,22.743C143.062,23.266 143.482,23.691 144,23.691C144.518,23.691 144.938,23.266 144.938,22.743C144.938,22.743 144.801,19.265 144.801,15.785C144.801,12.305 144.938,8.827 144.938,8.827C144.938,8.304 144.518,7.879 144,7.879C143.482,7.879 143.062,8.304 143.062,8.827Z" style="fill:white;"/>
            </g>
        </g>
        <g id="wound">
        </g>
        <g id="ghetto" transform="matrix(1.45196,0,0,1.39449,-78.3033,-6.18048)">
            <path d="M170.468,13.587C169.14,11.323 168.038,9.673 168.038,9.673C167.486,8.545 167.922,7.165 169.011,6.592C170.1,6.02 171.432,6.472 171.984,7.6C171.984,7.6 172.684,9.69 173.745,12.315C173.853,12.581 173.963,12.853 174.078,13.128C174.427,13.111 174.784,13.104 175.145,13.104C179.944,13.104 183.832,14.478 183.841,16.171C183.843,16.633 183.782,17.068 183.661,17.474C183.191,20.911 180.39,25.512 175.193,25.467C169.485,25.418 166.56,20.269 166.455,16.382L166.45,16.19C166.448,16.136 166.448,16.08 166.459,16.046C166.588,15.013 168.153,14.111 170.468,13.587ZM171.017,14.531C169.451,14.957 168.45,15.613 168.525,16.333C168.706,18.066 171.92,19.459 175.145,19.523C177.71,19.574 181.927,18.31 181.872,16.333C181.837,15.06 178.882,14.024 175.199,14.024C174.951,14.024 174.705,14.029 174.464,14.039C174.657,14.484 174.862,14.932 175.079,15.375C175.224,15.669 175.374,15.959 175.527,16.245C177.111,15.849 180.437,15.972 180.783,16.102C180.952,16.165 181.292,16.283 180.408,16.972C178.327,18.595 173.225,18.781 170.849,17.475C169.898,16.953 169.035,16.313 169.376,15.906C169.376,15.906 170.646,16.196 172.029,16.38C171.703,15.743 171.357,15.123 171.017,14.531ZM169.028,9.437C169.028,9.437 171.03,12.396 173.135,16.707C173.248,16.939 174.098,17.113 173.991,16.886C171.733,12.123 169.475,8.787 169.475,8.787C169.335,8.58 169.059,8.53 168.859,8.675C168.659,8.82 168.888,9.23 169.028,9.437Z" style="fill:white;"/>
        </g>
        <g id="power">
            <path d="M212.561,37.261C216.736,39.037 219.667,43.179 219.667,48C219.667,54.163 214.877,59.217 208.819,59.635L210.66,57.287C214.705,56.137 217.667,52.412 217.667,48C217.667,44.184 215.45,40.881 212.232,39.32L212.561,37.261ZM206.452,36.439L204.407,39.032C200.848,40.453 198.333,43.935 198.333,48C198.333,51.774 200.501,55.046 203.663,56.629L203.073,58.574C199.093,56.718 196.333,52.679 196.333,48C196.333,42.086 200.744,37.193 206.452,36.439ZM206.478,57.535L206.909,57.601L206.181,58.515L206.478,57.535ZM209.347,38.438L208.988,38.383L208.487,38.358L209.583,36.968L209.347,38.438Z" style="fill:white;"/>
        </g>
        <g id="solar">
        </g>
        <g id="machines" transform="matrix(1.10253,0,0,1.11425,-20.8344,-1.35602)">
            <g transform="matrix(-0.573209,-0.573209,0.573209,-0.573209,318.056,144.399)">
                <path d="M194.929,10.936L194.929,8.475C194.929,7.923 195.376,7.475 195.929,7.475L217.371,7.475L217.371,6.81C217.371,6.258 217.819,5.81 218.371,5.81L220.071,5.81C220.624,5.81 221.071,6.258 221.071,6.81L221.071,25.19C221.071,25.742 220.624,26.19 220.071,26.19L218.371,26.19C217.819,26.19 217.371,25.742 217.371,25.19L217.371,24.525L195.929,24.525C195.376,24.525 194.929,24.077 194.929,23.525L194.929,20.549L197.414,20.549C197.496,20.549 197.55,20.543 197.585,20.525L197.585,22.455C197.585,22.781 197.002,23.115 197.329,23.115C197.655,23.115 197.919,22.851 197.919,22.525L197.919,9.718C197.919,9.392 197.655,9.127 197.329,9.127C197.002,9.127 197.585,9.323 197.585,9.649L197.585,10.956C197.548,10.941 197.494,10.936 197.414,10.936L194.929,10.936ZM218.221,7.56L218.221,24.495C218.221,24.909 218.361,25.245 218.534,25.245C218.706,25.245 218.612,24.909 218.612,24.495L218.612,7.56C218.612,7.147 218.706,6.81 218.534,6.81C218.361,6.81 218.221,7.147 218.221,7.56ZM198.658,9.475L198.658,22.525L217.371,22.525L217.371,9.475L198.658,9.475ZM219.237,16.975L219.237,20.922C219.237,21.248 219.501,21.512 219.827,21.512C220.154,21.512 220.418,21.248 220.418,20.922L220.418,16.975C220.418,16.649 220.154,16.385 219.827,16.385C219.501,16.385 219.237,16.649 219.237,16.975ZM197.585,17.124L197.585,19.388C197.548,19.373 197.494,19.368 197.414,19.368L194.929,19.368L194.929,17.148L197.414,17.148C197.496,17.148 197.55,17.142 197.585,17.124ZM197.585,12.093L197.585,15.987C197.548,15.972 197.494,15.967 197.414,15.967L194.929,15.967L194.929,12.118L197.414,12.118C197.496,12.118 197.55,12.111 197.585,12.093ZM219.237,10.612L219.237,14.558C219.237,14.884 219.501,15.149 219.827,15.149C220.154,15.149 220.418,14.884 220.418,14.558L220.418,10.612C220.418,10.286 220.154,10.021 219.827,10.021C219.501,10.021 219.237,10.286 219.237,10.612Z" style="fill:white;"/>
            </g>
        </g>
        <g id="supermatter">
        </g>
        <g id="shield">
        </g>
        <g id="turbine">
        </g>
        <g id="tcomm">
        </g>
        <g id="atmos">
        </g>
        <g id="xeno">
        </g>
        <g id="nanites">
        </g>
        <g id="aimod">
        </g>
        <g id="tips">
        </g>
        <g id="races">
        </g>
        <g id="food">
        </g>
        <g id="hydro">
        </g>
        <g id="song">
        </g>
        <g id="crate">
        </g>
        <g id="space">
        </g>
        <g id="aux">
        </g>
        <g id="security">
        </g>
    </g>
</svg>
