<?xml version="1.0" encoding="UTF-8" standalone="no"?>
<!DOCTYPE svg PUBLIC "-//W3C//DTD SVG 1.1//EN" "http://www.w3.org/Graphics/SVG/1.1/DTD/svg11.dtd">
<svg width="100%" height="100%" viewBox="0 0 32 32" version="1.1" xmlns="http://www.w3.org/2000/svg" xmlns:xlink="http://www.w3.org/1999/xlink" xml:space="preserve" xmlns:serif="http://www.serif.com/" style="fill-rule:evenodd;clip-rule:evenodd;stroke-linejoin:round;stroke-miterlimit:2;">
    <g transform="matrix(1,0,0,1,-160,0)">
        <g id="unknown">
        </g>
        <g id="plumbing">
        </g>
        <g id="genetics">
        </g>
        <g id="surgery">
        </g>
        <g transform="matrix(1.066,1.30071e-32,0,1.05526,-9.51961,-1.33485)">
            <g id="trauma">
                <path d="M143.062,8.827C143.062,8.827 143.199,12.305 143.199,15.785C143.199,19.265 143.062,22.743 143.062,22.743C143.062,23.266 143.482,23.691 144,23.691C144.518,23.691 144.938,23.266 144.938,22.743C144.938,22.743 144.801,19.265 144.801,15.785C144.801,12.305 144.938,8.827 144.938,8.827C144.938,8.304 144.518,7.879 144,7.879C143.482,7.879 143.062,8.304 143.062,8.827Z" style="fill:white;"/>
            </g>
        </g>
        <g id="wound">
        </g>
        <g id="ghetto" transform="matrix(1.45196,0,0,1.39449,-78.3033,-6.18048)">
            <path d="M170.468,13.587C169.14,11.323 168.038,9.673 168.038,9.673C167.486,8.545 167.922,7.165 169.011,6.592C170.1,6.02 171.432,6.472 171.984,7.6C171.984,7.6 172.684,9.69 173.745,12.315C173.853,12.581 173.963,12.853 174.078,13.128C174.427,13.111 174.784,13.104 175.145,13.104C179.944,13.104 183.832,14.478 183.841,16.171C183.843,16.633 183.782,17.068 183.661,17.474C183.191,20.911 180.39,25.512 175.193,25.467C169.485,25.418 166.56,20.269 166.455,16.382L166.45,16.19C166.448,16.136 166.448,16.08 166.459,16.046C166.588,15.013 168.153,14.111 170.468,13.587ZM171.017,14.531C169.451,14.957 168.45,15.613 168.525,16.333C168.706,18.066 171.92,19.459 175.145,19.523C177.71,19.574 181.927,18.31 181.872,16.333C181.837,15.06 178.882,14.024 175.199,14.024C174.951,14.024 174.705,14.029 174.464,14.039C174.657,14.484 174.862,14.932 175.079,15.375C175.224,15.669 175.374,15.959 175.527,16.245C177.111,15.849 180.437,15.972 180.783,16.102C180.952,16.165 181.292,16.283 180.408,16.972C178.327,18.595 173.225,18.781 170.849,17.475C169.898,16.953 169.035,16.313 169.376,15.906C169.376,15.906 170.646,16.196 172.029,16.38C171.703,15.743 171.357,15.123 171.017,14.531ZM169.028,9.437C169.028,9.437 171.03,12.396 173.135,16.707C173.248,16.939 174.098,17.113 173.991,16.886C171.733,12.123 169.475,8.787 169.475,8.787C169.335,8.58 169.059,8.53 168.859,8.675C168.659,8.82 168.888,9.23 169.028,9.437Z" style="fill:white;"/>
        </g>
        <path d="M212.561,37.261C216.736,39.037 219.667,43.179 219.667,48C219.667,54.163 214.877,59.217 208.819,59.635L210.66,57.287C214.705,56.137 217.667,52.412 217.667,48C217.667,44.184 215.45,40.881 212.232,39.32L212.561,37.261ZM206.452,36.439L204.407,39.032C200.848,40.453 198.333,43.935 198.333,48C198.333,51.774 200.501,55.046 203.663,56.629L203.073,58.574C199.093,56.718 196.333,52.679 196.333,48C196.333,42.086 200.744,37.193 206.452,36.439ZM206.478,57.535L206.909,57.601L206.181,58.515L206.478,57.535ZM209.347,38.438L208.988,38.383L208.487,38.358L209.583,36.968L209.347,38.438Z" style="fill:white;"/>
    </g>
</svg>
