<svg viewBox="0 0 32 32" xmlns="http://www.w3.org/2000/svg" fill-rule="evenodd" clip-rule="evenodd" stroke-linecap="round" stroke-linejoin="round" stroke-miterlimit="1.5"><path d="M59.485 10.232c0-3.183-2.446-5.767-5.46-5.767h-10.92c-3.014 0-5.461 2.584-5.461 5.767v11.536c0 3.183 2.447 5.767 5.461 5.767h10.92c3.014 0 5.46-2.584 5.46-5.767V10.232z" fill="none" stroke="#fff" stroke-width="2.97" transform="rotate(45 9.436 -55.386) scale(.86333 .81734)"/><path d="M19.08 4.98l.722-1.249a1.86 1.86 0 012.54-.68l2.586 1.493a1.86 1.86 0 01.682 2.54l-.72 1.25a3.878 3.878 0 01.944 4.97L17.7 27.396a3.877 3.877 0 01-5.294 1.418L7.584 26.03a3.877 3.877 0 01-1.419-5.293l8.136-14.091a3.878 3.878 0 014.78-1.666zm-6.746 9.438l-4.278 7.41a1.693 1.693 0 00.619 2.312l.507.293c.022-.272.103-.543.248-.794l4.69-8.126-1.346-.777a2.667 2.667 0 01-.44-.318zm3.587 11.693l.894-1.549-2.707-1.563a.894.894 0 00-.894 1.55l2.707 1.562zm5.089-13.062l-5.943-3.43-1.553 2.69 5.942 3.43 1.554-2.69zm-1.65.06l-3.512-2.027c-.428-.247-.704-.18-.95.246-.247.429-.171.648.257.895l3.512 2.027c.427.247.716.213.963-.215.247-.427.157-.679-.27-.926zm-.028-5.513l-.829-.479a1.692 1.692 0 00-2.178.424c.163.053.324.126.479.216l1.346.777.031-.054a1.897 1.897 0 011.151-.884zm2.198-2.494l-.446.773 2.029 1.17.445-.772-2.028-1.17zM43.793 50.242l1.761.958c.061.034.106.09.125.158a.262.262 0 01-.026.2c-.663 1.191-.12 2.684.122 2.944-1.347 2.65-5.186 6.26-9.254 6.6a.275.275 0 01-.256-.407c.87-1.58 5.41-9.839 6.076-11.05a.171.171 0 01.23-.068l.49.267-5.485 10.086s1.25-.56 1.383-.802l4.834-8.886zm1.502-2.76l2.808 1.528a.577.577 0 01.23.78l-.718 1.323a.577.577 0 01-.78.23l-2.81-1.528 1.27-2.334zm6.464-11.884l3.331.05a.574.574 0 01.497.851c-1.237 2.264-4.67 8.549-6.423 11.768a.575.575 0 01-.781.23l-2.81-1.528 6.186-11.371zm-8.465 13.82l-.134-.073a.579.579 0 01-.23-.78l.72-1.324a.576.576 0 01.78-.23l.134.072-1.27 2.335zm1.549-2.847l-.132-.07a.577.577 0 01-.23-.783l5.407-9.842a.578.578 0 01.514-.299l.417.006-5.976 10.988z" fill="#fff"/></svg>