<?xml version="1.0" encoding="UTF-8" standalone="no"?>
<!DOCTYPE svg PUBLIC "-//W3C//DTD SVG 1.1//EN" "http://www.w3.org/Graphics/SVG/1.1/DTD/svg11.dtd">
<svg width="100%" height="100%" viewBox="0 0 32 32" version="1.1" xmlns="http://www.w3.org/2000/svg" xmlns:xlink="http://www.w3.org/1999/xlink" xml:space="preserve" xmlns:serif="http://www.serif.com/" style="fill-rule:evenodd;clip-rule:evenodd;stroke-linecap:round;stroke-linejoin:round;stroke-miterlimit:1.5;">
    <g transform="matrix(1,0,0,1,-64,0)">
        <g transform="matrix(0.610465,0.610465,-0.577946,0.577946,27.6,-22.8943)">
            <g id="unknown">
                <path d="M59.485,10.232C59.485,7.049 57.039,4.465 54.025,4.465L43.105,4.465C40.091,4.465 37.644,7.049 37.644,10.232L37.644,21.768C37.644,24.951 40.091,27.535 43.105,27.535L54.025,27.535C57.039,27.535 59.485,24.951 59.485,21.768L59.485,10.232Z" style="fill:none;stroke:white;stroke-width:2.97px;"/>
            </g>
        </g>
        <g id="plumbing">
        </g>
        <g id="grenade" transform="matrix(0.945041,0.54562,-0.54562,0.945041,15.6909,-40.4183)">
            <path d="M74.283,5.151L74.283,3.83C74.283,2.889 75.046,2.126 75.987,2.126L78.724,2.126C79.665,2.126 80.429,2.889 80.429,3.83L80.429,5.151C82.141,5.404 83.457,6.881 83.457,8.663L83.457,23.574C83.457,25.534 81.866,27.125 79.906,27.125L74.804,27.125C72.844,27.125 71.253,25.534 71.253,23.574L71.253,8.663C71.253,6.881 72.57,5.403 74.283,5.151ZM73.253,15.733L73.253,23.574C73.253,24.43 73.948,25.125 74.804,25.125L75.34,25.125C75.233,24.899 75.173,24.647 75.173,24.381L75.173,15.783L73.748,15.783C73.578,15.783 73.413,15.766 73.253,15.733ZM81.457,23.369L81.457,21.73L78.593,21.73C78.141,21.73 77.774,22.097 77.774,22.549C77.774,23.002 78.141,23.369 78.593,23.369L81.457,23.369ZM79.511,10.671L73.223,10.671L73.223,13.518L79.511,13.518L79.511,10.671ZM78.229,11.475L74.513,11.475C74.06,11.475 73.872,11.654 73.872,12.106C73.872,12.559 74.033,12.698 74.486,12.698L78.202,12.698C78.654,12.698 78.868,12.538 78.868,12.086C78.868,11.634 78.681,11.475 78.229,11.475ZM75.681,7.112L74.804,7.112C74.022,7.112 73.374,7.692 73.269,8.446C73.423,8.414 73.584,8.398 73.748,8.398L75.173,8.398L75.173,8.341C75.173,7.862 75.367,7.428 75.681,7.112ZM76.283,4.126L76.283,4.943L78.429,4.943L78.429,4.126L76.283,4.126Z" style="fill:white;"/>
        </g>
        <g id="genetics">
        </g>
        <g transform="matrix(0.959088,-0.283109,0.283109,0.959088,-11.8658,30.5845)">
            <g id="surgery">
                <path d="M109.198,52.73L110.616,54.147C110.665,54.197 110.692,54.264 110.691,54.334C110.689,54.404 110.66,54.47 110.609,54.518C109.636,55.473 109.734,57.059 109.893,57.377L109.893,57.377C107.851,59.537 103.147,61.913 99.149,61.086C99.052,61.063 98.975,60.989 98.948,60.893C98.921,60.797 98.948,60.694 99.019,60.624C100.301,59.354 106.993,52.719 107.974,51.746C108.041,51.68 108.148,51.68 108.215,51.746L108.609,52.141L100.493,60.261C100.493,60.261 101.85,60.079 102.046,59.884L109.198,52.73ZM111.42,50.507L113.681,52.768C113.789,52.876 113.85,53.023 113.85,53.175C113.85,53.328 113.789,53.474 113.681,53.582C113.366,53.897 112.932,54.332 112.617,54.647C112.509,54.755 112.362,54.816 112.21,54.816C112.057,54.816 111.911,54.755 111.803,54.647L109.541,52.386L111.42,50.507ZM120.984,40.94L124.165,41.931C124.358,41.991 124.505,42.147 124.553,42.343C124.601,42.539 124.543,42.746 124.4,42.888C122.573,44.709 117.501,49.765 114.908,52.356C114.683,52.581 114.318,52.581 114.094,52.356L111.832,50.095L120.984,40.94ZM108.953,51.798L108.845,51.69C108.738,51.582 108.677,51.436 108.677,51.283C108.677,51.13 108.738,50.984 108.845,50.876C109.161,50.561 109.595,50.126 109.91,49.811C110.018,49.703 110.165,49.643 110.317,49.643C110.47,49.643 110.616,49.703 110.724,49.811L110.832,49.918L108.953,51.798ZM111.244,49.506L111.138,49.401C111.03,49.292 110.969,49.145 110.969,48.992C110.97,48.839 111.031,48.693 111.14,48.585C112.655,47.082 117.91,41.869 119.111,40.677C119.263,40.527 119.485,40.473 119.688,40.536L120.087,40.66L111.244,49.506Z" style="fill:white;"/>
            </g>
        </g>
        <g id="trauma">
        </g>
        <g id="wound">
        </g>
        <g id="power">
        </g>
        <g id="solar">
        </g>
        <g transform="matrix(-0.836256,-0.845147,0.836256,-0.845147,371.793,207.877)">
            <g id="machines">
            </g>
        </g>
        <g id="supermatter">
        </g>
        <g id="shield">
        </g>
        <g id="turbine">
        </g>
        <g id="tcomm">
        </g>
        <g id="atmos">
        </g>
        <g id="xeno">
        </g>
        <g id="nanites">
        </g>
        <g id="aimod">
        </g>
        <g id="tips">
        </g>
        <g id="races">
        </g>
        <g id="food">
        </g>
        <g id="hydro">
        </g>
        <g id="song">
        </g>
        <g id="crate">
        </g>
        <g id="space">
        </g>
        <g id="aux">
        </g>
        <g id="security">
        </g>
        <g id="law">
        </g>
        <g id="sop">
        </g>
    </g>
</svg>
