<svg viewBox="0 0 32 32" xmlns="http://www.w3.org/2000/svg" fill-rule="evenodd" clip-rule="evenodd" stroke-linecap="round" stroke-linejoin="round" stroke-miterlimit="10"><path d="M14.652-12.822c.341.353.82.572 1.348.572.528 0 1.006-.22 1.347-.572l.75.433a5.337 5.337 0 002.185 6.835 5.338 5.338 0 006.443-.852l.8.46a7.202 7.202 0 01-9.029 1.51A7.153 7.153 0 0116-6.841a7.164 7.164 0 01-2.497 2.407 7.202 7.202 0 01-9.029-1.51.46.46 0 01.8-.461h0a5.338 5.338 0 006.443.852 5.337 5.337 0 002.185-6.835l.75-.433zm12.073 6.416a.46.46 0 01.8.461l-.8-.461zM16.58-17.144a5.337 5.337 0 004.797-5.307 5.338 5.338 0 00-3.959-5.154v-.923a7.2 7.2 0 015.821 7.064 7.147 7.147 0 01-.968 3.604 7.168 7.168 0 013.422.962A7.203 7.203 0 0128.9-8.324a.461.461 0 01-.63.166.46.46 0 01-.17-.628h0a5.339 5.339 0 00-2.484-6.006 5.337 5.337 0 00-6.925 1.408l-.834-.482a1.877 1.877 0 00-1.277-2.042v-1.236zM3.9-8.786a.46.46 0 01-.17.628.46.46 0 01-.629-.166l.8-.462zm9.41-4.598a5.337 5.337 0 00-6.926-1.408A5.339 5.339 0 003.9-8.786l-.799.462a7.202 7.202 0 013.206-8.574 7.157 7.157 0 013.508-.963 7.2 7.2 0 014.854-10.667.46.46 0 010 .923h0a5.338 5.338 0 00-3.959 5.154 5.336 5.336 0 004.71 5.297v1.246a1.877 1.877 0 00-1.277 2.042l-.834.482zm4.107-14.221a.46.46 0 010-.923v.923z" fill="#fff" stroke="#fff" stroke-width=".5"/><path d="M-10.245 18.308l7.278 6.013c.237.197.347.51.283.812 0 0-.38 1.737-1.127 2.752-.43.584-.982.942-1.586.962-.413.014-.877-.118-1.372-.535-1.193-1.009-3.883-3.812-5.647-5.679l-.523.618s-13.19-9.37-14.382-11.834c-2.842-5.876.655-8.752.655-8.752l16.42 15.643zM-25.835 5.33c-.005-.004-.003-.004-.008.003l.01.01c.022.139-.002 1.22 1.448 3.026 2.07 2.576 6.595 6.533 12.623 10.297L-25.833 5.343l-.002-.013zm7.978 16.176c-2.219 2.134-3.937 3.778-4.075 3.893-2.128 1.778-3.12 2.6-4.956 1.428-2.293-1.465-1.834-5.083.125-6.971l.219-.213-.012.45a40.478 40.478 0 00-.072 2.62c0 .515.343.917.768.905.428-.01.781-.433.795-.947l.07-2.563c.047-.725.116-1.45.22-2.171l1.029-.992 1.223.984c-.01.376-.013.754-.013 1.13.002.513.344.915.77.903.392-.01.722-.367.783-.825l.818.629c.298.228.597.456.897.683l1.411 1.057zm5.676-15.72l.008-.009c1.959-1.888 5.137-1.884 6.97.125 1.26 1.38.201 2.982-2.067 5.346-.356.373-1.961 1.935-3.987 3.895l-5.152-4.909.07-.438 2.242-2.162-.037 1.367a40.478 40.478 0 00-.072 2.62c0 .514.343.917.769.905.426-.012.78-.435.793-.949l.072-2.561a26.07 26.07 0 01.391-3.23zm.838 15.575c1.724 1.831 4.446 4.675 5.641 5.685.095.08.168.144.247.145.095.002.152-.094.223-.174.122-.142.229-.315.324-.498a6.96 6.96 0 00.484-1.254l-6.019-4.973-.9 1.069zM12.144 26.448l-1.161-3.809a.987.987 0 01-.044-.291c0-1.565 1.337-2.877 3.031-2.877h4.06c1.694 0 3.031 1.312 3.031 2.877a.987.987 0 01-.044.291l-1.161 3.809c-.09 1.491-1.392 2.711-3.025 2.711h-1.662c-1.633 0-2.935-1.22-3.025-2.711zM16 20.471c1.78 0 3.226.574 3.226 1.28 0 .706-1.446 1.28-3.226 1.28s-3.226-.574-3.226-1.28c0-.706 1.446-1.28 3.226-1.28zM14.364 15.713c.357-.06.653-.308.776-.648 1.441-4.219-.15-7.04-2.609-8.864-2.586-1.92-6.17-2.676-7.788-2.805-.13-.01-.248-.026-.352-.02-.457.024-.732.128-.819.203-.239.204-.367.382-.325.583.03.138.019.386.29.516.06.035.12.06.168.103.167.148.247.364.364.726.266.825.565 2.3 1.308 5.286.435 1.772 1.42 2.918 2.567 3.674 2.69 1.777 6.42 1.246 6.42 1.246zM5.129 4.903c.027.065.055.134.082.207.308.824.687 2.302 1.584 5.295.504 1.667 1.621 2.546 2.815 3.004 1.45.556 3.017.5 3.84.413.665-2.191.194-3.88-.846-5.16C10.678 6.293 7.055 5.23 5.13 4.903z" fill="#fff"/><path d="M7.596 8.023s.668.659 1.601 1.632c.322.336.667.707 1.04 1.095.224.235.455.475.693.714.345.347.703.694 1.04 1.05.63.663 1.216 1.33 1.608 2a.615.615 0 101.088-.57c-.37-.794-.929-1.628-1.596-2.414a13.44 13.44 0 00-1.303-1.355 14.979 14.979 0 00-1.475-1.142C8.962 8.117 7.9 7.594 7.9 7.594a.263.263 0 10-.304.429zM28.817 9.942c-.177.467-1.208 1.443-2.282 3.54-1.105 2.237-2.608 3.08-4.03 3.319-2.603.437-5.103-1.374-5.103-1.374a.999.999 0 01-.318-1.158c1.225-2.854 3.01-4.399 4.828-5.218 2.545-1.146 5.165-.837 6.352-.6a.811.811 0 01.488-.05c.374.074.59.414.64.697.012.061.014.112.015.136a.685.685 0 01-.59.708zm-1.734-.25c-1.16-.089-2.855-.016-4.476.809-1.297.661-2.515 1.832-3.373 3.778.67.42 1.816.974 3.038.841 1.035-.113 2.093-.745 2.97-2.317.802-1.487 1.4-2.469 1.84-3.111z" fill="#fff"/><path d="M23.838 11.596s-.613.24-1.434.633c-.291.14-.602.284-.908.467-.36.216-.703.473-1.03.69-.38.253-.704.49-.972.598a.617.617 0 00-.406.77c.1.323.444.505.77.405.41-.091.982-.323 1.58-.651.303-.167.618-.35.902-.567.292-.225.55-.474.782-.714a12.247 12.247 0 001.041-1.217.263.263 0 10-.325-.414z" fill="#fff"/><path d="M14.123 14.827s1.944.435 1.877 6.506M18.014 14.872s-1.882 3.578-2.012 5.904" fill="none" stroke="#fff" stroke-width="2" stroke-miterlimit="5"/></svg>