<?xml version="1.0" encoding="UTF-8" standalone="no"?>
<!DOCTYPE svg PUBLIC "-//W3C//DTD SVG 1.1//EN" "http://www.w3.org/Graphics/SVG/1.1/DTD/svg11.dtd">
<svg width="100%" height="100%" viewBox="0 0 32 32" version="1.1" xmlns="http://www.w3.org/2000/svg" xmlns:xlink="http://www.w3.org/1999/xlink" xml:space="preserve" xmlns:serif="http://www.serif.com/" style="fill-rule:evenodd;clip-rule:evenodd;stroke-linecap:round;stroke-linejoin:round;stroke-miterlimit:5;">
    <g transform="matrix(1,0,0,1,-160,-128)">
        <g id="unknown">
        </g>
        <g id="plumbing">
        </g>
        <g id="genetics">
        </g>
        <g id="surgery">
        </g>
        <g id="trauma">
        </g>
        <g id="wound">
        </g>
        <g id="power">
        </g>
        <g id="solar">
        </g>
        <g transform="matrix(-0.836256,-0.845147,0.836256,-0.845147,371.793,207.877)">
            <g id="machines">
            </g>
        </g>
        <g id="supermatter">
        </g>
        <g id="shield">
        </g>
        <g id="turbine">
        </g>
        <g id="tcomm">
        </g>
        <g id="atmos">
        </g>
        <g id="xeno">
        </g>
        <g id="nanites">
        </g>
        <g id="aimod">
        </g>
        <g id="tips">
        </g>
        <g id="races">
        </g>
        <g transform="matrix(-0.919427,1.41035,-1.41035,-0.919427,545.108,-83.547)">
            <g id="food">
                <path d="M205.932,100.694L206.563,95.122C206.584,94.94 206.704,94.784 206.875,94.718C206.875,94.718 207.863,94.344 208.61,94.386C209.04,94.41 209.397,94.569 209.603,94.863C209.744,95.064 209.829,95.338 209.782,95.719C209.667,96.64 209.145,98.888 208.788,100.371L209.265,100.431C209.265,100.431 208.881,110.034 208.042,111.426C206.04,114.746 203.475,113.939 203.475,113.939L205.932,100.694ZM204.531,112.661C204.531,112.665 204.53,112.664 204.535,112.664L204.537,112.656C204.599,112.6 205.145,112.261 205.573,110.954C206.183,109.088 206.684,105.553 206.602,101.333L204.537,112.656L204.531,112.661ZM209.992,103.444C211.774,103.856 213.149,104.178 213.251,104.209C214.826,104.691 215.557,104.918 215.569,106.212C215.584,107.828 213.635,108.773 212.06,108.411L211.883,108.371L212.111,108.231C212.562,107.975 213.004,107.702 213.438,107.417C213.694,107.25 213.783,106.949 213.639,106.741C213.495,106.532 213.17,106.493 212.91,106.653L211.612,107.449C211.236,107.661 210.853,107.862 210.46,108.044L209.633,107.854L209.726,106.926C209.916,106.809 210.105,106.688 210.292,106.566C210.547,106.399 210.636,106.098 210.492,105.89C210.36,105.698 210.075,105.65 209.827,105.768L209.875,105.157C209.892,104.935 209.908,104.712 209.924,104.489L209.992,103.444ZM200.329,105.719L200.322,105.718C198.747,105.356 197.718,103.773 198.123,102.209C198.401,101.135 199.542,101.142 201.454,101.504C201.755,101.56 203.053,101.852 204.685,102.224L203.914,106.38L203.673,106.487L201.87,106.073L202.562,105.648C203.013,105.392 203.455,105.119 203.889,104.834C204.145,104.667 204.234,104.366 204.09,104.158C203.946,103.95 203.621,103.911 203.361,104.071L202.063,104.866C201.504,105.183 200.928,105.472 200.329,105.719ZM207.807,100.25C208.159,98.798 208.691,96.521 208.806,95.599C208.815,95.526 208.823,95.469 208.798,95.429C208.768,95.381 208.702,95.384 208.639,95.375C208.529,95.36 208.408,95.363 208.286,95.375C208,95.403 207.709,95.478 207.505,95.541L206.983,100.149L207.807,100.25Z" style="fill:white;"/>
            </g>
        </g>
        <g id="hydro">
        </g>
        <g id="song">
        </g>
        <g id="crate">
        </g>
        <g id="space">
        </g>
        <g id="aux">
        </g>
        <g id="security">
        </g>
        <g transform="matrix(1.14906,0,0,1.14906,-25.0422,-23.6633)">
            <path d="M171.604,148.03C171.262,150.701 169.546,151.927 168,151.927C166.454,151.927 164.738,150.701 164.396,148.03L171.604,148.03ZM165.247,148.869C165.247,148.869 165.553,151.204 167.624,151.204C167.832,151.204 168,151.035 168,150.828C168,150.621 167.832,150.452 167.624,150.452C166.172,150.452 165.993,148.778 165.993,148.778C165.968,148.573 165.781,148.426 165.575,148.451C165.369,148.475 165.222,148.663 165.247,148.869ZM171.525,146.03L170.622,146.03L168.481,140.268C168.406,140.067 168.214,139.934 168,139.934C167.786,139.934 167.594,140.067 167.519,140.268C166.762,142.305 165.378,146.03 165.378,146.03L164.475,146.03L166.478,140.021C166.697,139.366 167.31,138.924 168,138.924C168.69,138.924 169.303,139.366 169.522,140.021L171.525,146.03Z" style="fill:white;"/>
        </g>
        <g transform="matrix(1.14906,0,0,1.14906,-25.0422,-23.6633)">
            <path d="M172.035,148.086C172.051,147.962 172.013,147.837 171.93,147.743C171.848,147.649 171.729,147.595 171.604,147.595L164.396,147.595C164.271,147.595 164.152,147.649 164.07,147.743C163.987,147.837 163.949,147.962 163.965,148.086C164.343,151.044 166.287,152.362 168,152.362C169.713,152.362 171.657,151.044 172.035,148.086ZM171.089,148.466L164.911,148.466C165.345,150.514 166.719,151.492 168,151.492C169.281,151.492 170.655,150.514 171.089,148.466ZM171.525,146.466C171.665,146.466 171.796,146.398 171.878,146.285C171.96,146.171 171.982,146.025 171.938,145.893L169.935,139.884C169.657,139.051 168.878,138.489 168,138.489C167.122,138.489 166.343,139.051 166.065,139.884C166.065,139.884 164.062,145.893 164.062,145.893C164.018,146.025 164.04,146.171 164.122,146.285C164.204,146.398 164.335,146.466 164.475,146.466L165.378,146.466C165.56,146.466 165.723,146.352 165.786,146.182C165.786,146.182 167.17,142.457 167.927,140.42C167.939,140.389 167.968,140.369 168,140.369C168.032,140.369 168.061,140.389 168.073,140.42C168.073,140.42 170.214,146.182 170.214,146.182C170.277,146.352 170.44,146.466 170.622,146.466L171.525,146.466ZM170.892,145.507L169.109,140.159C168.95,139.682 168.503,139.36 168,139.36C167.497,139.36 167.05,139.682 166.891,140.159L165.108,145.507L167.111,140.117C167.249,139.745 167.604,139.499 168,139.499C168.396,139.499 168.751,139.745 168.889,140.117L170.892,145.507Z" style="fill:white;"/>
        </g>
        <g transform="matrix(1.14906,0,0,1.14906,-9.04223,-23.6633)">
            <path d="M171.604,148.03C171.262,150.701 169.546,151.927 168,151.927C166.454,151.927 164.738,150.701 164.396,148.03L171.604,148.03ZM165.247,148.869C165.247,148.869 165.553,151.204 167.624,151.204C167.832,151.204 168,151.035 168,150.828C168,150.621 167.832,150.452 167.624,150.452C166.172,150.452 165.993,148.778 165.993,148.778C165.968,148.573 165.781,148.426 165.575,148.451C165.369,148.475 165.222,148.663 165.247,148.869ZM171.525,146.03L170.622,146.03L168.481,140.268C168.406,140.067 168.214,139.934 168,139.934C167.786,139.934 167.594,140.067 167.519,140.268C166.762,142.305 165.378,146.03 165.378,146.03L164.475,146.03L166.478,140.021C166.697,139.366 167.31,138.924 168,138.924C168.69,138.924 169.303,139.366 169.522,140.021L171.525,146.03Z" style="fill:white;"/>
        </g>
        <g transform="matrix(1.14906,0,0,1.14906,-9.04223,-23.6633)">
            <path d="M172.035,148.086C172.051,147.962 172.013,147.837 171.93,147.743C171.848,147.649 171.729,147.595 171.604,147.595L164.396,147.595C164.271,147.595 164.152,147.649 164.07,147.743C163.987,147.837 163.949,147.962 163.965,148.086C164.343,151.044 166.287,152.362 168,152.362C169.713,152.362 171.657,151.044 172.035,148.086ZM171.089,148.466L164.911,148.466C165.345,150.514 166.719,151.492 168,151.492C169.281,151.492 170.655,150.514 171.089,148.466ZM171.525,146.466C171.665,146.466 171.796,146.398 171.878,146.285C171.96,146.171 171.982,146.025 171.938,145.893L169.935,139.884C169.657,139.051 168.878,138.489 168,138.489C167.122,138.489 166.343,139.051 166.065,139.884C166.065,139.884 164.062,145.893 164.062,145.893C164.018,146.025 164.04,146.171 164.122,146.285C164.204,146.398 164.335,146.466 164.475,146.466L165.378,146.466C165.56,146.466 165.723,146.352 165.786,146.182C165.786,146.182 167.17,142.457 167.927,140.42C167.939,140.389 167.968,140.369 168,140.369C168.032,140.369 168.061,140.389 168.073,140.42C168.073,140.42 170.214,146.182 170.214,146.182C170.277,146.352 170.44,146.466 170.622,146.466L171.525,146.466ZM170.892,145.507L169.109,140.159C168.95,139.682 168.503,139.36 168,139.36C167.497,139.36 167.05,139.682 166.891,140.159L165.108,145.507L167.111,140.117C167.249,139.745 167.604,139.499 168,139.499C168.396,139.499 168.751,139.745 168.889,140.117L170.892,145.507Z" style="fill:white;"/>
        </g>
        <g transform="matrix(0.970702,0,0,1.14906,14.4387,-23.9187)">
            <path d="M166.438,137.232C166.438,137.232 170.656,133.209 174.679,137.232" style="fill:none;stroke:white;stroke-width:1.88px;"/>
        </g>
        <g transform="matrix(-0.970702,0,0,1.14906,337.561,-23.9187)">
            <path d="M166.438,137.232C166.438,137.232 170.656,133.209 174.679,137.232" style="fill:none;stroke:white;stroke-width:1.88px;"/>
        </g>
        <g transform="matrix(1.38741,0,0,1.38741,-68.1845,-59.9568)">
            <path d="M176,139.973L176,153.23" style="fill:none;stroke:white;stroke-width:1.44px;"/>
        </g>
        <g transform="matrix(1.14906,0,0,1.14906,-26.3768,-22.7407)">
            <path d="M170.667,155.802L181.457,155.802" style="fill:none;stroke:white;stroke-width:1.74px;"/>
        </g>
        <path d="M181.735,154.837C181.735,153.137 180.357,151.759 178.657,151.759C177.08,151.759 174.92,151.759 173.343,151.759C171.643,151.759 170.265,153.137 170.265,154.837C170.265,154.838 170.265,154.839 170.265,154.839C170.265,155.391 170.713,155.839 171.265,155.839L180.735,155.839C181.287,155.839 181.735,155.391 181.735,154.839L181.735,154.837ZM173.167,152.596C173.167,152.596 171.265,152.845 171.265,154.533C171.265,154.702 171.402,154.839 171.571,154.839C171.74,154.839 171.877,154.702 171.877,154.533C171.877,153.349 173.241,153.204 173.241,153.204C173.409,153.183 173.528,153.031 173.508,152.863C173.488,152.695 173.335,152.575 173.167,152.596Z" style="fill:white;"/>
    </g>
</svg>
