<svg viewBox="0 0 32 32" xmlns="http://www.w3.org/2000/svg" fill-rule="evenodd" clip-rule="evenodd" stroke-linecap="round" stroke-linejoin="round" stroke-miterlimit="5"><path d="M53.755-13.692l7.278 6.013c.237.197.347.51.283.812 0 0-.38 1.737-1.127 2.752-.43.584-.982.942-1.586.962-.413.014-.877-.118-1.372-.535-1.193-1.009-3.883-3.812-5.647-5.679l-.523.618s-13.19-9.37-14.382-11.834c-2.842-5.876.655-8.752.655-8.752l16.42 15.643zM38.165-26.67c-.005-.004-.003-.004-.008.003l.01.01c.022.139-.002 1.22 1.448 3.026 2.07 2.576 6.595 6.533 12.623 10.297L38.167-26.657l-.002-.013zm7.978 16.176c-2.219 2.134-3.937 3.778-4.075 3.893-2.128 1.778-3.12 2.6-4.956 1.428-2.293-1.465-1.834-5.083.125-6.971l.219-.213-.012.45a40.478 40.478 0 00-.072 2.62c0 .515.343.917.768.905.428-.01.781-.433.795-.947l.07-2.563c.047-.725.116-1.45.22-2.171l1.029-.992 1.223.984c-.01.376-.013.754-.013 1.13.002.513.344.915.77.903.392-.01.722-.367.783-.825l.818.629c.298.228.597.456.897.683l1.411 1.057zm5.676-15.72l.008-.009c1.959-1.888 5.137-1.884 6.97.125 1.26 1.38.201 2.982-2.067 5.346-.356.373-1.961 1.935-3.987 3.895l-5.152-4.909.07-.438 2.242-2.162-.037 1.367a40.478 40.478 0 00-.072 2.62c0 .514.343.917.769.905.426-.012.78-.435.793-.949l.072-2.561a26.07 26.07 0 01.391-3.23zm.838 15.575c1.724 1.831 4.446 4.675 5.641 5.685.095.08.168.144.247.145.095.002.152-.094.223-.174.122-.142.229-.315.324-.498a6.96 6.96 0 00.484-1.254l-6.019-4.973-.9 1.069zM12.141 18.432C11.748 21.502 9.776 22.91 8 22.91c-1.777 0-3.748-1.409-4.141-4.478h8.282zm-7.304.964s.351 2.683 2.73 2.683a.432.432 0 000-.864c-1.668 0-1.873-1.923-1.873-1.923a.432.432 0 00-.857.104zm7.213-3.262h-1.037l-2.46-6.621a.59.59 0 00-1.106 0l-2.46 6.62H3.949L6.251 9.23a1.845 1.845 0 013.498 0l2.301 6.905z" fill="#fff"/><path d="M12.636 18.496a.499.499 0 00-.495-.564H3.86a.497.497 0 00-.496.564c.435 3.4 2.669 4.914 4.637 4.914 1.968 0 4.202-1.515 4.636-4.914zm-1.087.437H4.45c.5 2.353 2.078 3.477 3.55 3.477s3.05-1.124 3.55-3.477zm.501-2.298a.502.502 0 00.475-.658l-2.302-6.905a2.344 2.344 0 00-4.447 0l-2.301 6.905a.5.5 0 00.474.658h1.038a.5.5 0 00.469-.326l2.46-6.621A.09.09 0 018 9.629a.09.09 0 01.084.059l2.46 6.62a.5.5 0 00.469.327h1.037zm-.727-1.102L9.274 9.388a1.343 1.343 0 00-2.548 0l-2.05 6.145L6.979 9.34a1.09 1.09 0 012.043 0l2.302 6.193zM28.141 18.432c-.393 3.07-2.365 4.478-4.141 4.478-1.777 0-3.748-1.409-4.141-4.478h8.282zm-7.305.964s.352 2.683 2.732 2.683a.432.432 0 000-.864c-1.669 0-1.874-1.923-1.874-1.923a.432.432 0 00-.858.104zm7.214-3.262h-1.037l-2.46-6.621a.59.59 0 00-1.106 0l-2.46 6.62h-1.038l2.302-6.904a1.845 1.845 0 013.498 0l2.301 6.905z" fill="#fff"/><path d="M28.636 18.496a.499.499 0 00-.495-.564H19.86a.497.497 0 00-.496.564c.435 3.4 2.669 4.914 4.637 4.914 1.968 0 4.202-1.515 4.636-4.914zm-1.087.437H20.45c.5 2.353 2.078 3.477 3.55 3.477s3.05-1.124 3.55-3.477zm.501-2.298a.502.502 0 00.475-.658l-2.302-6.905a2.344 2.344 0 00-4.447 0l-2.301 6.905a.5.5 0 00.474.658h1.038a.5.5 0 00.469-.326l2.46-6.621A.09.09 0 0124 9.629a.09.09 0 01.084.059l2.46 6.62a.5.5 0 00.469.327h1.037zm-.727-1.102l-2.049-6.145a1.343 1.343 0 00-2.548 0l-2.05 6.145 2.302-6.193a1.09 1.09 0 012.043 0l2.302 6.193z" fill="#fff"/><path d="M166.438 137.232s4.218-4.023 8.241 0" fill="none" stroke="#fff" stroke-width="1.88" transform="matrix(.9707 0 0 1.14906 -145.561 -151.919)"/><path d="M166.438 137.232s4.218-4.023 8.241 0" fill="none" stroke="#fff" stroke-width="1.88" transform="matrix(-.9707 0 0 1.14906 177.561 -151.919)"/><path d="M16 6.243v18.393" fill="none" stroke="#fff" stroke-width="1.9978704"/><path d="M9.73 28.285h12.398" fill="none" stroke="#fff" stroke-width="1.9993644"/><path d="M21.735 26.837c0-1.7-1.378-3.078-3.078-3.078h-5.314a3.078 3.078 0 00-3.078 3.078v.002a1 1 0 001 1h9.47a1 1 0 001-1v-.002zm-8.221-2.3s-2.05.281-2.05 2.18c0 .19.296.344.478.344s.33-.154.33-.344c0-1.332 1.469-1.496 1.469-1.496a.341.341 0 00.288-.383c-.022-.189-.334-.324-.515-.301z" fill="#fff"/></svg>