<svg viewBox="0 0 32 32" xmlns="http://www.w3.org/2000/svg" fill-rule="evenodd" clip-rule="evenodd" stroke-linecap="round" stroke-linejoin="round" stroke-miterlimit="10"><path d="M20.561 37.261c4.175 1.776 7.106 5.918 7.106 10.739 0 6.163-4.79 11.217-10.848 11.635l1.841-2.348c4.045-1.15 7.007-4.875 7.007-9.287a9.643 9.643 0 00-5.435-8.68l.329-2.059zm-6.109-.822l-2.045 2.593A9.658 9.658 0 006.333 48a9.644 9.644 0 005.33 8.629l-.59 1.945c-3.98-1.856-6.74-5.895-6.74-10.574 0-5.914 4.411-10.807 10.119-11.561zm.026 21.096l.431.066-.728.914.297-.98zm2.869-19.097l-.359-.055-.501-.025 1.096-1.39-.236 1.47zM57.032 18.256l.384 2.69a1.869 1.869 0 01-1.851 2.135h-3.526v-.032l-.24-4.793h5.233zm-6.269 4.825H45.3l.243-4.825h4.978l.242 4.825zm-6.739-.032v.032h-3.589a1.869 1.869 0 01-1.851-2.135l.384-2.69h5.297l-.24 4.793zm.305-6.07H39.15l.716-5.01h4.716l-.253 5.01zm6.127 0h-4.85l.253-5.01h4.344l.253 5.01zm6.393 0h-5.116l-.251-5.01h4.652l.715 5.01zM44.88 6.07l-.233 4.625h-4.597l.43-3.02a1.87 1.87 0 011.852-1.605h2.548zm5.027 0l.234 4.625h-4.216l.232-4.625h3.75zm1.278 0h2.485c.931 0 1.72.685 1.85 1.606l.432 3.019h-4.534l-.233-4.625zM21.552 28.055l-1.555 1.572a.887.887 0 01-1.264 0L5.182 15.932l-.42.425a.887.887 0 01-1.264 0L2.423 15.27a.91.91 0 010-1.278L14.04 2.254a.887.887 0 011.264 0l1.074 1.086a.91.91 0 010 1.277l-.42.425 13.551 13.695a.91.91 0 010 1.277l-1.88 1.901-1.571-1.587a.356.356 0 00-.124-.094l1.22-1.233c.206-.208.786-.049.58-.258a.523.523 0 00-.747 0l-8.093 8.18a.538.538 0 00-.001.755c.207.208-.038-.29.168-.497l.826-.835c.014.033.045.07.095.122l1.571 1.587zM4.698 15.335L15.401 4.518c.262-.264.385-.568.276-.679-.109-.11-.262.165-.523.43L4.45 15.085c-.26.264-.533.419-.424.529.109.11.41-.016.671-.28zm13.574 11.271l8.247-8.335L14.693 6.32l-8.247 8.335 11.826 11.952zM10.006 8.672l2.495-2.52a.537.537 0 000-.754.523.523 0 00-.747 0L9.26 7.917a.537.537 0 000 .754c.207.209.54.209.746 0zm13.778 13.734l1.43-1.446c.015.034.046.071.096.122l1.57 1.587-1.402 1.418-1.57-1.587a.356.356 0 00-.124-.094zm-3.18 3.214l2.462-2.487c.013.033.044.07.095.122l1.57 1.587L22.3 27.3l-1.57-1.587a.353.353 0 00-.124-.093zM5.986 12.736l2.494-2.52a.538.538 0 000-.754.524.524 0 00-.747 0l-2.493 2.52a.538.538 0 000 .755c.206.208.54.208.746 0z" fill="#fff"/><path fill="none" stroke="#fff" stroke-width="2.15" d="M204.235 13.333h5.253v5.333h-5.253z" transform="matrix(.72148 -.72915 .58522 .59144 -141.827 158.137)"/><path d="M209.185 13.865V12.4" fill="none" stroke="#fff" stroke-width="1.27" transform="scale(1.18265 1.19522) rotate(-45 109.957 251.96)"/><path d="M209.185 13.865V12.4" fill="none" stroke="#fff" stroke-width="1.27" transform="scale(1.18265 1.19522) rotate(-45 108.624 248.743)"/><path d="M209.185 13.865V12.4" fill="none" stroke="#fff" stroke-width="1.27" transform="scale(1.18265 1.19522) rotate(-45 116.637 249.194)"/><path d="M209.185 13.865V12.4" fill="none" stroke="#fff" stroke-width="1.27" transform="scale(1.18265 1.19522) rotate(-45 115.304 245.976)"/><circle cx="210.667" cy="11.671" r=".382" fill="none" stroke="#fff" stroke-width="1.27" transform="scale(1.18265 1.19522) rotate(-45 110.698 253.75)"/><circle cx="210.667" cy="11.671" r=".382" fill="none" stroke="#fff" stroke-width="1.27" transform="scale(1.18265 1.19522) rotate(-45 109.365 250.53)"/><circle cx="210.667" cy="11.671" r=".382" fill="none" stroke="#fff" stroke-width="1.27" transform="scale(1.18265 1.19522) rotate(-45 120.815 249.56)"/><circle cx="210.667" cy="11.671" r=".382" fill="none" stroke="#fff" stroke-width="1.27" transform="scale(1.18265 1.19522) rotate(-45 119.481 246.34)"/></svg>