<?xml version="1.0" encoding="UTF-8" standalone="no"?>
<!DOCTYPE svg PUBLIC "-//W3C//DTD SVG 1.1//EN" "http://www.w3.org/Graphics/SVG/1.1/DTD/svg11.dtd">
<svg width="100%" height="100%" viewBox="0 0 32 32" version="1.1" xmlns="http://www.w3.org/2000/svg" xmlns:xlink="http://www.w3.org/1999/xlink" xml:space="preserve" xmlns:serif="http://www.serif.com/" style="fill-rule:evenodd;clip-rule:evenodd;stroke-linecap:round;stroke-linejoin:round;stroke-miterlimit:10;">
    <g transform="matrix(1,0,0,1,-192,0)">
        <g id="unknown">
        </g>
        <g id="plumbing">
        </g>
        <g id="genetics">
        </g>
        <g id="surgery">
        </g>
        <g id="trauma">
        </g>
        <g id="wound">
        </g>
        <g id="power">
            <path d="M212.561,37.261C216.736,39.037 219.667,43.179 219.667,48C219.667,54.163 214.877,59.217 208.819,59.635L210.66,57.287C214.705,56.137 217.667,52.412 217.667,48C217.667,44.184 215.45,40.881 212.232,39.32L212.561,37.261ZM206.452,36.439L204.407,39.032C200.848,40.453 198.333,43.935 198.333,48C198.333,51.774 200.501,55.046 203.663,56.629L203.073,58.574C199.093,56.718 196.333,52.679 196.333,48C196.333,42.086 200.744,37.193 206.452,36.439ZM206.478,57.535L206.909,57.601L206.181,58.515L206.478,57.535ZM209.347,38.438L208.988,38.383L208.487,38.358L209.583,36.968L209.347,38.438Z" style="fill:white;"/>
        </g>
        <g transform="matrix(1.27587,0,0,1.27587,-66.2089,-0.735654)">
            <g id="solar">
                <path d="M247.079,14.885L247.38,16.994C247.44,17.414 247.315,17.84 247.036,18.161C246.758,18.482 246.354,18.667 245.929,18.667L243.166,18.667L243.166,18.642L242.977,14.885L247.079,14.885ZM242.166,18.667L237.884,18.667L238.074,14.885L241.976,14.885L242.166,18.667ZM236.884,18.642L236.884,18.667L234.071,18.667C233.646,18.667 233.242,18.482 232.964,18.161C232.685,17.84 232.56,17.414 232.62,16.994L232.921,14.885L237.073,14.885L236.884,18.642ZM237.123,13.885L233.064,13.885L233.625,9.958L237.321,9.958L237.123,13.885ZM241.925,13.885L238.124,13.885L238.322,9.958L241.727,9.958L241.925,13.885ZM246.936,13.885L242.926,13.885L242.729,9.958L246.375,9.958L246.936,13.885ZM237.554,5.333L237.371,8.958L233.768,8.958L234.106,6.592C234.209,5.87 234.827,5.333 235.557,5.333L237.554,5.333ZM241.494,5.333L241.677,8.958L238.373,8.958L238.555,5.333L241.494,5.333ZM242.496,5.333L244.443,5.333C245.173,5.333 245.791,5.87 245.894,6.592L246.232,8.958L242.678,8.958L242.496,5.333Z" style="fill:white;"/>
            </g>
        </g>
        <g id="machines" transform="matrix(1.10253,0,0,1.11425,-20.8344,-1.35602)">
            <g transform="matrix(-0.573209,-0.573209,0.573209,-0.573209,318.056,144.399)">
                <path d="M194.929,10.936L194.929,8.475C194.929,7.923 195.376,7.475 195.929,7.475L217.371,7.475L217.371,6.81C217.371,6.258 217.819,5.81 218.371,5.81L220.071,5.81C220.624,5.81 221.071,6.258 221.071,6.81L221.071,25.19C221.071,25.742 220.624,26.19 220.071,26.19L218.371,26.19C217.819,26.19 217.371,25.742 217.371,25.19L217.371,24.525L195.929,24.525C195.376,24.525 194.929,24.077 194.929,23.525L194.929,20.549L197.414,20.549C197.496,20.549 197.55,20.543 197.585,20.525L197.585,22.455C197.585,22.781 197.002,23.115 197.329,23.115C197.655,23.115 197.919,22.851 197.919,22.525L197.919,9.718C197.919,9.392 197.655,9.127 197.329,9.127C197.002,9.127 197.585,9.323 197.585,9.649L197.585,10.956C197.548,10.941 197.494,10.936 197.414,10.936L194.929,10.936ZM218.221,7.56L218.221,24.495C218.221,24.909 218.361,25.245 218.534,25.245C218.706,25.245 218.612,24.909 218.612,24.495L218.612,7.56C218.612,7.147 218.706,6.81 218.534,6.81C218.361,6.81 218.221,7.147 218.221,7.56ZM198.658,9.475L198.658,22.525L217.371,22.525L217.371,9.475L198.658,9.475ZM219.237,16.975L219.237,20.922C219.237,21.248 219.501,21.512 219.827,21.512C220.154,21.512 220.418,21.248 220.418,20.922L220.418,16.975C220.418,16.649 220.154,16.385 219.827,16.385C219.501,16.385 219.237,16.649 219.237,16.975ZM197.585,17.124L197.585,19.388C197.548,19.373 197.494,19.368 197.414,19.368L194.929,19.368L194.929,17.148L197.414,17.148C197.496,17.148 197.55,17.142 197.585,17.124ZM197.585,12.093L197.585,15.987C197.548,15.972 197.494,15.967 197.414,15.967L194.929,15.967L194.929,12.118L197.414,12.118C197.496,12.118 197.55,12.111 197.585,12.093ZM219.237,10.612L219.237,14.558C219.237,14.884 219.501,15.149 219.827,15.149C220.154,15.149 220.418,14.884 220.418,14.558L220.418,10.612C220.418,10.286 220.154,10.021 219.827,10.021C219.501,10.021 219.237,10.286 219.237,10.612Z" style="fill:white;"/>
            </g>
            <g transform="matrix(-0.758492,-0.758492,0.758492,-0.758492,356.116,187.78)">
                <g transform="matrix(5.28279e-17,0.862745,-0.699806,4.28507e-17,221.725,-162.87)">
                    <rect x="204.235" y="13.333" width="5.253" height="5.333" style="fill:none;stroke:white;stroke-width:2.15px;"/>
                </g>
                <g transform="matrix(6.12323e-17,1,-1,6.12323e-17,226.528,-194.885)">
                    <path d="M209.185,13.865L209.185,12.4" style="fill:none;stroke:white;stroke-width:1.27px;"/>
                </g>
                <g transform="matrix(6.12323e-17,1,-1,6.12323e-17,226.528,-192.219)">
                    <path d="M209.185,13.865L209.185,12.4" style="fill:none;stroke:white;stroke-width:1.27px;"/>
                </g>
                <g transform="matrix(6.12323e-17,1,-1,6.12323e-17,220.994,-194.885)">
                    <path d="M209.185,13.865L209.185,12.4" style="fill:none;stroke:white;stroke-width:1.27px;"/>
                </g>
                <g transform="matrix(6.12323e-17,1,-1,6.12323e-17,220.994,-192.219)">
                    <path d="M209.185,13.865L209.185,12.4" style="fill:none;stroke:white;stroke-width:1.27px;"/>
                </g>
                <g transform="matrix(6.12323e-17,1,-1,6.12323e-17,226.528,-196.367)">
                    <circle cx="210.667" cy="11.671" r="0.382" style="fill:none;stroke:white;stroke-width:1.27px;"/>
                </g>
                <g transform="matrix(6.12323e-17,1,-1,6.12323e-17,226.528,-193.7)">
                    <circle cx="210.667" cy="11.671" r="0.382" style="fill:none;stroke:white;stroke-width:1.27px;"/>
                </g>
                <g transform="matrix(6.12323e-17,1,-1,6.12323e-17,218.147,-196.367)">
                    <circle cx="210.667" cy="11.671" r="0.382" style="fill:none;stroke:white;stroke-width:1.27px;"/>
                </g>
                <g transform="matrix(6.12323e-17,1,-1,6.12323e-17,218.147,-193.7)">
                    <circle cx="210.667" cy="11.671" r="0.382" style="fill:none;stroke:white;stroke-width:1.27px;"/>
                </g>
            </g>
        </g>
        <g id="supermatter">
        </g>
        <g id="shield">
        </g>
        <g id="turbine">
        </g>
        <g id="tcomm">
        </g>
        <g id="atmos">
        </g>
        <g id="xeno">
        </g>
        <g id="nanites">
        </g>
        <g id="aimod">
        </g>
        <g id="tips">
        </g>
        <g id="races">
        </g>
        <g id="food">
        </g>
        <g id="hydro">
        </g>
    </g>
</svg>
