<svg viewBox="0 0 32 32" xmlns="http://www.w3.org/2000/svg" fill-rule="evenodd" clip-rule="evenodd" stroke-linecap="round" stroke-linejoin="round" stroke-miterlimit="10"><path d="M17.13 11.175l4.477 2.585v5.17l-4.477 2.585-4.477-2.585v-5.17l4.477-2.585z" fill="none" stroke="#fff" stroke-width="2.004844"/><path d="M15.142 16h1.22l1.435-1.434M18.667 17.251l-.679.679" fill="none" stroke="#fff" stroke-width="1.5"/><path d="M14.113 20.053l-2.948 3.338a.474.474 0 10.67.67l3.339-2.948a.75.75 0 00-1.061-1.06z" fill="#fff"/><path d="M8.066 5.333L10.8 6.909v3.156l-2.733 1.577-2.732-1.577V6.91l2.732-1.576z" fill="#fff" stroke="#fff" stroke-width="1.5064455999999997"/><path d="M22.266 24.59l1.179.68v1.361l-1.18.68-1.178-.68V25.27l1.179-.68z" fill="#fff" stroke="#fff" stroke-width="1.501872"/><path d="M8.066 26.05l.533.308v.617l-.533.308-.534-.308v-.617l.534-.307zM6.028 16.113l.534.308v.616l-.534.308-.533-.308v-.616l.533-.308zM17.13 5.333l.533.308v.616l-.533.308-.534-.308v-.616l.534-.308zM26.096 16.68l.534.308v.617l-.534.307-.533-.307v-.617l.533-.308z" fill="#fff" stroke="#fff" stroke-width="1.5012824"/><path d="M11.31 19.71l.57-.673a.746.746 0 011.041 1.066l-.843.679a.645.645 0 01-.448.182l-1.909-.183-1.728 1.39a.214.214 0 01-.302-.004.214.214 0 01.004-.302l1.578-1.863a.445.445 0 01.31-.126l1.727-.165zM15.36 24.702l-.144-1.708c0-.156.062-.305.172-.415l1.215-1.439a.745.745 0 011.054 1.054l-1.292 1.09-.132 1.56a.427.427 0 01-.126.303l-1.977 1.67a.213.213 0 11-.302-.301l1.532-1.814z" fill="#fff"/><path d="M24.624 7.126l1.179.68v1.362l-1.18.68-1.179-.68V7.807l1.18-.68z" fill="#fff" stroke="#fff" stroke-width="1.501872"/></svg>