<?xml version="1.0" encoding="UTF-8" standalone="no"?>
<!DOCTYPE svg PUBLIC "-//W3C//DTD SVG 1.1//EN" "http://www.w3.org/Graphics/SVG/1.1/DTD/svg11.dtd">
<svg width="100%" height="100%" viewBox="0 0 32 32" version="1.1" xmlns="http://www.w3.org/2000/svg" xmlns:xlink="http://www.w3.org/1999/xlink" xml:space="preserve" xmlns:serif="http://www.serif.com/" style="fill-rule:evenodd;clip-rule:evenodd;stroke-linecap:round;stroke-linejoin:round;stroke-miterlimit:1.5;">
    <g transform="matrix(1,0,0,1,-32,-32)">
        <g transform="matrix(0.610465,0.610465,-0.577946,0.577946,27.6,-22.8943)">
            <g id="unknown">
                <path d="M59.485,10.232C59.485,7.049 57.039,4.465 54.025,4.465L43.105,4.465C40.091,4.465 37.644,7.049 37.644,10.232L37.644,21.768C37.644,24.951 40.091,27.535 43.105,27.535L54.025,27.535C57.039,27.535 59.485,24.951 59.485,21.768L59.485,10.232Z" style="fill:none;stroke:white;stroke-width:2.97px;"/>
            </g>
        </g>
        <g id="plumbing">
            <g transform="matrix(0.905401,0,0,0.905401,3.99306,4.1967)">
                <path d="M48.046,48.061L48,48C48,48 54.988,44.183 59.854,48C64.72,51.817 56,58.592 56,58.592C56,58.592 49.34,65.104 46.301,59.718C43.436,54.639 47.565,48.719 48.046,48.061ZM36.819,39.058L46.122,49.65C47.032,50.686 46.963,48.911 48,48C49.037,47.089 50.789,47.387 49.878,46.35L40.575,35.758C39.665,34.722 38.084,34.619 37.047,35.53C36.01,36.44 35.908,38.021 36.819,39.058Z" style="fill:none;stroke:white;stroke-width:2.21px;stroke-linecap:butt;stroke-miterlimit:2;"/>
            </g>
            <path d="M36.797,37.696C36.879,37.198 37.127,36.724 37.536,36.366C38.474,35.541 39.906,35.634 40.73,36.572L49.153,46.162C49.977,47.101 48.391,46.832 47.452,47.656C46.514,48.48 46.576,50.088 45.752,49.15L37.329,39.56C36.899,39.071 36.719,38.448 36.779,37.848C36.78,37.962 36.822,38.075 36.904,38.166L46.084,48.447C46.268,48.653 46.584,48.671 46.79,48.487C46.996,48.303 47.014,47.987 46.83,47.781L37.649,37.5C37.466,37.294 37.149,37.276 36.944,37.46C36.87,37.526 36.821,37.608 36.797,37.696Z" style="fill:white;"/>
            <g transform="matrix(0.905401,0,0,0.905401,3.13106,3.32535)">
                <path d="M50.116,61.604C50.116,61.604 50.632,51.968 60.976,51.393C61.618,51.358 62.111,50.807 62.075,50.165C62.039,49.523 61.489,49.031 60.847,49.066C48.34,49.761 47.788,61.488 47.788,61.488C47.756,62.13 48.251,62.678 48.894,62.71C49.536,62.742 50.084,62.247 50.116,61.604Z" style="fill:none;stroke:white;stroke-width:1.1px;stroke-linecap:butt;stroke-miterlimit:2;"/>
            </g>
        </g>
        <g id="genetics">
        </g>
        <g id="surgery">
        </g>
        <g id="trauma">
        </g>
        <g id="wound">
        </g>
        <g id="power">
        </g>
        <g id="solar">
        </g>
        <g transform="matrix(-0.836256,-0.845147,0.836256,-0.845147,371.793,207.877)">
            <g id="machines">
            </g>
        </g>
        <g id="supermatter">
        </g>
        <g id="shield">
        </g>
        <g id="turbine">
        </g>
        <g id="tcomm">
        </g>
        <g id="atmos">
        </g>
        <g id="xeno">
        </g>
        <g id="nanites">
        </g>
        <g id="aimod">
        </g>
        <g id="tips">
        </g>
    </g>
</svg>
