<?xml version="1.0" encoding="UTF-8" standalone="no"?>
<!DOCTYPE svg PUBLIC "-//W3C//DTD SVG 1.1//EN" "http://www.w3.org/Graphics/SVG/1.1/DTD/svg11.dtd">
<svg width="100%" height="100%" viewBox="0 0 32 32" version="1.1" xmlns="http://www.w3.org/2000/svg" xmlns:xlink="http://www.w3.org/1999/xlink" xml:space="preserve" xmlns:serif="http://www.serif.com/" style="fill-rule:evenodd;clip-rule:evenodd;stroke-linejoin:round;stroke-miterlimit:2;">
    <g transform="matrix(1,0,0,1,-128,-64)">
        <g id="unknown">
        </g>
        <g id="plumbing">
        </g>
        <g id="genetics">
        </g>
        <g id="surgery">
        </g>
        <g id="trauma">
        </g>
        <g id="wound">
        </g>
        <g id="power">
        </g>
        <g id="solar">
        </g>
        <g transform="matrix(-0.836256,-0.845147,0.836256,-0.845147,371.793,207.877)">
            <g id="machines">
            </g>
        </g>
        <g id="supermatter">
        </g>
        <g id="shield">
        </g>
        <g id="turbine">
        </g>
        <g id="tcomm" transform="matrix(1.07641,0.288423,-0.288423,1.07641,14.4029,-39.3222)">
            <path d="M120.797,75.729C120.549,75.3 120,75.153 119.571,75.401L105.553,83.494C105.124,83.742 104.977,84.291 105.224,84.72L110.05,93.079C110.298,93.508 110.847,93.655 111.276,93.407L125.294,85.314C125.723,85.066 125.87,84.517 125.622,84.088L120.797,75.729ZM112.446,90.091L115.093,88.563C115.492,88.332 115.646,87.852 115.438,87.491C115.229,87.13 114.736,87.024 114.337,87.254L111.69,88.782C111.291,89.013 111.136,89.493 111.345,89.854C111.553,90.215 112.047,90.321 112.446,90.091ZM110.779,87.829L113.426,86.301C113.825,86.07 113.979,85.59 113.771,85.229C113.562,84.868 113.069,84.762 112.67,84.992L110.023,86.52C109.624,86.751 109.469,87.231 109.678,87.592C109.886,87.953 110.38,88.059 110.779,87.829ZM116.856,80.136C115.413,80.969 114.918,82.817 115.751,84.26C116.584,85.702 118.432,86.197 119.875,85.364C121.317,84.531 121.812,82.684 120.98,81.241C120.147,79.798 118.299,79.303 116.856,80.136ZM109.176,85.51L111.823,83.982C112.222,83.752 112.376,83.271 112.168,82.91C111.959,82.549 111.466,82.443 111.067,82.673L108.42,84.202C108.021,84.432 107.866,84.912 108.075,85.273C108.283,85.635 108.777,85.741 109.176,85.51ZM117.642,81.497C118.334,81.098 119.219,81.335 119.619,82.027C120.018,82.718 119.781,83.604 119.089,84.004C118.397,84.403 117.511,84.166 117.112,83.474C116.713,82.782 116.95,81.896 117.642,81.497Z" style="fill:white;"/>
        </g>
        <g id="atmos">
        </g>
        <g id="rnd" transform="matrix(1.02862,-0.275617,0.275617,1.02862,-26.0245,37.3821)">
            <path d="M135.473,69.697L138.624,69.697C138.618,69.747 138.615,69.798 138.615,69.849C138.615,71.096 138.615,72.904 138.615,74.151C138.615,74.527 138.765,74.888 139.031,75.154C139.297,75.42 139.657,75.569 140.033,75.569C142.048,75.569 145.718,75.569 147.733,75.569C148.109,75.569 148.47,75.42 148.736,75.154C149.002,74.888 149.151,74.527 149.151,74.151C149.151,72.904 149.151,71.096 149.151,69.849C149.151,69.798 149.149,69.747 149.143,69.697L152.294,69.697C152.378,69.697 152.461,69.703 152.543,69.714L152.591,69.719L152.611,69.723C152.719,69.74 152.824,69.766 152.927,69.8L152.971,69.815C153.002,69.827 153.032,69.839 153.063,69.85L153.112,69.872C153.245,69.931 153.371,70.005 153.489,70.092C153.541,70.13 153.592,70.172 153.64,70.215C153.665,70.238 153.69,70.262 153.714,70.286C153.749,70.32 153.782,70.356 153.813,70.393C153.905,70.5 153.986,70.615 154.053,70.737C154.104,70.83 154.149,70.928 154.185,71.029C154.262,71.243 154.302,71.47 154.302,71.702L154.303,71.706L154.303,88.527C154.303,89.06 154.091,89.571 153.714,89.948C153.526,90.136 153.304,90.283 153.063,90.383C152.972,90.42 152.879,90.451 152.784,90.475C152.625,90.515 152.46,90.536 152.294,90.536L151.9,90.536C152.056,90.251 152.144,89.924 152.144,89.576C152.144,86.796 152.144,81.803 152.144,79.023C152.144,77.913 151.245,77.014 150.135,77.014C147.034,77.014 141.113,77.014 138.011,77.014C136.902,77.014 136.002,77.913 136.002,79.023C136.002,81.803 136.002,86.796 136.002,89.576C136.002,89.924 136.091,90.251 136.246,90.536L135.473,90.536C135.269,90.536 135.069,90.505 134.878,90.446L134.795,90.418L134.704,90.383L134.671,90.368C134.562,90.321 134.458,90.264 134.359,90.199C134.29,90.153 134.224,90.102 134.161,90.048C134.123,90.016 134.087,89.982 134.052,89.948C133.841,89.736 133.681,89.481 133.582,89.205C133.566,89.161 133.552,89.116 133.54,89.071C133.49,88.896 133.464,88.713 133.464,88.527L133.464,71.706C133.464,71.404 133.532,71.11 133.659,70.843C133.704,70.748 133.756,70.658 133.816,70.571C133.885,70.469 133.964,70.374 134.052,70.286C134.084,70.254 134.118,70.223 134.152,70.194L134.2,70.152L134.278,70.092L134.337,70.05C134.454,69.97 134.578,69.902 134.708,69.849L134.795,69.815C134.826,69.805 134.857,69.795 134.888,69.784L134.93,69.773C135.105,69.723 135.287,69.697 135.473,69.697ZM137.934,90.536C137.769,90.445 137.615,90.331 137.479,90.195C137.102,89.818 136.891,89.307 136.891,88.775C136.891,86.339 136.891,82.26 136.891,79.824C136.891,79.292 137.102,78.781 137.479,78.404C137.855,78.027 138.366,77.816 138.899,77.816C141.636,77.816 146.51,77.816 149.247,77.816C149.78,77.816 150.291,78.027 150.668,78.404C151.044,78.781 151.256,79.292 151.256,79.824C151.256,82.26 151.256,86.339 151.256,88.775C151.256,89.307 151.044,89.818 150.668,90.195C150.531,90.331 150.378,90.445 150.212,90.536L137.934,90.536ZM149.853,84.96C149.853,84.457 149.446,84.05 148.943,84.05C146.84,84.05 141.665,84.05 139.562,84.05C139.06,84.05 138.652,84.457 138.652,84.96C138.652,84.96 138.652,84.96 138.652,84.961C138.652,85.463 139.06,85.871 139.562,85.871C141.665,85.871 146.84,85.871 148.943,85.871C149.446,85.871 149.853,85.463 149.853,84.961C149.853,84.96 149.853,84.96 149.853,84.96ZM149.661,81.827C149.661,81.324 149.254,80.917 148.751,80.917C146.649,80.917 141.473,80.917 139.37,80.917C138.868,80.917 138.461,81.324 138.461,81.827C138.461,81.827 138.461,81.828 138.461,81.828C138.461,82.331 138.868,82.738 139.37,82.738C141.473,82.738 146.649,82.738 148.751,82.738C149.254,82.738 149.661,82.331 149.661,81.828C149.661,81.828 149.661,81.827 149.661,81.827ZM148.137,69.697C148.303,69.934 148.393,70.217 148.393,70.51C148.393,71.415 148.393,72.585 148.393,73.49C148.393,73.866 148.244,74.227 147.978,74.493C147.712,74.759 147.352,74.908 146.976,74.908C145.286,74.908 142.48,74.908 140.791,74.908C140.415,74.908 140.054,74.759 139.789,74.493C139.523,74.227 139.373,73.866 139.373,73.49C139.373,72.585 139.373,71.415 139.373,70.51C139.373,70.217 139.464,69.934 139.629,69.697L148.137,69.697ZM146.969,70.782C146.969,70.538 146.772,70.34 146.527,70.34C146.175,70.34 145.683,70.34 145.331,70.34C145.087,70.34 144.889,70.538 144.889,70.782C144.889,71.525 144.889,73.019 144.889,73.762C144.889,74.006 145.087,74.204 145.331,74.204C145.683,74.204 146.175,74.204 146.527,74.204C146.772,74.204 146.969,74.006 146.969,73.762L146.969,70.782Z" style="fill:white;"/>
        </g>
        <g id="xeno">
        </g>
        <g id="nanites">
        </g>
        <g id="aimod">
        </g>
        <g id="tips">
        </g>
        <g id="races">
        </g>
        <g id="food">
        </g>
        <g id="hydro">
        </g>
    </g>
</svg>
