<svg viewBox="0 0 32 32" xmlns="http://www.w3.org/2000/svg" fill-rule="evenodd" clip-rule="evenodd" stroke-linejoin="round" stroke-miterlimit="2"><path d="M22.438-4.681l-10.83-12.855a6.123 6.123 0 01-8.753-6.441l.01-.058a1.19 1.19 0 01.179-.465.12.12 0 01.095-.056.126.126 0 01.071.017l4.045 4.044c.273.274.671.38 1.044.28l2.091-.56c.373-.1.665-.392.765-.765l.56-2.091c.1-.373-.006-.772-.279-1.045l-4.047-4.047a.114.114 0 01-.015-.067.124.124 0 01.056-.097c.171-.113.332-.155.465-.179l.058-.01a6.123 6.123 0 016.441 8.755L27.248-9.49a3.488 3.488 0 01.601 5.412 3.487 3.487 0 01-5.41-.602zm1.497-3.312a2.05 2.05 0 112.899 2.898 2.05 2.05 0 01-2.9-2.898zm-1.419.155s-9.185-10.578-9.411-10.387a.535.535 0 00-.067.752L21.697-7.15a.534.534 0 10.82-.687zM3.296-23.302c.047-.14.661 1.08.877 1.633.432 1.108 1.281 2.506 2.785 3.17 1.004.441 2.296.55 3.942.043a.267.267 0 11.157.51c-1.802.556-3.216.42-4.314-.065-1.65-.728-2.595-2.248-3.07-3.464-.236-.61-.355-1.14-.39-1.454a.993.993 0 01.013-.373zM50.865-28.712a.517.517 0 00-.916-.401L39.305-15.604a.515.515 0 00.377.834l7.479.406a.516.516 0 01.465.665c-.55 1.813-2.16 7.12-3.136 10.343a.515.515 0 00.898.47l11.347-14.243a.514.514 0 00-.395-.838c-1.746-.03-5.197-.093-6.58-.118a.515.515 0 01-.5-.598c.282-1.769 1.137-7.109 1.605-10.03z" fill="#fff"/><path d="M52.561-26.739c4.175 1.776 7.106 5.918 7.106 10.739 0 6.163-4.79 11.217-10.848 11.635l1.841-2.348c4.045-1.15 7.007-4.875 7.007-9.287a9.643 9.643 0 00-5.435-8.68l.329-2.059zm-6.109-.822l-2.045 2.593A9.658 9.658 0 0038.333-16a9.644 9.644 0 005.33 8.629l-.59 1.945c-3.98-1.856-6.74-5.895-6.74-10.574 0-5.914 4.411-10.807 10.119-11.561zm.026 21.096l.431.066-.728.914.297-.98zm2.869-19.097l-.359-.055-.501-.025 1.096-1.39-.236 1.47zM53.755 50.308l7.278 6.013c.237.197.347.51.283.812 0 0-.38 1.737-1.127 2.752-.43.584-.982.942-1.586.962-.413.014-.877-.118-1.372-.535-1.193-1.009-3.883-3.812-5.647-5.679l-.523.618s-13.19-9.37-14.382-11.834c-2.842-5.876.655-8.752.655-8.752l16.42 15.643zM38.165 37.33c-.005-.004-.003-.004-.008.003l.01.01c.022.139-.002 1.22 1.448 3.026 2.07 2.576 6.595 6.533 12.623 10.297L38.167 37.343l-.002-.013zm7.978 16.176c-2.219 2.134-3.937 3.778-4.075 3.893-2.128 1.778-3.12 2.6-4.956 1.428-2.293-1.465-1.834-5.083.125-6.971l.219-.213-.012.45a40.478 40.478 0 00-.072 2.62c0 .515.343.917.768.905.428-.01.781-.433.795-.947l.07-2.563c.047-.725.116-1.45.22-2.171l1.029-.992 1.223.984c-.01.376-.013.754-.013 1.13.002.513.344.915.77.903.392-.01.722-.367.783-.825l.818.629c.298.228.597.456.897.683l1.411 1.057zm5.676-15.72l.008-.009c1.959-1.888 5.137-1.884 6.97.125 1.26 1.38.201 2.982-2.067 5.346-.356.373-1.961 1.935-3.987 3.895l-5.152-4.909.07-.438 2.242-2.162-.037 1.367a40.478 40.478 0 00-.072 2.62c0 .514.343.917.769.905.426-.012.78-.435.793-.949l.072-2.561a26.07 26.07 0 01.391-3.23zm.838 15.575c1.724 1.831 4.446 4.675 5.641 5.685.095.08.168.144.247.145.095.002.152-.094.223-.174.122-.142.229-.315.324-.498a6.96 6.96 0 00.484-1.254l-6.019-4.973-.9 1.069zM4.335 20.084a4.969 4.969 0 01-.624-2.418v-10c0-2.758 2.24-5 5-5H23.29c2.76 0 5 2.242 5 5v10c0 .877-.226 1.702-.624 2.418l.001.082-.165.193a5.021 5.021 0 01-.902 1.053L22.666 26a3.335 3.335 0 01-3.332 3.334h-6.668A3.335 3.335 0 019.334 26L5.4 21.412A5.021 5.021 0 014.5 20.36l-.165-.193.001-.082zm1.539-.539a4.324 4.324 0 01-.54-2.099v-8.68a4.342 4.342 0 014.34-4.34h12.652a4.342 4.342 0 014.34 4.34v8.68c0 .762-.196 1.478-.54 2.099v.071l-.142.168a4.407 4.407 0 01-.785.916l-3.413 3.98a2.894 2.894 0 01-2.892 2.894h-5.788a2.894 2.894 0 01-2.892-2.894L6.8 20.7a4.407 4.407 0 01-.785-.916l-.142-.168v-.071zm1.461-.511a3.71 3.71 0 01-.462-1.797V9.81a3.715 3.715 0 013.713-3.712h10.828a3.715 3.715 0 013.713 3.712v7.427a3.71 3.71 0 01-.462 1.797v.061l-.122.143a3.726 3.726 0 01-.672.783l-2.92 3.406a2.476 2.476 0 01-2.475 2.475h-4.952a2.476 2.476 0 01-2.475-2.475l-2.92-3.406a3.726 3.726 0 01-.672-.783l-.122-.143v-.061zm12.612.48a.552.552 0 00-.163-.394.551.551 0 00-.393-.164H12.61a.551.551 0 00-.393.164.552.552 0 00-.163.394v2.471a.554.554 0 00.556.556h6.782a.554.554 0 00.556-.556v-2.471zm-1.3.69h-5.294v1.091h5.294v-1.091zm3.872-8.865a.512.512 0 00-.513-.512h-4.119a.511.511 0 00-.51.512v3.177c0 .283.228.513.51.513h4.12c.282 0 .512-.23.512-.513V11.34zm-7.91 0a.512.512 0 00-.513-.512H9.977a.511.511 0 00-.51.512v3.177c0 .283.228.513.51.513h4.12c.282 0 .512-.23.512-.513V11.34zm-1.256 1.073a.513.513 0 00-.513-.512h-1.605a.512.512 0 00-.513.512v1.032c0 .282.23.511.513.511h1.605a.512.512 0 00.513-.511v-1.032zm7.925 0a.512.512 0 00-.513-.512H19.16a.513.513 0 00-.513.512v1.032c0 .282.23.511.513.511h1.605a.511.511 0 00.513-.511v-1.032z" fill="#fff"/></svg>