<?xml version="1.0" encoding="UTF-8" standalone="no"?>
<!DOCTYPE svg PUBLIC "-//W3C//DTD SVG 1.1//EN" "http://www.w3.org/Graphics/SVG/1.1/DTD/svg11.dtd">
<svg width="100%" height="100%" viewBox="0 0 32 32" version="1.1" xmlns="http://www.w3.org/2000/svg" xmlns:xlink="http://www.w3.org/1999/xlink" xml:space="preserve" xmlns:serif="http://www.serif.com/" style="fill-rule:evenodd;clip-rule:evenodd;stroke-linejoin:round;stroke-miterlimit:2;">
    <g transform="matrix(1,0,0,1,-160,-64)">
        <g id="unknown">
        </g>
        <g id="plumbing">
        </g>
        <g id="genetics">
        </g>
        <g id="surgery">
        </g>
        <g id="trauma">
        </g>
        <g id="wound">
        </g>
        <g id="construction" transform="matrix(1.14774,0,0,1.14774,-23.9174,-4.93723)">
            <path d="M179.793,55.985L170.357,44.785C169.646,45.136 168.846,45.333 168,45.333C165.056,45.333 162.667,42.944 162.667,40C162.667,39.719 162.689,39.442 162.731,39.173L162.739,39.122C162.76,39.006 162.796,38.867 162.895,38.717C162.913,38.688 162.944,38.67 162.978,38.668C163,38.667 163.022,38.672 163.04,38.683L166.564,42.207C166.802,42.445 167.149,42.537 167.474,42.45C167.992,42.312 168.778,42.101 169.296,41.962C169.621,41.875 169.875,41.621 169.962,41.296C170.101,40.778 170.312,39.992 170.45,39.474C170.537,39.149 170.445,38.802 170.207,38.564L166.681,35.038C166.671,35.021 166.666,35 166.668,34.979C166.67,34.945 166.688,34.914 166.717,34.895C166.866,34.796 167.006,34.76 167.122,34.739L167.172,34.731C167.442,34.689 167.718,34.667 168,34.667C170.944,34.667 173.333,37.056 173.333,40C173.333,40.847 173.136,41.648 172.784,42.359L183.984,51.794C184.17,51.912 184.346,52.052 184.508,52.214C185.693,53.399 185.693,55.324 184.508,56.509C183.323,57.695 181.398,57.695 180.212,56.509C180.05,56.347 179.91,56.172 179.793,55.985ZM181.097,53.099C181.794,52.402 182.926,52.402 183.623,53.099C184.32,53.796 184.32,54.927 183.623,55.624C182.926,56.321 181.794,56.321 181.097,55.624C180.4,54.927 180.4,53.796 181.097,53.099ZM179.861,53.234C179.861,53.234 171.858,44.018 171.661,44.184C171.464,44.349 171.438,44.643 171.603,44.84L179.147,53.833C179.312,54.03 179.606,54.056 179.803,53.89C180,53.725 180.026,53.431 179.861,53.234ZM163.115,39.761C163.156,39.639 163.691,40.702 163.879,41.184C164.255,42.149 164.995,43.367 166.305,43.945C167.18,44.33 168.306,44.425 169.74,43.983C169.863,43.945 169.993,44.014 170.031,44.137C170.069,44.26 170,44.39 169.877,44.428C168.307,44.912 167.075,44.793 166.118,44.371C164.68,43.737 163.857,42.412 163.444,41.353C163.238,40.822 163.134,40.359 163.104,40.086C163.086,39.926 163.098,39.813 163.115,39.761Z" style="fill:white;"/>
        </g>
        <g id="power">
            <g transform="matrix(0.86944,-0.501971,0.501971,0.86944,2.68937,111.272)">
                <path d="M217.42,38.133C217.567,37.951 217.574,37.692 217.435,37.504C217.296,37.315 217.047,37.244 216.83,37.331C212.908,38.897 203.835,42.519 200.92,43.683C200.742,43.754 200.618,43.918 200.599,44.109C200.58,44.3 200.669,44.486 200.83,44.591C202.398,45.613 205.758,47.804 207.079,48.665C207.211,48.751 207.296,48.893 207.31,49.051C207.324,49.208 207.264,49.363 207.149,49.471C205.772,50.761 201.74,54.538 199.293,56.831C199.113,56.999 199.078,57.272 199.21,57.48C199.342,57.689 199.603,57.774 199.833,57.684C204.35,55.908 213.688,52.238 216.715,51.048C216.897,50.977 217.023,50.808 217.039,50.613C217.055,50.417 216.96,50.23 216.792,50.129C215.301,49.233 212.355,47.46 211.174,46.75C211.046,46.673 210.958,46.544 210.933,46.398C210.907,46.251 210.946,46.1 211.04,45.985C212.165,44.6 215.562,40.419 217.42,38.133Z" style="fill:white;"/>
            </g>
            <path d="M212.561,37.261C216.736,39.037 219.667,43.179 219.667,48C219.667,54.163 214.877,59.217 208.819,59.635L210.66,57.287C214.705,56.137 217.667,52.412 217.667,48C217.667,44.184 215.45,40.881 212.232,39.32L212.561,37.261ZM206.452,36.439L204.407,39.032C200.848,40.453 198.333,43.935 198.333,48C198.333,51.774 200.501,55.046 203.663,56.629L203.073,58.574C199.093,56.718 196.333,52.679 196.333,48C196.333,42.086 200.744,37.193 206.452,36.439ZM206.478,57.535L206.909,57.601L206.181,58.515L206.478,57.535ZM209.347,38.438L208.988,38.383L208.487,38.358L209.583,36.968L209.347,38.438Z" style="fill:white;"/>
        </g>
        <g id="solar">
        </g>
        <g transform="matrix(-0.836256,-0.845147,0.836256,-0.845147,371.793,207.877)">
            <g id="machines">
            </g>
        </g>
        <g id="supermatter">
        </g>
        <g id="shield">
        </g>
        <g id="turbine">
        </g>
        <g id="tcomm">
        </g>
        <g id="atmos">
        </g>
        <g id="xeno">
        </g>
        <g id="nanites">
        </g>
        <g id="aimod">
        </g>
        <g id="tips">
        </g>
        <g id="races">
        </g>
        <g transform="matrix(-0.919427,1.41035,-1.41035,-0.919427,545.108,-83.547)">
            <g id="food">
                <path d="M205.932,100.694L206.563,95.122C206.584,94.94 206.704,94.784 206.875,94.718C206.875,94.718 207.863,94.344 208.61,94.386C209.04,94.41 209.397,94.569 209.603,94.863C209.744,95.064 209.829,95.338 209.782,95.719C209.667,96.64 209.145,98.888 208.788,100.371L209.265,100.431C209.265,100.431 208.881,110.034 208.042,111.426C206.04,114.746 203.475,113.939 203.475,113.939L205.932,100.694ZM204.531,112.661C204.531,112.665 204.53,112.664 204.535,112.664L204.537,112.656C204.599,112.6 205.145,112.261 205.573,110.954C206.183,109.088 206.684,105.553 206.602,101.333L204.537,112.656L204.531,112.661ZM209.992,103.444C211.774,103.856 213.149,104.178 213.251,104.209C214.826,104.691 215.557,104.918 215.569,106.212C215.584,107.828 213.635,108.773 212.06,108.411L211.883,108.371L212.111,108.231C212.562,107.975 213.004,107.702 213.438,107.417C213.694,107.25 213.783,106.949 213.639,106.741C213.495,106.532 213.17,106.493 212.91,106.653L211.612,107.449C211.236,107.661 210.853,107.862 210.46,108.044L209.633,107.854L209.726,106.926C209.916,106.809 210.105,106.688 210.292,106.566C210.547,106.399 210.636,106.098 210.492,105.89C210.36,105.698 210.075,105.65 209.827,105.768L209.875,105.157C209.892,104.935 209.908,104.712 209.924,104.489L209.992,103.444ZM200.329,105.719L200.322,105.718C198.747,105.356 197.718,103.773 198.123,102.209C198.401,101.135 199.542,101.142 201.454,101.504C201.755,101.56 203.053,101.852 204.685,102.224L203.914,106.38L203.673,106.487L201.87,106.073L202.562,105.648C203.013,105.392 203.455,105.119 203.889,104.834C204.145,104.667 204.234,104.366 204.09,104.158C203.946,103.95 203.621,103.911 203.361,104.071L202.063,104.866C201.504,105.183 200.928,105.472 200.329,105.719ZM207.807,100.25C208.159,98.798 208.691,96.521 208.806,95.599C208.815,95.526 208.823,95.469 208.798,95.429C208.768,95.381 208.702,95.384 208.639,95.375C208.529,95.36 208.408,95.363 208.286,95.375C208,95.403 207.709,95.478 207.505,95.541L206.983,100.149L207.807,100.25Z" style="fill:white;"/>
            </g>
        </g>
        <g id="hydro">
        </g>
        <g id="song">
        </g>
        <g id="crate">
        </g>
        <g id="space">
        </g>
        <g id="aux">
        </g>
        <g id="robo" transform="matrix(1.25,0,0,1.25,-44,-20)">
            <path d="M166.668,83.267C166.35,82.694 166.169,82.034 166.169,81.333L166.169,73.333C166.169,71.126 167.961,69.333 170.169,69.333L181.831,69.333C184.039,69.333 185.831,71.126 185.831,73.333L185.831,81.333C185.831,82.034 185.65,82.694 185.332,83.267L185.333,83.333L185.201,83.487C185,83.801 184.757,84.084 184.479,84.33L181.333,88C181.333,89.472 180.138,90.667 178.667,90.667L173.333,90.667C171.862,90.667 170.667,89.472 170.667,88L167.521,84.33C167.243,84.084 167,83.801 166.799,83.487L166.667,83.333L166.668,83.267ZM167.899,82.836C167.624,82.339 167.467,81.766 167.467,81.157L167.467,74.213C167.467,72.297 169.022,70.741 170.939,70.741L181.061,70.741C182.978,70.741 184.533,72.297 184.533,74.213L184.533,81.157C184.533,81.766 184.376,82.339 184.101,82.836C184.101,82.855 184.101,82.874 184.101,82.893L183.987,83.027C183.812,83.3 183.6,83.546 183.359,83.76L180.629,86.944C180.629,88.222 179.592,89.259 178.315,89.259L173.685,89.259C172.408,89.259 171.371,88.222 171.371,86.944L168.641,83.76C168.4,83.546 168.188,83.3 168.013,83.027L167.899,82.893C167.899,82.874 167.899,82.855 167.899,82.836ZM169.068,82.427C168.833,82.001 168.698,81.511 168.698,80.99L168.698,75.048C168.698,73.409 170.029,72.078 171.669,72.078L180.331,72.078C181.971,72.078 183.302,73.409 183.302,75.048L183.302,80.99C183.302,81.511 183.167,82.001 182.932,82.427C182.932,82.443 182.932,82.459 182.932,82.476L182.834,82.59C182.685,82.823 182.504,83.034 182.297,83.217L179.961,85.942C179.961,87.035 179.074,87.922 177.981,87.922L174.019,87.922C172.926,87.922 172.039,87.035 172.039,85.942L169.703,83.217C169.496,83.034 169.315,82.823 169.166,82.59L169.068,82.476C169.068,82.459 169.068,82.443 169.068,82.427ZM179.158,82.811C179.158,82.692 179.111,82.579 179.027,82.496C178.944,82.412 178.831,82.365 178.713,82.365C177.553,82.365 174.447,82.365 173.287,82.365C173.169,82.365 173.056,82.412 172.973,82.496C172.889,82.579 172.842,82.692 172.842,82.811C172.842,83.349 172.842,84.25 172.842,84.788C172.842,84.906 172.889,85.02 172.973,85.103C173.056,85.187 173.169,85.233 173.287,85.233C174.447,85.233 177.553,85.233 178.713,85.233C178.831,85.233 178.944,85.187 179.027,85.103C179.111,85.02 179.158,84.906 179.158,84.788C179.158,84.25 179.158,83.349 179.158,82.811ZM178.118,83.363L173.882,83.363L173.882,84.236L178.118,84.236L178.118,83.363ZM181.215,76.271C181.215,76.045 181.031,75.862 180.805,75.862C180.017,75.862 178.298,75.862 177.51,75.862C177.284,75.862 177.101,76.045 177.101,76.271C177.101,76.918 177.101,78.167 177.101,78.813C177.101,79.039 177.284,79.223 177.51,79.223C178.298,79.223 180.017,79.223 180.805,79.223C181.031,79.223 181.215,79.039 181.215,78.813C181.215,78.167 181.215,76.918 181.215,76.271ZM174.887,76.271C174.887,76.045 174.703,75.862 174.477,75.862C173.689,75.862 171.97,75.862 171.182,75.862C170.956,75.862 170.773,76.045 170.773,76.271C170.773,76.918 170.773,78.167 170.773,78.813C170.773,79.039 170.956,79.223 171.182,79.223C171.97,79.223 173.689,79.223 174.477,79.223C174.703,79.223 174.887,79.039 174.887,78.813C174.887,78.167 174.887,76.918 174.887,76.271ZM173.882,77.13C173.882,76.904 173.698,76.72 173.472,76.72C173.101,76.72 172.558,76.72 172.188,76.72C171.961,76.72 171.778,76.904 171.778,77.13C171.778,77.382 171.778,77.703 171.778,77.955C171.778,78.181 171.961,78.364 172.188,78.364C172.558,78.364 173.101,78.364 173.472,78.364C173.698,78.364 173.882,78.181 173.882,77.955C173.882,77.703 173.882,77.382 173.882,77.13ZM180.222,77.13C180.222,76.904 180.039,76.72 179.812,76.72C179.442,76.72 178.899,76.72 178.528,76.72C178.302,76.72 178.118,76.904 178.118,77.13C178.118,77.382 178.118,77.703 178.118,77.955C178.118,78.181 178.302,78.364 178.528,78.364C178.899,78.364 179.442,78.364 179.812,78.364C180.039,78.364 180.222,78.181 180.222,77.955C180.222,77.703 180.222,77.382 180.222,77.13Z" style="fill:white;"/>
        </g>
        <g id="security">
        </g>
    </g>
</svg>
