<?xml version="1.0" encoding="UTF-8" standalone="no"?>
<!DOCTYPE svg PUBLIC "-//W3C//DTD SVG 1.1//EN" "http://www.w3.org/Graphics/SVG/1.1/DTD/svg11.dtd">
<svg width="100%" height="100%" viewBox="0 0 32 32" version="1.1" xmlns="http://www.w3.org/2000/svg" xmlns:xlink="http://www.w3.org/1999/xlink" xml:space="preserve" xmlns:serif="http://www.serif.com/" style="fill-rule:evenodd;clip-rule:evenodd;stroke-linejoin:round;stroke-miterlimit:2;">
    <g transform="matrix(1,0,0,1,-32,-96)">
        <g id="unknown">
        </g>
        <g id="plumbing">
        </g>
        <g id="genetics">
        </g>
        <g id="surgery">
        </g>
        <g id="trauma">
        </g>
        <g id="wound">
        </g>
        <g id="power">
        </g>
        <g id="solar">
        </g>
        <g transform="matrix(-0.836256,-0.845147,0.836256,-0.845147,371.793,207.877)">
            <g id="machines">
            </g>
        </g>
        <g id="supermatter">
        </g>
        <g id="shield">
        </g>
        <g id="turbine">
        </g>
        <g id="tcomm">
        </g>
        <g id="atmos">
        </g>
        <g id="xeno">
        </g>
        <g id="nanites">
        </g>
        <g id="rules" transform="matrix(1.36605,0,0,1.36605,-21.2133,-38.5929)">
            <path d="M55.598,114.144C55.598,113.859 55.367,113.628 55.083,113.628L46.251,113.628C45.966,113.628 45.735,113.859 45.735,114.144C45.735,114.428 45.966,114.659 46.251,114.659L55.083,114.659C55.367,114.659 55.598,114.428 55.598,114.144ZM55.598,111.102C55.598,110.818 55.367,110.587 55.083,110.587L46.251,110.587C45.966,110.587 45.735,110.818 45.735,111.102C45.735,111.387 45.966,111.618 46.251,111.618L55.083,111.618C55.367,111.618 55.598,111.387 55.598,111.102ZM55.598,108.287C55.598,108.003 55.367,107.772 55.083,107.772L46.251,107.772C45.966,107.772 45.735,108.003 45.735,108.287C45.735,108.572 45.966,108.803 46.251,108.803L55.083,108.803C55.367,108.803 55.598,108.572 55.598,108.287ZM43.623,104.494C42.562,104.44 41.718,103.562 41.718,102.488C41.718,101.379 42.618,100.479 43.726,100.479L55.598,100.479L55.702,100.482C56.762,100.536 57.607,101.414 57.607,102.488L57.607,115.983L57.629,115.983L57.629,119.373C57.629,119.408 57.656,119.436 57.691,119.438C57.726,119.44 57.755,119.414 57.759,119.38L58.092,116.042C58.967,116.259 59.615,117.05 59.615,117.991C59.615,119.1 58.715,120 57.607,120L45.735,120C44.635,120 43.741,119.114 43.727,118.018L43.726,118.018L43.726,105.683L54.303,104.626C54.337,104.622 54.363,104.592 54.361,104.558C54.36,104.523 54.331,104.496 54.297,104.496L43.726,104.496L43.623,104.494Z" style="fill:white;"/>
        </g>
        <g id="aimod">
        </g>
        <g id="tips">
        </g>
        <g id="races">
        </g>
        <g id="food">
        </g>
        <g id="hydro">
        </g>
        <g id="song">
        </g>
        <g id="crate">
        </g>
        <g id="space">
        </g>
        <g id="aux">
        </g>
        <g id="security">
        </g>
        <g id="law">
        </g>
        <g id="sop">
        </g>
    </g>
</svg>
