<svg viewBox="0 0 32 32" xmlns="http://www.w3.org/2000/svg" fill-rule="evenodd" clip-rule="evenodd" stroke-linejoin="round" stroke-miterlimit="2"><path d="M22.736 21.334a.705.705 0 00-.703-.705H9.968a.705.705 0 100 1.408h12.065a.704.704 0 00.703-.703zm0-4.156a.704.704 0 00-.703-.704H9.968a.705.705 0 100 1.409h12.065a.705.705 0 00.703-.705zm0-3.845a.704.704 0 00-.703-.704H9.968a.705.705 0 100 1.408h12.065a.705.705 0 00.703-.704zM6.378 8.15a2.745 2.745 0 01.14-5.485h16.218l.142.005a2.746 2.746 0 012.603 2.74v18.435h.03v4.63c0 .048.037.087.084.09a.089.089 0 00.093-.08l.455-4.56a2.745 2.745 0 01-.662 5.407H9.263a2.744 2.744 0 01-2.743-2.707h-.001V9.776L20.967 8.33a.09.09 0 00.08-.092.087.087 0 00-.088-.085H6.52l-.141-.003z" fill="#fff"/></svg>