<?xml version="1.0" encoding="UTF-8" standalone="no"?>
<!DOCTYPE svg PUBLIC "-//W3C//DTD SVG 1.1//EN" "http://www.w3.org/Graphics/SVG/1.1/DTD/svg11.dtd">
<svg width="100%" height="100%" viewBox="0 0 32 32" version="1.1" xmlns="http://www.w3.org/2000/svg" xmlns:xlink="http://www.w3.org/1999/xlink" xml:space="preserve" xmlns:serif="http://www.serif.com/" style="fill-rule:evenodd;clip-rule:evenodd;stroke-linecap:round;stroke-linejoin:round;stroke-miterlimit:5;">
    <g transform="matrix(1,0,0,1,-128,-128)">
        <g id="unknown">
        </g>
        <g id="plumbing">
        </g>
        <g id="genetics">
        </g>
        <g id="surgery">
        </g>
        <g id="trauma">
        </g>
        <g id="wound">
        </g>
        <g id="power">
        </g>
        <g id="solar">
        </g>
        <g transform="matrix(-0.836256,-0.845147,0.836256,-0.845147,371.793,207.877)">
            <g id="machines">
            </g>
        </g>
        <g id="supermatter">
        </g>
        <g id="shield">
        </g>
        <g id="turbine">
        </g>
        <g id="tcomm">
        </g>
        <g id="atmos">
        </g>
        <g id="xeno">
        </g>
        <g id="nanites">
        </g>
        <g id="aimod">
        </g>
        <g id="tips">
        </g>
        <g id="races">
        </g>
        <g id="food">
        </g>
        <g id="hydro">
        </g>
        <g id="song">
        </g>
        <g id="crate">
        </g>
        <g transform="matrix(0.744575,0.744575,-0.744575,0.744575,139.866,-50.6509)">
            <g id="space">
                <path d="M107.409,144.417C108.121,141.075 109.325,136.518 110.236,134.278C110.599,133.386 110.986,132.808 111.246,132.603C111.519,132.388 111.793,132.327 112.03,132.334C112.253,132.34 112.528,132.413 112.797,132.66C113.023,132.869 113.371,133.443 113.712,134.31C114.593,136.549 115.822,141.06 116.559,144.385L119.629,147.394C119.774,147.536 119.872,147.719 119.911,147.918L120.982,153.459C121.071,153.92 120.827,154.382 120.395,154.567C119.963,154.753 119.46,154.613 119.186,154.23L116.527,150.509C116.367,150.777 116.18,151.03 115.971,151.263C113.342,150.736 110.696,150.744 108.033,151.268C107.822,151.033 107.634,150.779 107.473,150.51L104.814,154.23C104.54,154.613 104.037,154.753 103.605,154.567C103.173,154.382 102.929,153.92 103.018,153.459L104.089,147.918C104.128,147.719 104.226,147.536 104.371,147.394L107.409,144.417ZM114.761,148.694L109.369,148.694C108.974,148.694 108.326,149.19 108.654,149.409C108.714,149.449 108.873,149.59 109.071,149.512C110.425,148.976 113.966,149.166 115.089,149.508C115.305,149.574 115.453,149.446 115.476,149.409C115.681,149.072 115.156,148.694 114.761,148.694ZM112,138.511C113.277,138.511 114.313,139.548 114.313,140.824C114.313,142.101 113.277,143.138 112,143.138C110.723,143.138 109.687,142.101 109.687,140.824C109.687,139.548 110.723,138.511 112,138.511ZM112,139.514C112.723,139.514 113.31,140.101 113.31,140.824C113.31,141.547 112.723,142.134 112,142.134C111.277,142.134 110.69,141.547 110.69,140.824C110.69,140.101 111.277,139.514 112,139.514Z" style="fill:white;"/>
            </g>
        </g>
        <g id="aux">
        </g>
        <g id="security">
            <g transform="matrix(0.99376,0,0,1.1459,0.897622,-21.0089)">
                <path d="M144,133.333C149.337,137.01 152.046,137.019 154.735,137.019C154.735,153.279 144.401,154.667 144,154.667C143.599,154.667 133.267,153.332 133.267,137.453C136.021,137.453 138.601,137.035 144,133.333Z" style="fill:none;stroke:white;stroke-width:1.86px;"/>
            </g>
            <g transform="matrix(0.99376,0,0,1.1459,0.897622,-21.0089)">
                <path d="M151.519,144C149.77,150.967 144.252,152.698 144,152.698L144,152.698L144,144.789C144,144.58 144.096,144.379 144.267,144.231C144.437,144.083 144.669,144 144.91,144L151.519,144ZM144,136L144,143.211C144,143.42 143.904,143.621 143.733,143.769C143.563,143.917 143.331,144 143.09,144L136.507,144C136.164,142.654 135.959,141.111 135.951,139.346C138.016,139.346 139.951,138.776 144,136Z" style="fill:white;"/>
            </g>
        </g>
        <g transform="matrix(1.14906,0,0,1.14906,-25.0422,-23.6633)">
            <path d="M171.604,148.03C171.262,150.701 169.546,151.927 168,151.927C166.454,151.927 164.738,150.701 164.396,148.03L171.604,148.03ZM165.247,148.869C165.247,148.869 165.553,151.204 167.624,151.204C167.832,151.204 168,151.035 168,150.828C168,150.621 167.832,150.452 167.624,150.452C166.172,150.452 165.993,148.778 165.993,148.778C165.968,148.573 165.781,148.426 165.575,148.451C165.369,148.475 165.222,148.663 165.247,148.869ZM171.525,146.03L170.622,146.03L168.481,140.268C168.406,140.067 168.214,139.934 168,139.934C167.786,139.934 167.594,140.067 167.519,140.268C166.762,142.305 165.378,146.03 165.378,146.03L164.475,146.03L166.478,140.021C166.697,139.366 167.31,138.924 168,138.924C168.69,138.924 169.303,139.366 169.522,140.021L171.525,146.03Z" style="fill:white;"/>
        </g>
    </g>
</svg>
