<?xml version="1.0" encoding="UTF-8" standalone="no"?>
<!DOCTYPE svg PUBLIC "-//W3C//DTD SVG 1.1//EN" "http://www.w3.org/Graphics/SVG/1.1/DTD/svg11.dtd">
<svg width="100%" height="100%" viewBox="0 0 32 32" version="1.1" xmlns="http://www.w3.org/2000/svg" xmlns:xlink="http://www.w3.org/1999/xlink" xml:space="preserve" xmlns:serif="http://www.serif.com/" style="fill-rule:evenodd;clip-rule:evenodd;stroke-linecap:round;stroke-linejoin:round;stroke-miterlimit:10;">
    <g transform="matrix(1,0,0,1,0,-64)">
        <g id="unknown">
        </g>
        <g id="plumbing">
        </g>
        <g id="genetics">
        </g>
        <g id="surgery">
        </g>
        <g id="trauma">
        </g>
        <g id="wound">
        </g>
        <g id="power">
        </g>
        <g id="solar">
        </g>
        <g transform="matrix(-0.836256,-0.845147,0.836256,-0.845147,371.793,207.877)">
            <g id="machines">
            </g>
        </g>
        <g id="supermatter">
        </g>
        <g id="shield">
            <path d="M19.501,78.88L19.938,86.143L23.976,86.143C24.474,86.143 24.879,86.547 24.879,87.045L24.879,91.861C24.879,92.359 24.474,92.764 23.976,92.764L8.024,92.764C7.526,92.764 7.121,92.359 7.121,91.861L7.121,87.045C7.121,86.547 7.526,86.143 8.024,86.143L12.062,86.143L12.499,78.88C13.479,79.105 14.69,79.239 16,79.239C17.31,79.239 18.521,79.105 19.501,78.88ZM12.954,81.448C12.964,81.224 13.155,81.05 13.379,81.061L14.192,81.099C14.416,81.109 14.59,81.299 14.579,81.524L14.222,89.21C14.212,89.434 14.022,89.608 13.797,89.597L12.985,89.56C12.761,89.549 12.587,89.359 12.597,89.135L12.954,81.448ZM19.046,81.448C19.036,81.224 18.845,81.05 18.621,81.061L17.808,81.099C17.584,81.109 17.41,81.299 17.421,81.524L17.778,89.21C17.788,89.434 17.978,89.608 18.203,89.597L19.015,89.56C19.239,89.549 19.413,89.359 19.403,89.135L19.046,81.448ZM13.785,81.856C13.789,81.762 13.869,81.689 13.963,81.693L14.305,81.709C14.399,81.713 14.472,81.793 14.468,81.888L14.146,88.827C14.141,88.921 14.061,88.994 13.967,88.99L13.625,88.974C13.531,88.969 13.458,88.889 13.463,88.795L13.785,81.856ZM18.215,81.856C18.211,81.762 18.131,81.689 18.037,81.693L17.695,81.709C17.601,81.713 17.528,81.793 17.532,81.888L17.854,88.827C17.859,88.921 17.939,88.994 18.033,88.99L18.375,88.974C18.469,88.969 18.542,88.889 18.537,88.795L18.215,81.856ZM19.242,74.567C20.854,74.898 21.919,75.468 21.919,76.115C21.919,77.136 19.267,77.966 16,77.966C12.733,77.966 10.081,77.136 10.081,76.115C10.081,75.468 11.146,74.898 12.758,74.567L12.924,71.801C13.821,71.972 14.874,72.071 16,72.071C17.126,72.071 18.179,71.972 19.076,71.801L19.242,74.567ZM16,67.236C19.267,67.236 21.919,68.065 21.919,69.087C21.919,70.108 19.267,70.938 16,70.938C12.733,70.938 10.081,70.108 10.081,69.087C10.081,68.065 12.733,67.236 16,67.236Z" style="fill:white;"/>
            <g transform="matrix(0.77698,0,0,0.77698,1.67805,16.8457)">
                <path d="M7.21,83.833C6.174,83.833 5.333,80.115 5.333,75.535C5.333,70.955 6.174,67.236 7.21,67.236" style="fill:none;stroke:white;stroke-width:1.29px;"/>
            </g>
            <g transform="matrix(1,0,0,1,-0.938386,0)">
                <path d="M7.21,83.833C6.174,83.833 5.333,80.115 5.333,75.535C5.333,70.955 6.174,67.236 7.21,67.236" style="fill:none;stroke:white;stroke-width:1px;"/>
            </g>
            <g transform="matrix(-0.77698,-9.51525e-17,9.51525e-17,-0.77698,30.2918,134.223)">
                <path d="M7.21,83.833C6.174,83.833 5.333,80.115 5.333,75.535C5.333,70.955 6.174,67.236 7.21,67.236" style="fill:none;stroke:white;stroke-width:1.29px;"/>
            </g>
            <g transform="matrix(-1,-1.22465e-16,1.22465e-16,-1,32.9384,151.069)">
                <path d="M7.21,83.833C6.174,83.833 5.333,80.115 5.333,75.535C5.333,70.955 6.174,67.236 7.21,67.236" style="fill:none;stroke:white;stroke-width:1px;"/>
            </g>
        </g>
        <g id="turbine">
        </g>
        <g id="tcomm">
        </g>
        <g id="atmos">
        </g>
        <g id="xeno">
        </g>
        <g id="nanites">
        </g>
        <g id="aimod">
        </g>
        <g id="tips">
        </g>
    </g>
</svg>
