<svg viewBox="0 0 32 32" xmlns="http://www.w3.org/2000/svg" fill-rule="evenodd" clip-rule="evenodd" stroke-linecap="round" stroke-linejoin="round" stroke-miterlimit="10"><path d="M19.501 14.88l.437 7.263h4.038c.498 0 .903.404.903.902v4.816a.904.904 0 01-.903.903H8.024a.904.904 0 01-.903-.903v-4.816c0-.498.405-.902.903-.902h4.038l.437-7.263c.98.225 2.191.359 3.501.359s2.521-.134 3.501-.359zm-6.547 2.568a.406.406 0 01.425-.387l.813.038c.224.01.398.2.387.425l-.357 7.686a.405.405 0 01-.425.387l-.812-.037a.408.408 0 01-.388-.425l.357-7.687zm6.092 0a.406.406 0 00-.425-.387l-.813.038a.405.405 0 00-.387.425l.357 7.686c.01.224.2.398.425.387l.812-.037a.408.408 0 00.388-.425l-.357-7.687zm-5.261.408a.17.17 0 01.178-.163l.342.016a.171.171 0 01.163.179l-.322 6.939a.172.172 0 01-.179.163l-.342-.016a.17.17 0 01-.162-.179l.322-6.939zm4.43 0a.17.17 0 00-.178-.163l-.342.016a.171.171 0 00-.163.179l.322 6.939a.172.172 0 00.179.163l.342-.016a.17.17 0 00.162-.179l-.322-6.939zm1.027-7.289c1.612.331 2.677.901 2.677 1.548 0 1.021-2.652 1.851-5.919 1.851-3.267 0-5.919-.83-5.919-1.851 0-.647 1.065-1.217 2.677-1.548l.166-2.766c.897.171 1.95.27 3.076.27 1.126 0 2.179-.099 3.076-.27l.166 2.766zM16 3.236c3.267 0 5.919.829 5.919 1.851 0 1.021-2.652 1.851-5.919 1.851-3.267 0-5.919-.83-5.919-1.851 0-1.022 2.652-1.851 5.919-1.851z" fill="#fff"/><path d="M7.28 17.982c-.805 0-1.458-2.889-1.458-6.447 0-3.559.653-6.448 1.458-6.448" fill="none" stroke="#fff" stroke-width="1.0023042"/><path d="M6.272 19.833c-1.036 0-1.877-3.718-1.877-8.298s.84-8.299 1.877-8.299" fill="none" stroke="#fff"/><path d="M24.69 5.086c.805 0 1.458 2.89 1.458 6.448 0 3.558-.653 6.448-1.458 6.448" fill="none" stroke="#fff" stroke-width="1.0023042"/><path d="M25.728 3.236c1.036 0 1.877 3.718 1.877 8.298s-.84 8.299-1.877 8.299" fill="none" stroke="#fff"/></svg>