<?xml version="1.0" encoding="UTF-8" standalone="no"?>
<!DOCTYPE svg PUBLIC "-//W3C//DTD SVG 1.1//EN" "http://www.w3.org/Graphics/SVG/1.1/DTD/svg11.dtd">
<svg width="100%" height="100%" viewBox="0 0 32 32" version="1.1" xmlns="http://www.w3.org/2000/svg" xmlns:xlink="http://www.w3.org/1999/xlink" xml:space="preserve" xmlns:serif="http://www.serif.com/" style="fill-rule:evenodd;clip-rule:evenodd;stroke-linecap:round;stroke-linejoin:round;stroke-miterlimit:5;">
    <g transform="matrix(1,0,0,1,0,-128)">
        <g id="unknown">
        </g>
        <g id="plumbing">
        </g>
        <g id="genetics">
        </g>
        <g id="surgery">
        </g>
        <g id="trauma">
        </g>
        <g id="wound">
        </g>
        <g id="power">
        </g>
        <g id="solar">
        </g>
        <g transform="matrix(-0.836256,-0.845147,0.836256,-0.845147,371.793,207.877)">
            <g id="machines">
            </g>
        </g>
        <g id="supermatter">
        </g>
        <g id="shield">
        </g>
        <g id="turbine">
        </g>
        <g id="tcomm">
        </g>
        <g id="atmos">
        </g>
        <g id="xeno">
        </g>
        <g id="nanites">
        </g>
        <g id="aimod">
        </g>
        <g id="tips">
        </g>
        <g id="races">
        </g>
        <g id="food">
        </g>
        <g id="hydro">
        </g>
        <g id="song">
            <g transform="matrix(1.14426,0,0,1.30772,-0.78242,-46.0195)">
                <path d="M24,136L24,150" style="fill:none;stroke:white;stroke-width:1.63px;"/>
            </g>
            <g transform="matrix(1.14426,0,0,1.30772,-15.216,-41.3401)">
                <path d="M24,136L24,149.333" style="fill:none;stroke:white;stroke-width:1.63px;"/>
            </g>
            <g transform="matrix(1.14426,0,0,1.14426,0.0407531,-20.7729)">
                <ellipse cx="7.64" cy="152.692" rx="3.026" ry="1.974" style="fill:white;stroke:white;stroke-width:1.75px;"/>
            </g>
            <g transform="matrix(1.14426,0,0,1.14426,14.4743,-24.5805)">
                <ellipse cx="7.64" cy="152.692" rx="3.026" ry="1.974" style="fill:white;stroke:white;stroke-width:1.75px;"/>
            </g>
            <g transform="matrix(1.14426,0,0,1.14426,-0.78242,-22.6587)">
                <path d="M11.386,139.023C16.139,139.003 20.328,137.585 24,134.981L24,139.082C19.795,139.026 15.591,140.359 11.386,143.123L11.386,139.023Z" style="fill:white;stroke:white;stroke-width:1.75px;"/>
            </g>
        </g>
        <g id="crate">
        </g>
        <g id="space">
        </g>
        <g id="aux">
        </g>
        <g id="security">
        </g>
        <g id="law">
        </g>
        <g id="sop">
        </g>
    </g>
</svg>
