<?xml version="1.0" encoding="UTF-8" standalone="no"?>
<!DOCTYPE svg PUBLIC "-//W3C//DTD SVG 1.1//EN" "http://www.w3.org/Graphics/SVG/1.1/DTD/svg11.dtd">
<svg width="100%" height="100%" viewBox="0 0 32 32" version="1.1" xmlns="http://www.w3.org/2000/svg" xmlns:xlink="http://www.w3.org/1999/xlink" xml:space="preserve" xmlns:serif="http://www.serif.com/" style="fill-rule:evenodd;clip-rule:evenodd;stroke-linejoin:round;stroke-miterlimit:2;">
    <g transform="matrix(1,0,0,1,-192,-128)">
        <g id="unknown">
        </g>
        <g id="plumbing">
        </g>
        <g id="genetics">
        </g>
        <g id="surgery">
        </g>
        <g id="trauma">
        </g>
        <g id="wound">
        </g>
        <g id="power">
        </g>
        <g id="solar">
        </g>
        <g transform="matrix(-0.836256,-0.845147,0.836256,-0.845147,371.793,207.877)">
            <g id="machines">
            </g>
        </g>
        <g id="supermatter">
        </g>
        <g id="shield">
        </g>
        <g id="turbine">
        </g>
        <g id="tcomm">
        </g>
        <g id="atmos">
        </g>
        <g id="xeno">
        </g>
        <g id="nanites">
        </g>
        <g id="aimod">
        </g>
        <g id="tips">
        </g>
        <g id="races">
        </g>
        <g transform="matrix(-0.919427,1.41035,-1.41035,-0.919427,545.108,-83.547)">
            <g id="food">
                <path d="M205.932,100.694L206.563,95.122C206.584,94.94 206.704,94.784 206.875,94.718C206.875,94.718 207.863,94.344 208.61,94.386C209.04,94.41 209.397,94.569 209.603,94.863C209.744,95.064 209.829,95.338 209.782,95.719C209.667,96.64 209.145,98.888 208.788,100.371L209.265,100.431C209.265,100.431 208.881,110.034 208.042,111.426C206.04,114.746 203.475,113.939 203.475,113.939L205.932,100.694ZM204.531,112.661C204.531,112.665 204.53,112.664 204.535,112.664L204.537,112.656C204.599,112.6 205.145,112.261 205.573,110.954C206.183,109.088 206.684,105.553 206.602,101.333L204.537,112.656L204.531,112.661ZM209.992,103.444C211.774,103.856 213.149,104.178 213.251,104.209C214.826,104.691 215.557,104.918 215.569,106.212C215.584,107.828 213.635,108.773 212.06,108.411L211.883,108.371L212.111,108.231C212.562,107.975 213.004,107.702 213.438,107.417C213.694,107.25 213.783,106.949 213.639,106.741C213.495,106.532 213.17,106.493 212.91,106.653L211.612,107.449C211.236,107.661 210.853,107.862 210.46,108.044L209.633,107.854L209.726,106.926C209.916,106.809 210.105,106.688 210.292,106.566C210.547,106.399 210.636,106.098 210.492,105.89C210.36,105.698 210.075,105.65 209.827,105.768L209.875,105.157C209.892,104.935 209.908,104.712 209.924,104.489L209.992,103.444ZM200.329,105.719L200.322,105.718C198.747,105.356 197.718,103.773 198.123,102.209C198.401,101.135 199.542,101.142 201.454,101.504C201.755,101.56 203.053,101.852 204.685,102.224L203.914,106.38L203.673,106.487L201.87,106.073L202.562,105.648C203.013,105.392 203.455,105.119 203.889,104.834C204.145,104.667 204.234,104.366 204.09,104.158C203.946,103.95 203.621,103.911 203.361,104.071L202.063,104.866C201.504,105.183 200.928,105.472 200.329,105.719ZM207.807,100.25C208.159,98.798 208.691,96.521 208.806,95.599C208.815,95.526 208.823,95.469 208.798,95.429C208.768,95.381 208.702,95.384 208.639,95.375C208.529,95.36 208.408,95.363 208.286,95.375C208,95.403 207.709,95.478 207.505,95.541L206.983,100.149L207.807,100.25Z" style="fill:white;"/>
            </g>
        </g>
        <g id="hydro">
        </g>
        <g id="song">
        </g>
        <g id="crate">
        </g>
        <g id="space">
        </g>
        <g id="aux">
        </g>
        <g id="security">
        </g>
        <g id="law">
        </g>
        <g id="sop">
            <path d="M205.639,137.265C206.086,136.37 207,135.806 208,135.806C209,135.806 209.914,136.37 210.361,137.265C212.285,141.112 214.966,146.476 216.757,150.057C217.166,150.875 217.122,151.846 216.641,152.625C216.16,153.403 215.311,153.876 214.396,153.876C210.68,153.876 205.32,153.876 201.604,153.876C200.689,153.876 199.84,153.403 199.359,152.625C198.878,151.846 198.834,150.875 199.243,150.057C201.034,146.476 203.715,141.112 205.639,137.265ZM206.593,149.869C206.86,149.261 207.404,148.877 208,148.877C208.596,148.877 209.14,149.261 209.407,149.869C209.407,149.869 209.407,149.87 209.408,149.871C209.605,150.32 209.584,150.854 209.352,151.281C209.121,151.708 208.712,151.968 208.271,151.968C208.091,151.968 207.909,151.968 207.729,151.968C207.288,151.968 206.879,151.708 206.648,151.281C206.416,150.854 206.395,150.32 206.592,149.871C206.593,149.87 206.593,149.869 206.593,149.869ZM208,147.616C206.295,147.616 206.463,144.003 206.463,141.789C206.463,140.37 206.9,139.062 208,139.062C209.1,139.062 209.537,140.292 209.537,141.773C209.537,143.987 209.705,147.616 208,147.616Z" style="fill:white;"/>
            <path d="M203.734,133.303L195.17,150.43C194.431,151.909 194.51,153.665 195.379,155.071C196.248,156.477 197.783,157.333 199.437,157.333C204.3,157.333 211.7,157.333 216.563,157.333C218.217,157.333 219.752,156.477 220.621,155.071C221.49,153.665 221.569,151.909 220.83,150.43C218.49,145.751 214.787,138.345 212.266,133.303C211.458,131.687 209.807,130.667 208,130.667C206.193,130.667 204.542,131.687 203.734,133.303ZM205.639,134.269C206.086,133.375 207,132.81 208,132.81C209,132.81 209.914,133.375 210.361,134.269C212.807,139.161 216.582,146.712 218.847,151.242C219.256,152.06 219.212,153.031 218.731,153.81C218.25,154.588 217.401,155.061 216.486,155.061C211.772,155.061 204.228,155.061 199.514,155.061C198.599,155.061 197.75,154.588 197.269,153.81C196.788,153.031 196.744,152.06 197.153,151.242C199.418,146.712 203.193,139.161 205.639,134.269Z" style="fill:white;"/>
        </g>
    </g>
</svg>
