<svg viewBox="0 0 32 32" xmlns="http://www.w3.org/2000/svg" fill-rule="evenodd" clip-rule="evenodd" stroke-linejoin="round" stroke-miterlimit="2"><path d="M21.755-13.692l7.278 6.013c.237.197.347.51.283.812 0 0-.38 1.737-1.127 2.752-.43.584-.982.942-1.586.962-.413.014-.877-.118-1.372-.535-1.193-1.009-3.883-3.812-5.647-5.679l-.523.618S5.871-18.12 4.68-20.583c-2.842-5.876.655-8.752.655-8.752l16.42 15.643zM6.165-26.67c-.005-.004-.003-.004-.008.003l.01.01c.022.139-.002 1.22 1.448 3.026 2.07 2.576 6.595 6.533 12.623 10.297L6.167-26.657l-.002-.013zm7.978 16.176c-2.219 2.134-3.937 3.778-4.075 3.893-2.128 1.778-3.12 2.6-4.956 1.428-2.293-1.465-1.834-5.083.125-6.971l.219-.213-.012.45a40.478 40.478 0 00-.072 2.62c0 .515.343.917.768.905.428-.01.781-.433.795-.947l.07-2.563c.047-.725.116-1.45.22-2.171l1.029-.992 1.223.984c-.01.376-.013.754-.013 1.13.002.513.344.915.77.903.392-.01.722-.367.783-.825l.818.629c.298.228.597.456.897.683l1.411 1.057zm5.676-15.72l.008-.009c1.959-1.888 5.137-1.884 6.97.125 1.26 1.38.201 2.982-2.067 5.346-.356.373-1.961 1.935-3.987 3.895l-5.152-4.909.07-.438 2.242-2.162-.037 1.367a40.478 40.478 0 00-.072 2.62c0 .514.343.917.769.905.426-.012.78-.435.793-.949l.072-2.561a26.07 26.07 0 01.391-3.23zm.838 15.575c1.724 1.831 4.446 4.675 5.641 5.685.095.08.168.144.247.145.095.002.152-.094.223-.174.122-.142.229-.315.324-.498a6.96 6.96 0 00.484-1.254l-6.019-4.973-.9 1.069z" fill="#fff"/><g fill="#fff"><path d="M13.639 9.265a2.638 2.638 0 014.722 0l6.396 12.792a2.64 2.64 0 01-2.361 3.819H9.604a2.638 2.638 0 01-2.361-3.819l6.396-12.792zm.954 12.604c.267-.608.811-.992 1.407-.992s1.14.384 1.407.992l.001.002c.197.449.176.983-.056 1.41-.231.427-.64.687-1.081.687h-.542c-.441 0-.85-.26-1.081-.687a1.626 1.626 0 01-.056-1.41l.001-.002zM16 19.616c-1.705 0-1.537-3.613-1.537-5.827 0-1.419.437-2.727 1.537-2.727 1.1 0 1.537 1.23 1.537 2.711 0 2.214.168 5.843-1.537 5.843z"/><path d="M11.734 5.303L3.17 22.43a4.771 4.771 0 004.267 6.903h17.126a4.77 4.77 0 004.267-6.903L20.266 5.303a4.768 4.768 0 00-8.532 0zm1.905.966a2.64 2.64 0 014.722 0l8.486 16.973a2.64 2.64 0 01-2.361 3.819H7.514a2.638 2.638 0 01-2.361-3.819l8.486-16.973z"/></g></svg>