<svg viewBox="0 0 32 32" xmlns="http://www.w3.org/2000/svg" fill-rule="evenodd" clip-rule="evenodd" stroke-linecap="round" stroke-linejoin="round" stroke-miterlimit="5"><path d="M16.311 8.853c3.019-1.958 7.308-4.455 9.654-5.445.935-.393 1.653-.536 2-.495a1.22 1.22 0 011.112 1.197c.013.325-.156 1.011-.547 1.91-1.012 2.324-3.455 6.597-5.382 9.622l.045 4.526c.002.214-.06.423-.18.6l-3.328 4.923a1.052 1.052 0 01-1.912-.763l.791-4.75c-.318.08-.646.13-.975.147-1.565-2.35-3.541-4.314-5.914-5.906.017-.333.067-.662.147-.982l-4.75.79a1.053 1.053 0 01-.763-1.911l4.923-3.328c.178-.12.387-.183.6-.18l4.48.045zm2.29 8.659l-4.015-4.015c-.294-.294-1.146-.408-1.065 0 .015.074.028.298.234.387 1.407.609 3.902 3.387 4.484 4.478.111.21.317.225.362.214.403-.098.294-.77 0-1.064zm5.526-9.638a2.437 2.437 0 01-3.445 3.445 2.437 2.437 0 013.445-3.445zm-.747.747a1.38 1.38 0 11-1.953 1.95 1.38 1.38 0 011.953-1.95z" fill="#fff"/><path d="M9.707 16.677l-5.616 5.616M9.707 22.293L4.091 27.91M15.323 22.293L9.707 27.91" fill="none" stroke="#fff" stroke-width="2.000681"/></svg>