<?xml version="1.0" encoding="UTF-8" standalone="no"?>
<!DOCTYPE svg PUBLIC "-//W3C//DTD SVG 1.1//EN" "http://www.w3.org/Graphics/SVG/1.1/DTD/svg11.dtd">
<svg width="100%" height="100%" viewBox="0 0 32 32" version="1.1" xmlns="http://www.w3.org/2000/svg" xmlns:xlink="http://www.w3.org/1999/xlink" xml:space="preserve" xmlns:serif="http://www.serif.com/" style="fill-rule:evenodd;clip-rule:evenodd;stroke-linecap:round;stroke-linejoin:round;stroke-miterlimit:5;">
    <g transform="matrix(1,0,0,1,-96,-128)">
        <g id="unknown">
        </g>
        <g id="plumbing">
        </g>
        <g id="genetics">
        </g>
        <g id="surgery">
        </g>
        <g id="trauma">
        </g>
        <g id="wound">
        </g>
        <g id="power">
        </g>
        <g id="solar">
        </g>
        <g transform="matrix(-0.836256,-0.845147,0.836256,-0.845147,371.793,207.877)">
            <g id="machines">
            </g>
        </g>
        <g id="supermatter">
        </g>
        <g id="shield">
        </g>
        <g id="turbine">
        </g>
        <g id="tcomm">
        </g>
        <g id="atmos">
        </g>
        <g id="xeno">
        </g>
        <g id="nanites">
        </g>
        <g id="aimod">
        </g>
        <g id="tips">
        </g>
        <g id="races">
        </g>
        <g id="food">
        </g>
        <g id="hydro">
        </g>
        <g id="song">
        </g>
        <g id="crate">
        </g>
        <g id="space" transform="matrix(1.05299,0,0,1.05299,-6.61189,-6.95309)">
            <g transform="matrix(0.707107,0.707107,-0.707107,0.707107,139.107,-41.4988)">
                <path d="M107.409,144.417C108.121,141.075 109.325,136.518 110.236,134.278C110.599,133.386 110.986,132.808 111.246,132.603C111.519,132.388 111.793,132.327 112.03,132.334C112.253,132.34 112.528,132.413 112.797,132.66C113.023,132.869 113.371,133.443 113.712,134.31C114.593,136.549 115.822,141.06 116.559,144.385L119.629,147.394C119.774,147.536 119.872,147.719 119.911,147.918L120.982,153.459C121.071,153.92 120.827,154.382 120.395,154.567C119.963,154.753 119.46,154.613 119.186,154.23L116.527,150.509C116.367,150.777 116.18,151.03 115.971,151.263C113.342,150.736 110.696,150.744 108.033,151.268C107.822,151.033 107.634,150.779 107.473,150.51L104.814,154.23C104.54,154.613 104.037,154.753 103.605,154.567C103.173,154.382 102.929,153.92 103.018,153.459L104.089,147.918C104.128,147.719 104.226,147.536 104.371,147.394L107.409,144.417ZM114.761,148.694L109.369,148.694C108.974,148.694 108.326,149.19 108.654,149.409C108.714,149.449 108.873,149.59 109.071,149.512C110.425,148.976 113.966,149.166 115.089,149.508C115.305,149.574 115.453,149.446 115.476,149.409C115.681,149.072 115.156,148.694 114.761,148.694ZM112,138.511C113.277,138.511 114.313,139.548 114.313,140.824C114.313,142.101 113.277,143.138 112,143.138C110.723,143.138 109.687,142.101 109.687,140.824C109.687,139.548 110.723,138.511 112,138.511ZM112,139.514C112.723,139.514 113.31,140.101 113.31,140.824C113.31,141.547 112.723,142.134 112,142.134C111.277,142.134 110.69,141.547 110.69,140.824C110.69,140.101 111.277,139.514 112,139.514Z" style="fill:white;"/>
            </g>
            <path d="M106.667,144L101.333,149.333" style="fill:none;stroke:white;stroke-width:1.9px;"/>
            <g transform="matrix(1,0,0,1,1.42109e-14,5.33333)">
                <path d="M106.667,144L101.333,149.333" style="fill:none;stroke:white;stroke-width:1.9px;"/>
            </g>
            <g transform="matrix(1,0,0,1,5.33333,5.33333)">
                <path d="M106.667,144L101.333,149.333" style="fill:none;stroke:white;stroke-width:1.9px;"/>
            </g>
        </g>
        <g id="aux">
        </g>
        <g id="security">
        </g>
        <g id="law">
        </g>
        <g id="sop">
        </g>
    </g>
</svg>
