<?xml version="1.0" encoding="UTF-8" standalone="no"?>
<!DOCTYPE svg PUBLIC "-//W3C//DTD SVG 1.1//EN" "http://www.w3.org/Graphics/SVG/1.1/DTD/svg11.dtd">
<svg width="100%" height="100%" viewBox="0 0 32 32" version="1.1" xmlns="http://www.w3.org/2000/svg" xmlns:xlink="http://www.w3.org/1999/xlink" xml:space="preserve" xmlns:serif="http://www.serif.com/" style="fill-rule:evenodd;clip-rule:evenodd;stroke-linejoin:round;stroke-miterlimit:2;">
    <g transform="matrix(1,0,0,1,-96,-128)">
        <g id="unknown">
        </g>
        <g id="plumbing">
        </g>
        <g id="genetics">
        </g>
        <g id="surgery">
        </g>
        <g id="trauma">
        </g>
        <g id="wound">
        </g>
        <g id="power">
        </g>
        <g id="solar">
        </g>
        <g id="machines">
        </g>
        <g id="supermatter">
        </g>
        <g id="shield">
        </g>
        <g id="turbine">
        </g>
        <g id="tcomm">
        </g>
        <g id="atmos">
        </g>
        <g id="xeno">
        </g>
        <g id="nanites">
        </g>
        <g id="aimod">
        </g>
        <g id="tips">
        </g>
        <g id="races">
        </g>
        <g id="food">
        </g>
        <g id="hydro">
        </g>
        <g id="song">
        </g>
        <g id="crate">
        </g>
        <g id="space" transform="matrix(1.05299,0,0,1.05299,-6.61189,-6.95309)">
            <g transform="matrix(0.707107,0.707107,-0.707107,0.707107,139.107,-41.4988)">
                <path d="M107.409,144.417L104.371,147.394C104.226,147.536 104.128,147.719 104.089,147.918L103.018,153.459C102.929,153.92 103.173,154.382 103.605,154.567C104.037,154.753 104.54,154.613 104.814,154.23L107.473,150.51C107.634,150.779 107.822,151.033 108.033,151.268C110.696,150.744 113.342,150.736 115.971,151.263C116.18,151.03 116.367,150.777 116.527,150.509L119.186,154.23C119.46,154.613 119.963,154.753 120.395,154.567C120.827,154.382 121.071,153.92 120.982,153.459L119.911,147.918C119.872,147.719 119.774,147.536 119.629,147.394L116.559,144.385C115.822,141.06 114.593,136.549 113.712,134.31C113.371,133.443 113.023,132.869 112.797,132.66C112.528,132.413 112.253,132.34 112.03,132.334C111.793,132.327 111.519,132.388 111.246,132.603C110.986,132.808 110.599,133.386 110.236,134.278C109.325,136.518 108.121,141.075 107.409,144.417ZM114.761,148.694L109.369,148.694C108.974,148.694 108.326,149.19 108.654,149.409C108.714,149.449 108.873,149.59 109.071,149.512C110.425,148.976 113.966,149.166 115.089,149.508C115.305,149.574 115.453,149.446 115.476,149.409C115.681,149.072 115.156,148.694 114.761,148.694ZM112,138.511C113.277,138.511 114.313,139.548 114.313,140.824C114.313,142.101 113.277,143.138 112,143.138C110.723,143.138 109.687,142.101 109.687,140.824C109.687,139.548 110.723,138.511 112,138.511ZM112,139.514C112.723,139.514 113.31,140.101 113.31,140.824C113.31,141.547 112.723,142.134 112,142.134C111.277,142.134 110.69,141.547 110.69,140.824C110.69,140.101 111.277,139.514 112,139.514Z" style="fill:white;"/>
            </g>
            <path d="M105.995,143.328C105.995,143.328 105.043,144.373 103.987,145.587C102.599,147.181 101.044,149.044 101.044,149.044C100.884,149.204 100.884,149.463 101.044,149.623C101.204,149.783 101.463,149.783 101.623,149.623C101.623,149.623 103.485,148.067 105.08,146.68C106.293,145.624 107.338,144.672 107.338,144.672C107.709,144.301 107.709,143.699 107.338,143.328C106.968,142.958 106.366,142.958 105.995,143.328Z" style="fill:white;"/>
            <g transform="matrix(1,0,0,1,1.42109e-14,5.33333)">
                <path d="M105.995,143.328C105.995,143.328 105.043,144.373 103.987,145.587C102.599,147.181 101.044,149.044 101.044,149.044C100.884,149.204 100.884,149.463 101.044,149.623C101.204,149.783 101.463,149.783 101.623,149.623C101.623,149.623 103.485,148.067 105.08,146.68C106.293,145.624 107.338,144.672 107.338,144.672C107.709,144.301 107.709,143.699 107.338,143.328C106.968,142.958 106.366,142.958 105.995,143.328Z" style="fill:white;"/>
            </g>
            <g transform="matrix(1,0,0,1,5.33333,5.33333)">
                <path d="M105.995,143.328C105.995,143.328 105.043,144.373 103.987,145.587C102.599,147.181 101.044,149.044 101.044,149.044C100.884,149.204 100.884,149.463 101.044,149.623C101.204,149.783 101.463,149.783 101.623,149.623C101.623,149.623 103.485,148.067 105.08,146.68C106.293,145.624 107.338,144.672 107.338,144.672C107.709,144.301 107.709,143.699 107.338,143.328C106.968,142.958 106.366,142.958 105.995,143.328Z" style="fill:white;"/>
            </g>
        </g>
        <g id="aux">
        </g>
        <g id="security">
        </g>
        <g id="law">
        </g>
        <g id="sop">
        </g>
        <g id="trial">
        </g>
        <g id="traitor">
        </g>
        <g id="tc" transform="matrix(0.900297,-0.519786,0.519786,0.900297,-80.3104,75.7613)">
            <path d="M112.83,163.012C112.327,162.678 111.673,162.678 111.17,163.012L102.452,169.051C102.09,169.292 101.873,169.697 101.873,170.131C101.873,170.131 101.942,173.065 101.939,176C101.935,178.935 101.859,181.869 101.859,181.869C101.859,182.308 102.079,182.717 102.444,182.96L111.182,188.97C111.677,189.299 112.323,189.299 112.818,188.97L121.553,182.955C121.917,182.714 122.135,182.306 122.135,181.869C122.135,181.869 122.055,178.935 122.051,176C122.047,173.065 122.119,170.131 122.119,170.131C122.119,169.7 121.903,169.297 121.544,169.058L112.83,163.012ZM119.558,170.847L112.001,166.04L104.451,170.851C104.43,171.9 104.397,173.95 104.399,176C104.402,178.046 104.44,180.092 104.463,181.143L112,185.982L119.544,181.145C119.568,180.095 119.608,178.048 119.611,176C119.614,173.948 119.58,171.896 119.558,170.847ZM111.5,176.718L111.438,176.814L109.592,180.011C109.298,180.519 109.38,181.142 109.752,181.556L109.765,181.572L109.859,181.664L109.963,181.747L110.077,181.821C110.077,181.821 112.29,183.099 112.29,183.099C112.923,183.464 113.734,183.247 114.1,182.614C114.465,181.981 114.248,181.17 113.615,180.805L112.548,180.189L113.183,179.089L114.25,179.705C114.883,180.07 115.694,179.853 116.059,179.22C116.425,178.587 116.208,177.776 115.574,177.41L113.361,176.132C112.728,175.767 111.917,175.984 111.551,176.617L111.5,176.718ZM109.886,171.622L108.46,174.091C108.095,174.724 108.312,175.534 108.945,175.9C109.578,176.265 110.389,176.048 110.755,175.415L112.18,172.947L112.631,173.207C113.264,173.573 114.075,173.356 114.441,172.723C114.806,172.089 114.589,171.279 113.956,170.913L110.758,169.067C110.125,168.702 109.315,168.919 108.949,169.552C108.584,170.185 108.801,170.996 109.434,171.361L109.886,171.622Z" style="fill:white;"/>
        </g>
        <g id="revolutionary">
        </g>
        <g id="cult">
        </g>
        <g id="nukie">
        </g>
        <g id="malf">
        </g>
        <g id="access">
        </g>
        <g id="xmorph">
        </g>
        <g id="abductor">
        </g>
        <g id="families">
        </g>
        <g id="circuit">
        </g>
        <g id="cyto">
        </g>
    </g>
</svg>
