<?xml version="1.0" encoding="UTF-8" standalone="no"?>
<!DOCTYPE svg PUBLIC "-//W3C//DTD SVG 1.1//EN" "http://www.w3.org/Graphics/SVG/1.1/DTD/svg11.dtd">
<svg width="100%" height="100%" viewBox="0 0 32 32" version="1.1" xmlns="http://www.w3.org/2000/svg" xmlns:xlink="http://www.w3.org/1999/xlink" xml:space="preserve" xmlns:serif="http://www.serif.com/" style="fill-rule:evenodd;clip-rule:evenodd;stroke-linecap:round;stroke-linejoin:round;stroke-miterlimit:10;">
    <g transform="matrix(1,0,0,1,-224,-32)">
        <g id="unknown">
        </g>
        <g id="plumbing">
        </g>
        <g id="genetics">
        </g>
        <g id="surgery">
        </g>
        <g id="trauma">
        </g>
        <g id="wound">
        </g>
        <g id="power">
            <path d="M212.561,37.261C216.736,39.037 219.667,43.179 219.667,48C219.667,54.163 214.877,59.217 208.819,59.635L210.66,57.287C214.705,56.137 217.667,52.412 217.667,48C217.667,44.184 215.45,40.881 212.232,39.32L212.561,37.261ZM206.452,36.439L204.407,39.032C200.848,40.453 198.333,43.935 198.333,48C198.333,51.774 200.501,55.046 203.663,56.629L203.073,58.574C199.093,56.718 196.333,52.679 196.333,48C196.333,42.086 200.744,37.193 206.452,36.439ZM206.478,57.535L206.909,57.601L206.181,58.515L206.478,57.535ZM209.347,38.438L208.988,38.383L208.487,38.358L209.583,36.968L209.347,38.438Z" style="fill:white;"/>
        </g>
        <g id="solar">
        </g>
        <g id="machines" transform="matrix(1.10253,0,0,1.11425,-20.8344,-1.35602)">
            <g transform="matrix(-0.573209,-0.573209,0.573209,-0.573209,318.056,144.399)">
                <path d="M194.929,10.936L194.929,8.475C194.929,7.923 195.376,7.475 195.929,7.475L217.371,7.475L217.371,6.81C217.371,6.258 217.819,5.81 218.371,5.81L220.071,5.81C220.624,5.81 221.071,6.258 221.071,6.81L221.071,25.19C221.071,25.742 220.624,26.19 220.071,26.19L218.371,26.19C217.819,26.19 217.371,25.742 217.371,25.19L217.371,24.525L195.929,24.525C195.376,24.525 194.929,24.077 194.929,23.525L194.929,20.549L197.414,20.549C197.496,20.549 197.55,20.543 197.585,20.525L197.585,22.455C197.585,22.781 197.002,23.115 197.329,23.115C197.655,23.115 197.919,22.851 197.919,22.525L197.919,9.718C197.919,9.392 197.655,9.127 197.329,9.127C197.002,9.127 197.585,9.323 197.585,9.649L197.585,10.956C197.548,10.941 197.494,10.936 197.414,10.936L194.929,10.936ZM218.221,7.56L218.221,24.495C218.221,24.909 218.361,25.245 218.534,25.245C218.706,25.245 218.612,24.909 218.612,24.495L218.612,7.56C218.612,7.147 218.706,6.81 218.534,6.81C218.361,6.81 218.221,7.147 218.221,7.56ZM198.658,9.475L198.658,22.525L217.371,22.525L217.371,9.475L198.658,9.475ZM219.237,16.975L219.237,20.922C219.237,21.248 219.501,21.512 219.827,21.512C220.154,21.512 220.418,21.248 220.418,20.922L220.418,16.975C220.418,16.649 220.154,16.385 219.827,16.385C219.501,16.385 219.237,16.649 219.237,16.975ZM197.585,17.124L197.585,19.388C197.548,19.373 197.494,19.368 197.414,19.368L194.929,19.368L194.929,17.148L197.414,17.148C197.496,17.148 197.55,17.142 197.585,17.124ZM197.585,12.093L197.585,15.987C197.548,15.972 197.494,15.967 197.414,15.967L194.929,15.967L194.929,12.118L197.414,12.118C197.496,12.118 197.55,12.111 197.585,12.093ZM219.237,10.612L219.237,14.558C219.237,14.884 219.501,15.149 219.827,15.149C220.154,15.149 220.418,14.884 220.418,14.558L220.418,10.612C220.418,10.286 220.154,10.021 219.827,10.021C219.501,10.021 219.237,10.286 219.237,10.612Z" style="fill:white;"/>
            </g>
        </g>
        <g id="supermatter" transform="matrix(1,0,0,1.02,0,-1.21865)">
            <g transform="matrix(1,0,0,1,0.704351,-1.98025e-05)">
                <path d="M244.66,56.486L247.817,53.82L249.263,57.249L247.963,58.492L244.245,58.492L244.66,56.486ZM236.677,58.492L232.842,58.492L232.403,55.307L235.792,56.841L235.864,56.867L236.677,58.492ZM235.974,52.614L238.913,58.492L242.203,58.492L243.402,52.69L239.931,49.177L235.974,52.614ZM231.236,49.805L233.973,53.822L231.577,52.738C231.245,52.588 230.858,52.63 230.567,52.848C230.432,52.949 230.328,53.079 230.261,53.226L229.907,52.995L228.758,49.805L231.236,49.805ZM242.877,49.314L244.897,45.332L250.126,43.217L249.587,49.708L245.315,53.315L245.469,52.57C245.536,52.242 245.436,51.902 245.2,51.665L242.877,49.314ZM234.586,51.17L230.69,45.451L231.361,39.85L236.786,43.454L237.777,48.399L234.586,51.17ZM239.52,46.922L238.666,42.654C238.614,42.393 238.46,42.164 238.238,42.017L237.686,41.65L241.886,38.174L243.43,42.302L242.045,46.533L241.396,47.814L240.694,47.104C240.38,46.786 239.901,46.721 239.52,46.922ZM247,42.324L245.302,43.01L245.44,42.591C245.51,42.375 245.505,42.142 245.426,41.93L245.085,41.02L247,39.437L247,42.324Z" style="fill:white;"/>
            </g>
            <g transform="matrix(1,0,0,1,0.704351,-1.98025e-05)">
                <path d="M235.946,40.494C235.953,40.488 235.961,40.482 235.968,40.475L241.693,35.738C241.942,35.531 242.275,35.459 242.588,35.542C242.901,35.625 243.154,35.855 243.267,36.158L244.344,39.038L247.363,36.543C247.661,36.296 248.076,36.244 248.426,36.409C248.776,36.574 249,36.926 249,37.313L249,41.515L250.882,40.754C251.204,40.624 251.57,40.67 251.85,40.876C252.129,41.081 252.282,41.418 252.253,41.764L251.546,50.287C251.524,50.552 251.398,50.797 251.195,50.968L249.417,52.469L251.374,57.107C251.536,57.49 251.444,57.932 251.144,58.219L249.055,60.215C248.869,60.393 248.621,60.492 248.364,60.492L231.97,60.492C231.471,60.492 231.048,60.123 230.98,59.628L230.442,55.731L228.534,54.487C228.351,54.369 228.213,54.193 228.139,53.988L226.394,49.144C226.283,48.838 226.329,48.497 226.516,48.23C226.704,47.964 227.009,47.805 227.335,47.805L229.874,47.805L228.826,46.267C228.69,46.068 228.631,45.825 228.66,45.585L229.568,38C229.609,37.655 229.826,37.356 230.142,37.211C230.457,37.065 230.825,37.094 231.114,37.286L235.946,40.494Z" style="fill:none;stroke:white;stroke-width:0.99px;"/>
            </g>
        </g>
    </g>
</svg>
