<svg viewBox="0 0 32 32" xmlns="http://www.w3.org/2000/svg" fill-rule="evenodd" clip-rule="evenodd" stroke-linejoin="round" stroke-miterlimit="2"><path d="M11.793 18.242l1.761.958c.061.034.106.09.125.158a.262.262 0 01-.026.2c-.663 1.191-.12 2.684.122 2.944-1.347 2.65-5.186 6.26-9.254 6.6a.275.275 0 01-.256-.407c.87-1.58 5.41-9.839 6.076-11.05a.171.171 0 01.23-.068l.49.267L5.576 27.93s1.25-.56 1.383-.802l4.834-8.886zm1.502-2.76l2.808 1.528a.577.577 0 01.23.78l-.718 1.323a.577.577 0 01-.78.23l-2.81-1.528 1.27-2.334zm6.464-11.884l3.331.05a.574.574 0 01.497.851c-1.237 2.264-4.67 8.549-6.423 11.768a.575.575 0 01-.781.23l-2.81-1.528L19.76 3.598zm-8.465 13.82l-.134-.073a.579.579 0 01-.23-.78l.72-1.324a.576.576 0 01.78-.23l.134.072-1.27 2.335zm1.549-2.847l-.132-.07a.577.577 0 01-.23-.783l5.407-9.842a.578.578 0 01.514-.299l.417.006-5.976 10.988zM12.812 29.175s.478-.063 1.171-.114a12.397 12.397 0 011.171-.034c1.633.03 3.513.148 3.513.148a.5.5 0 000-1s-1.88.118-3.513.147a12.639 12.639 0 01-1.171-.033c-.693-.051-1.171-.114-1.171-.114a.5.5 0 000 1zM21.073 29.175s.478-.063 1.17-.114a12.397 12.397 0 011.172-.034c1.633.03 3.513.148 3.513.148a.5.5 0 000-1s-1.88.118-3.513.147a12.639 12.639 0 01-1.171-.033c-.693-.051-1.171-.114-1.171-.114a.5.5 0 000 1zM46.984-24.02s.147 3.67.147 7.342c0 3.673-.147 7.343-.147 7.343a1 1 0 002 0s-.146-3.67-.146-7.343c0-3.672.146-7.342.146-7.342a1 1 0 00-2 0zM9.523 44.34a5.6 5.6 0 011.905-.918 5.662 5.662 0 012.197-.15L12.49 45.87c-.128.016-.257.041-.384.075l-.28.092-2.302-1.697zm-3.384-2.494a9.342 9.342 0 014.258-2.477 9.342 9.342 0 014.927.016l-1.063 2.433a6.682 6.682 0 00-3.187.075 6.682 6.682 0 00-2.798 1.528l-2.137-1.575zm-3.472-2.559a13.025 13.025 0 016.59-4.171 13.03 13.03 0 017.795.317l-1.05 2.4a10.437 10.437 0 00-6.068-.194 10.437 10.437 0 00-5.159 3.202l-2.108-1.554z" fill="#fff"/></svg>