<?xml version="1.0" encoding="UTF-8" standalone="no"?>
<!DOCTYPE svg PUBLIC "-//W3C//DTD SVG 1.1//EN" "http://www.w3.org/Graphics/SVG/1.1/DTD/svg11.dtd">
<svg width="100%" height="100%" viewBox="0 0 32 32" version="1.1" xmlns="http://www.w3.org/2000/svg" xmlns:xlink="http://www.w3.org/1999/xlink" xml:space="preserve" xmlns:serif="http://www.serif.com/" style="fill-rule:evenodd;clip-rule:evenodd;stroke-linejoin:round;stroke-miterlimit:2;">
    <g transform="matrix(1,0,0,1,-96,-32)">
        <g id="unknown">
        </g>
        <g id="plumbing">
        </g>
        <g id="genetics">
        </g>
        <g id="surgery">
            <g transform="matrix(0.959088,-0.283109,0.283109,0.959088,-11.8658,30.5845)">
                <path d="M109.198,52.73L110.616,54.147C110.665,54.197 110.692,54.264 110.691,54.334C110.689,54.404 110.66,54.47 110.609,54.518C109.636,55.473 109.734,57.059 109.893,57.377L109.893,57.377C107.851,59.537 103.147,61.913 99.149,61.086C99.052,61.063 98.975,60.989 98.948,60.893C98.921,60.797 98.948,60.694 99.019,60.624C100.301,59.354 106.993,52.719 107.974,51.746C108.041,51.68 108.148,51.68 108.215,51.746L108.609,52.141L100.493,60.261C100.493,60.261 101.85,60.079 102.046,59.884L109.198,52.73ZM111.42,50.507L113.681,52.768C113.789,52.876 113.85,53.023 113.85,53.175C113.85,53.328 113.789,53.474 113.681,53.582C113.366,53.897 112.932,54.332 112.617,54.647C112.509,54.755 112.362,54.816 112.21,54.816C112.057,54.816 111.911,54.755 111.803,54.647L109.541,52.386L111.42,50.507ZM120.984,40.94L124.165,41.931C124.358,41.991 124.505,42.147 124.553,42.343C124.601,42.539 124.543,42.746 124.4,42.888C122.573,44.709 117.501,49.765 114.908,52.356C114.683,52.581 114.318,52.581 114.094,52.356L111.832,50.095L120.984,40.94ZM108.953,51.798L108.845,51.69C108.738,51.582 108.677,51.436 108.677,51.283C108.677,51.13 108.738,50.984 108.845,50.876C109.161,50.561 109.595,50.126 109.91,49.811C110.018,49.703 110.165,49.643 110.317,49.643C110.47,49.643 110.616,49.703 110.724,49.811L110.832,49.918L108.953,51.798ZM111.244,49.506L111.138,49.401C111.03,49.292 110.969,49.145 110.969,48.992C110.97,48.839 111.031,48.693 111.14,48.585C112.655,47.082 117.91,41.869 119.111,40.677C119.263,40.527 119.485,40.473 119.688,40.536L120.087,40.66L111.244,49.506Z" style="fill:white;"/>
            </g>
            <path d="M108.812,61.175C108.812,61.175 109.29,61.112 109.983,61.061C110.165,61.047 110.362,61.037 110.568,61.031C110.757,61.025 110.954,61.024 111.154,61.027C112.787,61.057 114.667,61.175 114.667,61.175C114.943,61.175 115.167,60.951 115.167,60.675C115.167,60.399 114.943,60.175 114.667,60.175C114.667,60.175 112.787,60.293 111.154,60.322C110.954,60.326 110.757,60.324 110.568,60.319C110.362,60.313 110.165,60.303 109.983,60.289C109.29,60.238 108.812,60.175 108.812,60.175C108.536,60.175 108.312,60.399 108.312,60.675C108.312,60.951 108.536,61.175 108.812,61.175Z" style="fill:white;"/>
            <g transform="matrix(1,0,0,1,8.26067,0)">
                <path d="M108.812,61.175C108.812,61.175 109.29,61.112 109.983,61.061C110.165,61.047 110.362,61.037 110.568,61.031C110.757,61.025 110.954,61.024 111.154,61.027C112.787,61.057 114.667,61.175 114.667,61.175C114.943,61.175 115.167,60.951 115.167,60.675C115.167,60.399 114.943,60.175 114.667,60.175C114.667,60.175 112.787,60.293 111.154,60.322C110.954,60.326 110.757,60.324 110.568,60.319C110.362,60.313 110.165,60.303 109.983,60.289C109.29,60.238 108.812,60.175 108.812,60.175C108.536,60.175 108.312,60.399 108.312,60.675C108.312,60.951 108.536,61.175 108.812,61.175Z" style="fill:white;"/>
            </g>
        </g>
        <g transform="matrix(1.066,1.30071e-32,0,1.05526,-9.51961,-1.33485)">
            <g id="trauma">
                <path d="M143.062,8.827C143.062,8.827 143.199,12.305 143.199,15.785C143.199,19.265 143.062,22.743 143.062,22.743C143.062,23.266 143.482,23.691 144,23.691C144.518,23.691 144.938,23.266 144.938,22.743C144.938,22.743 144.801,19.265 144.801,15.785C144.801,12.305 144.938,8.827 144.938,8.827C144.938,8.304 144.518,7.879 144,7.879C143.482,7.879 143.062,8.304 143.062,8.827Z" style="fill:white;"/>
            </g>
        </g>
        <g id="wound">
        </g>
    </g>
</svg>
