<?xml version="1.0" encoding="UTF-8" standalone="no"?>
<!DOCTYPE svg PUBLIC "-//W3C//DTD SVG 1.1//EN" "http://www.w3.org/Graphics/SVG/1.1/DTD/svg11.dtd">
<svg width="100%" height="100%" viewBox="0 0 32 32" version="1.1" xmlns="http://www.w3.org/2000/svg" xmlns:xlink="http://www.w3.org/1999/xlink" xml:space="preserve" xmlns:serif="http://www.serif.com/" style="fill-rule:evenodd;clip-rule:evenodd;stroke-linejoin:round;stroke-miterlimit:2;">
    <g transform="matrix(1,0,0,1,-96,-64)">
        <g id="unknown">
        </g>
        <g id="plumbing">
        </g>
        <g id="genetics">
        </g>
        <g id="surgery">
        </g>
        <g id="trauma">
        </g>
        <g id="wound">
        </g>
        <g id="power">
        </g>
        <g id="solar">
        </g>
        <g transform="matrix(-0.836256,-0.845147,0.836256,-0.845147,371.793,207.877)">
            <g id="machines">
            </g>
        </g>
        <g id="supermatter">
        </g>
        <g id="shield">
        </g>
        <g id="turbine">
        </g>
        <g id="tcomm" transform="matrix(1.07641,0.288423,-0.288423,1.07641,14.4029,-39.3222)">
            <path d="M120.797,75.729C120.549,75.3 120,75.153 119.571,75.401L105.553,83.494C105.124,83.742 104.977,84.291 105.224,84.72L110.05,93.079C110.298,93.508 110.847,93.655 111.276,93.407L125.294,85.314C125.723,85.066 125.87,84.517 125.622,84.088L120.797,75.729ZM112.446,90.091L115.093,88.563C115.492,88.332 115.646,87.852 115.438,87.491C115.229,87.13 114.736,87.024 114.337,87.254L111.69,88.782C111.291,89.013 111.136,89.493 111.345,89.854C111.553,90.215 112.047,90.321 112.446,90.091ZM110.779,87.829L113.426,86.301C113.825,86.07 113.979,85.59 113.771,85.229C113.562,84.868 113.069,84.762 112.67,84.992L110.023,86.52C109.624,86.751 109.469,87.231 109.678,87.592C109.886,87.953 110.38,88.059 110.779,87.829ZM116.856,80.136C115.413,80.969 114.918,82.817 115.751,84.26C116.584,85.702 118.432,86.197 119.875,85.364C121.317,84.531 121.812,82.684 120.98,81.241C120.147,79.798 118.299,79.303 116.856,80.136ZM109.176,85.51L111.823,83.982C112.222,83.752 112.376,83.271 112.168,82.91C111.959,82.549 111.466,82.443 111.067,82.673L108.42,84.202C108.021,84.432 107.866,84.912 108.075,85.273C108.283,85.635 108.777,85.741 109.176,85.51ZM117.642,81.497C118.334,81.098 119.219,81.335 119.619,82.027C120.018,82.718 119.781,83.604 119.089,84.004C118.397,84.403 117.511,84.166 117.112,83.474C116.713,82.782 116.95,81.896 117.642,81.497Z" style="fill:white;"/>
            <g transform="matrix(0.676834,-0.39077,0.39077,0.676834,21.504,53.8796)">
                <path d="M77.328,81.894C78.066,81.6 78.871,81.442 79.714,81.442C80.592,81.442 81.43,81.614 82.195,81.929L80.163,84.473C80.016,84.452 79.866,84.442 79.714,84.442L79.376,84.46L77.328,81.894ZM74.316,78.123C75.918,77.18 77.784,76.641 79.775,76.641C81.766,76.641 83.632,77.18 85.234,78.123L83.332,80.505C82.267,79.95 81.057,79.641 79.775,79.641C78.493,79.641 77.283,79.95 76.218,80.505L74.316,78.123ZM71.226,74.253C73.654,72.57 76.6,71.585 79.775,71.585C82.95,71.585 85.896,72.57 88.325,74.253L86.448,76.603C84.537,75.328 82.242,74.585 79.775,74.585C77.308,74.585 75.013,75.328 73.102,76.603L71.226,74.253Z" style="fill:white;"/>
            </g>
        </g>
        <g id="atmos">
        </g>
        <g id="xeno">
        </g>
        <g id="nanites">
        </g>
        <g id="aimod">
        </g>
        <g transform="matrix(0.234782,0.411785,-0.406654,0.237744,128.496,34.0363)">
            <g id="tips">
                <path d="M105.018,98.439L100.481,95.819C98.973,94.949 97.033,95.482 96.152,97.008C95.27,98.535 95.779,100.482 97.287,101.352L101.824,103.972C103.332,104.842 105.272,104.31 106.153,102.783C107.035,101.256 106.526,99.309 105.018,98.439Z" style="fill:white;"/>
            </g>
        </g>
    </g>
</svg>
