<?xml version="1.0" encoding="UTF-8" standalone="no"?>
<!DOCTYPE svg PUBLIC "-//W3C//DTD SVG 1.1//EN" "http://www.w3.org/Graphics/SVG/1.1/DTD/svg11.dtd">
<svg width="100%" height="100%" viewBox="0 0 32 32" version="1.1" xmlns="http://www.w3.org/2000/svg" xmlns:xlink="http://www.w3.org/1999/xlink" xml:space="preserve" xmlns:serif="http://www.serif.com/" style="fill-rule:evenodd;clip-rule:evenodd;stroke-linejoin:round;stroke-miterlimit:2;">
    <g transform="matrix(1,0,0,1,-96,-96)">
        <g id="unknown">
        </g>
        <g id="plumbing">
        </g>
        <g id="genetics">
        </g>
        <g id="surgery">
        </g>
        <g id="trauma">
        </g>
        <g id="wound">
        </g>
        <g id="power">
        </g>
        <g id="solar">
        </g>
        <g transform="matrix(-0.836256,-0.845147,0.836256,-0.845147,371.793,207.877)">
            <g id="machines">
            </g>
        </g>
        <g id="supermatter">
        </g>
        <g id="shield">
        </g>
        <g id="turbine">
        </g>
        <g id="tcomm" transform="matrix(1.07641,0.288423,-0.288423,1.07641,14.4029,-39.3222)">
            <path d="M120.797,75.729C120.549,75.3 120,75.153 119.571,75.401L105.553,83.494C105.124,83.742 104.977,84.291 105.224,84.72L110.05,93.079C110.298,93.508 110.847,93.655 111.276,93.407L125.294,85.314C125.723,85.066 125.87,84.517 125.622,84.088L120.797,75.729ZM112.446,90.091L115.093,88.563C115.492,88.332 115.646,87.852 115.438,87.491C115.229,87.13 114.736,87.024 114.337,87.254L111.69,88.782C111.291,89.013 111.136,89.493 111.345,89.854C111.553,90.215 112.047,90.321 112.446,90.091ZM110.779,87.829L113.426,86.301C113.825,86.07 113.979,85.59 113.771,85.229C113.562,84.868 113.069,84.762 112.67,84.992L110.023,86.52C109.624,86.751 109.469,87.231 109.678,87.592C109.886,87.953 110.38,88.059 110.779,87.829ZM116.856,80.136C115.413,80.969 114.918,82.817 115.751,84.26C116.584,85.702 118.432,86.197 119.875,85.364C121.317,84.531 121.812,82.684 120.98,81.241C120.147,79.798 118.299,79.303 116.856,80.136ZM109.176,85.51L111.823,83.982C112.222,83.752 112.376,83.271 112.168,82.91C111.959,82.549 111.466,82.443 111.067,82.673L108.42,84.202C108.021,84.432 107.866,84.912 108.075,85.273C108.283,85.635 108.777,85.741 109.176,85.51ZM117.642,81.497C118.334,81.098 119.219,81.335 119.619,82.027C120.018,82.718 119.781,83.604 119.089,84.004C118.397,84.403 117.511,84.166 117.112,83.474C116.713,82.782 116.95,81.896 117.642,81.497Z" style="fill:white;"/>
            <g transform="matrix(0.676834,-0.39077,0.39077,0.676834,21.504,53.8796)">
                <path d="M77.328,81.894C78.066,81.6 78.871,81.442 79.714,81.442C80.592,81.442 81.43,81.614 82.195,81.929L80.163,84.473C80.016,84.452 79.866,84.442 79.714,84.442L79.376,84.46L77.328,81.894ZM74.316,78.123C75.918,77.18 77.784,76.641 79.775,76.641C81.766,76.641 83.632,77.18 85.234,78.123L83.332,80.505C82.267,79.95 81.057,79.641 79.775,79.641C78.493,79.641 77.283,79.95 76.218,80.505L74.316,78.123ZM71.226,74.253C73.654,72.57 76.6,71.585 79.775,71.585C82.95,71.585 85.896,72.57 88.325,74.253L86.448,76.603C84.537,75.328 82.242,74.585 79.775,74.585C77.308,74.585 75.013,75.328 73.102,76.603L71.226,74.253Z" style="fill:white;"/>
            </g>
        </g>
        <g id="atmos">
        </g>
        <g id="xeno">
        </g>
        <g id="nanites">
        </g>
        <g id="aimod">
        </g>
        <g id="tips" transform="matrix(1.09658,0,0,1.09658,-11.0321,-11.9297)">
            <path d="M108.759,119.766C108.754,119.721 108.752,119.678 108.752,119.636C108.752,119.343 108.646,119.011 108.501,118.645C108.217,117.926 107.77,117.12 107.326,116.284C106.474,114.68 105.667,112.967 105.667,111.495C105.667,108.307 108.478,105.667 112,105.667C115.522,105.667 118.333,108.307 118.333,111.495C118.333,112.716 117.533,114.382 116.678,116.027C115.99,117.35 115.248,118.653 115.248,119.636L115.241,119.767C115.26,119.841 115.269,119.92 115.269,120L115.269,124.174C115.269,124.726 114.822,125.174 114.269,125.174L109.731,125.174C109.178,125.174 108.731,124.726 108.731,124.174L108.731,120C108.731,119.919 108.74,119.841 108.759,119.766ZM109.333,123.617L109.333,123.824C109.333,124.278 109.699,124.646 110.149,124.646L113.851,124.646C114.301,124.646 114.667,124.278 114.667,123.824L114.667,120.391C114.667,119.937 114.301,119.569 113.851,119.569L110.149,119.569C109.699,119.569 109.333,119.937 109.333,120.391L109.333,120.889C109.333,120.528 109.699,120.236 110.149,120.236L113.851,120.236C114.301,120.236 114.667,120.528 114.667,120.889L114.667,123.617C114.667,123.978 114.301,124.271 113.851,124.271L110.149,124.271C109.699,124.271 109.333,123.978 109.333,123.617ZM113.672,119L113.714,114.001C113.714,113.861 113.655,113.727 113.552,113.633L112.822,112.965C112.717,112.869 112.576,112.822 112.435,112.837C112.294,112.851 112.165,112.925 112.082,113.04L111.898,113.294L111.687,113.028C111.601,112.918 111.473,112.851 111.334,112.841C111.195,112.831 111.059,112.88 110.958,112.977L110.264,113.648C110.168,113.74 110.113,113.867 110.113,114.001L110.148,119L111.055,119L111.089,114.212L111.245,114.064L111.526,114.424C111.623,114.546 111.77,114.616 111.926,114.613C112.081,114.61 112.226,114.534 112.318,114.408L112.561,114.076L112.721,114.222L112.762,119L113.672,119ZM111.959,106.998C111.959,106.998 110.135,107.052 108.663,108.302C108.312,108.6 107.981,108.967 107.709,109.415C107.376,109.963 107.125,110.632 107.008,111.441C106.942,111.804 107.183,112.153 107.547,112.22C107.91,112.286 108.259,112.044 108.326,111.681C108.457,111.084 108.689,110.607 108.955,110.208C109.16,109.899 109.393,109.643 109.637,109.428C110.716,108.477 112.041,108.335 112.041,108.335C112.41,108.313 112.691,107.995 112.668,107.626C112.646,107.257 112.328,106.976 111.959,106.998Z" style="fill:white;"/>
            <g transform="matrix(0.206809,0.0561134,-0.0554142,0.209418,89.3767,77.3534)">
                <path d="M106.908,95.694L101.575,93.027C98.438,91.459 94.589,92.713 92.984,95.825C91.379,98.938 92.622,102.738 95.759,104.306L101.092,106.973C104.228,108.541 108.078,107.287 109.683,104.175C111.288,101.062 110.044,97.262 106.908,95.694Z" style="fill:white;"/>
            </g>
            <g transform="matrix(-0.206809,0.0561134,0.0554142,0.209418,134.623,77.3534)">
                <path d="M101.092,106.973L95.759,104.306C92.622,102.738 91.379,98.938 92.984,95.825C94.589,92.713 98.438,91.459 101.575,93.027L106.908,95.694C110.044,97.262 111.288,101.062 109.683,104.175C108.078,107.287 104.228,108.541 101.092,106.973Z" style="fill:white;"/>
            </g>
            <g transform="matrix(0.0533149,-0.0935092,0.0923441,0.0539876,88.9874,121.329)">
                <path d="M109.556,89.893L104.222,87.226C97.914,84.072 90.303,86.637 87.237,92.952C84.17,99.266 86.803,106.953 93.111,110.107L98.444,112.774C104.753,115.928 112.364,113.363 115.43,107.048C118.496,100.734 115.864,93.047 109.556,89.893Z" style="fill:white;"/>
            </g>
            <g transform="matrix(0.419741,-0.245395,0.242338,0.425037,34.6408,93.0309)">
                <path d="M104.815,98.792L100.277,96.172C98.928,95.393 97.209,95.842 96.44,97.175C95.671,98.507 96.141,100.221 97.49,101L102.028,103.619C103.377,104.398 105.096,103.949 105.865,102.617C106.634,101.284 106.164,99.571 104.815,98.792Z" style="fill:white;"/>
            </g>
            <g transform="matrix(0.214104,0.375518,-0.370839,0.216806,127.239,41.9178)">
                <path d="M105.018,98.439L100.481,95.819C98.973,94.949 97.033,95.482 96.152,97.008C95.27,98.535 95.779,100.482 97.287,101.352L101.824,103.972C103.332,104.842 105.272,104.31 106.153,102.783C107.035,101.256 106.526,99.309 105.018,98.439Z" style="fill:white;"/>
            </g>
            <g transform="matrix(-0.107052,-0.187759,-0.18542,0.108403,149.831,125.617)">
                <path d="M101.233,107.031L95.9,104.364C92.758,102.794 91.447,98.965 92.974,95.82C94.501,92.676 98.292,91.398 101.433,92.969L106.767,95.636C109.909,97.206 111.22,101.035 109.693,104.18C108.165,107.324 104.375,108.602 101.233,107.031Z" style="fill:white;"/>
            </g>
            <g transform="matrix(-0.376242,-0.219964,-0.217224,0.38099,182.319,94.8587)">
                <path d="M101.866,103.898L97.329,101.279C95.824,100.41 95.299,98.498 96.157,97.011C97.015,95.525 98.934,95.024 100.439,95.893L104.976,98.513C106.481,99.382 107.006,101.294 106.148,102.78C105.29,104.266 103.371,104.767 101.866,103.898Z" style="fill:white;"/>
            </g>
        </g>
        <g id="races">
        </g>
        <g id="food">
        </g>
        <g id="hydro">
        </g>
        <g id="song">
        </g>
        <g id="crate">
        </g>
        <g transform="matrix(0.744575,0.744575,-0.744575,0.744575,139.866,-50.6509)">
            <g id="space">
                <path d="M107.409,144.417C108.121,141.075 109.325,136.518 110.236,134.278C110.599,133.386 110.986,132.808 111.246,132.603C111.519,132.388 111.793,132.327 112.03,132.334C112.253,132.34 112.528,132.413 112.797,132.66C113.023,132.869 113.371,133.443 113.712,134.31C114.593,136.549 115.822,141.06 116.559,144.385L119.629,147.394C119.774,147.536 119.872,147.719 119.911,147.918L120.982,153.459C121.071,153.92 120.827,154.382 120.395,154.567C119.963,154.753 119.46,154.613 119.186,154.23L116.527,150.509C116.367,150.777 116.18,151.03 115.971,151.263C113.342,150.736 110.696,150.744 108.033,151.268C107.822,151.033 107.634,150.779 107.473,150.51L104.814,154.23C104.54,154.613 104.037,154.753 103.605,154.567C103.173,154.382 102.929,153.92 103.018,153.459L104.089,147.918C104.128,147.719 104.226,147.536 104.371,147.394L107.409,144.417ZM114.761,148.694L109.369,148.694C108.974,148.694 108.326,149.19 108.654,149.409C108.714,149.449 108.873,149.59 109.071,149.512C110.425,148.976 113.966,149.166 115.089,149.508C115.305,149.574 115.453,149.446 115.476,149.409C115.681,149.072 115.156,148.694 114.761,148.694ZM112,138.511C113.277,138.511 114.313,139.548 114.313,140.824C114.313,142.101 113.277,143.138 112,143.138C110.723,143.138 109.687,142.101 109.687,140.824C109.687,139.548 110.723,138.511 112,138.511ZM112,139.514C112.723,139.514 113.31,140.101 113.31,140.824C113.31,141.547 112.723,142.134 112,142.134C111.277,142.134 110.69,141.547 110.69,140.824C110.69,140.101 111.277,139.514 112,139.514Z" style="fill:white;"/>
            </g>
        </g>
        <g id="aux">
        </g>
        <g id="security">
        </g>
    </g>
</svg>
