<?xml version="1.0" encoding="UTF-8" standalone="no"?>
<!DOCTYPE svg PUBLIC "-//W3C//DTD SVG 1.1//EN" "http://www.w3.org/Graphics/SVG/1.1/DTD/svg11.dtd">
<svg width="100%" height="100%" viewBox="0 0 32 32" version="1.1" xmlns="http://www.w3.org/2000/svg" xmlns:xlink="http://www.w3.org/1999/xlink" xml:space="preserve" xmlns:serif="http://www.serif.com/" style="fill-rule:evenodd;clip-rule:evenodd;stroke-linecap:round;stroke-linejoin:round;stroke-miterlimit:10;">
    <g transform="matrix(1,0,0,1,-192,-64)">
        <g id="unknown">
        </g>
        <g id="plumbing">
        </g>
        <g id="genetics">
        </g>
        <g id="surgery">
        </g>
        <g id="trauma">
        </g>
        <g id="wound">
        </g>
        <g id="construction" transform="matrix(1.14774,0,0,1.14774,-23.9174,-4.93723)">
            <path d="M179.793,55.985L170.357,44.785C169.646,45.136 168.846,45.333 168,45.333C165.056,45.333 162.667,42.944 162.667,40C162.667,39.719 162.689,39.442 162.731,39.173L162.739,39.122C162.76,39.006 162.796,38.867 162.895,38.717C162.913,38.688 162.944,38.67 162.978,38.668C163,38.667 163.022,38.672 163.04,38.683L166.564,42.207C166.802,42.445 167.149,42.537 167.474,42.45C167.992,42.312 168.778,42.101 169.296,41.962C169.621,41.875 169.875,41.621 169.962,41.296C170.101,40.778 170.312,39.992 170.45,39.474C170.537,39.149 170.445,38.802 170.207,38.564L166.681,35.038C166.671,35.021 166.666,35 166.668,34.979C166.67,34.945 166.688,34.914 166.717,34.895C166.866,34.796 167.006,34.76 167.122,34.739L167.172,34.731C167.442,34.689 167.718,34.667 168,34.667C170.944,34.667 173.333,37.056 173.333,40C173.333,40.847 173.136,41.648 172.784,42.359L183.984,51.794C184.17,51.912 184.346,52.052 184.508,52.214C185.693,53.399 185.693,55.324 184.508,56.509C183.323,57.695 181.398,57.695 180.212,56.509C180.05,56.347 179.91,56.172 179.793,55.985ZM181.097,53.099C181.794,52.402 182.926,52.402 183.623,53.099C184.32,53.796 184.32,54.927 183.623,55.624C182.926,56.321 181.794,56.321 181.097,55.624C180.4,54.927 180.4,53.796 181.097,53.099ZM179.861,53.234C179.861,53.234 171.858,44.018 171.661,44.184C171.464,44.349 171.438,44.643 171.603,44.84L179.147,53.833C179.312,54.03 179.606,54.056 179.803,53.89C180,53.725 180.026,53.431 179.861,53.234ZM163.115,39.761C163.156,39.639 163.691,40.702 163.879,41.184C164.255,42.149 164.995,43.367 166.305,43.945C167.18,44.33 168.306,44.425 169.74,43.983C169.863,43.945 169.993,44.014 170.031,44.137C170.069,44.26 170,44.39 169.877,44.428C168.307,44.912 167.075,44.793 166.118,44.371C164.68,43.737 163.857,42.412 163.444,41.353C163.238,40.822 163.134,40.359 163.104,40.086C163.086,39.926 163.098,39.813 163.115,39.761Z" style="fill:white;"/>
        </g>
        <g id="power">
            <g transform="matrix(0.86944,-0.501971,0.501971,0.86944,2.68937,111.272)">
                <path d="M217.42,38.133C217.567,37.951 217.574,37.692 217.435,37.504C217.296,37.315 217.047,37.244 216.83,37.331C212.908,38.897 203.835,42.519 200.92,43.683C200.742,43.754 200.618,43.918 200.599,44.109C200.58,44.3 200.669,44.486 200.83,44.591C202.398,45.613 205.758,47.804 207.079,48.665C207.211,48.751 207.296,48.893 207.31,49.051C207.324,49.208 207.264,49.363 207.149,49.471C205.772,50.761 201.74,54.538 199.293,56.831C199.113,56.999 199.078,57.272 199.21,57.48C199.342,57.689 199.603,57.774 199.833,57.684C204.35,55.908 213.688,52.238 216.715,51.048C216.897,50.977 217.023,50.808 217.039,50.613C217.055,50.417 216.96,50.23 216.792,50.129C215.301,49.233 212.355,47.46 211.174,46.75C211.046,46.673 210.958,46.544 210.933,46.398C210.907,46.251 210.946,46.1 211.04,45.985C212.165,44.6 215.562,40.419 217.42,38.133Z" style="fill:white;"/>
            </g>
            <path d="M212.561,37.261C216.736,39.037 219.667,43.179 219.667,48C219.667,54.163 214.877,59.217 208.819,59.635L210.66,57.287C214.705,56.137 217.667,52.412 217.667,48C217.667,44.184 215.45,40.881 212.232,39.32L212.561,37.261ZM206.452,36.439L204.407,39.032C200.848,40.453 198.333,43.935 198.333,48C198.333,51.774 200.501,55.046 203.663,56.629L203.073,58.574C199.093,56.718 196.333,52.679 196.333,48C196.333,42.086 200.744,37.193 206.452,36.439ZM206.478,57.535L206.909,57.601L206.181,58.515L206.478,57.535ZM209.347,38.438L208.988,38.383L208.487,38.358L209.583,36.968L209.347,38.438Z" style="fill:white;"/>
        </g>
        <g id="solar">
        </g>
        <g transform="matrix(-0.836256,-0.845147,0.836256,-0.845147,371.793,207.877)">
            <g id="machines">
            </g>
        </g>
        <g id="supermatter">
        </g>
        <g id="shield">
        </g>
        <g id="turbine">
        </g>
        <g id="tcomm">
        </g>
        <g id="atmos">
        </g>
        <g id="toxins" transform="matrix(1.04179,0,0,1.04179,-8.61149,-4.93071)">
            <path d="M215.847,92.407C215.617,92.417 215.381,92.395 215.146,92.34L212.989,91.83C211.681,93.082 209.913,93.833 208.001,93.833L207.999,93.833C206.072,93.833 204.291,93.07 202.98,91.801L200.699,92.34C200.465,92.395 200.229,92.417 199.998,92.407C199.984,91.773 199.757,90.626 199.353,89.344C198.872,87.82 198.285,86.567 197.918,86.161L197.878,86.12C198.082,85.998 198.314,85.903 198.568,85.843L200.339,85.424C200.108,84.417 199.857,83.352 199.665,82.614C199.204,80.84 198.133,79.275 198.133,77.333C198.133,71.887 202.477,69.04 207.923,69.04C213.369,69.04 217.867,71.887 217.867,77.333C217.867,79.275 216.796,80.84 216.335,82.614C216.141,83.36 215.886,84.442 215.653,85.459L217.278,85.843C217.532,85.903 217.763,85.998 217.967,86.12L217.928,86.161C217.56,86.567 216.974,87.82 216.493,89.344C216.088,90.626 215.861,91.773 215.847,92.407ZM195.59,85.894C195.421,85.932 195.194,86.078 195.14,86.423C195.06,86.931 195.291,88.265 195.772,89.789C196.253,91.313 196.839,92.566 197.206,92.972C197.457,93.249 197.74,93.279 197.909,93.24C198.078,93.202 198.305,93.056 198.359,92.71C198.439,92.202 198.208,90.869 197.727,89.344C197.246,87.82 196.66,86.567 196.292,86.161C196.042,85.885 195.759,85.855 195.59,85.894ZM220.255,85.894C220.424,85.932 220.652,86.078 220.706,86.423C220.785,86.931 220.555,88.265 220.074,89.789C219.593,91.313 219.007,92.566 218.639,92.972C218.389,93.249 218.106,93.279 217.937,93.24C217.768,93.202 217.54,93.056 217.486,92.71C217.407,92.202 217.637,90.869 218.118,89.344C218.599,87.82 219.185,86.567 219.553,86.161C219.803,85.885 220.086,85.855 220.255,85.894ZM209.875,89.391C209.393,89.868 208.731,90.162 208,90.162C207.292,90.162 206.649,89.886 206.172,89.435L204.707,90.281C205.498,91.216 206.68,91.81 208,91.81C209.342,91.81 210.542,91.196 211.333,90.233L209.875,89.391ZM208,86.23C208.699,86.23 209.266,86.797 209.266,87.496C209.266,88.194 208.699,88.761 208,88.761C207.301,88.761 206.734,88.194 206.734,87.496C206.734,86.797 207.301,86.23 208,86.23ZM206.923,83.317C205.062,83.796 203.686,85.486 203.686,87.496C203.686,87.839 203.726,88.173 203.803,88.493L205.336,87.608L205.333,87.496C205.333,86.398 205.998,85.454 206.947,85.046C206.931,84.976 206.923,84.903 206.923,84.829L206.923,83.317ZM208.923,83.282L208.923,84.829C208.923,84.883 208.918,84.937 208.909,84.988C209.934,85.36 210.667,86.343 210.667,87.496L210.666,87.54L210.7,87.558L212.211,88.431C212.279,88.13 212.314,87.817 212.314,87.496C212.314,85.431 210.861,83.704 208.923,83.282ZM213.499,73.898C211.764,73.354 209.327,74.237 208.784,75.972C208.24,77.707 211.173,79.976 212.908,80.52C214.642,81.063 215.911,79.424 216.035,77.354C216.144,75.539 215.234,74.441 213.499,73.898ZM202.346,73.898C204.081,73.354 206.518,74.237 207.062,75.972C207.605,77.707 204.672,79.976 202.938,80.52C201.203,81.063 199.934,79.424 199.81,77.354C199.702,75.539 200.612,74.441 202.346,73.898ZM202.724,74.948C203.863,74.591 205.464,75.171 205.82,76.31C206.177,77.449 204.252,78.939 203.112,79.296C201.973,79.653 201.14,78.577 201.059,77.218C200.987,76.026 201.585,75.305 202.724,74.948ZM213.121,74.948C211.982,74.591 210.382,75.171 210.025,76.31C209.668,77.449 211.594,78.939 212.733,79.296C213.872,79.653 214.705,78.577 214.787,77.218C214.858,76.026 214.26,75.305 213.121,74.948Z" style="fill:white;"/>
        </g>
        <g transform="matrix(1,0,0,1,0.0434522,0.804578)">
            <g id="xeno">
                <path d="M238.609,82.373C238.95,82.726 239.428,82.945 239.957,82.945C240.485,82.945 240.963,82.726 241.304,82.373L242.054,82.806C240.922,85.277 241.837,88.254 244.239,89.641C246.377,90.875 249.018,90.459 250.682,88.789L251.482,89.25C249.268,91.8 245.486,92.511 242.453,90.76C241.401,90.152 240.56,89.318 239.957,88.353C239.353,89.318 238.512,90.152 237.46,90.76C234.427,92.511 230.645,91.8 228.431,89.25C228.305,89.031 228.381,88.75 228.602,88.622C228.823,88.495 229.105,88.569 229.231,88.789L229.231,88.789C230.895,90.459 233.536,90.875 235.674,89.641C238.076,88.254 238.991,85.277 237.859,82.806L238.609,82.373ZM250.682,88.789C250.808,88.569 251.09,88.495 251.311,88.622C251.532,88.75 251.608,89.031 251.482,89.25L250.682,88.789ZM240.536,78.051C243.228,77.782 245.333,75.507 245.333,72.744C245.333,70.276 243.652,68.196 241.374,67.59L241.374,66.667C244.689,67.309 247.195,70.229 247.195,73.731C247.195,75.044 246.843,76.276 246.227,77.335C247.393,77.362 248.568,77.674 249.649,78.297C252.681,80.048 253.957,83.679 252.856,86.871C252.729,87.09 252.447,87.165 252.226,87.037C252.005,86.91 251.929,86.629 252.056,86.409L252.056,86.409C252.67,84.133 251.71,81.638 249.572,80.403C247.214,79.042 244.244,79.688 242.647,81.811L241.813,81.329C241.825,81.245 241.831,81.158 241.831,81.07C241.831,80.238 241.287,79.531 240.536,79.287L240.536,78.051ZM227.857,86.409C227.984,86.629 227.908,86.91 227.687,87.037C227.466,87.165 227.184,87.09 227.058,86.871L227.857,86.409ZM237.266,81.811C235.669,79.688 232.699,79.042 230.341,80.403C228.203,81.638 227.243,84.133 227.857,86.409L227.058,86.871C225.956,83.679 227.232,80.048 230.264,78.297C231.371,77.658 232.579,77.347 233.772,77.334C233.157,76.275 232.805,75.044 232.805,73.731C232.805,70.229 235.311,67.309 238.626,66.667C238.879,66.667 239.085,66.874 239.085,67.128C239.085,67.383 238.879,67.59 238.626,67.59L238.626,67.59C236.348,68.196 234.667,70.276 234.667,72.744C234.667,75.477 236.727,77.733 239.377,78.041L239.377,79.287C238.626,79.531 238.082,80.238 238.082,81.07C238.082,81.158 238.088,81.245 238.1,81.329L237.266,81.811ZM241.374,67.59C241.121,67.59 240.915,67.383 240.915,67.128C240.915,66.874 241.121,66.667 241.374,66.667L241.374,67.59Z" style="fill:white;stroke:white;stroke-width:0.5px;"/>
            </g>
        </g>
        <g id="nanites">
        </g>
        <g id="aimod">
        </g>
        <g id="tips">
        </g>
    </g>
</svg>
