<svg viewBox="0 0 32 32" xmlns="http://www.w3.org/2000/svg" fill-rule="evenodd" clip-rule="evenodd" stroke-linejoin="round" stroke-miterlimit="2"><path d="M9.947 4.405c.44-.418.966-.763 1.555-1.014a5.6 5.6 0 012.046-.44 5.55 5.55 0 011.481.156c.314.077.616.18.902.307.248-.108.507-.198.777-.269a5.7 5.7 0 011.357-.185c.678-.007 1.322.1 1.91.306a5.09 5.09 0 011.487.816 6.05 6.05 0 013.305 1.85 5.602 5.602 0 011.475 3.797 5.696 5.696 0 01-.213 1.537 7.127 7.127 0 012.081 2.144 6.78 6.78 0 011.03 3.599 6.915 6.915 0 01-.898 3.418 7.381 7.381 0 01-2.009 2.281l.008.115c.008 1.611-.676 3.084-1.792 4.155a6.204 6.204 0 01-4.15 1.718 6.11 6.11 0 01-2.72-.557 5.857 5.857 0 01-1.514-1.006 6.131 6.131 0 01-1.487 1.076c-.812.42-1.735.67-2.715.694a6.059 6.059 0 01-4.219-1.528 5.593 5.593 0 01-1.88-4.128l.003-.071a7.106 7.106 0 01-2.031-2.204 6.833 6.833 0 01-.942-3.407 7.011 7.011 0 011.006-3.68 7.496 7.496 0 012.044-2.218 5.654 5.654 0 01-.223-1.513 5.794 5.794 0 011.31-3.712 6.28 6.28 0 013.016-2.037zm5.467.99c.311.182.697.184 1.009.004.247-.146.517-.264.804-.345.28-.08.576-.129.882-.139.44-.014.861.045 1.246.172.401.133.765.333 1.065.592.139.122.31.2.491.227a4.2 4.2 0 012.508 1.27 3.812 3.812 0 01.744 4.126.874.874 0 00.398 1.12 5.449 5.449 0 012.105 1.899c.501.784.797 1.705.809 2.698.009.938-.23 1.827-.664 2.609a5.76 5.76 0 01-1.859 2 .81.81 0 00-.358.773l.027.431c.007 1.156-.49 2.212-1.29 2.98a4.567 4.567 0 01-3.068 1.257 4.468 4.468 0 01-1.994-.416 4.183 4.183 0 01-1.566-1.259.827.827 0 00-1.325.014c-.402.548-.938 1-1.561 1.318a4.583 4.583 0 01-1.992.494 4.36 4.36 0 01-3.03-1.118 3.87 3.87 0 01-1.284-2.865l.023-.426a.874.874 0 00-.415-.84 5.407 5.407 0 01-1.85-1.892 5.064 5.064 0 01-.676-2.525 5.19 5.19 0 01.773-2.72c.5-.818 1.215-1.502 2.068-1.983a.932.932 0 00.388-1.19 3.713 3.713 0 01-.32-1.518 3.906 3.906 0 01.911-2.492 4.366 4.366 0 012.29-1.442.977.977 0 00.46-.272 3.222 3.222 0 011.098-.739 3.646 3.646 0 011.332-.271 3.59 3.59 0 01.956.109c.313.079.604.202.865.358z" fill="#fff"/><path d="M14.986 7.98s.146 3.67.146 7.342c0 3.673-.146 7.343-.146 7.343a1 1 0 002 0s-.147-3.67-.147-7.343c0-3.672.146-7.342.146-7.342a1 1 0 00-2 0zM12.048 10.853l-.498-2.871a1.25 1.25 0 012.5.036l-.783 4.066c-.064.36-.181.538-.331.593-.15.055-.346.133-.559-.019-.117-.082-.231-.273-.447-.46-.035-.03-.077-.043-.12-.067l-.104-.055c.063.227.113.43.145.581.085.405.045.692-.004.81-.16.386-.415.585-.737.625a5.903 5.903 0 01-1.256-.01c-.065-.007-.131-.102-.131-.102s-.045-.14.007-.182c.017-.013-.052-.03-.038-.051-.077.123-.192.216-.219.373-.077.44.135.895.189 1.286.038.29.021.532.002.725-.033.337-.25.517-.41.67-.195.192-.58.258-.856.281 0 .005-.01.005-.024.005l.002-.003.022-.002c0-.002-.001-.005-.006-.008-.006-.004-.011.002-.016.01H8.37l-.026.003h.031l-.008.012c-.026.027-.09-.01-.103.024-.025.065-.08.12-.087.203A5.006 5.006 0 008.16 18c.163.057.404.118.612.08.236-.044.462-.176.682-.3.264-.169.452-.72.7-1.258.323-.698.675-1.377.985-1.717.296-.323.654-.374.948-.385.381-.015.797.214 1.172.915.203.407.36.756.405 1.156.052.46-.04.951-.174 1.662-.141.668-.343.968-.589 1.08-.246.111-.502.209-.78.11.014.03.03.06.047.09.223.37.53.648.631.878.104.236.024.44-.043.615-.078.206-.297.345-.716.441-.287.067-.848.389-1.288.504.032.267.043.556.031.859-.017.395-.055.787-.036 1.154.013.226.001.43.08.591.023.046.02.105.06.131.151.103.32-.09.597-.274.056-.038.046-.125.086-.19a.478.478 0 00.065-.234 1.25 1.25 0 011.319-2.11c.16.135.351.205.449.38.232.413.513.897.313 1.488-.27.8-.904 1.782-1.732 1.913-.804.143-1.228.001-1.593-.261-.118-.085-.232-.164-.343-.27-.653-.622-.79-2.278-1.356-2.966a1.241 1.241 0 01-.237-.47c-.152-.578-.001-1.031.34-1.316.25-.208.57-.457 1.043-.473.5-.017 1.177.12 1.698.209a.715.715 0 00-.07-.188c-.21-.373-.453-.713-.506-1.055-.052-.28.047-.453.103-.578.12-.27.376-.318.667-.352h.033l-.084-.472c-.596.567-1.434 1.098-1.818 1.232-.26.098-.537.143-.794.226-.516.168-.97.31-1.323.306-.518-.006-.763-.35-.913-.674a5.29 5.29 0 01-.421-1.233c-.099-.476.042-.846.212-1.268a.848.848 0 01.105-.18c.325-.406.671-.55.989-.567.266-.013.71.08.818.103.096-.37.137-.92.15-1.294.007-.199-.055-.357-.073-.54-.025-.158.066-.26.099-.396.076-.312.364-.41.675-.614.096-.063.2-.095.32-.127a10.165 10.165 0 01-.308-.83c-.202-.653-.27-1.26-.226-1.526.104-.622.44-.899.832-.936.192-.018.54-.056.908.286.292.276.66.616.92 1.041.092.15.159.306.217.458zm-.322 13.117a.22.22 0 00.11.062 1.293 1.293 0 01-.11-.062zm-.089-.143c-.002-.107-.018-.216-.022-.315-.001-.029-.05-.062-.05-.062s-.042.007-.036.019c.02.05-.034.11-.004.148.049.062.079.139.112.21zm-1.024-2.648a.33.33 0 00-.004-.144c-.004-.012-.038.01-.043-.006l.047.15zm1.418-2.388l.026-.051s-.022.018-.025.035v.016zm.049-.841c.152.051.286.086.275-.02-.012-.104-.164-.057-.275.02zm-3.784-.861c-.127.008-.211.005-.211.005s.14.048.198 0l.013-.005zm3.146-1.049c.002-.009.005-.016 0-.014-.01.004-.007.01 0 .014zm-2.916-.679a.868.868 0 01-.161.103c-.073.032-.26.184-.151.24.14.071.24-.086.312-.343zM20.197 12.089l-.076.044c-.062.037-.12.068-.168.112-.184.173-.293.332-.4.41-.214.155-.412.073-.564.013-.144-.057-.256-.231-.319-.584l-.786-4.066a1.25 1.25 0 112.5-.036l-.475 2.722a3.2 3.2 0 01.161-.308c.255-.424.62-.764.91-1.039.382-.362.746-.309.943-.283.373.047.702.324.8.939.043.266-.023.867-.22 1.515-.086.28-.2.57-.309.836.117.033.218.067.311.131.305.208.594.303.665.618.03.13.118.232.093.388-.016.18-.075.34-.067.537.016.372.055.918.15 1.286.125-.028.55-.112.808-.097.315.018.668.158.981.575.04.052.071.111.098.18.165.42.302.788.204 1.262a5.38 5.38 0 01-.418 1.23c-.15.323-.39.664-.9.672-.35.005-.8-.137-1.312-.304-.254-.083-.528-.127-.785-.225-.374-.133-1.187-.655-1.774-1.213l-.082.454.024.002c.292.035.55.084.667.361.053.123.147.293.095.567-.052.34-.29.68-.498 1.052-.032.056-.06.123-.086.192.519-.089 1.2-.227 1.698-.207.48.02.796.277 1.045.495.322.283.463.727.317 1.293a1.235 1.235 0 01-.23.462c-.556.686-.698 2.327-1.335 2.956-.11.108-.221.187-.336.275-.364.273-.785.419-1.597.27-.817-.133-1.444-1.114-1.714-1.914-.197-.587.079-1.066.303-1.476.096-.177.288-.25.448-.386a1.25 1.25 0 011.326 2.106c.004.085.02.167.065.24.037.063.024.15.079.187.27.18.432.375.578.271.039-.027.035-.086.056-.133.077-.162.065-.367.075-.595.018-.365-.021-.757-.039-1.151a5.254 5.254 0 01.03-.863c-.43-.115-.975-.427-1.255-.494-.427-.098-.647-.242-.722-.455-.061-.173-.137-.373-.035-.605.1-.229.405-.506.625-.875a.732.732 0 00.05-.097l-.026.01c-.274.094-.518-.01-.76-.128-.238-.114-.431-.411-.57-1.067-.134-.709-.227-1.198-.176-1.658.043-.399.198-.748.399-1.155.373-.707.79-.935 1.169-.92.294.012.655.064.95.393.306.34.65 1.017.966 1.714.242.537.425 1.086.684 1.256.214.123.435.256.668.3.201.038.435-.02.593-.075a5.1 5.1 0 00-.019-.678c-.008-.085-.063-.142-.088-.207-.013-.036-.077-.002-.104-.03l-.004-.003h.004-.005c-.008-.01-.022-.017-.03-.01l-.007.006.037.004h.001c-.023.002-.041.003-.038-.004-.272-.025-.642-.093-.833-.282-.156-.154-.373-.336-.406-.675a3.053 3.053 0 01.006-.722c.053-.391.263-.845.19-1.286-.025-.155-.136-.251-.21-.375.017.024-.062.047-.042.06.046.033.014.154.014.154s-.003.04-.02.042c-.044.004-.058.07-.108.075a5.905 5.905 0 01-1.242.015c-.32-.041-.575-.24-.736-.63-.047-.117-.085-.4-.001-.799.03-.15.079-.347.14-.572zm.012 11.877a1.322 1.322 0 01-.11.062.213.213 0 00.11-.062zm.084-.135c.034-.073.065-.155.117-.22.029-.037-.026-.095-.006-.144.004-.012-.037-.017-.037-.017s-.048.035-.05.065c-.005.1-.021.209-.024.316zm.978-2.653c.014-.05.03-.097.045-.143-.006.015-.039-.01-.042.003a.302.302 0 00-.003.14zm-1.386-2.389l-.001-.014c-.003-.017-.026-.038-.026-.038s.01.022.027.052zm-.25-.853l-.061-.005c-.01 0-.023.025-.023.025l.084-.02zm3.93-.843h.001c.062.052.212.005.212.005s-.086.002-.213-.005zm-3.08-1.064c.006-.002.007-.005 0-.008-.003-.002-.002.002 0 .008zm2.872-.663c.07.255.17.41.31.339.109-.056-.078-.21-.15-.241a.957.957 0 01-.16-.098z" fill="#fff"/></svg>