<?xml version="1.0" encoding="UTF-8" standalone="no"?>
<!DOCTYPE svg PUBLIC "-//W3C//DTD SVG 1.1//EN" "http://www.w3.org/Graphics/SVG/1.1/DTD/svg11.dtd">
<svg width="100%" height="100%" viewBox="0 0 32 32" version="1.1" xmlns="http://www.w3.org/2000/svg" xmlns:xlink="http://www.w3.org/1999/xlink" xml:space="preserve" xmlns:serif="http://www.serif.com/" style="fill-rule:evenodd;clip-rule:evenodd;stroke-linejoin:round;stroke-miterlimit:2;">
    <g transform="matrix(1,0,0,1,-128,0)">
        <g id="unknown">
        </g>
        <g id="plumbing">
        </g>
        <g id="genetics">
        </g>
        <g id="surgery">
        </g>
        <g id="trauma" transform="matrix(1.22679,0,0,1.30023,-32.7878,-4.80367)">
            <g transform="matrix(0.963628,2.59017e-17,-0.0175747,0.866596,5.51734,2.91742)">
                <path d="M138.787,4.806C139.152,4.435 139.592,4.129 140.086,3.906C140.608,3.671 141.192,3.532 141.81,3.515C142.245,3.502 142.667,3.552 143.065,3.654C143.332,3.722 143.589,3.814 143.833,3.927C144.041,3.831 144.259,3.751 144.486,3.688C144.85,3.588 145.233,3.53 145.631,3.524C146.204,3.517 146.751,3.612 147.251,3.795C147.722,3.968 148.151,4.213 148.522,4.519C149.635,4.75 150.62,5.338 151.348,6.161C152.143,7.062 152.637,8.237 152.657,9.531C152.663,9.882 152.635,10.226 152.575,10.558C152.554,10.672 152.53,10.784 152.502,10.895C153.223,11.397 153.837,12.045 154.297,12.798C154.866,13.731 155.206,14.822 155.226,15.992C155.248,17.085 154.992,18.118 154.522,19.025C154.115,19.811 153.547,20.502 152.86,21.05L152.868,21.152C152.901,22.582 152.346,23.889 151.42,24.839C150.533,25.749 149.306,26.329 147.937,26.364C147.111,26.386 146.325,26.205 145.627,25.87C145.149,25.641 144.712,25.339 144.33,24.977C143.97,25.356 143.552,25.679 143.09,25.932C142.41,26.305 141.633,26.526 140.804,26.548C139.422,26.587 138.154,26.063 137.211,25.192C136.223,24.278 135.594,22.979 135.554,21.528L135.555,21.465C134.844,20.945 134.245,20.278 133.801,19.509C133.285,18.617 132.98,17.587 132.949,16.485C132.916,15.303 133.208,14.187 133.741,13.22C134.164,12.454 134.742,11.783 135.434,11.251C135.403,11.148 135.376,11.044 135.351,10.938C135.275,10.606 135.231,10.261 135.221,9.908C135.186,8.675 135.581,7.53 136.269,6.614C136.896,5.78 137.771,5.14 138.787,4.806ZM143.428,5.684C143.694,5.846 144.02,5.848 144.281,5.688C144.488,5.559 144.714,5.454 144.956,5.382C145.192,5.311 145.441,5.268 145.7,5.259C146.072,5.246 146.429,5.299 146.756,5.411C147.098,5.529 147.409,5.707 147.667,5.937C147.786,6.045 147.932,6.115 148.086,6.138C148.926,6.257 149.679,6.663 150.228,7.265C150.778,7.868 151.129,8.661 151.157,9.54C151.164,9.781 151.148,10.017 151.109,10.246C151.07,10.481 151.007,10.709 150.924,10.927C150.778,11.3 150.933,11.733 151.279,11.921C152.018,12.316 152.645,12.897 153.09,13.606C153.527,14.302 153.792,15.12 153.818,16.001C153.841,16.833 153.653,17.622 153.299,18.316C152.938,19.025 152.406,19.635 151.759,20.091C151.545,20.241 151.432,20.507 151.468,20.777L151.498,21.16C151.523,22.186 151.12,23.123 150.455,23.804C149.8,24.475 148.89,24.898 147.88,24.92C147.273,24.933 146.698,24.8 146.187,24.551C145.654,24.292 145.192,23.907 144.842,23.434C144.705,23.249 144.494,23.142 144.273,23.145C144.053,23.147 143.848,23.259 143.721,23.446C143.39,23.932 142.944,24.334 142.422,24.616C141.922,24.885 141.352,25.042 140.745,25.054C139.749,25.074 138.837,24.695 138.163,24.062C137.484,23.424 137.051,22.524 137.031,21.519L137.044,21.141C137.069,20.842 136.927,20.551 136.679,20.395C136.021,19.975 135.472,19.398 135.084,18.717C134.708,18.054 134.488,17.291 134.471,16.476C134.454,15.599 134.679,14.773 135.081,14.061C135.49,13.336 136.084,12.729 136.798,12.302C137.147,12.091 137.28,11.633 137.107,11.245C137.014,11.036 136.942,10.816 136.892,10.587C136.843,10.365 136.816,10.134 136.812,9.898C136.796,9.067 137.073,8.299 137.542,7.687C138.014,7.071 138.684,6.615 139.456,6.407C139.604,6.366 139.737,6.283 139.841,6.166C140.088,5.889 140.402,5.666 140.757,5.51C141.098,5.361 141.478,5.276 141.88,5.269C142.161,5.263 142.433,5.298 142.69,5.366C142.956,5.436 143.204,5.545 143.428,5.684Z" style="fill:white;"/>
            </g>
            <g transform="matrix(0.86894,1.00037e-32,0,0.811596,18.9668,2.66785)">
                <path d="M143.062,8.827C143.062,8.827 143.199,12.305 143.199,15.785C143.199,19.265 143.062,22.743 143.062,22.743C143.062,23.266 143.482,23.691 144,23.691C144.518,23.691 144.938,23.266 144.938,22.743C144.938,22.743 144.801,19.265 144.801,15.785C144.801,12.305 144.938,8.827 144.938,8.827C144.938,8.304 144.518,7.879 144,7.879C143.482,7.879 143.062,8.304 143.062,8.827Z" style="fill:white;"/>
            </g>
            <g transform="matrix(0.764324,0,0,0.781873,33.4734,3.59226)">
                <path d="M140.531,10.806L140,7.982C140.011,7.303 140.617,6.761 141.353,6.771C142.089,6.78 142.677,7.339 142.666,8.018L141.831,12.017C141.763,12.372 141.638,12.546 141.478,12.601C141.318,12.655 141.109,12.731 140.882,12.582C140.757,12.501 140.635,12.313 140.405,12.129C140.368,12.099 140.323,12.087 140.277,12.063L140.166,12.009C140.233,12.233 140.287,12.432 140.321,12.581C140.412,12.979 140.369,13.262 140.317,13.377C140.145,13.757 139.874,13.953 139.531,13.992C139.124,14.036 138.607,14.027 138.191,13.983C138.122,13.976 138.051,13.882 138.051,13.882C138.051,13.882 138.003,13.744 138.059,13.703C138.077,13.69 138.003,13.673 138.018,13.653C137.936,13.774 137.814,13.866 137.785,14.02C137.703,14.453 137.929,14.9 137.986,15.285C138.027,15.57 138.009,15.808 137.989,15.998C137.953,16.33 137.721,16.507 137.552,16.658C137.343,16.846 136.932,16.911 136.638,16.934C136.638,16.938 136.628,16.938 136.613,16.938L136.615,16.936L136.638,16.934C136.639,16.932 136.637,16.929 136.632,16.926C136.626,16.922 136.62,16.928 136.615,16.936L136.607,16.936L136.58,16.938L136.598,16.938L136.613,16.938L136.604,16.95C136.576,16.977 136.508,16.941 136.494,16.974C136.468,17.038 136.41,17.092 136.402,17.174C136.384,17.363 136.372,17.573 136.384,17.836C136.558,17.892 136.815,17.952 137.037,17.914C137.289,17.871 137.53,17.741 137.764,17.62C138.046,17.453 138.247,16.911 138.511,16.382C138.855,15.695 139.231,15.027 139.561,14.693C139.877,14.375 140.259,14.325 140.573,14.314C140.979,14.299 141.423,14.525 141.822,15.214C142.039,15.614 142.206,15.958 142.254,16.351C142.31,16.804 142.212,17.287 142.069,17.986C141.918,18.643 141.703,18.938 141.441,19.048C141.178,19.158 140.905,19.254 140.609,19.157C140.624,19.187 140.64,19.216 140.659,19.245C140.897,19.609 141.225,19.883 141.332,20.109C141.443,20.341 141.358,20.541 141.286,20.714C141.203,20.916 140.969,21.053 140.522,21.148C140.216,21.213 139.618,21.53 139.149,21.643C139.183,21.906 139.195,22.19 139.182,22.488C139.164,22.877 139.123,23.262 139.144,23.623C139.157,23.846 139.145,24.046 139.229,24.205C139.253,24.25 139.25,24.308 139.293,24.334C139.454,24.435 139.634,24.245 139.929,24.064C139.989,24.027 139.979,23.941 140.021,23.878C140.068,23.808 140.087,23.729 140.091,23.647C139.592,23.296 139.418,22.656 139.709,22.12C140.038,21.513 140.839,21.267 141.497,21.571C141.668,21.704 141.872,21.773 141.976,21.945C142.223,22.352 142.523,22.828 142.31,23.409C142.021,24.196 141.346,25.162 140.463,25.291C139.605,25.431 139.153,25.292 138.764,25.034C138.638,24.95 138.516,24.873 138.398,24.769C137.702,24.157 137.555,22.528 136.952,21.851C136.814,21.692 136.74,21.534 136.699,21.389C136.537,20.82 136.698,20.374 137.061,20.094C137.328,19.889 137.669,19.645 138.174,19.629C138.707,19.612 139.429,19.746 139.985,19.834C139.968,19.768 139.945,19.704 139.911,19.649C139.686,19.283 139.427,18.948 139.371,18.612C139.315,18.336 139.421,18.166 139.48,18.043C139.609,17.777 139.881,17.73 140.192,17.697L140.227,17.697L140.137,17.233C139.502,17.79 138.608,18.313 138.199,18.444C137.922,18.541 137.626,18.585 137.352,18.667C136.801,18.832 136.318,18.972 135.941,18.968C135.388,18.962 135.127,18.624 134.967,18.305C134.712,17.804 134.592,17.426 134.518,17.092C134.413,16.624 134.563,16.26 134.744,15.845C134.777,15.778 134.812,15.719 134.856,15.668C135.203,15.268 135.572,15.126 135.911,15.11C136.195,15.097 136.669,15.188 136.783,15.211C136.886,14.848 136.929,14.307 136.943,13.938C136.951,13.743 136.885,13.587 136.865,13.408C136.839,13.252 136.936,13.151 136.971,13.018C137.052,12.711 137.359,12.614 137.691,12.414C137.793,12.352 137.905,12.32 138.033,12.289C137.917,12.029 137.796,11.746 137.704,11.473C137.488,10.83 137.416,10.232 137.463,9.971C137.574,9.359 137.932,9.087 138.35,9.051C138.555,9.033 138.926,8.995 139.318,9.332C139.63,9.603 140.023,9.938 140.3,10.356C140.398,10.504 140.469,10.657 140.531,10.806ZM140.188,23.709C140.218,23.738 140.256,23.759 140.304,23.77C140.264,23.751 140.225,23.731 140.188,23.709ZM140.093,23.568C140.09,23.463 140.073,23.356 140.069,23.258C140.068,23.23 140.016,23.197 140.016,23.197C140.016,23.197 139.971,23.204 139.977,23.216C139.998,23.266 139.941,23.325 139.973,23.362C140.025,23.423 140.057,23.498 140.093,23.568ZM139.001,20.964C139.009,20.92 139.011,20.873 138.996,20.822C138.992,20.81 138.956,20.832 138.95,20.816C138.968,20.864 138.985,20.913 139.001,20.964ZM140.513,18.615C140.53,18.584 140.541,18.564 140.541,18.564C140.541,18.564 140.517,18.582 140.514,18.599L140.513,18.615ZM140.565,17.787C140.727,17.838 140.87,17.872 140.858,17.767C140.846,17.665 140.683,17.712 140.565,17.787ZM136.529,16.94C136.394,16.948 136.304,16.945 136.304,16.945C136.304,16.945 136.453,16.993 136.516,16.945L136.529,16.94ZM139.885,15.909C139.887,15.9 139.89,15.893 139.884,15.895C139.874,15.899 139.877,15.904 139.885,15.909ZM136.775,15.241C136.733,15.271 136.661,15.319 136.603,15.342C136.525,15.373 136.326,15.523 136.442,15.578C136.592,15.648 136.699,15.493 136.775,15.241Z" style="fill:white;"/>
            </g>
            <g transform="matrix(-0.7527,0,0,0.781873,253.042,3.59226)">
                <path d="M140.182,12.022L140.264,12.065C140.331,12.102 140.395,12.132 140.446,12.176C140.645,12.346 140.763,12.502 140.879,12.578C141.111,12.731 141.325,12.651 141.49,12.592C141.646,12.536 141.767,12.364 141.835,12.017L142.687,8.018C142.698,7.339 142.1,6.78 141.353,6.771C140.606,6.761 139.991,7.304 139.98,7.982L140.494,10.66C140.443,10.56 140.386,10.458 140.319,10.357C140.043,9.94 139.647,9.605 139.333,9.335C138.92,8.979 138.526,9.031 138.313,9.056C137.909,9.103 137.552,9.375 137.446,9.98C137.4,10.242 137.471,10.833 137.685,11.47C137.778,11.746 137.901,12.031 138.019,12.293C137.893,12.325 137.783,12.359 137.682,12.422C137.352,12.626 137.039,12.72 136.962,13.029C136.929,13.158 136.834,13.258 136.861,13.411C136.879,13.588 136.943,13.745 136.934,13.939C136.917,14.305 136.874,14.842 136.772,15.204C136.636,15.177 136.177,15.094 135.897,15.109C135.556,15.127 135.173,15.264 134.834,15.674C134.791,15.726 134.757,15.784 134.728,15.852C134.549,16.265 134.401,16.627 134.507,17.093C134.583,17.425 134.703,17.802 134.96,18.302C135.122,18.621 135.382,18.956 135.935,18.964C136.314,18.969 136.8,18.829 137.355,18.665C137.63,18.583 137.927,18.54 138.206,18.443C138.61,18.313 139.491,17.799 140.127,17.25L140.215,17.697L140.189,17.699C139.873,17.733 139.594,17.781 139.467,18.054C139.41,18.175 139.308,18.342 139.364,18.612C139.42,18.947 139.679,19.281 139.903,19.646C139.938,19.702 139.969,19.767 139.997,19.835C139.435,19.748 138.698,19.612 138.158,19.632C137.639,19.651 137.296,19.904 137.026,20.119C136.677,20.397 136.525,20.834 136.683,21.391C136.723,21.534 136.797,21.688 136.932,21.845C137.534,22.52 137.688,24.134 138.378,24.753C138.496,24.859 138.617,24.937 138.742,25.023C139.136,25.292 139.592,25.435 140.471,25.289C141.356,25.158 142.035,24.193 142.327,23.406C142.541,22.829 142.242,22.357 141.999,21.954C141.895,21.78 141.687,21.709 141.514,21.574C140.848,21.266 140.032,21.508 139.694,22.113C139.394,22.65 139.569,23.293 140.078,23.646C140.074,23.73 140.056,23.81 140.008,23.882C139.967,23.944 139.981,24.029 139.922,24.066C139.629,24.244 139.454,24.435 139.296,24.333C139.254,24.306 139.258,24.248 139.235,24.202C139.152,24.042 139.165,23.841 139.154,23.617C139.135,23.257 139.177,22.872 139.196,22.484C139.211,22.185 139.199,21.899 139.164,21.635C139.63,21.522 140.22,21.215 140.523,21.15C140.985,21.053 141.224,20.911 141.305,20.702C141.371,20.532 141.453,20.335 141.343,20.107C141.234,19.882 140.904,19.609 140.666,19.246C140.645,19.215 140.627,19.183 140.612,19.151L140.64,19.161C140.937,19.253 141.201,19.15 141.464,19.035C141.721,18.923 141.93,18.63 142.081,17.985C142.225,17.288 142.326,16.807 142.271,16.354C142.224,15.962 142.056,15.618 141.839,15.218C141.435,14.523 140.983,14.298 140.573,14.313C140.254,14.325 139.863,14.376 139.543,14.7C139.213,15.034 138.84,15.7 138.498,16.386C138.236,16.914 138.038,17.454 137.757,17.621C137.525,17.742 137.286,17.873 137.034,17.917C136.816,17.954 136.563,17.896 136.392,17.842C136.381,17.577 136.393,17.365 136.412,17.176C136.421,17.092 136.48,17.036 136.507,16.972C136.521,16.937 136.591,16.97 136.62,16.942L136.624,16.939L136.62,16.939L136.625,16.939C136.634,16.93 136.649,16.923 136.658,16.929L136.665,16.936L136.625,16.939L136.624,16.939C136.649,16.941 136.669,16.942 136.665,16.936C136.96,16.911 137.361,16.844 137.568,16.658C137.737,16.507 137.972,16.328 138.007,15.994C138.026,15.805 138.044,15.568 138.001,15.284C137.943,14.899 137.716,14.453 137.794,14.019C137.822,13.867 137.942,13.772 138.022,13.65C138.004,13.674 138.09,13.696 138.068,13.71C138.018,13.742 138.053,13.861 138.053,13.861C138.053,13.861 138.056,13.9 138.074,13.902C138.122,13.906 138.137,13.97 138.191,13.976C138.609,14.019 139.127,14.033 139.536,13.99C139.882,13.95 140.159,13.754 140.333,13.37C140.384,13.256 140.426,12.977 140.335,12.585C140.302,12.438 140.249,12.243 140.182,12.022ZM140.169,23.705C140.207,23.727 140.247,23.747 140.288,23.766C140.238,23.756 140.2,23.734 140.169,23.705ZM140.078,23.572C140.041,23.5 140.007,23.42 139.951,23.355C139.92,23.319 139.979,23.262 139.958,23.214C139.953,23.202 139.998,23.197 139.998,23.197C139.998,23.197 140.05,23.232 140.052,23.261C140.057,23.36 140.075,23.467 140.078,23.572ZM139.019,20.963C139.004,20.914 138.987,20.867 138.97,20.822C138.976,20.837 139.012,20.813 139.016,20.825C139.031,20.875 139.028,20.92 139.019,20.963ZM140.52,18.613L140.521,18.599C140.524,18.582 140.549,18.562 140.549,18.562C140.549,18.562 140.538,18.583 140.52,18.613ZM140.791,17.774C140.813,17.772 140.835,17.771 140.857,17.769C140.868,17.768 140.881,17.793 140.881,17.793C140.881,17.793 140.846,17.785 140.791,17.774ZM136.534,16.944L136.533,16.944C136.466,16.996 136.304,16.949 136.304,16.949C136.304,16.949 136.397,16.951 136.534,16.944ZM139.87,15.898C139.864,15.896 139.862,15.893 139.869,15.89C139.873,15.888 139.872,15.892 139.87,15.898ZM136.76,15.246C136.684,15.496 136.576,15.649 136.425,15.579C136.306,15.524 136.509,15.373 136.587,15.342C136.644,15.319 136.714,15.277 136.76,15.246Z" style="fill:white;"/>
            </g>
        </g>
        <g id="wound">
        </g>
        <g id="power">
        </g>
        <g id="solar">
        </g>
        <g transform="matrix(-0.836256,-0.845147,0.836256,-0.845147,371.793,207.877)">
            <g id="machines">
            </g>
        </g>
    </g>
</svg>
