<?xml version="1.0" encoding="UTF-8" standalone="no"?>
<!DOCTYPE svg PUBLIC "-//W3C//DTD SVG 1.1//EN" "http://www.w3.org/Graphics/SVG/1.1/DTD/svg11.dtd">
<svg width="100%" height="100%" viewBox="0 0 32 32" version="1.1" xmlns="http://www.w3.org/2000/svg" xmlns:xlink="http://www.w3.org/1999/xlink" xml:space="preserve" xmlns:serif="http://www.serif.com/" style="fill-rule:evenodd;clip-rule:evenodd;stroke-linejoin:round;stroke-miterlimit:2;">
    <g transform="matrix(1,0,0,1,-224,-128)">
        <g id="unknown">
        </g>
        <g id="plumbing">
        </g>
        <g id="genetics">
        </g>
        <g id="surgery">
        </g>
        <g id="trauma">
        </g>
        <g id="wound">
        </g>
        <g id="power">
        </g>
        <g id="solar">
        </g>
        <g transform="matrix(-0.836256,-0.845147,0.836256,-0.845147,371.793,207.877)">
            <g id="machines">
            </g>
        </g>
        <g id="supermatter">
        </g>
        <g id="shield">
        </g>
        <g id="turbine">
        </g>
        <g id="tcomm">
        </g>
        <g id="atmos">
        </g>
        <g id="xeno">
        </g>
        <g id="nanites">
        </g>
        <g id="aimod">
        </g>
        <g id="tips">
        </g>
        <g id="races">
        </g>
        <g transform="matrix(-0.919427,1.41035,-1.41035,-0.919427,545.108,-83.547)">
            <g id="food">
                <path d="M205.932,100.694L206.563,95.122C206.584,94.94 206.704,94.784 206.875,94.718C206.875,94.718 207.863,94.344 208.61,94.386C209.04,94.41 209.397,94.569 209.603,94.863C209.744,95.064 209.829,95.338 209.782,95.719C209.667,96.64 209.145,98.888 208.788,100.371L209.265,100.431C209.265,100.431 208.881,110.034 208.042,111.426C206.04,114.746 203.475,113.939 203.475,113.939L205.932,100.694ZM204.531,112.661C204.531,112.665 204.53,112.664 204.535,112.664L204.537,112.656C204.599,112.6 205.145,112.261 205.573,110.954C206.183,109.088 206.684,105.553 206.602,101.333L204.537,112.656L204.531,112.661ZM209.992,103.444C211.774,103.856 213.149,104.178 213.251,104.209C214.826,104.691 215.557,104.918 215.569,106.212C215.584,107.828 213.635,108.773 212.06,108.411L211.883,108.371L212.111,108.231C212.562,107.975 213.004,107.702 213.438,107.417C213.694,107.25 213.783,106.949 213.639,106.741C213.495,106.532 213.17,106.493 212.91,106.653L211.612,107.449C211.236,107.661 210.853,107.862 210.46,108.044L209.633,107.854L209.726,106.926C209.916,106.809 210.105,106.688 210.292,106.566C210.547,106.399 210.636,106.098 210.492,105.89C210.36,105.698 210.075,105.65 209.827,105.768L209.875,105.157C209.892,104.935 209.908,104.712 209.924,104.489L209.992,103.444ZM200.329,105.719L200.322,105.718C198.747,105.356 197.718,103.773 198.123,102.209C198.401,101.135 199.542,101.142 201.454,101.504C201.755,101.56 203.053,101.852 204.685,102.224L203.914,106.38L203.673,106.487L201.87,106.073L202.562,105.648C203.013,105.392 203.455,105.119 203.889,104.834C204.145,104.667 204.234,104.366 204.09,104.158C203.946,103.95 203.621,103.911 203.361,104.071L202.063,104.866C201.504,105.183 200.928,105.472 200.329,105.719ZM207.807,100.25C208.159,98.798 208.691,96.521 208.806,95.599C208.815,95.526 208.823,95.469 208.798,95.429C208.768,95.381 208.702,95.384 208.639,95.375C208.529,95.36 208.408,95.363 208.286,95.375C208,95.403 207.709,95.478 207.505,95.541L206.983,100.149L207.807,100.25Z" style="fill:white;"/>
            </g>
        </g>
        <g id="hydro">
        </g>
        <g id="song">
        </g>
        <g id="crate">
        </g>
        <g id="space">
        </g>
        <g id="aux">
        </g>
        <g id="security">
        </g>
        <g id="law">
        </g>
        <g id="sop">
        </g>
        <g id="trial">
            <g transform="matrix(0.640556,0,0,1.14906,133.951,-27.3125)">
                <path d="M170.667,156.672L181.457,156.672C182.319,156.672 183.018,156.282 183.018,155.802C183.018,155.321 182.319,154.932 181.457,154.932L170.667,154.932C169.805,154.932 169.106,155.321 169.106,155.802C169.106,156.282 169.805,156.672 170.667,156.672Z" style="fill:white;"/>
            </g>
            <g transform="matrix(1,0,0,1,71.205,1.49464)">
                <path d="M182.128,154.837C182.128,153.137 180.75,151.759 179.05,151.759C177.473,151.759 173.574,151.759 171.997,151.759C170.297,151.759 168.919,153.137 168.919,154.837C168.919,154.838 168.919,154.839 168.919,154.839C168.919,155.391 169.367,155.839 169.919,155.839L181.128,155.839C181.681,155.839 182.128,155.391 182.128,154.839L182.128,154.837ZM172.168,152.537C172.168,152.537 170.118,152.818 170.118,154.717C170.118,154.907 170.414,155.061 170.596,155.061C170.778,155.061 170.926,154.907 170.926,154.717C170.926,153.385 172.395,153.221 172.395,153.221C172.576,153.198 172.705,153.027 172.683,152.838C172.661,152.649 172.349,152.514 172.168,152.537Z" style="fill:white;"/>
            </g>
            <path d="M246.356,141.294C247.137,140.512 247.137,139.246 246.356,138.465L243.47,135.579C242.689,134.798 241.422,134.798 240.641,135.579L238.074,138.146C237.293,138.927 237.293,140.193 238.074,140.974L240.961,143.86C241.742,144.641 243.008,144.641 243.789,143.86L246.356,141.294Z" style="fill:white;"/>
            <path d="M236.369,142.966L238.993,145.59L229.834,154.75C229.653,154.931 229.444,155.066 229.221,155.157L229.136,155.189C229.058,155.216 228.977,155.238 228.896,155.255C228.517,155.332 228.119,155.291 227.761,155.129L227.628,155.062C227.505,154.995 227.389,154.913 227.281,154.815L227.21,154.747C226.486,154.023 226.486,152.849 227.21,152.125L236.369,142.966ZM240.406,145.14C240.523,145.022 240.589,144.863 240.589,144.697C240.589,144.531 240.523,144.372 240.406,144.254C239.716,143.565 238.394,142.243 237.705,141.554C237.588,141.436 237.428,141.37 237.262,141.37C237.096,141.37 236.937,141.436 236.82,141.554C236.819,141.554 236.819,141.554 236.819,141.554C236.702,141.672 236.636,141.831 236.636,141.997C236.636,142.163 236.702,142.322 236.819,142.44C237.508,143.129 238.831,144.451 239.52,145.14C239.637,145.258 239.796,145.324 239.962,145.324C240.128,145.324 240.288,145.258 240.405,145.14C240.405,145.14 240.405,145.14 240.406,145.14ZM244.88,135.634C244.823,135.69 244.792,135.766 244.792,135.846C244.792,135.925 244.823,136.002 244.88,136.058C245.153,136.332 245.627,136.806 245.901,137.08C245.958,137.136 246.034,137.168 246.114,137.168C246.193,137.168 246.269,137.136 246.326,137.08C246.461,136.945 246.644,136.762 246.828,136.578C247.019,136.386 247.127,136.126 247.127,135.855C247.127,135.584 247.019,135.324 246.828,135.132C246.827,135.132 246.827,135.132 246.827,135.132C246.635,134.94 246.375,134.832 246.104,134.832C245.833,134.832 245.573,134.94 245.382,135.132C245.198,135.315 245.014,135.499 244.88,135.634Z" style="fill:white;"/>
            <path d="M251.077,144.412C251.858,143.631 251.858,142.365 251.077,141.584L250.466,140.972C249.685,140.191 248.418,140.191 247.637,140.972L243.527,145.082C242.746,145.863 242.746,147.129 243.527,147.91L244.139,148.522C244.92,149.303 246.187,149.303 246.968,148.522L251.077,144.412Z" style="fill:white;"/>
            <path d="M240.973,134.257C241.754,133.476 241.754,132.21 240.973,131.429L240.461,130.917C239.68,130.136 238.413,130.136 237.632,130.917L233.523,135.027C232.741,135.808 232.741,137.074 233.523,137.855L234.034,138.367C234.815,139.148 236.082,139.148 236.863,138.367L240.973,134.257Z" style="fill:white;"/>
        </g>
    </g>
</svg>
