<svg viewBox="0 0 32 32" xmlns="http://www.w3.org/2000/svg" fill-rule="evenodd" clip-rule="evenodd" stroke-linejoin="round" stroke-miterlimit="2"><path d="M-10.245-13.692l7.278 6.013c.237.197.347.51.283.812 0 0-.38 1.737-1.127 2.752-.43.584-.982.942-1.586.962-.413.014-.877-.118-1.372-.535-1.193-1.009-3.883-3.812-5.647-5.679l-.523.618s-13.19-9.37-14.382-11.834c-2.842-5.876.655-8.752.655-8.752l16.42 15.643zm-15.59-12.978c-.005-.004-.003-.004-.008.003l.01.01c.022.139-.002 1.22 1.448 3.026 2.07 2.576 6.595 6.533 12.623 10.297l-14.071-13.323-.002-.013zm7.978 16.176c-2.219 2.134-3.937 3.778-4.075 3.893-2.128 1.778-3.12 2.6-4.956 1.428-2.293-1.465-1.834-5.083.125-6.971l.219-.213-.012.45a40.478 40.478 0 00-.072 2.62c0 .515.343.917.768.905.428-.01.781-.433.795-.947l.07-2.563c.047-.725.116-1.45.22-2.171l1.029-.992 1.223.984c-.01.376-.013.754-.013 1.13.002.513.344.915.77.903.392-.01.722-.367.783-.825l.818.629c.298.228.597.456.897.683l1.411 1.057zm5.676-15.72l.008-.009c1.959-1.888 5.137-1.884 6.97.125 1.26 1.38.201 2.982-2.067 5.346-.356.373-1.961 1.935-3.987 3.895l-5.152-4.909.07-.438 2.242-2.162-.037 1.367a40.478 40.478 0 00-.072 2.62c0 .514.343.917.769.905.426-.012.78-.435.793-.949l.072-2.561a26.07 26.07 0 01.391-3.23zm.838 15.575c1.724 1.831 4.446 4.675 5.641 5.685.095.08.168.144.247.145.095.002.152-.094.223-.174.122-.142.229-.315.324-.498a6.96 6.96 0 00.484-1.254l-6.019-4.973-.9 1.069zM19.273 24.713h6.911a1 1 0 000-2h-6.911a1 1 0 100 2zM29.333 28.332c0-1.7-1.378-3.078-3.078-3.078h-7.053a3.078 3.078 0 00-3.078 3.078v.002a1 1 0 001 1h11.209a1 1 0 001-1v-.002zm-9.96-2.3s-2.05.28-2.05 2.18c0 .19.296.344.478.344s.33-.154.33-.344c0-1.332 1.469-1.496 1.469-1.496a.341.341 0 00.288-.383c-.022-.19-.334-.324-.515-.301zM22.356 13.294a2 2 0 000-2.829L19.47 7.579a2 2 0 00-2.829 0l-2.567 2.567a2 2 0 000 2.828l2.887 2.886a2 2 0 002.828 0l2.567-2.566zM12.369 14.966l2.624 2.624-9.159 9.16c-.181.181-.39.316-.613.407l-.085.032a1.857 1.857 0 01-1.375-.06l-.133-.067a1.787 1.787 0 01-.347-.247l-.071-.068a1.854 1.854 0 010-2.622l9.159-9.159zm4.037 2.174a.63.63 0 000-.886l-2.701-2.7a.624.624 0 00-.885 0h-.001a.63.63 0 000 .886l2.701 2.7a.622.622 0 00.885 0h.001zm4.474-9.506a.297.297 0 000 .424l1.021 1.022a.304.304 0 00.213.088.303.303 0 00.212-.088l.502-.502a1.026 1.026 0 000-1.446h-.001a1.023 1.023 0 00-1.445 0l-.502.502zM27.077 16.412a2 2 0 000-2.828l-.611-.612a2 2 0 00-2.829 0l-4.11 4.11a2 2 0 000 2.828l.612.612a2 2 0 002.829 0l4.109-4.11zM16.973 6.257a2 2 0 000-2.828l-.512-.512a2 2 0 00-2.829 0l-4.109 4.11a1.998 1.998 0 000 2.828l.511.512a2 2 0 002.829 0l4.11-4.11z" fill="#fff"/></svg>