<svg viewBox="0 0 32 32" xmlns="http://www.w3.org/2000/svg" fill-rule="evenodd" clip-rule="evenodd" stroke-linecap="round" stroke-linejoin="round" stroke-miterlimit="10"><circle cx="48" cy="80" r="12.514" fill="none" stroke="#fff" stroke-width="1.67" transform="translate(-12.799 -32.017) scale(.60016)"/><circle cx="48" cy="80" r="12.514" fill="none" stroke="#fff" stroke-width="2.5" transform="matrix(.4001 0 0 .4001 -3.196 -16.013)"/><circle cx="48" cy="80" r="12.514" fill="#fff" stroke="#fff" stroke-width="3.81" transform="translate(3.419 -4.988) scale(.2623)"/><path d="M16.96 8.486c.19-.69 1.59-3.652 1.747-3.905.644-1.034 1.323-1.29 3.113-.9a.32.32 0 01.219.478c-.688 1.176-2.755 4.698-2.755 4.698s-.124-.007-.364-.035c-.049-.006 2.873-4.528 2.7-4.582-.194-.061-3.018 4.542-3.108 4.529a22.568 22.568 0 01-1.551-.283zM15.605 23.516c-.189.689-1.59 3.651-1.746 3.905-.644 1.034-1.323 1.29-3.113.9a.32.32 0 01-.219-.479c.687-1.176 2.754-4.697 2.754-4.697s.124.006.365.034c.049.006-2.873 4.528-2.7 4.583.194.06 3.018-4.542 3.107-4.529.382.054.902.143 1.552.283zM23.528 16.4c.689.189 3.651 1.59 3.905 1.746 1.034.644 1.29 1.323.9 3.113a.32.32 0 01-.479.22c-1.176-.688-4.697-2.755-4.697-2.755s.006-.124.034-.365c.006-.048 4.528 2.873 4.583 2.7.06-.194-4.542-3.018-4.529-3.107.054-.382.143-.902.283-1.552zM8.565 15.592c-.689-.189-3.651-1.59-3.905-1.746-1.034-.644-1.29-1.323-.9-3.113a.32.32 0 01.479-.219c1.176.687 4.697 2.755 4.697 2.755s-.006.124-.034.364c-.006.049-4.528-2.873-4.583-2.7-.06.194 4.542 3.018 4.529 3.107-.054.382-.143.903-.283 1.552zM22.006 11.333c.621-.353 3.707-1.458 3.997-1.526 1.186-.276 1.847.023 2.837 1.565a.32.32 0 01-.183.493c-1.318.345-5.27 1.374-5.27 1.374s-.083-.093-.233-.282c-.03-.039 5.233-1.17 5.15-1.331-.095-.181-5.346 1.077-5.4 1.005a22.568 22.568 0 01-.898-1.298zM10.42 21.002c-.62.354-3.706 1.459-3.996 1.527-1.186.276-1.847-.023-2.837-1.565a.32.32 0 01.183-.493c1.318-.346 5.27-1.374 5.27-1.374s.083.092.233.282c.03.039-5.233 1.17-5.15 1.331.095.18 5.346-1.077 5.4-1.005.232.309.537.739.898 1.297zM21.053 21.573c.354.62 1.459 3.706 1.527 3.996.276 1.187-.023 1.848-1.565 2.837a.32.32 0 01-.493-.183c-.346-1.317-1.374-5.27-1.374-5.27s.092-.082.282-.232c.039-.03 1.17 5.233 1.331 5.15.18-.095-1.077-5.347-1.005-5.4.309-.232.739-.538 1.297-.898zM11.046 10.422c-.354-.62-1.459-3.706-1.527-3.996-.276-1.187.023-1.848 1.565-2.838a.32.32 0 01.493.184c.346 1.317 1.374 5.27 1.374 5.27s-.092.082-.282.232c-.039.03-1.17-5.233-1.331-5.15-.18.095 1.077 5.347 1.005 5.4-.309.232-.74.537-1.297.898zM19.752 9.534c.433-.548 2.822-2.675 3.06-2.843.972-.682 1.678-.654 3.131.373a.32.32 0 01.144.26.32.32 0 01-.13.266c-1.073.802-4.259 3.164-4.259 3.164s-.109-.054-.314-.17c-.041-.024 4.31-2.972 4.176-3.087-.152-.13-4.446 2.929-4.521 2.883a22.031 22.031 0 01-1.287-.846zM12.797 22.52c-.433.547-2.822 2.674-3.06 2.842-.972.682-1.678.654-3.131-.373a.32.32 0 01-.144-.26.32.32 0 01.13-.266c1.074-.802 4.259-3.164 4.259-3.164s.109.054.314.17c.042.024-4.31 2.972-4.175 3.087.15.13 4.445-2.929 4.52-2.883.323.195.757.473 1.287.847zM22.632 19.151c.547.433 2.674 2.822 2.842 3.06.682.972.654 1.678-.373 3.131a.32.32 0 01-.26.144.32.32 0 01-.266-.13c-.802-1.074-3.164-4.259-3.164-4.259s.054-.109.17-.314c.024-.042 2.972 4.31 3.087 4.175.13-.15-2.929-4.445-2.883-4.52.195-.323.473-.757.847-1.287zM9.496 12.714c-.547-.433-2.674-2.823-2.842-3.06-.682-.972-.654-1.678.373-3.132a.32.32 0 01.26-.143.32.32 0 01.266.129c.802 1.074 3.164 4.26 3.164 4.26s-.054.108-.17.313c-.024.042-2.972-4.31-3.087-4.175-.13.152 2.929 4.446 2.883 4.521-.195.323-.473.756-.847 1.287zM23.199 14.018c.693-.08 3.887.105 4.173.154 1.17.205 1.65.724 1.95 2.478a.32.32 0 01-.081.285.32.32 0 01-.28.097c-1.326-.193-5.249-.775-5.249-.775s-.04-.114-.101-.342c-.013-.047 5.148.946 5.134.77-.015-.199-5.214-1.073-5.235-1.159-.09-.366-.2-.869-.311-1.508zM9.098 18.283c-.693.081-3.887-.104-4.174-.154-1.169-.205-1.649-.723-1.95-2.478a.32.32 0 01.082-.285.32.32 0 01.28-.097c1.326.193 5.249.775 5.249.775s.039.115.101.343c.013.046-5.148-.946-5.135-.77.016.198 5.215 1.073 5.236 1.158.09.366.2.869.311 1.508zM18.434 22.855c.081.693-.104 3.887-.154 4.173-.205 1.17-.723 1.65-2.478 1.95a.32.32 0 01-.285-.081.32.32 0 01-.097-.28c.193-1.326.775-5.249.775-5.249s.115-.04.343-.101c.046-.013-.946 5.148-.77 5.134.198-.015 1.073-5.214 1.158-5.235.366-.09.869-.2 1.508-.311zM13.698 9.015c-.08-.693.105-3.887.154-4.174.205-1.169.724-1.649 2.478-1.95a.32.32 0 01.285.082.32.32 0 01.098.28c-.193 1.326-.776 5.249-.776 5.249s-.114.039-.342.101c-.046.013.946-5.149.77-5.135-.198.016-1.073 5.215-1.158 5.236-.366.09-.87.2-1.509.31z" fill="#fff"/></svg>