<?xml version="1.0" encoding="UTF-8" standalone="no"?>
<!DOCTYPE svg PUBLIC "-//W3C//DTD SVG 1.1//EN" "http://www.w3.org/Graphics/SVG/1.1/DTD/svg11.dtd">
<svg width="100%" height="100%" viewBox="0 0 32 32" version="1.1" xmlns="http://www.w3.org/2000/svg" xmlns:xlink="http://www.w3.org/1999/xlink" xml:space="preserve" xmlns:serif="http://www.serif.com/" style="fill-rule:evenodd;clip-rule:evenodd;stroke-linecap:round;stroke-linejoin:round;stroke-miterlimit:10;">
    <g transform="matrix(1,0,0,1,-32,-64)">
        <g id="unknown">
        </g>
        <g id="plumbing">
        </g>
        <g id="genetics">
        </g>
        <g id="surgery">
        </g>
        <g id="trauma">
        </g>
        <g id="wound">
        </g>
        <g id="power">
        </g>
        <g id="solar">
        </g>
        <g transform="matrix(-0.836256,-0.845147,0.836256,-0.845147,371.793,207.877)">
            <g id="machines">
            </g>
        </g>
        <g id="supermatter">
        </g>
        <g transform="matrix(0.600161,0,0,0.600161,19.2013,31.9831)">
            <circle cx="48" cy="80" r="12.514" style="fill:none;stroke:white;stroke-width:1.67px;"/>
        </g>
        <g transform="matrix(0.400107,0,0,0.400107,28.8039,47.9874)">
            <circle cx="48" cy="80" r="12.514" style="fill:none;stroke:white;stroke-width:2.5px;"/>
        </g>
        <g transform="matrix(0.262302,0,0,0.262302,35.4186,59.0118)">
            <circle cx="48" cy="80" r="12.514" style="fill:white;stroke:white;stroke-width:3.81px;"/>
        </g>
        <g transform="matrix(0.938803,0,0,0.938803,4.07079,3.07657)">
            <path d="M47.816,73.934C48.017,73.2 49.509,70.044 49.676,69.774C50.362,68.673 51.085,68.4 52.992,68.816C53.102,68.836 53.195,68.909 53.241,69.01C53.287,69.112 53.281,69.229 53.225,69.325C52.493,70.578 50.291,74.329 50.291,74.329C50.291,74.329 50.159,74.322 49.903,74.292C49.851,74.286 52.963,69.469 52.779,69.411C52.572,69.346 49.564,74.249 49.469,74.235C49.062,74.177 48.508,74.083 47.816,73.934Z" style="fill:white;"/>
        </g>
        <g transform="matrix(-0.938803,-1.1497e-16,1.1497e-16,-0.938803,92.4948,156.925)">
            <path d="M47.816,73.934C48.017,73.2 49.509,70.044 49.676,69.774C50.362,68.673 51.085,68.4 52.992,68.816C53.102,68.836 53.195,68.909 53.241,69.01C53.287,69.112 53.281,69.229 53.225,69.325C52.493,70.578 50.291,74.329 50.291,74.329C50.291,74.329 50.159,74.322 49.903,74.292C49.851,74.286 52.963,69.469 52.779,69.411C52.572,69.346 49.564,74.249 49.469,74.235C49.062,74.177 48.508,74.083 47.816,73.934Z" style="fill:white;"/>
        </g>
        <g transform="matrix(5.74851e-17,0.938803,-0.938803,5.74851e-17,124.937,35.5103)">
            <path d="M47.816,73.934C48.017,73.2 49.509,70.044 49.676,69.774C50.362,68.673 51.085,68.4 52.992,68.816C53.102,68.836 53.195,68.909 53.241,69.01C53.287,69.112 53.281,69.229 53.225,69.325C52.493,70.578 50.291,74.329 50.291,74.329C50.291,74.329 50.159,74.322 49.903,74.292C49.851,74.286 52.963,69.469 52.779,69.411C52.572,69.346 49.564,74.249 49.469,74.235C49.062,74.177 48.508,74.083 47.816,73.934Z" style="fill:white;"/>
        </g>
        <g transform="matrix(5.74851e-17,-0.938803,0.938803,5.74851e-17,-28.844,124.482)">
            <path d="M47.816,73.934C48.017,73.2 49.509,70.044 49.676,69.774C50.362,68.673 51.085,68.4 52.992,68.816C53.102,68.836 53.195,68.909 53.241,69.01C53.287,69.112 53.281,69.229 53.225,69.325C52.493,70.578 50.291,74.329 50.291,74.329C50.291,74.329 50.159,74.322 49.903,74.292C49.851,74.286 52.963,69.469 52.779,69.411C52.572,69.346 49.564,74.249 49.469,74.235C49.062,74.177 48.508,74.083 47.816,73.934Z" style="fill:white;"/>
        </g>
        <g transform="matrix(0.663834,0.663834,-0.663834,0.663834,71.3445,-5.48829)">
            <path d="M47.816,73.934C48.017,73.2 49.509,70.044 49.676,69.774C50.362,68.673 51.085,68.4 52.992,68.816C53.102,68.836 53.195,68.909 53.241,69.01C53.287,69.112 53.281,69.229 53.225,69.325C52.493,70.578 50.291,74.329 50.291,74.329C50.291,74.329 50.159,74.322 49.903,74.292C49.851,74.286 52.963,69.469 52.779,69.411C52.572,69.346 49.564,74.249 49.469,74.235C49.062,74.177 48.508,74.083 47.816,73.934Z" style="fill:white;"/>
        </g>
        <g transform="matrix(-0.663834,-0.663834,0.663834,-0.663834,25.0826,165.824)">
            <path d="M47.816,73.934C48.017,73.2 49.509,70.044 49.676,69.774C50.362,68.673 51.085,68.4 52.992,68.816C53.102,68.836 53.195,68.909 53.241,69.01C53.287,69.112 53.281,69.229 53.225,69.325C52.493,70.578 50.291,74.329 50.291,74.329C50.291,74.329 50.159,74.322 49.903,74.292C49.851,74.286 52.963,69.469 52.779,69.411C52.572,69.346 49.564,74.249 49.469,74.235C49.062,74.177 48.508,74.083 47.816,73.934Z" style="fill:white;"/>
        </g>
        <g transform="matrix(-0.663834,0.663834,-0.663834,-0.663834,133.875,102.911)">
            <path d="M47.816,73.934C48.017,73.2 49.509,70.044 49.676,69.774C50.362,68.673 51.085,68.4 52.992,68.816C53.102,68.836 53.195,68.909 53.241,69.01C53.287,69.112 53.281,69.229 53.225,69.325C52.493,70.578 50.291,74.329 50.291,74.329C50.291,74.329 50.159,74.322 49.903,74.292C49.851,74.286 52.963,69.469 52.779,69.411C52.572,69.346 49.564,74.249 49.469,74.235C49.062,74.177 48.508,74.083 47.816,73.934Z" style="fill:white;"/>
        </g>
        <g transform="matrix(0.663834,-0.663834,0.663834,0.663834,-37.7762,57.0839)">
            <path d="M47.816,73.934C48.017,73.2 49.509,70.044 49.676,69.774C50.362,68.673 51.085,68.4 52.992,68.816C53.102,68.836 53.195,68.909 53.241,69.01C53.287,69.112 53.281,69.229 53.225,69.325C52.493,70.578 50.291,74.329 50.291,74.329C50.291,74.329 50.159,74.322 49.903,74.292C49.851,74.286 52.963,69.469 52.779,69.411C52.572,69.346 49.564,74.249 49.469,74.235C49.062,74.177 48.508,74.083 47.816,73.934Z" style="fill:white;"/>
        </g>
        <g transform="matrix(0.843527,0.358377,-0.358377,0.843527,37.9143,-5.96796)">
            <path d="M47.816,73.934C48.017,73.2 49.509,70.044 49.676,69.774C50.361,68.675 51.082,68.401 52.98,68.813C53.093,68.834 53.188,68.908 53.235,69.012C53.283,69.116 53.277,69.236 53.219,69.335C52.482,70.598 50.291,74.329 50.291,74.329C50.291,74.329 50.159,74.322 49.903,74.292C49.851,74.286 52.963,69.469 52.779,69.411C52.572,69.346 49.564,74.249 49.469,74.235C49.062,74.177 48.508,74.083 47.816,73.934Z" style="fill:white;"/>
        </g>
        <g transform="matrix(-0.843527,-0.358377,0.358377,-0.843527,58.6348,166.021)">
            <path d="M47.816,73.934C48.017,73.2 49.509,70.044 49.676,69.774C50.361,68.675 51.082,68.401 52.98,68.813C53.093,68.834 53.188,68.908 53.235,69.012C53.283,69.116 53.277,69.236 53.219,69.335C52.482,70.598 50.291,74.329 50.291,74.329C50.291,74.329 50.159,74.322 49.903,74.292C49.851,74.286 52.963,69.469 52.779,69.411C52.572,69.346 49.564,74.249 49.469,74.235C49.062,74.177 48.508,74.083 47.816,73.934Z" style="fill:white;"/>
        </g>
        <g transform="matrix(-0.358377,0.843527,-0.843527,-0.358377,134.133,69.3132)">
            <path d="M47.816,73.934C48.017,73.2 49.509,70.044 49.676,69.774C50.361,68.675 51.082,68.401 52.98,68.813C53.093,68.834 53.188,68.908 53.235,69.012C53.283,69.116 53.277,69.236 53.219,69.335C52.482,70.598 50.291,74.329 50.291,74.329C50.291,74.329 50.159,74.322 49.903,74.292C49.851,74.286 52.963,69.469 52.779,69.411C52.572,69.346 49.564,74.249 49.469,74.235C49.062,74.177 48.508,74.083 47.816,73.934Z" style="fill:white;"/>
        </g>
        <g transform="matrix(0.358377,-0.843527,0.843527,0.358377,-38.005,90.5514)">
            <path d="M47.816,73.934C48.017,73.2 49.509,70.044 49.676,69.774C50.361,68.675 51.082,68.401 52.98,68.813C53.093,68.834 53.188,68.908 53.235,69.012C53.283,69.116 53.277,69.236 53.219,69.335C52.482,70.598 50.291,74.329 50.291,74.329C50.291,74.329 50.159,74.322 49.903,74.292C49.851,74.286 52.963,69.469 52.779,69.411C52.572,69.346 49.564,74.249 49.469,74.235C49.062,74.177 48.508,74.083 47.816,73.934Z" style="fill:white;"/>
        </g>
        <g transform="matrix(0.343053,0.849874,-0.849874,0.343053,101.63,12.0173)">
            <path d="M47.816,73.934C48.017,73.2 49.509,70.044 49.676,69.774C50.361,68.675 51.082,68.401 52.98,68.813C53.093,68.834 53.188,68.908 53.235,69.012C53.283,69.116 53.277,69.236 53.219,69.335C52.482,70.598 50.291,74.329 50.291,74.329C50.291,74.329 50.159,74.322 49.903,74.292C49.851,74.286 52.963,69.469 52.779,69.411C52.572,69.346 49.564,74.249 49.469,74.235C49.062,74.177 48.508,74.083 47.816,73.934Z" style="fill:white;"/>
        </g>
        <g transform="matrix(-0.343053,-0.849874,0.849874,-0.343053,-5.33319,148.284)">
            <path d="M47.816,73.934C48.017,73.2 49.509,70.044 49.676,69.774C50.361,68.675 51.082,68.401 52.98,68.813C53.093,68.834 53.188,68.908 53.235,69.012C53.283,69.116 53.277,69.236 53.219,69.335C52.482,70.598 50.291,74.329 50.291,74.329C50.291,74.329 50.159,74.322 49.903,74.292C49.851,74.286 52.963,69.469 52.779,69.411C52.572,69.346 49.564,74.249 49.469,74.235C49.062,74.177 48.508,74.083 47.816,73.934Z" style="fill:white;"/>
        </g>
        <g transform="matrix(-0.849874,0.343053,-0.343053,-0.849874,116.435,133.286)">
            <path d="M47.816,73.934C48.017,73.2 49.509,70.044 49.676,69.774C50.361,68.675 51.082,68.401 52.98,68.813C53.093,68.834 53.188,68.908 53.235,69.012C53.283,69.116 53.277,69.236 53.219,69.335C52.482,70.598 50.291,74.329 50.291,74.329C50.291,74.329 50.159,74.322 49.903,74.292C49.851,74.286 52.963,69.469 52.779,69.411C52.572,69.346 49.564,74.249 49.469,74.235C49.062,74.177 48.508,74.083 47.816,73.934Z" style="fill:white;"/>
        </g>
        <g transform="matrix(0.849874,-0.343053,0.343053,0.849874,-20.3024,26.5837)">
            <path d="M47.816,73.934C48.017,73.2 49.509,70.044 49.676,69.774C50.361,68.675 51.082,68.401 52.98,68.813C53.093,68.834 53.188,68.908 53.235,69.012C53.283,69.116 53.277,69.236 53.219,69.335C52.482,70.598 50.291,74.329 50.291,74.329C50.291,74.329 50.159,74.322 49.903,74.292C49.851,74.286 52.963,69.469 52.779,69.411C52.572,69.346 49.564,74.249 49.469,74.235C49.062,74.177 48.508,74.083 47.816,73.934Z" style="fill:white;"/>
        </g>
    </g>
</svg>
