<?xml version="1.0" encoding="UTF-8" standalone="no"?>
<!DOCTYPE svg PUBLIC "-//W3C//DTD SVG 1.1//EN" "http://www.w3.org/Graphics/SVG/1.1/DTD/svg11.dtd">
<svg width="100%" height="100%" viewBox="0 0 32 32" version="1.1" xmlns="http://www.w3.org/2000/svg" xmlns:xlink="http://www.w3.org/1999/xlink" xml:space="preserve" xmlns:serif="http://www.serif.com/" style="fill-rule:evenodd;clip-rule:evenodd;stroke-linecap:round;stroke-linejoin:round;stroke-miterlimit:1.5;">
    <g transform="matrix(1,0,0,1,-32,0)">
        <g id="unknown" transform="matrix(0.600398,0.600398,-0.568415,0.568415,27.9364,-22.2528)">
            <g transform="matrix(1.01677,0,0,1.01677,-0.814348,-0.268292)">
                <path d="M59.485,10.232C59.485,7.049 57.039,4.465 54.025,4.465L43.105,4.465C40.091,4.465 37.644,7.049 37.644,10.232L37.644,21.768C37.644,24.951 40.091,27.535 43.105,27.535L54.025,27.535C57.039,27.535 59.485,24.951 59.485,21.768L59.485,10.232Z" style="fill:none;stroke:white;stroke-width:2.97px;"/>
            </g>
            <g transform="matrix(0.721405,-0.552881,0.484704,0.732858,3.96616,29.6128)">
                <path d="M44.849,14.354C44.849,12.303 46.514,10.638 48.565,10.638C50.616,10.638 52.281,12.303 52.281,14.354C52.281,16.405 50.616,18.07 48.565,18.07C47.395,18.07 49.01,21.846 49.01,21.846" style="fill:none;stroke:white;stroke-width:2.73px;"/>
            </g>
            <g transform="matrix(0.866901,-0.930772,0.835033,0.866074,-8.72076,47.3909)">
                <path d="M49.627,22.899L49.53,22.351" style="fill:none;stroke:white;stroke-width:1.96px;"/>
            </g>
        </g>
        <g id="plumbing">
        </g>
        <g id="genetics">
        </g>
        <g id="surgery">
        </g>
        <g id="trauma">
        </g>
        <g id="wound">
        </g>
        <g id="power">
        </g>
        <g id="solar">
        </g>
        <g transform="matrix(-0.836256,-0.845147,0.836256,-0.845147,371.793,207.877)">
            <g id="machines">
            </g>
        </g>
        <g id="supermatter">
        </g>
        <g id="shield">
        </g>
        <g id="turbine">
        </g>
        <g id="tcomm">
        </g>
        <g id="atmos">
        </g>
        <g id="xeno">
        </g>
        <g id="nanites">
        </g>
        <g id="aimod">
        </g>
        <g id="tips">
        </g>
        <g id="races">
        </g>
        <g id="food">
        </g>
        <g id="hydro">
        </g>
        <g id="song">
        </g>
        <g id="crate">
        </g>
        <g id="space">
        </g>
        <g id="aux">
        </g>
        <g id="security">
        </g>
        <g id="law">
        </g>
        <g id="sop">
        </g>
    </g>
</svg>
