<?xml version="1.0" encoding="UTF-8" standalone="no"?>
<!DOCTYPE svg PUBLIC "-//W3C//DTD SVG 1.1//EN" "http://www.w3.org/Graphics/SVG/1.1/DTD/svg11.dtd">
<svg width="100%" height="100%" viewBox="0 0 32 32" version="1.1" xmlns="http://www.w3.org/2000/svg" xmlns:xlink="http://www.w3.org/1999/xlink" xml:space="preserve" xmlns:serif="http://www.serif.com/" style="fill-rule:evenodd;clip-rule:evenodd;stroke-linejoin:round;stroke-miterlimit:2;">
    <g transform="matrix(1,0,0,1,-96,0)">
        <g id="unknown">
        </g>
        <g id="plumbing">
        </g>
        <g id="genetics">
        </g>
        <g id="virus" transform="matrix(1.12668,0,0,1.12668,-14.1886,-2.02694)">
            <path d="M112.772,9.701L112.805,9.59C112.908,9.24 112.997,8.893 113.073,8.557C113.156,8.189 113.224,7.838 113.277,7.508C113.481,6.248 113.553,5.373 113.553,5.373C113.732,4.707 114.418,4.311 115.084,4.489C115.751,4.668 116.147,5.354 115.968,6.02C115.968,6.02 115.593,6.814 115.14,8.007C115.021,8.319 114.904,8.658 114.792,9.018C114.69,9.346 114.593,9.691 114.508,10.046L114.481,10.158C114.78,10.285 115.067,10.435 115.34,10.604L115.392,10.524C115.901,9.718 116.219,9.139 116.219,9.139C116.467,8.808 116.938,8.742 117.269,8.99C117.6,9.239 117.667,9.71 117.418,10.041C117.418,10.041 116.95,10.506 116.317,11.22L116.254,11.292C116.525,11.537 116.774,11.805 116.999,12.092L117.102,12.037C117.422,11.862 117.731,11.679 118.021,11.496C118.341,11.295 118.637,11.094 118.908,10.898C119.943,10.151 120.613,9.584 120.613,9.584C121.21,9.239 121.975,9.444 122.32,10.042C122.665,10.639 122.46,11.404 121.863,11.749C121.863,11.749 121.036,12.045 119.872,12.568C119.568,12.705 119.245,12.861 118.911,13.037C118.607,13.198 118.295,13.373 117.983,13.563L117.885,13.624C118.006,13.921 118.104,14.229 118.179,14.546L118.271,14.527C119.201,14.317 119.834,14.132 119.834,14.132C120.244,14.074 120.624,14.359 120.682,14.769C120.74,15.179 120.455,15.559 120.045,15.617C120.045,15.617 119.385,15.615 118.433,15.672L118.338,15.679C118.344,15.786 118.346,15.892 118.346,16C118.346,16.261 118.33,16.519 118.299,16.772L118.41,16.805C118.76,16.908 119.107,16.997 119.443,17.073C119.811,17.156 120.162,17.224 120.492,17.277C121.752,17.481 122.627,17.553 122.627,17.553C123.293,17.732 123.689,18.418 123.511,19.084C123.332,19.751 122.646,20.147 121.98,19.968C121.98,19.968 121.186,19.593 119.993,19.14C119.681,19.021 119.342,18.904 118.982,18.792C118.654,18.69 118.309,18.593 117.954,18.508L117.842,18.481C117.715,18.78 117.565,19.067 117.396,19.34L117.476,19.392C118.282,19.901 118.861,20.219 118.861,20.219C119.192,20.467 119.258,20.938 119.01,21.269C118.761,21.6 118.29,21.667 117.959,21.418C117.959,21.418 117.494,20.95 116.78,20.317L116.708,20.254C116.463,20.525 116.195,20.774 115.908,20.999L115.963,21.102C116.138,21.422 116.321,21.731 116.504,22.021C116.705,22.341 116.906,22.637 117.102,22.908C117.849,23.943 118.416,24.613 118.416,24.613C118.761,25.21 118.556,25.975 117.958,26.32C117.361,26.665 116.596,26.46 116.251,25.863C116.251,25.863 115.955,25.036 115.432,23.872C115.295,23.568 115.139,23.245 114.963,22.911C114.802,22.607 114.627,22.295 114.437,21.983L114.376,21.885C114.079,22.006 113.771,22.104 113.454,22.179L113.473,22.271C113.683,23.201 113.868,23.834 113.868,23.834C113.926,24.244 113.641,24.624 113.231,24.682C112.821,24.74 112.441,24.455 112.383,24.045C112.383,24.045 112.385,23.385 112.328,22.433L112.321,22.338C112.214,22.344 112.108,22.346 112,22.346C111.739,22.346 111.481,22.33 111.228,22.299L111.195,22.41C111.092,22.76 111.003,23.107 110.927,23.443C110.844,23.811 110.776,24.162 110.723,24.492C110.519,25.752 110.447,26.627 110.447,26.627C110.268,27.293 109.582,27.689 108.916,27.511C108.249,27.332 107.853,26.646 108.032,25.98C108.032,25.98 108.407,25.186 108.86,23.993C108.979,23.681 109.096,23.342 109.208,22.982C109.31,22.654 109.407,22.309 109.492,21.954L109.519,21.842C109.22,21.715 108.933,21.565 108.66,21.396L108.608,21.476C108.099,22.282 107.781,22.861 107.781,22.861C107.533,23.192 107.062,23.258 106.731,23.01C106.4,22.761 106.333,22.29 106.582,21.959C106.582,21.959 107.05,21.494 107.683,20.78L107.746,20.708C107.475,20.463 107.226,20.195 107.001,19.908L106.898,19.963C106.578,20.138 106.269,20.321 105.979,20.504C105.659,20.705 105.363,20.906 105.092,21.102C104.057,21.849 103.387,22.416 103.387,22.416C102.79,22.761 102.025,22.556 101.68,21.958C101.335,21.361 101.54,20.596 102.137,20.251C102.137,20.251 102.964,19.955 104.128,19.432C104.432,19.295 104.755,19.139 105.089,18.963C105.393,18.802 105.705,18.627 106.017,18.437L106.115,18.376C105.994,18.079 105.896,17.771 105.821,17.454L105.729,17.473C104.799,17.683 104.166,17.868 104.166,17.868C103.756,17.926 103.376,17.641 103.318,17.231C103.26,16.821 103.545,16.441 103.955,16.383C103.955,16.383 104.615,16.385 105.567,16.328L105.662,16.321C105.656,16.214 105.654,16.108 105.654,16C105.654,15.739 105.67,15.481 105.701,15.228L105.59,15.195C105.24,15.092 104.893,15.003 104.557,14.927C104.189,14.844 103.838,14.776 103.508,14.723C102.248,14.519 101.373,14.447 101.373,14.447C100.707,14.268 100.311,13.582 100.489,12.916C100.668,12.249 101.354,11.853 102.02,12.032C102.02,12.032 102.814,12.407 104.007,12.86C104.319,12.979 104.658,13.096 105.018,13.208C105.346,13.31 105.691,13.407 106.046,13.492L106.158,13.519C106.285,13.22 106.435,12.933 106.604,12.66L106.524,12.608C105.718,12.099 105.139,11.781 105.139,11.781C104.808,11.533 104.742,11.062 104.99,10.731C105.239,10.4 105.71,10.333 106.041,10.582C106.041,10.582 106.506,11.05 107.22,11.683L107.292,11.746C107.537,11.475 107.805,11.226 108.092,11.001L108.037,10.898C107.862,10.578 107.679,10.269 107.496,9.979C107.295,9.659 107.094,9.363 106.898,9.092C106.151,8.057 105.584,7.387 105.584,7.387C105.239,6.79 105.444,6.025 106.042,5.68C106.639,5.335 107.404,5.54 107.749,6.137C107.749,6.137 108.045,6.964 108.568,8.128C108.705,8.432 108.861,8.755 109.037,9.089C109.198,9.393 109.373,9.705 109.563,10.017L109.624,10.115C109.921,9.994 110.229,9.896 110.546,9.821L110.527,9.729C110.317,8.799 110.132,8.166 110.132,8.166C110.074,7.756 110.359,7.376 110.769,7.318C111.179,7.26 111.559,7.545 111.617,7.955C111.617,7.955 111.615,8.615 111.672,9.567L111.679,9.662C111.786,9.656 111.892,9.654 112,9.654C112.261,9.654 112.519,9.67 112.772,9.701ZM109.633,16.417C110.519,16.417 111.238,17.136 111.238,18.022C111.238,18.907 110.519,19.626 109.633,19.626C108.748,19.626 108.029,18.907 108.029,18.022C108.029,17.136 108.748,16.417 109.633,16.417ZM114.494,13.582C115.598,13.582 116.494,14.478 116.494,15.582C116.494,16.685 115.598,17.581 114.494,17.581C113.391,17.581 112.495,16.685 112.495,15.582C112.495,14.478 113.391,13.582 114.494,13.582ZM109.996,12.267C110.585,12.267 111.063,12.745 111.063,13.333C111.063,13.922 110.585,14.4 109.996,14.4C109.408,14.4 108.93,13.922 108.93,13.333C108.93,12.745 109.408,12.267 109.996,12.267Z" style="fill:white;"/>
        </g>
        <g transform="matrix(0.959088,-0.283109,0.283109,0.959088,-11.8658,30.5845)">
            <g id="surgery">
                <path d="M109.198,52.73L110.616,54.147C110.665,54.197 110.692,54.264 110.691,54.334C110.689,54.404 110.66,54.47 110.609,54.518C109.636,55.473 109.734,57.059 109.893,57.377L109.893,57.377C107.851,59.537 103.147,61.913 99.149,61.086C99.052,61.063 98.975,60.989 98.948,60.893C98.921,60.797 98.948,60.694 99.019,60.624C100.301,59.354 106.993,52.719 107.974,51.746C108.041,51.68 108.148,51.68 108.215,51.746L108.609,52.141L100.493,60.261C100.493,60.261 101.85,60.079 102.046,59.884L109.198,52.73ZM111.42,50.507L113.681,52.768C113.789,52.876 113.85,53.023 113.85,53.175C113.85,53.328 113.789,53.474 113.681,53.582C113.366,53.897 112.932,54.332 112.617,54.647C112.509,54.755 112.362,54.816 112.21,54.816C112.057,54.816 111.911,54.755 111.803,54.647L109.541,52.386L111.42,50.507ZM120.984,40.94L124.165,41.931C124.358,41.991 124.505,42.147 124.553,42.343C124.601,42.539 124.543,42.746 124.4,42.888C122.573,44.709 117.501,49.765 114.908,52.356C114.683,52.581 114.318,52.581 114.094,52.356L111.832,50.095L120.984,40.94ZM108.953,51.798L108.845,51.69C108.738,51.582 108.677,51.436 108.677,51.283C108.677,51.13 108.738,50.984 108.845,50.876C109.161,50.561 109.595,50.126 109.91,49.811C110.018,49.703 110.165,49.643 110.317,49.643C110.47,49.643 110.616,49.703 110.724,49.811L110.832,49.918L108.953,51.798ZM111.244,49.506L111.138,49.401C111.03,49.292 110.969,49.145 110.969,48.992C110.97,48.839 111.031,48.693 111.14,48.585C112.655,47.082 117.91,41.869 119.111,40.677C119.263,40.527 119.485,40.473 119.688,40.536L120.087,40.66L111.244,49.506Z" style="fill:white;"/>
            </g>
        </g>
        <g transform="matrix(1.066,1.30071e-32,0,1.05526,-9.51961,-1.33485)">
            <g id="trauma">
                <path d="M143.062,8.827C143.062,8.827 143.199,12.305 143.199,15.785C143.199,19.265 143.062,22.743 143.062,22.743C143.062,23.266 143.482,23.691 144,23.691C144.518,23.691 144.938,23.266 144.938,22.743C144.938,22.743 144.801,19.265 144.801,15.785C144.801,12.305 144.938,8.827 144.938,8.827C144.938,8.304 144.518,7.879 144,7.879C143.482,7.879 143.062,8.304 143.062,8.827Z" style="fill:white;"/>
            </g>
        </g>
        <g id="wound">
        </g>
        <g id="power">
        </g>
        <g id="solar">
        </g>
        <g transform="matrix(-0.836256,-0.845147,0.836256,-0.845147,371.793,207.877)">
            <g id="machines">
            </g>
        </g>
        <g id="supermatter">
        </g>
        <g id="shield">
        </g>
        <g id="turbine">
        </g>
        <g id="tcomm">
        </g>
        <g id="atmos">
        </g>
        <g id="xeno">
        </g>
        <g id="nanites">
        </g>
        <g id="aimod">
        </g>
        <g id="tips">
        </g>
        <g id="races">
        </g>
        <g id="food">
        </g>
        <g id="hydro">
        </g>
    </g>
</svg>
