<?xml version="1.0" encoding="UTF-8" standalone="no"?>
<!DOCTYPE svg PUBLIC "-//W3C//DTD SVG 1.1//EN" "http://www.w3.org/Graphics/SVG/1.1/DTD/svg11.dtd">
<svg width="100%" height="100%" viewBox="0 0 32 32" version="1.1" xmlns="http://www.w3.org/2000/svg" xmlns:xlink="http://www.w3.org/1999/xlink" xml:space="preserve" xmlns:serif="http://www.serif.com/" style="fill-rule:evenodd;clip-rule:evenodd;stroke-linejoin:round;stroke-miterlimit:2;">
    <g transform="matrix(1,0,0,1,-128,-32)">
        <g id="unknown">
        </g>
        <g id="plumbing">
        </g>
        <g id="genetics">
        </g>
        <g id="surgery">
        </g>
        <g transform="matrix(1.066,1.30071e-32,0,1.05526,-9.51961,-1.33485)">
            <g id="trauma">
                <path d="M143.062,8.827C143.062,8.827 143.199,12.305 143.199,15.785C143.199,19.265 143.062,22.743 143.062,22.743C143.062,23.266 143.482,23.691 144,23.691C144.518,23.691 144.938,23.266 144.938,22.743C144.938,22.743 144.801,19.265 144.801,15.785C144.801,12.305 144.938,8.827 144.938,8.827C144.938,8.304 144.518,7.879 144,7.879C143.482,7.879 143.062,8.304 143.062,8.827Z" style="fill:white;"/>
            </g>
        </g>
        <g id="wound">
            <g transform="matrix(1.05886,0,0,1.05886,-8.3974,-2.14351)">
                <path d="M138.945,49.047L138.917,49.023C138.76,48.842 138.72,48.586 138.816,48.366L139.737,45.797C139.77,45.72 139.814,45.651 139.871,45.592L139.387,45.041C139.203,44.822 139.019,44.604 138.835,44.385L138.55,44.031L138.464,44.038C138.464,44.038 138.146,43.904 137.641,43.786C137.39,43.727 137.111,43.679 136.819,43.651C136.653,43.636 136.486,43.636 136.326,43.638C135.698,43.644 135.177,43.691 135.177,43.691C134.937,43.693 134.718,43.557 134.612,43.342C134.506,43.127 134.533,42.87 134.681,42.681L136.099,40.62C135.318,39.398 134.638,38.166 134.065,36.946C133.771,36.619 133.764,36.286 133.796,36.066C133.834,35.797 133.966,35.534 134.278,35.332C134.524,35.177 134.825,35.137 135.103,35.221C135.29,35.278 135.455,35.388 135.578,35.536C135.723,35.554 135.993,35.853 136.305,36.018C136.96,36.364 137.875,36.838 138.956,37.469C139.085,37.475 139.367,37.476 139.738,37.439C139.995,37.413 140.274,37.369 140.56,37.3C140.722,37.262 140.879,37.207 141.03,37.154C141.623,36.945 142.1,36.731 142.1,36.731C142.326,36.651 142.578,36.708 142.748,36.878C142.918,37.047 142.976,37.299 142.897,37.526L142.31,39.623C142.989,40.105 143.689,40.635 144.395,41.218C144.529,41.232 144.805,41.252 145.167,41.24C145.425,41.232 145.706,41.206 145.996,41.158C146.16,41.13 146.321,41.086 146.475,41.043C147.081,40.875 147.571,40.695 147.571,40.695C147.803,40.63 148.05,40.705 148.208,40.885C148.366,41.066 148.406,41.321 148.312,41.541L147.434,44.018C148.117,44.727 148.79,45.489 149.441,46.307C149.572,46.349 149.738,46.396 149.931,46.44C150.182,46.498 150.461,46.545 150.753,46.572C150.919,46.587 151.086,46.586 151.246,46.584C151.874,46.576 152.395,46.527 152.395,46.527C152.635,46.524 152.855,46.659 152.962,46.874C153.068,47.089 153.042,47.346 152.895,47.535L151.62,49.403C152.513,50.85 153.323,52.436 154.009,54.172C154.138,54.496 154.057,54.866 153.805,55.106C153.553,55.347 153.18,55.41 152.863,55.265C151.314,54.568 149.826,53.76 148.411,52.861C148.191,52.05 147.88,51.171 147.516,50.289L147.418,50.062C147.693,50.266 147.972,50.466 148.255,50.661L148.894,51.027C148.986,51.09 149.066,51.166 149.129,51.253C149.881,51.744 150.654,52.208 151.447,52.643C150.626,51.006 149.689,49.53 148.685,48.204L148.324,47.798C148.27,47.727 148.226,47.651 148.194,47.57C147.784,47.056 147.364,46.565 146.938,46.098C143.526,42.356 139.731,40.059 137.211,38.712C138.286,40.588 139.607,42.46 141.147,44.243L141.11,44.296C141.093,44.324 141.077,44.353 141.063,44.383C141.063,44.383 140.323,45.931 139.457,47.875L138.945,49.047ZM144.621,53.053L144.7,53.256C144.661,53.193 144.634,53.125 144.621,53.053ZM142.593,45.829L142.924,46.173L142.785,46.156C142.655,46.152 142.529,46.174 142.411,46.217L142.593,45.829Z" style="fill:white;"/>
            </g>
            <g transform="matrix(1.2482,0,0,1.15768,-35.8428,-7.65206)">
                <path d="M143.869,45.747C143.715,45.474 143.44,45.307 143.143,45.307C142.847,45.307 142.572,45.474 142.418,45.747C142.418,45.747 141.795,47.153 141.066,48.919C140.644,49.939 140.184,51.071 139.818,52.135C139.419,53.294 139.118,54.371 139.115,55.162C139.101,56.365 139.549,57.458 140.271,58.258C141,59.067 142.016,59.57 143.143,59.589C144.283,59.609 145.319,59.119 146.078,58.326C146.847,57.525 147.322,56.404 147.341,55.162C147.359,54.142 146.928,52.63 146.343,51.104C145.328,48.453 143.869,45.747 143.869,45.747ZM143.088,47.888C142.872,48.237 142.626,48.647 142.371,49.099C141.937,49.868 141.477,50.751 141.093,51.644C140.531,52.953 140.127,54.27 140.125,55.162C140.135,56.055 140.483,56.859 141.034,57.436C141.578,58.007 142.326,58.346 143.143,58.332C143.949,58.318 144.671,57.947 145.19,57.368C145.701,56.799 146.005,56.016 145.992,55.162C145.977,54.29 145.527,53.026 144.981,51.743C144.371,50.308 143.62,48.863 143.088,47.888Z" style="fill:white;"/>
            </g>
            <g transform="matrix(1.05886,0,0,1.05886,-8.3974,-2.14351)">
                <path d="M142.82,45.333C142.82,45.333 138.667,52.176 138.667,55.108C138.667,57.4 140.528,59.261 142.82,59.261C145.112,59.261 146.973,57.4 146.973,55.108C146.973,52.176 142.82,45.333 142.82,45.333ZM142.943,57.116C141.673,57.116 140.841,56.058 140.841,54.788C140.841,54.374 140.505,54.038 140.091,54.038C139.677,54.038 139.341,54.374 139.341,54.788C139.341,56.916 140.815,58.616 142.943,58.616C143.357,58.616 143.693,58.28 143.693,57.866C143.693,57.452 143.357,57.116 142.943,57.116Z" style="fill:white;"/>
            </g>
        </g>
        <g id="power">
        </g>
        <g id="solar">
        </g>
        <g transform="matrix(-0.836256,-0.845147,0.836256,-0.845147,371.793,207.877)">
            <g id="machines">
            </g>
        </g>
        <g id="supermatter">
        </g>
        <g id="shield">
        </g>
        <g id="turbine">
        </g>
        <g id="tcomm">
        </g>
        <g id="atmos">
        </g>
        <g id="xeno">
        </g>
        <g id="nanites">
        </g>
        <g id="aimod">
        </g>
        <g id="tips">
        </g>
    </g>
</svg>
