<svg viewBox="0 0 32 32" xmlns="http://www.w3.org/2000/svg" fill-rule="evenodd" clip-rule="evenodd" stroke-linecap="round" stroke-linejoin="round" stroke-miterlimit="10"><path d="M14.652 19.178c.341.353.82.572 1.348.572.528 0 1.006-.22 1.347-.572l.75.433a5.337 5.337 0 002.185 6.835 5.338 5.338 0 006.443-.852l.8.46a7.202 7.202 0 01-9.029 1.51A7.153 7.153 0 0116 25.159a7.164 7.164 0 01-2.497 2.407 7.202 7.202 0 01-9.029-1.51.46.46 0 01.8-.461h0a5.338 5.338 0 006.443.852 5.337 5.337 0 002.185-6.835l.75-.433zm12.073 6.416a.46.46 0 01.8.461l-.8-.461zM16.58 14.856a5.337 5.337 0 004.797-5.307 5.338 5.338 0 00-3.959-5.154v-.923a7.2 7.2 0 015.821 7.064 7.147 7.147 0 01-.968 3.604 7.168 7.168 0 013.422.962 7.203 7.203 0 013.207 8.574.461.461 0 01-.63.166.46.46 0 01-.17-.628h0a5.339 5.339 0 00-2.484-6.006 5.337 5.337 0 00-6.925 1.408l-.834-.482a1.877 1.877 0 00-1.277-2.042v-1.236zM3.9 23.214a.46.46 0 01-.17.628.46.46 0 01-.629-.166l.8-.462zm9.41-4.598a5.337 5.337 0 00-6.926-1.408A5.339 5.339 0 003.9 23.214l-.799.462a7.202 7.202 0 013.206-8.574 7.157 7.157 0 013.508-.963A7.2 7.2 0 0114.67 3.472a.46.46 0 010 .923h0a5.338 5.338 0 00-3.959 5.154 5.336 5.336 0 004.71 5.297v1.246a1.877 1.877 0 00-1.277 2.042l-.834.482zm4.107-14.221a.46.46 0 010-.923v.923z" fill="#fff" stroke="#fff" stroke-width=".5"/><path d="M7.656 18.26a3.795 3.795 0 012.206-.178 6.086 6.086 0 002.861 4.835 3.783 3.783 0 01-1.213 1.848 8.315 8.315 0 01-3.854-6.505zm14.42-.163a3.786 3.786 0 012.209.139 8.32 8.32 0 01-3.822 6.507 3.787 3.787 0 01-1.195-1.858 6.079 6.079 0 002.808-4.788zm-9.799-7.834a8.256 8.256 0 013.692-.864c1.38 0 2.681.336 3.826.932a3.79 3.79 0 01-1.059 1.941 6.012 6.012 0 00-2.767-.666 5.98 5.98 0 00-2.666.618 3.802 3.802 0 01-1.026-1.961zM-10.245 50.308l7.278 6.013c.237.197.347.51.283.812 0 0-.38 1.737-1.127 2.752-.43.584-.982.942-1.586.962-.413.014-.877-.118-1.372-.535-1.193-1.009-3.883-3.812-5.647-5.679l-.523.618s-13.19-9.37-14.382-11.834c-2.842-5.876.655-8.752.655-8.752l16.42 15.643zm-15.59-12.978c-.005-.004-.003-.004-.008.003l.01.01c.022.139-.002 1.22 1.448 3.026 2.07 2.576 6.595 6.533 12.623 10.297l-14.071-13.323-.002-.013zm7.978 16.176c-2.219 2.134-3.937 3.778-4.075 3.893-2.128 1.778-3.12 2.6-4.956 1.428-2.293-1.465-1.834-5.083.125-6.971l.219-.213-.012.45a40.478 40.478 0 00-.072 2.62c0 .515.343.917.768.905.428-.01.781-.433.795-.947l.07-2.563c.047-.725.116-1.45.22-2.171l1.029-.992 1.223.984c-.01.376-.013.754-.013 1.13.002.513.344.915.77.903.392-.01.722-.367.783-.825l.818.629c.298.228.597.456.897.683l1.411 1.057zm5.676-15.72l.008-.009c1.959-1.888 5.137-1.884 6.97.125 1.26 1.38.201 2.982-2.067 5.346-.356.373-1.961 1.935-3.987 3.895l-5.152-4.909.07-.438 2.242-2.162-.037 1.367a40.478 40.478 0 00-.072 2.62c0 .514.343.917.769.905.426-.012.78-.435.793-.949l.072-2.561a26.07 26.07 0 01.391-3.23zm.838 15.575c1.724 1.831 4.446 4.675 5.641 5.685.095.08.168.144.247.145.095.002.152-.094.223-.174.122-.142.229-.315.324-.498a6.96 6.96 0 00.484-1.254l-6.019-4.973-.9 1.069z" fill="#fff"/></svg>