<?xml version="1.0" encoding="UTF-8" standalone="no"?>
<!DOCTYPE svg PUBLIC "-//W3C//DTD SVG 1.1//EN" "http://www.w3.org/Graphics/SVG/1.1/DTD/svg11.dtd">
<svg width="100%" height="100%" viewBox="0 0 32 32" version="1.1" xmlns="http://www.w3.org/2000/svg" xmlns:xlink="http://www.w3.org/1999/xlink" xml:space="preserve" xmlns:serif="http://www.serif.com/" style="fill-rule:evenodd;clip-rule:evenodd;stroke-linecap:round;stroke-linejoin:round;stroke-miterlimit:10;">
    <g transform="matrix(1,0,0,1,-224,-64)">
        <g id="unknown">
        </g>
        <g id="plumbing">
        </g>
        <g id="genetics">
        </g>
        <g id="surgery">
        </g>
        <g id="trauma">
        </g>
        <g id="wound">
        </g>
        <g id="power">
        </g>
        <g id="solar">
        </g>
        <g transform="matrix(-0.836256,-0.845147,0.836256,-0.845147,371.793,207.877)">
            <g id="machines">
            </g>
        </g>
        <g id="supermatter">
        </g>
        <g id="shield">
        </g>
        <g id="turbine">
        </g>
        <g id="tcomm">
        </g>
        <g id="atmos">
        </g>
        <g id="xeno">
            <g transform="matrix(1,0,0,1,0.0434522,0.804578)">
                <path d="M238.609,82.373C238.95,82.726 239.428,82.945 239.957,82.945C240.485,82.945 240.963,82.726 241.304,82.373L242.054,82.806C240.922,85.277 241.837,88.254 244.239,89.641C246.377,90.875 249.018,90.459 250.682,88.789L251.482,89.25C249.268,91.8 245.486,92.511 242.453,90.76C241.401,90.152 240.56,89.318 239.957,88.353C239.353,89.318 238.512,90.152 237.46,90.76C234.427,92.511 230.645,91.8 228.431,89.25C228.305,89.031 228.381,88.75 228.602,88.622C228.823,88.495 229.105,88.569 229.231,88.789L229.231,88.789C230.895,90.459 233.536,90.875 235.674,89.641C238.076,88.254 238.991,85.277 237.859,82.806L238.609,82.373ZM250.682,88.789C250.808,88.569 251.09,88.495 251.311,88.622C251.532,88.75 251.608,89.031 251.482,89.25L250.682,88.789ZM240.536,78.051C243.228,77.782 245.333,75.507 245.333,72.744C245.333,70.276 243.652,68.196 241.374,67.59L241.374,66.667C244.689,67.309 247.195,70.229 247.195,73.731C247.195,75.044 246.843,76.276 246.227,77.335C247.393,77.362 248.568,77.674 249.649,78.297C252.681,80.048 253.957,83.679 252.856,86.871C252.729,87.09 252.447,87.165 252.226,87.037C252.005,86.91 251.929,86.629 252.056,86.409L252.056,86.409C252.67,84.133 251.71,81.638 249.572,80.403C247.214,79.042 244.244,79.688 242.647,81.811L241.813,81.329C241.825,81.245 241.831,81.158 241.831,81.07C241.831,80.238 241.287,79.531 240.536,79.287L240.536,78.051ZM227.857,86.409C227.984,86.629 227.908,86.91 227.687,87.037C227.466,87.165 227.184,87.09 227.058,86.871L227.857,86.409ZM237.266,81.811C235.669,79.688 232.699,79.042 230.341,80.403C228.203,81.638 227.243,84.133 227.857,86.409L227.058,86.871C225.956,83.679 227.232,80.048 230.264,78.297C231.371,77.658 232.579,77.347 233.772,77.334C233.157,76.275 232.805,75.044 232.805,73.731C232.805,70.229 235.311,67.309 238.626,66.667C238.879,66.667 239.085,66.874 239.085,67.128C239.085,67.383 238.879,67.59 238.626,67.59L238.626,67.59C236.348,68.196 234.667,70.276 234.667,72.744C234.667,75.477 236.727,77.733 239.377,78.041L239.377,79.287C238.626,79.531 238.082,80.238 238.082,81.07C238.082,81.158 238.088,81.245 238.1,81.329L237.266,81.811ZM241.374,67.59C241.121,67.59 240.915,67.383 240.915,67.128C240.915,66.874 241.121,66.667 241.374,66.667L241.374,67.59Z" style="fill:white;stroke:white;stroke-width:0.5px;"/>
            </g>
            <path d="M231.656,82.26C232.374,81.976 233.142,81.925 233.862,82.082C233.973,84.122 235.087,85.897 236.723,86.917C236.515,87.625 236.102,88.274 235.51,88.765C233.322,87.377 231.826,84.997 231.656,82.26ZM246.076,82.097C246.795,81.927 247.563,81.964 248.285,82.236C248.122,84.969 246.638,87.348 244.463,88.743C243.877,88.246 243.469,87.595 243.268,86.885C244.872,85.862 245.964,84.11 246.076,82.097ZM236.277,74.263C237.389,73.709 238.643,73.399 239.969,73.399C241.349,73.399 242.65,73.735 243.795,74.331C243.64,75.083 243.264,75.754 242.736,76.272C241.907,75.844 240.966,75.606 239.969,75.606C239.013,75.606 238.107,75.825 237.303,76.224C236.785,75.696 236.419,75.019 236.277,74.263Z" style="fill:white;"/>
        </g>
        <g id="nanites">
        </g>
        <g id="aimod">
        </g>
        <g id="tips">
        </g>
    </g>
</svg>
