<svg viewBox="0 0 32 32" xmlns="http://www.w3.org/2000/svg" fill-rule="evenodd" clip-rule="evenodd" stroke-linejoin="round" stroke-miterlimit="2"><path d="M7.685 20.416a1.482 1.482 0 112 0v1.955h1.648v.502c0 .519.075 1.022.215 1.498h-1.437a3.665 3.665 0 001.953 1.715c.524.978 1.308 1.764 2.248 2.237h-.96a5.667 5.667 0 01-5.667-5.666v-2.241zm6.411 1.919a1.97 1.97 0 001.589-1.931V7.644a1.967 1.967 0 00-1.967-1.967H7.782a1.967 1.967 0 00-1.967 1.967v12.76c0 .778.452 1.451 1.108 1.77v.699c0 .499.069.983.199 1.443a3.969 3.969 0 01-3.307-3.912V7.644a3.968 3.968 0 013.967-3.967h5.936a3.968 3.968 0 013.967 3.967v12.76a3.97 3.97 0 01-3.201 3.893 3.655 3.655 0 003.073 2.016 3.66 3.66 0 003.462-3.656V19.76a1.127 1.127 0 01-.756-1.065v-3.323c0-.517.348-.953.822-1.086v-3.283c0-.395.321-.717.717-.717h.433c.396 0 .717.322.717.717v3.283c.475.133.823.569.823 1.086v3.323c0 .493-.316.912-.756 1.065v2.897a5.582 5.582 0 01-1.359 3.666h.103a3.666 3.666 0 003.666-3.666V19.76a1.127 1.127 0 01-.756-1.065v-3.323c0-.517.348-.953.823-1.086v-3.283c0-.395.321-.717.717-.717h.433c.396 0 .717.322.717.717v3.283c.474.133.822.569.822 1.086v3.323c0 .493-.316.912-.756 1.065v2.897a5.666 5.666 0 01-5.666 5.666h-4a5.667 5.667 0 01-5.667-5.666v-2.241a1.482 1.482 0 112 0v1.919zm-1-2.493a.518.518 0 110-1.037.518.518 0 010 1.037zm-4.411 0a.518.518 0 110-1.037.518.518 0 010 1.037zm14.09-4.47v3.323a.128.128 0 01-.128.128h-1.256a.128.128 0 01-.128-.128v-3.323c0-.071.057-.128.128-.128h1.256c.07 0 .128.057.128.128zm4.41 0v3.323a.128.128 0 01-.128.128h-1.256a.128.128 0 01-.128-.128v-3.323c0-.071.058-.128.128-.128h1.256c.071 0 .128.057.128.128zm-18.034.477a.75.75 0 00-.75-.75h-.302a.75.75 0 00-.75.75v.302c0 .414.336.75.75.75h.302a.75.75 0 00.75-.75v-.302zm2.667 0a.751.751 0 00-.751-.75h-.301a.75.75 0 00-.75.75v.302c0 .414.336.75.75.75h.301a.751.751 0 00.751-.75v-.302zm2.666 0a.75.75 0 00-.75-.75h-.301a.751.751 0 00-.751.75v.302c0 .414.337.75.751.75h.301a.75.75 0 00.75-.75v-.302zm.058-6.558a2.377 2.377 0 00-2.377-2.376H9.413a2.377 2.377 0 00-2.376 2.376v2.752a2.378 2.378 0 002.376 2.376h2.752a2.378 2.378 0 002.377-2.376V9.291zm-1.446-.052a.83.83 0 00-.83-.83H9.294a.83.83 0 00-.83.83v2.855c0 .458.372.83.83.83h2.972a.83.83 0 00.83-.83V9.239zM42.001 3.873a1.56 1.56 0 00-1.494.863l-4.71 9.968c-.2.405-.185.883.04 1.274 0 0 1.587 2.605 3.11 5.25 1.522 2.644 2.979 5.325 2.979 5.325.228.395.639.649 1.094.678l10.99.869a1.538 1.538 0 001.473-.85l4.738-9.956a1.353 1.353 0 00-.04-1.28s-1.598-2.6-3.127-5.24c-1.53-2.641-2.99-5.32-2.99-5.32a1.34 1.34 0 00-1.075-.667l-10.988-.914zm10.13 3.557l-9.302-.4-4.297 8.256c.527.955 1.563 2.818 2.63 4.662a277.167 277.167 0 002.73 4.597l9.302.44 4.277-8.277a264.188 264.188 0 00-2.614-4.667 255.043 255.043 0 00-2.726-4.611zm-4.203 9.474l-.006-.118c0-.76.618-1.377 1.377-1.377h2.657a1.377 1.377 0 010 2.755h-1.28v1.32h1.28a1.378 1.378 0 010 2.754H49.3l-.141-.008-.137-.02-.133-.034-.02-.008a1.375 1.375 0 01-.947-1.308v-3.837l.006-.12zm-4.102-3.75h-.542a1.378 1.378 0 010-2.753h3.838a1.378 1.378 0 010 2.754h-.542v2.963a1.378 1.378 0 01-2.754 0v-2.963z" fill="#fff"/></svg>