<svg viewBox="0 0 32 32" xmlns="http://www.w3.org/2000/svg" fill-rule="evenodd" clip-rule="evenodd" stroke-linecap="round" stroke-linejoin="round" stroke-miterlimit="5"><path d="M23.471-16C21.733-8.015 16.25-6.031 16-6.031v-9.063a.904.904 0 01.904-.904h6.568zM16-25.166v8.264a.904.904 0 01-.904.904H8.553c-.341-1.543-.545-3.31-.553-5.333 2.052 0 3.975-.653 8-3.835zM-21.999 3.873a1.56 1.56 0 00-1.494.863l-4.71 9.968c-.2.405-.185.883.04 1.274 0 0 1.587 2.605 3.11 5.25 1.522 2.644 2.979 5.325 2.979 5.325.228.395.639.649 1.094.678l10.99.869a1.538 1.538 0 001.473-.85l4.738-9.956a1.353 1.353 0 00-.04-1.28s-1.598-2.6-3.127-5.24c-1.53-2.641-2.99-5.32-2.99-5.32a1.34 1.34 0 00-1.075-.667l-10.988-.914zm10.13 3.557l-9.302-.4-4.297 8.256c.527.955 1.563 2.818 2.63 4.662a277.167 277.167 0 002.73 4.597l9.302.44 4.277-8.277a264.188 264.188 0 00-2.614-4.667 255.043 255.043 0 00-2.726-4.611zm-4.203 9.474l-.006-.118c0-.76.618-1.377 1.377-1.377h2.657a1.377 1.377 0 010 2.755h-1.28v1.32h1.28a1.378 1.378 0 010 2.754H-14.7l-.141-.008-.137-.02-.133-.034-.02-.008a1.375 1.375 0 01-.947-1.308v-3.837l.006-.12zm-4.102-3.75h-.542a1.378 1.378 0 010-2.753h3.838a1.378 1.378 0 010 2.754h-.542v2.963a1.378 1.378 0 01-2.754 0v-2.963zM29.333 8.42a5.99 5.99 0 00-5.987-5.987H8.654a5.99 5.99 0 00-5.987 5.986v14.927a5.99 5.99 0 005.987 5.988h14.692a5.99 5.99 0 005.987-5.988V8.42zm-2.18 0v14.926a3.809 3.809 0 01-3.807 3.808H8.654a3.81 3.81 0 01-3.808-3.808V8.42a3.81 3.81 0 013.808-3.807h14.692a3.809 3.809 0 013.807 3.807z" fill="#fff"/><path d="M9.688 22.194V9.571h9.47a3.154 3.154 0 013.153 3.154v.004a3.154 3.154 0 01-3.154 3.154H9.688" fill="none" stroke="#fff" stroke-width="3.9999258"/><path d="M13.207 15.883h.843a7.02 7.02 0 015.603 2.79l2.658 3.52" fill="none" stroke="#fff" stroke-width="4.0006494"/></svg>