<svg viewBox="0 0 32 32" xmlns="http://www.w3.org/2000/svg" fill-rule="evenodd" clip-rule="evenodd" stroke-linecap="round" stroke-linejoin="round" stroke-miterlimit="1.5"><path d="M59.485 10.232c0-3.183-2.446-5.767-5.46-5.767h-10.92c-3.014 0-5.461 2.584-5.461 5.767v11.536c0 3.183 2.447 5.767 5.461 5.767h10.92c3.014 0 5.46-2.584 5.46-5.767V10.232z" fill="none" stroke="#fff" stroke-width="2.97" transform="rotate(45 25.436 -16.758) scale(.86333 .81734)"/><path d="M44.849 14.354a3.718 3.718 0 013.716-3.716 3.718 3.718 0 013.716 3.716 3.718 3.718 0 01-3.716 3.716c-1.17 0 .445 3.776.445 3.776" fill="none" stroke="#fff" stroke-width="2.73" transform="matrix(.7474 .11886 -.12555 .70758 -18.515 -3.04)"/><path d="M49.627 22.899l-.097-.548" fill="none" stroke="#fff" stroke-width="1.96" transform="matrix(1.04955 -.00858 .00906 .99364 -36.237 -.551)"/></svg>