<svg viewBox="0 0 32 32" xmlns="http://www.w3.org/2000/svg" fill-rule="evenodd" clip-rule="evenodd" stroke-linecap="round" stroke-linejoin="round" stroke-miterlimit="5"><path d="M213.333 163.822c3.778 0 6.845 4.79 6.845 8.568 0 3.778-3.067 10.579-6.845 10.579-2.459 0-6.845-4.421-6.845-10.579 0-3.778 3.067-8.568 6.845-8.568z" fill="none" stroke="#fff" stroke-width="1.86" transform="scale(1.07321 1.07282) rotate(45 296.154 -179.028)"/><path d="M249.876 166.231c0-1.969-1.62-3.564-3.619-3.564h-13.304c-1.999 0-3.62 1.595-3.62 3.564v18.365c0 1.968 1.621 3.564 3.62 3.564h13.304c1.999 0 3.619-1.596 3.619-3.564v-18.365z" fill="none" stroke="#fff" stroke-width="1.55" transform="matrix(.96217 0 0 .977 -214.541 -155.377)"/><circle cx="240" cy="175.874" r="7.373" fill="none" stroke="#fff" stroke-width="2.13" transform="matrix(.9383 0 0 .9383 -209.193 -149.15)"/><circle cx="240" cy="175.874" r="7.373" fill="#fff" transform="matrix(.17499 0 0 .17499 -25.996 -14.901)"/><circle cx="240" cy="175.874" r="7.373" fill="none" stroke="#fff" stroke-width="2.02" transform="translate(-43.391 -27.648) scale(.24746)"/><circle cx="240" cy="175.874" r="7.373" fill="none" stroke="#fff" stroke-width=".55" transform="translate(-70.808 -47.74) scale(.3617)"/><circle cx="240" cy="175.874" r="7.373" fill="none" stroke="#fff" stroke-width=".22" transform="translate(-94.746 -65.281) scale(.46144)"/><circle cx="240" cy="175.874" r="7.373" fill="none" stroke="#fff" stroke-width=".09" transform="matrix(.56099 0 0 .56099 -118.637 -82.789)"/></svg>